999
dxflib 3.26.4.0
  0
SECTION
  2
HEADER
  9
$ACADVER
  1
AC1015
  9
$HANDSEED
  5
FFFF
  9
$DIMADEC
 70
0
  9
$DIMASZ
 40
2.5
  9
$DIMATFIT
 70
0
  9
$DIMAUNIT
 70
0
  9
$DIMAZIN
 70
2
  9
$DIMBLK
  1
0
  9
$DIMBLK1
  1
0
  9
$DIMBLK2
  1
0
  9
$DIMDEC
 70
4
  9
$DIMDLI
 40
5.0
  9
$DIMDSEP
 70
46
  9
$DIMEXE
 40
1.25
  9
$DIMEXO
 40
0.625
  9
$DIMGAP
 40
0.625
  9
$DIMLFAC
 40
0.0
  9
$DIMLUNIT
 70
2
  9
$DIMSCALE
 40
1.0
  9
$DIMTAD
 70
1
  9
$DIMTIH
 70
0
  9
$DIMTSZ
 40
0.0
  9
$DIMTXT
 40
2.5
  9
$DIMZIN
 70
8
  9
$DWGCODEPAGE
  3
ANSI_1252
  9
$INSUNITS
 70
4
  9
$LTSCALE
 40
1.0
  9
$MAXACTVP
 70
64
  9
$MEASUREMENT
 70
1
  9
$MIRRTEXT
 70
0
  9
$PDMODE
 70
0
  9
$PDSIZE
 40
0.0
  0
ENDSEC
  0
SECTION
  2
TABLES
  0
TABLE
  2
VPORT
  5
8
100
AcDbSymbolTable
 70
1
  0
VPORT
  5
30
100
AcDbSymbolTableRecord
100
AcDbViewportTableRecord
  2
*Active
 70
0
 10
0.0
 20
0.0
 11
1.0
 21
1.0
 12
286.3055555555554861
 22
148.5
 13
0.0
 23
0.0
 14
10.0
 24
10.0
 15
10.0
 25
10.0
 16
0.0
 26
0.0
 36
1.0
 17
0.0
 27
0.0
 37
0.0
 40
297.0
 41
1.92798353909465
 42
50.0
 43
0.0
 44
0.0
 50
0.0
 51
0.0
 71
0
 72
100
 73
1
 74
3
 75
1
 76
1
 77
0
 78
0
281
0
 65
1
110
0.0
120
0.0
130
0.0
111
1.0
121
0.0
131
0.0
112
0.0
122
1.0
132
0.0
 79
0
146
0.0
  0
ENDTAB
  0
TABLE
  2
LTYPE
  5
5
100
AcDbSymbolTable
 70
41
  0
LTYPE
  5
16
100
AcDbSymbolTableRecord
100
AcDbLinetypeTableRecord
  2
Continuous
 70
0
  3
Solid line
 72
65
 73
0
 40
0.0
  0
LTYPE
  5
31
100
AcDbSymbolTableRecord
100
AcDbLinetypeTableRecord
  2
PHANTOM
 70
0
  3
Phantom ______  __  __  ______  __  __  ______ 
 72
65
 73
6
 40
63.5000000000000071
 49
31.75
 74
0
 49
-6.3499999999999996
 74
0
 49
6.3499999999999996
 74
0
 49
-6.3499999999999996
 74
0
 49
6.3499999999999996
 74
0
 49
-6.3499999999999996
 74
0
  0
LTYPE
  5
32
100
AcDbSymbolTableRecord
100
AcDbLinetypeTableRecord
  2
ACAD_ISO15W100
 70
0
  3
ISO double-dash triple-dot __ __ . . . __ __ . .
 72
65
 73
10
 40
39.0000000000000071
 49
12.0
 74
0
 49
-3.0
 74
0
 49
12.0
 74
0
 49
-2.9500000000000002
 74
0
 49
0.1
 74
0
 49
-2.9000000000000004
 74
0
 49
0.1
 74
0
 49
-2.9000000000000004
 74
0
 49
0.1
 74
0
 49
-2.9500000000000002
 74
0
  0
LTYPE
  5
33
100
AcDbSymbolTableRecord
100
AcDbLinetypeTableRecord
  2
DASHED
 70
0
  3
Dashed __ __ __ __ __ __ __ __ __ __ __ __ __ _
 72
65
 73
2
 40
19.0499999999999972
 49
12.6999999999999993
 74
0
 49
-6.3499999999999996
 74
0
  0
LTYPE
  5
34
100
AcDbSymbolTableRecord
100
AcDbLinetypeTableRecord
  2
ACAD_ISO07W100
 70
0
  3
ISO dot . . . . . . . . . . . . . . . . . . . . 
 72
65
 73
2
 40
3.0
 49
0.1
 74
0
 49
-2.8999999999999999
 74
0
  0
LTYPE
  5
35
100
AcDbSymbolTableRecord
100
AcDbLinetypeTableRecord
  2
ACAD_ISO10W100
 70
0
  3
ISO dash dot __ . __ . __ . __ . __ . __ . __ . 
 72
65
 73
4
 40
18.0
 49
12.0
 74
0
 49
-2.9500000000000002
 74
0
 49
0.1
 74
0
 49
-2.9500000000000002
 74
0
  0
LTYPE
  5
36
100
AcDbSymbolTableRecord
100
AcDbLinetypeTableRecord
  2
ACAD_ISO05W100
 70
0
  3
ISO long-dash double-dot ____ .. ____ .. ____ . 
 72
65
 73
6
 40
33.0000000000000071
 49
24.0
 74
0
 49
-2.9500000000000002
 74
0
 49
0.1
 74
0
 49
-2.9000000000000004
 74
0
 49
0.1
 74
0
 49
-2.9500000000000002
 74
0
  0
LTYPE
  5
37
100
AcDbSymbolTableRecord
100
AcDbLinetypeTableRecord
  2
HIDDEN2
 70
0
  3
Hidden (.5x) _ _ _ _ _ _ _ _ _ _ _ _ _ _ _ _ _ 
 72
65
 73
2
 40
4.7624999999999993
 49
3.1749999999999998
 74
0
 49
-1.5874999999999999
 74
0
  0
LTYPE
  5
38
100
AcDbSymbolTableRecord
100
AcDbLinetypeTableRecord
  2
DIVIDE
 70
0
  3
Divide ____ . . ____ . . ____ . . ____ . . ____
 72
65
 73
6
 40
31.7500000000000036
 49
12.6999999999999993
 74
0
 49
-6.2999999999999998
 74
0
 49
0.1
 74
0
 49
-6.25
 74
0
 49
0.1
 74
0
 49
-6.2999999999999998
 74
0
  0
LTYPE
  5
39
100
AcDbSymbolTableRecord
100
AcDbLinetypeTableRecord
  2
CENTER2
 70
0
  3
Center (.5x) ___ _ ___ _ ___ _ ___ _ ___ _ ___
 72
65
 73
4
 40
28.5750000000000028
 49
19.0500000000000007
 74
0
 49
-3.1749999999999998
 74
0
 49
3.1749999999999998
 74
0
 49
-3.1749999999999998
 74
0
  0
LTYPE
  5
3A
100
AcDbSymbolTableRecord
100
AcDbLinetypeTableRecord
  2
ACAD_ISO08W100
 70
0
  3
ISO long-dash short-dash ____ __ ____ __ ____ _
 72
65
 73
4
 40
36.0
 49
24.0
 74
0
 49
-3.0
 74
0
 49
6.0
 74
0
 49
-3.0
 74
0
  0
LTYPE
  5
3B
100
AcDbSymbolTableRecord
100
AcDbLinetypeTableRecord
  2
CENTERX2
 70
0
  3
Center (2x) ________  __  ________  __  _____
 72
65
 73
4
 40
101.6000000000000085
 49
63.5
 74
0
 49
-12.6999999999999993
 74
0
 49
12.6999999999999993
 74
0
 49
-12.6999999999999993
 74
0
  0
LTYPE
  5
3C
100
AcDbSymbolTableRecord
100
AcDbLinetypeTableRecord
  2
DIVIDEX2
 70
0
  3
Divide (2x) ________  .  .  ________  .  .  _
 72
65
 73
6
 40
63.5
 49
25.3999999999999986
 74
0
 49
-12.6499999999999986
 74
0
 49
0.1
 74
0
 49
-12.5999999999999979
 74
0
 49
0.1
 74
0
 49
-12.6499999999999986
 74
0
  0
LTYPE
  5
3D
100
AcDbSymbolTableRecord
100
AcDbLinetypeTableRecord
  2
ACAD_ISO12W100
 70
0
  3
ISO dash double-dot __ . . __ . . __ . . __ . . 
 72
65
 73
6
 40
21.0
 49
12.0
 74
0
 49
-2.9500000000000002
 74
0
 49
0.1
 74
0
 49
-2.9000000000000004
 74
0
 49
0.1
 74
0
 49
-2.9500000000000002
 74
0
  0
LTYPE
  5
3E
100
AcDbSymbolTableRecord
100
AcDbLinetypeTableRecord
  2
DIVIDE2
 70
0
  3
Divide (.5x) __..__..__..__..__..__..__..__.._
 72
65
 73
6
 40
15.8749999999999982
 49
6.3499999999999996
 74
0
 49
-3.125
 74
0
 49
0.1
 74
0
 49
-3.0750000000000002
 74
0
 49
0.1
 74
0
 49
-3.125
 74
0
  0
LTYPE
  5
15
100
AcDbSymbolTableRecord
100
AcDbLinetypeTableRecord
  2
BYLAYER
 70
0
  3

 72
65
 73
0
 40
0.0
  0
LTYPE
  5
3F
100
AcDbSymbolTableRecord
100
AcDbLinetypeTableRecord
  2
ACAD_ISO14W100
 70
0
  3
ISO dash triple-dot __ . . . __ . . . __ . . . _
 72
65
 73
8
 40
24.0000000000000036
 49
12.0
 74
0
 49
-2.9500000000000002
 74
0
 49
0.1
 74
0
 49
-2.9000000000000004
 74
0
 49
0.1
 74
0
 49
-2.9000000000000004
 74
0
 49
0.1
 74
0
 49
-2.9500000000000002
 74
0
  0
LTYPE
  5
40
100
AcDbSymbolTableRecord
100
AcDbLinetypeTableRecord
  2
DOT2
 70
0
  3
Dot (.5x) ........................................
 72
65
 73
2
 40
3.1749999999999998
 49
0.1
 74
0
 49
-3.0749999999999997
 74
0
  0
LTYPE
  5
41
100
AcDbSymbolTableRecord
100
AcDbLinetypeTableRecord
  2
BORDER2
 70
0
  3
Border (.5x) __.__.__.__.__.__.__.__.__.__.__.
 72
65
 73
6
 40
22.2250000000000014
 49
6.3499999999999996
 74
0
 49
-3.1749999999999998
 74
0
 49
6.3499999999999996
 74
0
 49
-3.125
 74
0
 49
0.1
 74
0
 49
-3.125
 74
0
  0
LTYPE
  5
42
100
AcDbSymbolTableRecord
100
AcDbLinetypeTableRecord
  2
PHANTOMX2
 70
0
  3
Phantom (2x) ____________    ____    ____   _
 72
65
 73
6
 40
127.0000000000000142
 49
63.5
 74
0
 49
-12.6999999999999993
 74
0
 49
12.6999999999999993
 74
0
 49
-12.6999999999999993
 74
0
 49
12.6999999999999993
 74
0
 49
-12.6999999999999993
 74
0
  0
LTYPE
  5
43
100
AcDbSymbolTableRecord
100
AcDbLinetypeTableRecord
  2
ACAD_ISO13W100
 70
0
  3
ISO double-dash double-dot __ __ . . __ __ . . _
 72
65
 73
8
 40
36.0000000000000071
 49
12.0
 74
0
 49
-3.0
 74
0
 49
12.0
 74
0
 49
-2.9500000000000002
 74
0
 49
0.1
 74
0
 49
-2.9000000000000004
 74
0
 49
0.1
 74
0
 49
-2.9500000000000002
 74
0
  0
LTYPE
  5
44
100
AcDbSymbolTableRecord
100
AcDbLinetypeTableRecord
  2
ACAD_ISO03W100
 70
0
  3
ISO dash space __    __    __    __    __    __
 72
65
 73
2
 40
30.0
 49
12.0
 74
0
 49
-18.0
 74
0
  0
LTYPE
  5
45
100
AcDbSymbolTableRecord
100
AcDbLinetypeTableRecord
  2
DASHDOT2
 70
0
  3
Dash dot (.5x) _._._._._._._._._._._._._._._.
 72
65
 73
4
 40
12.6999999999999993
 49
6.3499999999999996
 74
0
 49
-3.125
 74
0
 49
0.1
 74
0
 49
-3.125
 74
0
  0
LTYPE
  5
46
100
AcDbSymbolTableRecord
100
AcDbLinetypeTableRecord
  2
CENTER
 70
0
  3
Center ____ _ ____ _ ____ _ ____ _ ____ _ ____
 72
65
 73
4
 40
50.8000000000000043
 49
31.75
 74
0
 49
-6.3499999999999996
 74
0
 49
6.3499999999999996
 74
0
 49
-6.3499999999999996
 74
0
  0
LTYPE
  5
47
100
AcDbSymbolTableRecord
100
AcDbLinetypeTableRecord
  2
DASHDOT
 70
0
  3
Dash dot __ . __ . __ . __ . __ . __ . __ . __
 72
65
 73
4
 40
25.4000000000000021
 49
12.6999999999999993
 74
0
 49
-6.2999999999999998
 74
0
 49
0.1
 74
0
 49
-6.2999999999999998
 74
0
  0
LTYPE
  5
48
100
AcDbSymbolTableRecord
100
AcDbLinetypeTableRecord
  2
DASHEDX2
 70
0
  3
Dashed (2x) ____  ____  ____  ____  ____  ___
 72
65
 73
2
 40
38.0999999999999943
 49
25.3999999999999986
 74
0
 49
-12.6999999999999993
 74
0
  0
LTYPE
  5
49
100
AcDbSymbolTableRecord
100
AcDbLinetypeTableRecord
  2
PHANTOM2
 70
0
  3
Phantom (.5x) ___ _ _ ___ _ _ ___ _ _ ___ _ _
 72
65
 73
6
 40
31.7500000000000036
 49
15.875
 74
0
 49
-3.1749999999999998
 74
0
 49
3.1749999999999998
 74
0
 49
-3.1749999999999998
 74
0
 49
3.1749999999999998
 74
0
 49
-3.1749999999999998
 74
0
  0
LTYPE
  5
4A
100
AcDbSymbolTableRecord
100
AcDbLinetypeTableRecord
  2
ACAD_ISO02W100
 70
0
  3
ISO dash __ __ __ __ __ __ __ __ __ __ __ __ __
 72
65
 73
2
 40
15.0
 49
12.0
 74
0
 49
-3.0
 74
0
  0
LTYPE
  5
4B
100
AcDbSymbolTableRecord
100
AcDbLinetypeTableRecord
  2
BORDER
 70
0
  3
Border __ __ . __ __ . __ __ . __ __ . __ __ .
 72
65
 73
6
 40
44.4499999999999957
 49
12.6999999999999993
 74
0
 49
-6.3499999999999996
 74
0
 49
12.6999999999999993
 74
0
 49
-6.2999999999999998
 74
0
 49
0.1
 74
0
 49
-6.2999999999999998
 74
0
  0
LTYPE
  5
4C
100
AcDbSymbolTableRecord
100
AcDbLinetypeTableRecord
  2
DASHED2
 70
0
  3
Dashed (.5x) _ _ _ _ _ _ _ _ _ _ _ _ _ _ _ _ _ 
 72
65
 73
2
 40
9.5249999999999986
 49
6.3499999999999996
 74
0
 49
-3.1749999999999998
 74
0
  0
LTYPE
  5
4D
100
AcDbSymbolTableRecord
100
AcDbLinetypeTableRecord
  2
ACAD_ISO09W100
 70
0
  3
ISO long-dash double-short-dash ____ __ __ ____
 72
65
 73
6
 40
45.0
 49
24.0
 74
0
 49
-3.0
 74
0
 49
6.0
 74
0
 49
-3.0
 74
0
 49
6.0
 74
0
 49
-3.0
 74
0
  0
LTYPE
  5
4E
100
AcDbSymbolTableRecord
100
AcDbLinetypeTableRecord
  2
DASHDOTX2
 70
0
  3
Dash dot (2x) ____  .  ____  .  ____  .  ___
 72
65
 73
4
 40
50.7999999999999972
 49
25.3999999999999986
 74
0
 49
-12.6499999999999986
 74
0
 49
0.1
 74
0
 49
-12.6499999999999986
 74
0
  0
LTYPE
  5
4F
100
AcDbSymbolTableRecord
100
AcDbLinetypeTableRecord
  2
DOTX2
 70
0
  3
Dot (2x) .  .  .  .  .  .  .  .  .  .  .  .  .  .
 72
65
 73
2
 40
12.6999999999999993
 49
0.1
 74
0
 49
-12.5999999999999996
 74
0
  0
LTYPE
  5
50
100
AcDbSymbolTableRecord
100
AcDbLinetypeTableRecord
  2
HIDDENX2
 70
0
  3
Hidden (2x) ____ ____ ____ ____ ____ ____ ____ 
 72
65
 73
2
 40
19.0499999999999972
 49
12.6999999999999993
 74
0
 49
-6.3499999999999996
 74
0
  0
LTYPE
  5
51
100
AcDbSymbolTableRecord
100
AcDbLinetypeTableRecord
  2
ACAD_ISO06W100
 70
0
  3
ISO long-dash triple-dot ____ ... ____ ... ____
 72
65
 73
8
 40
36.0000000000000071
 49
24.0
 74
0
 49
-2.9500000000000002
 74
0
 49
0.1
 74
0
 49
-2.9000000000000004
 74
0
 49
0.1
 74
0
 49
-2.9000000000000004
 74
0
 49
0.1
 74
0
 49
-2.9500000000000002
 74
0
  0
LTYPE
  5
52
100
AcDbSymbolTableRecord
100
AcDbLinetypeTableRecord
  2
BORDERX2
 70
0
  3
Border (2x) ____  ____  .  ____  ____  .  ___
 72
65
 73
6
 40
88.8999999999999773
 49
25.3999999999999986
 74
0
 49
-12.6999999999999993
 74
0
 49
25.3999999999999986
 74
0
 49
-12.6499999999999986
 74
0
 49
0.1
 74
0
 49
-12.6499999999999986
 74
0
  0
LTYPE
  5
14
100
AcDbSymbolTableRecord
100
AcDbLinetypeTableRecord
  2
BYBLOCK
 70
0
  3

 72
65
 73
0
 40
0.0
  0
LTYPE
  5
53
100
AcDbSymbolTableRecord
100
AcDbLinetypeTableRecord
  2
HIDDEN
 70
0
  3
Hidden __ __ __ __ __ __ __ __ __ __ __ __ __ __
 72
65
 73
2
 40
9.5249999999999986
 49
6.3499999999999996
 74
0
 49
-3.1749999999999998
 74
0
  0
LTYPE
  5
54
100
AcDbSymbolTableRecord
100
AcDbLinetypeTableRecord
  2
ACAD_ISO11W100
 70
0
  3
ISO double-dash dot __ __ . __ __ . __ __ . __ _
 72
65
 73
6
 40
33.0
 49
12.0
 74
0
 49
-3.0
 74
0
 49
12.0
 74
0
 49
-2.9500000000000002
 74
0
 49
0.1
 74
0
 49
-2.9500000000000002
 74
0
  0
LTYPE
  5
55
100
AcDbSymbolTableRecord
100
AcDbLinetypeTableRecord
  2
ACAD_ISO04W100
 70
0
  3
ISO long-dash dot ____ . ____ . ____ . ____ . _
 72
65
 73
4
 40
30.0
 49
24.0
 74
0
 49
-2.9500000000000002
 74
0
 49
0.1
 74
0
 49
-2.9500000000000002
 74
0
  0
LTYPE
  5
56
100
AcDbSymbolTableRecord
100
AcDbLinetypeTableRecord
  2
DOT
 70
0
  3
Dot . . . . . . . . . . . . . . . . . . . . . . . .
 72
65
 73
2
 40
6.3499999999999996
 49
0.1
 74
0
 49
-6.25
 74
0
  0
ENDTAB
  0
TABLE
  2
LAYER
  5
2
100
AcDbSymbolTable
 70
8
  0
LAYER
  5
57
100
AcDbSymbolTableRecord
100
AcDbLayerTableRecord
  2
edge.outer
 70
0
 62
7
420
16777215
  6
Continuous
370
25
390
F
  0
LAYER
  5
58
100
AcDbSymbolTableRecord
100
AcDbLayerTableRecord
  2
auxiliary
 70
0
 62
7
420
16777215
  6
ACAD_ISO10W100
370
13
390
F
  0
LAYER
  5
59
100
AcDbSymbolTableRecord
100
AcDbLayerTableRecord
  2
private_pcb
 70
0
 62
134
420
32896
  6
Continuous
370
25
390
F
  0
LAYER
  5
5A
100
AcDbSymbolTableRecord
100
AcDbLayerTableRecord
  2
private_parts
 70
0
 62
54
420
8421376
  6
Continuous
370
25
390
F
  0
LAYER
  5
5B
100
AcDbSymbolTableRecord
100
AcDbLayerTableRecord
  2
dimensions
 70
0
 62
161
420
5614335
  6
Continuous
370
13
390
F
  0
LAYER
  5
5C
100
AcDbSymbolTableRecord
100
AcDbLayerTableRecord
  2
hidden
 70
0
 62
7
420
16777215
  6
ACAD_ISO02W100
370
25
390
F
  0
LAYER
  5
5D
100
AcDbSymbolTableRecord
100
AcDbLayerTableRecord
  2
edge.inner
 70
0
 62
7
420
16777215
  6
Continuous
370
25
390
F
  0
LAYER
  5
10
100
AcDbSymbolTableRecord
100
AcDbLayerTableRecord
  2
0
 70
0
 62
7
420
16777215
  6
Continuous
370
25
390
F
  0
ENDTAB
  0
TABLE
  2
STYLE
  5
3
100
AcDbSymbolTable
 70
1
  0
STYLE
  5
5E
100
AcDbSymbolTableRecord
100
AcDbTextStyleTableRecord
  2
Standard
 70
0
 40
0.0
 41
1.0
 50
0.0
 71
0
 42
2.5
  3

  4

1001
ACAD
1000
txt
1071
0
  0
ENDTAB
  0
TABLE
  2
VIEW
  5
6
100
AcDbSymbolTable
 70
0
  0
ENDTAB
  0
TABLE
  2
UCS
  5
7
100
AcDbSymbolTable
 70
0
  0
ENDTAB
  0
TABLE
  2
APPID
  5
9
100
AcDbSymbolTable
 70
1
  0
APPID
  5
12
100
AcDbSymbolTableRecord
100
AcDbRegAppTableRecord
  2
ACAD
 70
0
  0
APPID
  5
5F
100
AcDbSymbolTableRecord
100
AcDbRegAppTableRecord
  2
QCAD
 70
0
  0
ENDTAB
  0
TABLE
  2
DIMSTYLE
  5
A
100
AcDbSymbolTable
 70
1
100
AcDbDimStyleTable
 71
0
  0
DIMSTYLE
105
27
100
AcDbSymbolTableRecord
100
AcDbDimStyleTableRecord
  2
Standard
 41
2.5
 42
0.625
 43
3.75
 44
1.25
 70
0
 73
0
 74
0
 77
1
 78
8
140
2.5
141
2.5
143
0.03937007874016
147
0.625
171
3
172
1
271
2
272
2
274
3
278
44
283
0
284
8
340
5E
  0
ENDTAB
  0
TABLE
  2
BLOCK_RECORD
  5
1
100
AcDbSymbolTable
 70
1
  0
BLOCK_RECORD
  5
1F
100
AcDbSymbolTableRecord
100
AcDbBlockTableRecord
  2
*Model_Space
340
22
  0
BLOCK_RECORD
  5
1B
100
AcDbSymbolTableRecord
100
AcDbBlockTableRecord
  2
*Paper_Space
340
1E
  0
BLOCK_RECORD
  5
23
100
AcDbSymbolTableRecord
100
AcDbBlockTableRecord
  2
*Paper_Space0
340
26
  0
ENDTAB
  0
ENDSEC
  0
SECTION
  2
BLOCKS
  0
BLOCK
  5
20
100
AcDbEntity
  8
0
100
AcDbBlockBegin
  2
*Model_Space
 70
0
 10
0.0
 20
0.0
 30
0.0
  3
*Model_Space
  1

  0
ENDBLK
  5
21
100
AcDbEntity
  8
0
100
AcDbBlockEnd
  0
BLOCK
  5
1C
100
AcDbEntity
 67
1
  8
0
100
AcDbBlockBegin
  2
*Paper_Space
 70
0
 10
0.0
 20
0.0
 30
0.0
  3
*Paper_Space
  1

  0
ENDBLK
  5
1D
100
AcDbEntity
 67
1
  8
0
100
AcDbBlockEnd
  0
BLOCK
  5
24
100
AcDbEntity
  8
0
100
AcDbBlockBegin
  2
*Paper_Space0
 70
0
 10
0.0
 20
0.0
 30
0.0
  3
*Paper_Space0
  1

  0
ENDBLK
  5
25
100
AcDbEntity
  8
0
100
AcDbBlockEnd
  0
ENDSEC
  0
SECTION
  2
ENTITIES
  0
LINE
  5
60
100
AcDbEntity
  8
auxiliary
 62
256
370
-1
 48
1.0
  6
BYLAYER
100
AcDbLine
 10
12.0
 20
-2.0
 30
0.0
 11
12.0
 21
42.0
 31
0.0
  0
LINE
  5
61
100
AcDbEntity
  8
auxiliary
 62
256
370
-1
 48
1.0
  6
BYLAYER
100
AcDbLine
 10
23.0
 20
42.0
 30
0.0
 11
23.0
 21
-2.0
 31
0.0
  0
LINE
  5
62
100
AcDbEntity
  8
auxiliary
 62
256
370
-1
 48
1.0
  6
BYLAYER
100
AcDbLine
 10
47.0
 20
42.0
 30
0.0
 11
47.0
 21
-2.0
 31
0.0
  0
LINE
  5
63
100
AcDbEntity
  8
auxiliary
 62
256
370
-1
 48
1.0
  6
BYLAYER
100
AcDbLine
 10
61.0
 20
-2.0
 30
0.0
 11
60.9999999999999929
 21
42.0
 31
0.0
  0
LINE
  5
64
100
AcDbEntity
  8
auxiliary
 62
256
370
-1
 48
1.0
  6
BYLAYER
100
AcDbLine
 10
69.0
 20
42.0
 30
0.0
 11
69.0
 21
-2.0
 31
0.0
  0
LINE
  5
65
100
AcDbEntity
  8
auxiliary
 62
256
370
-1
 48
1.0
  6
BYLAYER
100
AcDbLine
 10
79.0
 20
42.0
 30
0.0
 11
79.0
 21
-2.0
 31
0.0
  0
LINE
  5
66
100
AcDbEntity
  8
auxiliary
 62
256
370
-1
 48
1.0
  6
BYLAYER
100
AcDbLine
 10
84.0
 20
42.0
 30
0.0
 11
84.0
 21
-2.0
 31
0.0
  0
LINE
  5
67
100
AcDbEntity
  8
auxiliary
 62
256
370
-1
 48
1.0
  6
BYLAYER
100
AcDbLine
 10
90.0
 20
41.0
 30
0.0
 11
90.0
 21
-2.0
 31
0.0
  0
LINE
  5
68
100
AcDbEntity
  8
auxiliary
 62
256
370
-1
 48
1.0
  6
BYLAYER
100
AcDbLine
 10
101.0
 20
42.0
 30
0.0
 11
101.0
 21
-2.0
 31
0.0
  0
LINE
  5
69
100
AcDbEntity
  8
auxiliary
 62
256
370
-1
 48
1.0
  6
BYLAYER
100
AcDbLine
 10
125.0
 20
42.0
 30
0.0
 11
125.0
 21
-2.0
 31
0.0
  0
LINE
  5
6A
100
AcDbEntity
  8
auxiliary
 62
256
370
-1
 48
1.0
  6
BYLAYER
100
AcDbLine
 10
139.0
 20
42.0
 30
0.0
 11
139.0
 21
-2.0
 31
0.0
  0
LINE
  5
6B
100
AcDbEntity
  8
auxiliary
 62
256
370
-1
 48
1.0
  6
BYLAYER
100
AcDbLine
 10
147.0
 20
42.0
 30
0.0
 11
147.0
 21
-2.0
 31
0.0
  0
LINE
  5
6C
100
AcDbEntity
  8
auxiliary
 62
256
370
-1
 48
1.0
  6
BYLAYER
100
AcDbLine
 10
157.0
 20
42.0
 30
0.0
 11
157.0
 21
-2.0
 31
0.0
  0
LINE
  5
6D
100
AcDbEntity
  8
auxiliary
 62
256
370
-1
 48
1.0
  6
BYLAYER
100
AcDbLine
 10
162.0
 20
42.0
 30
0.0
 11
162.0
 21
-2.0
 31
0.0
  0
LINE
  5
6E
100
AcDbEntity
  8
auxiliary
 62
256
370
-1
 48
1.0
  6
BYLAYER
100
AcDbLine
 10
168.0
 20
-2.0
 30
0.0
 11
168.0
 21
42.0
 31
0.0
  0
LINE
  5
6F
100
AcDbEntity
  8
auxiliary
 62
256
370
-1
 48
1.0
  6
BYLAYER
100
AcDbLine
 10
196.0
 20
42.0
 30
0.0
 11
196.0
 21
-2.0
 31
0.0
  0
LINE
  5
70
100
AcDbEntity
  8
auxiliary
 62
256
370
-1
 48
1.0
  6
BYLAYER
100
AcDbLine
 10
0.0
 20
11.0
 30
0.0
 11
215.0
 21
11.0
 31
0.0
  0
LINE
  5
71
100
AcDbEntity
  8
auxiliary
 62
256
370
-1
 48
1.0
  6
BYLAYER
100
AcDbLine
 10
0.0
 20
20.0
 30
0.0
 11
215.0
 21
20.0
 31
0.0
  0
LINE
  5
72
100
AcDbEntity
  8
auxiliary
 62
256
370
-1
 48
1.0
  6
BYLAYER
100
AcDbLine
 10
0.0
 20
29.0
 30
0.0
 11
215.0
 21
29.0
 31
0.0
  0
CIRCLE
  5
73
100
AcDbEntity
  8
edge.inner
 62
256
370
-1
 48
1.0
  6
BYLAYER
100
AcDbCircle
 10
8.0
 20
33.0
 30
0.0
 40
1.25
  0
CIRCLE
  5
74
100
AcDbEntity
  8
edge.inner
 62
256
370
-1
 48
1.0
  6
BYLAYER
100
AcDbCircle
 10
8.0
 20
7.0
 30
0.0
 40
1.25
  0
CIRCLE
  5
75
100
AcDbEntity
  8
edge.inner
 62
256
370
-1
 48
1.0
  6
BYLAYER
100
AcDbCircle
 10
207.0
 20
33.0
 30
0.0
 40
1.25
  0
CIRCLE
  5
76
100
AcDbEntity
  8
edge.inner
 62
256
370
-1
 48
1.0
  6
BYLAYER
100
AcDbCircle
 10
207.0
 20
7.0
 30
0.0
 40
1.25
  0
CIRCLE
  5
77
100
AcDbEntity
  8
edge.inner
 62
256
370
-1
 48
1.0
  6
BYLAYER
100
AcDbCircle
 10
23.0
 20
14.5
 30
0.0
 40
5.7000000000000002
  0
CIRCLE
  5
78
100
AcDbEntity
  8
edge.outer
 62
256
370
-1
 48
1.0
  6
BYLAYER
100
AcDbCircle
 10
23.0
 20
14.5
 30
0.0
 40
8.0
  0
CIRCLE
  5
79
100
AcDbEntity
  8
edge.outer
 62
256
370
-1
 48
1.0
  6
BYLAYER
100
AcDbCircle
 10
100.9999999999999858
 20
14.5
 30
0.0
 40
8.0
  0
CIRCLE
  5
7A
100
AcDbEntity
  8
edge.inner
 62
256
370
-1
 48
1.0
  6
BYLAYER
100
AcDbCircle
 10
100.9999999999999858
 20
14.5
 30
0.0
 40
5.7000000000000002
  0
CIRCLE
  5
7B
100
AcDbEntity
  8
edge.inner
 62
256
370
-1
 48
1.0
  6
BYLAYER
100
AcDbCircle
 10
47.0
 20
17.5300000000000011
 30
0.0
 40
4.9550000000000001
  0
CIRCLE
  5
7C
100
AcDbEntity
  8
edge.inner
 62
256
370
-1
 48
1.0
  6
BYLAYER
100
AcDbCircle
 10
124.9999999999999858
 20
17.5300000000000011
 30
0.0
 40
4.9550000000000001
  0
CIRCLE
  5
7D
100
AcDbEntity
  8
edge.outer
 62
256
370
-1
 48
1.0
  6
BYLAYER
100
AcDbCircle
 10
54.0
 20
31.0
 30
0.0
 40
1.6000000000000001
  0
CIRCLE
  5
7E
100
AcDbEntity
  8
edge.outer
 62
256
370
-1
 48
1.0
  6
BYLAYER
100
AcDbCircle
 10
132.0
 20
31.0
 30
0.0
 40
1.6000000000000001
  0
CIRCLE
  5
7F
100
AcDbEntity
  8
edge.outer
 62
256
370
-1
 48
1.0
  6
BYLAYER
100
AcDbCircle
 10
50.0
 20
31.0
 30
0.0
 40
1.6000000000000001
  0
CIRCLE
  5
80
100
AcDbEntity
  8
edge.outer
 62
256
370
-1
 48
1.0
  6
BYLAYER
100
AcDbCircle
 10
128.0
 20
31.0
 30
0.0
 40
1.6000000000000001
  0
CIRCLE
  5
81
100
AcDbEntity
  8
edge.outer
 62
256
370
-1
 48
1.0
  6
BYLAYER
100
AcDbCircle
 10
61.0
 20
29.0
 30
0.0
 40
1.6000000000000001
  0
CIRCLE
  5
82
100
AcDbEntity
  8
edge.outer
 62
256
370
-1
 48
1.0
  6
BYLAYER
100
AcDbCircle
 10
79.0
 20
13.0
 30
0.0
 40
1.6000000000000001
  0
CIRCLE
  5
83
100
AcDbEntity
  8
edge.outer
 62
256
370
-1
 48
1.0
  6
BYLAYER
100
AcDbCircle
 10
79.0
 20
9.0
 30
0.0
 40
1.6000000000000001
  0
CIRCLE
  5
84
100
AcDbEntity
  8
edge.outer
 62
256
370
-1
 48
1.0
  6
BYLAYER
100
AcDbCircle
 10
139.0
 20
29.0
 30
0.0
 40
1.6000000000000001
  0
CIRCLE
  5
85
100
AcDbEntity
  8
edge.outer
 62
256
370
-1
 48
1.0
  6
BYLAYER
100
AcDbCircle
 10
157.0
 20
13.0
 30
0.0
 40
1.6000000000000001
  0
CIRCLE
  5
86
100
AcDbEntity
  8
edge.outer
 62
256
370
-1
 48
1.0
  6
BYLAYER
100
AcDbCircle
 10
157.0
 20
9.0
 30
0.0
 40
1.6000000000000001
  0
CIRCLE
  5
87
100
AcDbEntity
  8
edge.outer
 62
256
370
-1
 48
1.0
  6
BYLAYER
100
AcDbCircle
 10
61.0
 20
11.0
 30
0.0
 40
1.6000000000000001
  0
CIRCLE
  5
88
100
AcDbEntity
  8
edge.outer
 62
256
370
-1
 48
1.0
  6
BYLAYER
100
AcDbCircle
 10
139.0
 20
11.0
 30
0.0
 40
1.6000000000000001
  0
CIRCLE
  5
89
100
AcDbEntity
  8
edge.inner
 62
256
370
-1
 48
1.0
  6
BYLAYER
100
AcDbCircle
 10
61.0
 20
34.0
 30
0.0
 40
1.6000000000000001
  0
CIRCLE
  5
8A
100
AcDbEntity
  8
edge.inner
 62
256
370
-1
 48
1.0
  6
BYLAYER
100
AcDbCircle
 10
139.0
 20
34.0
 30
0.0
 40
1.6000000000000001
  0
CIRCLE
  5
8B
100
AcDbEntity
  8
edge.inner
 62
256
370
-1
 48
1.0
  6
BYLAYER
100
AcDbCircle
 10
61.0
 20
6.0
 30
0.0
 40
1.6000000000000001
  0
CIRCLE
  5
8C
100
AcDbEntity
  8
edge.inner
 62
256
370
-1
 48
1.0
  6
BYLAYER
100
AcDbCircle
 10
84.0
 20
20.0
 30
0.0
 40
1.6000000000000001
  0
CIRCLE
  5
8D
100
AcDbEntity
  8
edge.inner
 62
256
370
-1
 48
1.0
  6
BYLAYER
100
AcDbCircle
 10
139.0
 20
6.0
 30
0.0
 40
1.6000000000000001
  0
CIRCLE
  5
8E
100
AcDbEntity
  8
edge.inner
 62
256
370
-1
 48
1.0
  6
BYLAYER
100
AcDbCircle
 10
162.0
 20
20.0
 30
0.0
 40
1.6000000000000001
  0
CIRCLE
  5
8F
100
AcDbEntity
  8
edge.inner
 62
256
370
-1
 48
1.0
  6
BYLAYER
100
AcDbCircle
 10
139.0
 20
20.0
 30
0.0
 40
1.6000000000000001
  0
CIRCLE
  5
90
100
AcDbEntity
  8
edge.inner
 62
256
370
-1
 48
1.0
  6
BYLAYER
100
AcDbCircle
 10
61.0
 20
20.0
 30
0.0
 40
1.6000000000000001
  0
LINE
  5
91
100
AcDbEntity
  8
auxiliary
 62
256
370
-1
 48
1.0
  6
BYLAYER
100
AcDbLine
 10
15.0
 20
14.5
 30
0.0
 11
31.0
 21
14.5
 31
0.0
  0
LINE
  5
92
100
AcDbEntity
  8
auxiliary
 62
256
370
-1
 48
1.0
  6
BYLAYER
100
AcDbLine
 10
39.0
 20
17.5300000000000011
 30
0.0
 11
55.0
 21
17.5300000000000011
 31
0.0
  0
LINE
  5
93
100
AcDbEntity
  8
auxiliary
 62
256
370
-1
 48
1.0
  6
BYLAYER
100
AcDbLine
 10
92.9999999999999858
 20
14.5
 30
0.0
 11
108.9999999999999858
 21
14.5
 31
0.0
  0
LINE
  5
94
100
AcDbEntity
  8
auxiliary
 62
256
370
-1
 48
1.0
  6
BYLAYER
100
AcDbLine
 10
116.9999999999999858
 20
17.5300000000000011
 30
0.0
 11
133.0
 21
17.5300000000000011
 31
0.0
  0
DIMENSION
  5
95
100
AcDbEntity
  8
dimensions
 62
256
370
-1
 48
1.0
  6
BYLAYER
100
AcDbDimension
 10
-3.9374999999999805
 20
0.0000000000000005
 30
0.0
 11
-5.8124999999999778
 21
20.5
 31
0.0
 70
1
 71
8
 72
2
 74
0
 75
0
 41
1.0
 42
0.0
  1

  3
Standard
100
AcDbAlignedDimension
 13
-0.0000000000000037
 23
0.0
 33
0.0
 14
0.0000000000000013
 24
41.0
 34
0.0
1001
ACAD
1000
DSTYLE
1002
{
1070
144
1040
1.0
1070
40
1040
1.0
1002
}
  0
DIMENSION
  5
96
100
AcDbEntity
  8
dimensions
 62
256
370
-1
 48
1.0
  6
BYLAYER
100
AcDbDimension
 10
-0.0000000000000429
 20
-5.9374999999999432
 30
0.0
 11
107.4999999999999432
 21
-4.0624999999995541
 31
0.0
 70
1
 71
8
 72
2
 74
0
 75
0
 41
1.0
 42
0.0
  1

  3
Standard
100
AcDbAlignedDimension
 13
-0.0000000000000431
 23
-1.9999999999999716
 33
0.0
 14
214.9999999999999432
 24
-1.9999999999991935
 34
0.0
1001
ACAD
1000
DSTYLE
1002
{
1070
144
1040
1.0
1070
40
1040
1.0
1002
}
  0
LINE
  5
97
100
AcDbEntity
  8
auxiliary
 62
256
370
-1
 48
1.0
  6
BYLAYER
100
AcDbLine
 10
8.0
 20
-2.0000000000000284
 30
0.0
 11
8.0
 21
41.9999999999999716
 31
0.0
  0
LINE
  5
98
100
AcDbEntity
  8
auxiliary
 62
256
370
-1
 48
1.0
  6
BYLAYER
100
AcDbLine
 10
207.0
 20
-2.0000000000000284
 30
0.0
 11
207.0
 21
41.9999999999999716
 31
0.0
  0
LINE
  5
99
100
AcDbEntity
  8
auxiliary
 62
256
370
-1
 48
1.0
  6
BYLAYER
100
AcDbLine
 10
-0.0000000000000568
 20
33.0
 30
0.0
 11
214.9999999999999432
 21
33.0
 31
0.0
  0
LINE
  5
9A
100
AcDbEntity
  8
auxiliary
 62
256
370
-1
 48
1.0
  6
BYLAYER
100
AcDbLine
 10
-0.0000000000000568
 20
7.0
 30
0.0
 11
214.9999999999999432
 21
7.0
 31
0.0
  0
LINE
  5
9B
100
AcDbEntity
  8
auxiliary
 62
256
370
-1
 48
1.0
  6
BYLAYER
100
AcDbLine
 10
57.0
 20
27.0
 30
0.0
 11
57.0
 21
27.0
 31
0.0
  0
DIMENSION
  5
9C
100
AcDbEntity
  8
dimensions
 62
256
370
-1
 48
1.0
  6
BYLAYER
100
AcDbDimension
 10
-0.0000000000000213
 20
48.0000000000000568
 30
0.0
 11
5.9999999999999902
 21
49.8750000000000284
 31
0.0
 70
1
 71
8
 72
2
 74
0
 75
0
 41
1.0
 42
0.0
  1

  3
Standard
100
AcDbAlignedDimension
 13
-0.0000000000000231
 23
42.0000000000000568
 33
0.0
 14
11.9999999999999982
 24
42.0
 34
0.0
1001
ACAD
1000
DSTYLE
1002
{
1070
144
1040
1.0
1070
40
1040
1.0
1002
}
  0
DIMENSION
  5
9D
100
AcDbEntity
  8
dimensions
 62
256
370
-1
 48
1.0
  6
BYLAYER
100
AcDbDimension
 10
11.9999999999999982
 20
44.0000000000000568
 30
0.0
 11
17.5000000000000142
 21
45.8750000000000711
 31
0.0
 70
1
 71
8
 72
2
 74
0
 75
0
 41
1.0
 42
0.0
  1

  3
Standard
100
AcDbAlignedDimension
 13
11.9999999999999982
 23
42.0
 33
0.0
 14
23.0000000000000284
 24
42.0000000000000284
 34
0.0
1001
ACAD
1000
DSTYLE
1002
{
1070
144
1040
1.0
1070
40
1040
1.0
1002
}
  0
DIMENSION
  5
9E
100
AcDbEntity
  8
dimensions
 62
256
370
-1
 48
1.0
  6
BYLAYER
100
AcDbDimension
 10
23.0000000000000284
 20
44.0
 30
0.0
 11
35.0000000000000071
 21
45.8749999999999787
 31
0.0
 70
1
 71
8
 72
2
 74
0
 75
0
 41
1.0
 42
0.0
  1

  3
Standard
100
AcDbAlignedDimension
 13
23.0000000000000284
 23
42.0000000000000284
 33
0.0
 14
46.9999999999999858
 24
41.9999999999999858
 34
0.0
1001
ACAD
1000
DSTYLE
1002
{
1070
144
1040
1.0
1070
40
1040
1.0
1002
}
  0
DIMENSION
  5
9F
100
AcDbEntity
  8
dimensions
 62
256
370
-1
 48
1.0
  6
BYLAYER
100
AcDbDimension
 10
61.0
 20
44.0000000000000142
 30
0.0
 11
65.0
 21
45.8749999999999929
 31
0.0
 70
1
 71
8
 72
2
 74
0
 75
0
 41
1.0
 42
0.0
  1

  3
Standard
100
AcDbAlignedDimension
 13
61.0
 23
42.0000000000000426
 33
0.0
 14
69.0
 24
42.0
 34
0.0
1001
ACAD
1000
DSTYLE
1002
{
1070
144
1040
1.0
1070
40
1040
1.0
1002
}
  0
DIMENSION
  5
A0
100
AcDbEntity
  8
dimensions
 62
256
370
-1
 48
1.0
  6
BYLAYER
100
AcDbDimension
 10
69.0
 20
44.0000000000000142
 30
0.0
 11
74.0
 21
45.8750000000000568
 31
0.0
 70
1
 71
8
 72
2
 74
0
 75
0
 41
1.0
 42
0.0
  1

  3
Standard
100
AcDbAlignedDimension
 13
69.0
 23
42.0
 33
0.0
 14
78.9999999999999858
 24
42.0000000000000853
 34
0.0
1001
ACAD
1000
DSTYLE
1002
{
1070
144
1040
1.0
1070
40
1040
1.0
1002
}
  0
DIMENSION
  5
A1
100
AcDbEntity
  8
dimensions
 62
256
370
-1
 48
1.0
  6
BYLAYER
100
AcDbDimension
 10
78.9999999999999858
 20
44.0000000000000284
 30
0.0
 11
81.5
 21
45.8749999999999716
 31
0.0
 70
1
 71
8
 72
2
 74
0
 75
0
 41
1.0
 42
0.0
  1

  3
Standard
100
AcDbAlignedDimension
 13
78.9999999999999858
 23
42.0000000000000853
 33
0.0
 14
84.0
 24
41.9999999999999645
 34
0.0
1001
ACAD
1000
DSTYLE
1002
{
1070
144
1040
1.0
1070
40
1040
1.0
1002
}
  0
DIMENSION
  5
A2
100
AcDbEntity
  8
dimensions
 62
256
370
-1
 48
1.0
  6
BYLAYER
100
AcDbDimension
 10
11.9999999999999982
 20
48.0
 30
0.0
 11
51.0
 21
49.8750000000000071
 31
0.0
 70
1
 71
8
 72
2
 74
0
 75
0
 41
1.0
 42
0.0
  1

  3
Standard
100
AcDbAlignedDimension
 13
11.9999999999999982
 23
42.0
 33
0.0
 14
90.0
 24
42.0000000000000142
 34
0.0
1001
ACAD
1000
DSTYLE
1002
{
1070
144
1040
1.0
1070
40
1040
1.0
1002
}
  0
DIMENSION
  5
A3
100
AcDbEntity
  8
dimensions
 62
256
370
-1
 48
1.0
  6
BYLAYER
100
AcDbDimension
 10
90.0
 20
48.0000000000000142
 30
0.0
 11
129.0
 21
49.8750000000000568
 31
0.0
 70
1
 71
8
 72
2
 74
0
 75
0
 41
1.0
 42
0.0
  1

  3
Standard
100
AcDbAlignedDimension
 13
90.0
 23
42.0000000000000142
 33
0.0
 14
168.0
 24
42.0000000000000924
 34
0.0
1001
ACAD
1000
DSTYLE
1002
{
1070
144
1040
1.0
1070
40
1040
1.0
1002
}
  0
DIMENSION
  5
A4
100
AcDbEntity
  8
dimensions
 62
256
370
-1
 48
1.0
  6
BYLAYER
100
AcDbDimension
 10
214.9999999999999716
 20
48.0
 30
0.0
 11
205.5
 21
49.8750000000000071
 31
0.0
 70
1
 71
8
 72
2
 74
0
 75
0
 41
1.0
 42
0.0
  1

  3
Standard
100
AcDbAlignedDimension
 13
214.9999999999999716
 23
41.9999999999998508
 33
0.0
 14
196.0
 24
41.999999999999865
 34
0.0
1001
ACAD
1000
DSTYLE
1002
{
1070
144
1040
1.0
1070
40
1040
1.0
1002
}
  0
DIMENSION
  5
A5
100
AcDbEntity
  8
dimensions
 62
256
370
-1
 48
1.0
  6
BYLAYER
100
AcDbDimension
 10
218.9999999999999432
 20
19.9999999999999361
 30
0.0
 11
217.1249999999999432
 21
24.5000000000002913
 31
0.0
 70
1
 71
8
 72
2
 74
0
 75
0
 41
1.0
 42
0.0
  1

  3
Standard
100
AcDbAlignedDimension
 13
215.0
 23
19.9999999999999467
 33
0.0
 14
215.0000000000000284
 24
29.0000000000006466
 34
0.0
1001
ACAD
1000
DSTYLE
1002
{
1070
144
1040
1.0
1070
40
1040
1.0
1002
}
  0
DIMENSION
  5
A6
100
AcDbEntity
  8
dimensions
 62
256
370
-1
 48
1.0
  6
BYLAYER
100
AcDbDimension
 10
219.0
 20
10.9999999999993445
 30
0.0
 11
217.1250000000000284
 21
15.4999999999996465
 31
0.0
 70
1
 71
8
 72
2
 74
0
 75
0
 41
1.0
 42
0.0
  1

  3
Standard
100
AcDbAlignedDimension
 13
214.9999999999999432
 23
10.9999999999993694
 33
0.0
 14
215.0
 24
19.9999999999999467
 34
0.0
1001
ACAD
1000
DSTYLE
1002
{
1070
144
1040
1.0
1070
40
1040
1.0
1002
}
  0
DIMENSION
  5
A7
100
AcDbEntity
  8
dimensions
 62
256
370
-1
 48
1.0
  6
BYLAYER
100
AcDbDimension
 10
46.9999999999999858
 20
44.0000000000000213
 30
0.0
 11
53.9999999999999858
 21
45.8750000000000284
 31
0.0
 70
1
 71
8
 72
2
 74
0
 75
0
 41
1.0
 42
0.0
  1

  3
Standard
100
AcDbAlignedDimension
 13
46.9999999999999858
 23
41.9999999999999858
 33
0.0
 14
60.9999999999999858
 24
42.0
 34
0.0
1001
ACAD
1000
DSTYLE
1002
{
1070
144
1040
1.0
1070
40
1040
1.0
1002
}
  0
DIMENSION
  5
A8
100
AcDbEntity
  8
dimensions
 62
256
370
-1
 48
1.0
  6
BYLAYER
100
AcDbDimension
 10
207.0
 20
44.0000000000000639
 30
0.0
 11
211.0
 21
45.8749999999999432
 31
0.0
 70
1
 71
8
 72
2
 74
0
 75
0
 41
1.0
 42
0.0
  1

  3
Standard
100
AcDbAlignedDimension
 13
207.0
 23
42.0000000000000995
 33
0.0
 14
214.9999999999999716
 24
41.9999999999998508
 34
0.0
1001
ACAD
1000
DSTYLE
1002
{
1070
144
1040
1.0
1070
40
1040
1.0
1002
}
  0
DIMENSION
  5
A9
100
AcDbEntity
  8
dimensions
 62
256
370
-1
 48
1.0
  6
BYLAYER
100
AcDbDimension
 10
219.0
 20
41.9999999999998579
 30
0.0
 11
217.125
 21
37.4999999999999289
 31
0.0
 70
1
 71
8
 72
2
 74
0
 75
0
 41
1.0
 42
0.0
  1

  3
Standard
100
AcDbAlignedDimension
 13
215.0
 23
41.9999999999998579
 33
0.0
 14
215.0
 24
33.0
 34
0.0
1001
ACAD
1000
DSTYLE
1002
{
1070
144
1040
1.0
1070
40
1040
1.0
1002
}
  0
DIMENSION
  5
AA
100
AcDbEntity
  8
dimensions
 62
256
370
-1
 48
1.0
  6
BYLAYER
100
AcDbDimension
 10
219.0
 20
6.9999999999999991
 30
0.0
 11
217.125
 21
2.500000000000012
 31
0.0
 70
1
 71
8
 72
2
 74
0
 75
0
 41
1.0
 42
0.0
  1

  3
Standard
100
AcDbAlignedDimension
 13
215.0
 23
7.0
 33
0.0
 14
215.0
 24
-1.9999999999999751
 34
0.0
1001
ACAD
1000
DSTYLE
1002
{
1070
144
1040
1.0
1070
40
1040
1.0
1002
}
  0
DIMENSION
  5
AB
100
AcDbEntity
  8
dimensions
 62
256
370
-1
 48
1.0
  6
BYLAYER
100
AcDbDimension
 10
-0.0000000000000225
 20
44.0000000000000568
 30
0.0
 11
3.9999999999999893
 21
45.8750000000000284
 31
0.0
 70
1
 71
8
 72
2
 74
0
 75
0
 41
1.0
 42
0.0
  1

  3
Standard
100
AcDbAlignedDimension
 13
-0.0000000000000231
 23
42.0000000000000568
 33
0.0
 14
8.0
 24
42.0
 34
0.0
1001
ACAD
1000
DSTYLE
1002
{
1070
144
1040
1.0
1070
40
1040
1.0
1002
}
  0
CIRCLE
  5
AC
100
AcDbEntity
  8
edge.outer
 62
256
370
-1
 48
1.0
  6
BYLAYER
100
AcDbCircle
 10
47.0
 20
17.5300000000000011
 30
0.0
 40
3.5
  0
CIRCLE
  5
AD
100
AcDbEntity
  8
edge.outer
 62
256
370
-1
 48
1.0
  6
BYLAYER
100
AcDbCircle
 10
124.9999999999999858
 20
17.5300000000000011
 30
0.0
 40
3.5
  0
CIRCLE
  5
AE
100
AcDbEntity
  8
edge.outer
 62
256
370
-1
 48
1.0
  6
BYLAYER
100
AcDbCircle
 10
23.0
 20
14.5
 30
0.0
 40
5.0
  0
CIRCLE
  5
AF
100
AcDbEntity
  8
edge.outer
 62
256
370
-1
 48
1.0
  6
BYLAYER
100
AcDbCircle
 10
100.9999999999999858
 20
14.5
 30
0.0
 40
5.0
  0
LINE
  5
B0
100
AcDbEntity
  8
private_parts
 62
256
370
-1
 48
1.0
  6
BYLAYER
100
AcDbLine
 10
108.9999999999999858
 20
21.0
 30
0.0
 11
108.9999999999999858
 21
8.0
 31
0.0
  0
CIRCLE
  5
B1
100
AcDbEntity
  8
private_parts
 62
256
370
-1
 48
1.0
  6
BYLAYER
100
AcDbCircle
 10
47.0
 20
17.5300000000000011
 30
0.0
 40
7.75
  0
CIRCLE
  5
B2
100
AcDbEntity
  8
private_parts
 62
256
370
-1
 48
1.0
  6
BYLAYER
100
AcDbCircle
 10
124.9999999999999858
 20
17.5300000000000011
 30
0.0
 40
7.75
  0
LWPOLYLINE
  5
B3
100
AcDbEntity
  8
private_parts
 62
256
370
-1
 48
1.0
  6
BYLAYER
100
AcDbPolyline
 90
6
 70
129
 10
15.4944465005348633
 20
14.5
 10
19.2472232502674387
 20
8.0
 10
26.7527767497325755
 20
8.0
 10
30.5055534994651367
 20
14.5
 10
26.7527767497325755
 20
21.0
 10
19.2472232502674245
 20
21.0
  0
LWPOLYLINE
  5
B4
100
AcDbEntity
  8
private_parts
 62
256
370
-1
 48
1.0
  6
BYLAYER
100
AcDbPolyline
 90
6
 70
129
 10
39.4944465005348633
 20
17.5300000000000011
 10
43.2472232502674387
 20
11.0300000000000011
 10
50.7527767497325755
 20
11.0300000000000011
 10
54.5055534994651367
 20
17.5300000000000011
 10
50.7527767497325755
 20
24.0300000000000011
 10
43.2472232502674245
 20
24.0300000000000011
  0
LWPOLYLINE
  5
B5
100
AcDbEntity
  8
private_parts
 62
256
370
-1
 48
1.0
  6
BYLAYER
100
AcDbPolyline
 90
6
 70
129
 10
93.4944465005348633
 20
14.5
 10
97.2472232502674245
 20
8.0
 10
104.752776749732547
 20
8.0
 10
108.5055534994651083
 20
14.5
 10
104.752776749732547
 20
21.0
 10
97.2472232502674245
 20
21.0
  0
LWPOLYLINE
  5
B6
100
AcDbEntity
  8
private_parts
 62
256
370
-1
 48
1.0
  6
BYLAYER
100
AcDbPolyline
 90
6
 70
129
 10
117.4944465005348633
 20
17.5300000000000011
 10
121.2472232502674245
 20
11.0300000000000011
 10
128.7527767497325613
 20
11.0300000000000011
 10
132.5055534994651225
 20
17.5300000000000011
 10
128.7527767497325613
 20
24.0300000000000011
 10
121.2472232502674245
 20
24.0300000000000011
  0
LWPOLYLINE
  5
B7
100
AcDbEntity
  8
private_parts
 62
256
370
-1
 48
1.0
  6
BYLAYER
100
AcDbPolyline
 90
6
 70
129
 10
93.4944465005348633
 20
14.5
 10
97.2472232502674245
 20
8.0
 10
104.752776749732547
 20
8.0
 10
108.5055534994651083
 20
14.5
 10
104.752776749732547
 20
21.0
 10
97.2472232502674245
 20
21.0
  0
LWPOLYLINE
  5
B8
100
AcDbEntity
  8
edge.inner
 62
256
370
-1
 48
1.0
  6
BYLAYER
100
AcDbPolyline
 90
4
 70
129
 10
0.0
 20
41.0
 10
215.0
 20
41.0
 10
215.0
 20
0.0
 10
0.0
 20
0.0
  0
LWPOLYLINE
  5
B9
100
AcDbEntity
  8
edge.outer
 62
256
370
-1
 48
1.0
  6
BYLAYER
100
AcDbPolyline
 90
4
 70
129
 10
0.0
 20
42.0
 10
215.0
 20
42.0
 10
215.0
 20
-2.0
 10
0.0
 20
-2.0
  0
LWPOLYLINE
  5
BA
100
AcDbEntity
  8
edge.outer
 62
256
370
-1
 48
1.0
  6
BYLAYER
100
AcDbPolyline
 90
9
 70
128
 10
190.5499999999999545
 20
29.5999999999999943
 10
201.4499999999999602
 20
29.5999999999999943
 42
-0.414213562373095
 10
202.4499999999999602
 20
28.5999999999999943
 10
202.4499999999999318
 20
11.4000000000000057
 42
-0.414213562373095
 10
201.4499999999999318
 20
10.4000000000000057
 10
190.5499999999999545
 20
10.4000000000000057
 42
-0.414213562373095
 10
189.5499999999999545
 20
11.4000000000000057
 10
189.5499999999999545
 20
28.5999999999999943
 42
-0.414213562373095
 10
190.5499999999999545
 20
29.5999999999999943
  0
LWPOLYLINE
  5
BB
100
AcDbEntity
  8
edge.outer
 62
256
370
-1
 48
1.0
  6
BYLAYER
100
AcDbPolyline
 90
9
 70
128
 10
65.4000000000000057
 20
32.5999999999999943
 10
72.6000000000000085
 20
32.5999999999999943
 42
-0.414213562373095
 10
74.1000000000000085
 20
31.0999999999999943
 10
74.0999999999999943
 20
26.9000000000000057
 42
-0.4142135623730924
 10
72.6000000000000085
 20
25.4000000000000057
 10
65.3999999999999915
 20
25.4000000000000057
 42
-0.414213562373095
 10
63.8999999999999915
 20
26.8999999999999773
 10
63.9000000000000057
 20
31.0999999999999943
 42
-0.414213562373095
 10
65.4000000000000057
 20
32.5999999999999943
  0
LWPOLYLINE
  5
BC
100
AcDbEntity
  8
edge.outer
 62
256
370
-1
 48
1.0
  6
BYLAYER
100
AcDbPolyline
 90
9
 70
128
 10
65.4000000000000057
 20
14.5999999999999943
 10
72.6000000000000085
 20
14.5999999999999943
 42
-0.414213562373095
 10
74.1000000000000085
 20
13.0999999999999943
 10
74.0999999999999943
 20
8.9000000000000057
 42
-0.4142135623730924
 10
72.6000000000000085
 20
7.4000000000000057
 10
65.3999999999999915
 20
7.4000000000000057
 42
-0.414213562373095
 10
63.8999999999999915
 20
8.8999999999999773
 10
63.9000000000000057
 20
13.0999999999999943
 42
-0.414213562373095
 10
65.4000000000000057
 20
14.5999999999999943
  0
LWPOLYLINE
  5
BD
100
AcDbEntity
  8
edge.outer
 62
256
370
-1
 48
1.0
  6
BYLAYER
100
AcDbPolyline
 90
9
 70
128
 10
143.4000000000000057
 20
32.5999999999999943
 10
150.6000000000000227
 20
32.5999999999999943
 42
-0.414213562373095
 10
152.1000000000000227
 20
31.0999999999999943
 10
152.0999999999999943
 20
26.9000000000000057
 42
-0.4142135623730924
 10
150.6000000000000227
 20
25.4000000000000057
 10
143.3999999999999773
 20
25.4000000000000057
 42
-0.414213562373095
 10
141.8999999999999773
 20
26.8999999999999773
 10
141.9000000000000057
 20
31.0999999999999943
 42
-0.414213562373095
 10
143.4000000000000057
 20
32.5999999999999943
  0
LWPOLYLINE
  5
BE
100
AcDbEntity
  8
edge.outer
 62
256
370
-1
 48
1.0
  6
BYLAYER
100
AcDbPolyline
 90
9
 70
128
 10
143.4000000000000057
 20
14.5999999999999943
 10
150.6000000000000227
 20
14.5999999999999943
 42
-0.414213562373095
 10
152.1000000000000227
 20
13.0999999999999943
 10
152.0999999999999943
 20
8.9000000000000057
 42
-0.4142135623730924
 10
150.6000000000000227
 20
7.4000000000000057
 10
143.3999999999999773
 20
7.4000000000000057
 42
-0.414213562373095
 10
141.8999999999999773
 20
8.8999999999999773
 10
141.9000000000000057
 20
13.0999999999999943
 42
-0.414213562373095
 10
143.4000000000000057
 20
14.5999999999999943
  0
LWPOLYLINE
  5
BF
100
AcDbEntity
  8
private_parts
 62
256
370
-1
 48
1.0
  6
BYLAYER
100
AcDbPolyline
 90
4
 70
129
 10
188.4499999999999886
 20
30.5500000000000114
 10
203.5499999999999829
 20
30.5500000000000114
 10
203.5499999999999829
 20
9.4499999999999886
 10
188.4499999999999886
 20
9.4499999999999886
  0
LWPOLYLINE
  5
C0
100
AcDbEntity
  8
private_parts
 62
256
370
-1
 48
1.0
  6
BYLAYER
100
AcDbPolyline
 90
4
 70
129
 10
15.0
 20
21.0
 10
31.0
 20
21.0
 10
31.0
 20
8.0
 10
15.0
 20
8.0
  0
LWPOLYLINE
  5
C1
100
AcDbEntity
  8
private_parts
 62
256
370
-1
 48
1.0
  6
BYLAYER
100
AcDbPolyline
 90
4
 70
129
 10
39.0
 20
25.4499999999999886
 10
54.9999999999999858
 20
25.4499999999999886
 10
54.9999999999999858
 20
8.0
 10
39.0
 20
8.0
  0
LWPOLYLINE
  5
C2
100
AcDbEntity
  8
private_parts
 62
256
370
-1
 48
1.0
  6
BYLAYER
100
AcDbPolyline
 90
4
 70
129
 10
92.9999999999999858
 20
21.0
 10
108.9999999999999858
 20
21.0
 10
108.9999999999999858
 20
8.0
 10
92.9999999999999858
 20
8.0
  0
LWPOLYLINE
  5
C3
100
AcDbEntity
  8
private_parts
 62
256
370
-1
 48
1.0
  6
BYLAYER
100
AcDbPolyline
 90
4
 70
129
 10
116.9999999999999858
 20
25.4499999999999886
 10
133.0
 20
25.4499999999999886
 10
133.0
 20
8.0
 10
116.9999999999999858
 20
8.0
  0
LWPOLYLINE
  5
C4
100
AcDbEntity
  8
private_parts
 62
256
370
-1
 48
1.0
  6
BYLAYER
100
AcDbPolyline
 90
4
 70
129
 10
81.0799999999999841
 20
15.9000000000000341
 10
86.9200000000000017
 20
15.9000000000000341
 10
86.9200000000000017
 20
6.0999999999999943
 10
81.0799999999999841
 20
6.0999999999999943
  0
LWPOLYLINE
  5
C5
100
AcDbEntity
  8
private_parts
 62
256
370
-1
 48
1.0
  6
BYLAYER
100
AcDbPolyline
 90
4
 70
129
 10
81.5
 20
14.0
 10
86.5
 20
14.0
 10
86.5
 20
8.0
 10
81.5
 20
8.0
  0
LWPOLYLINE
  5
C6
100
AcDbEntity
  8
private_parts
 62
256
370
-1
 48
1.0
  6
BYLAYER
100
AcDbPolyline
 90
4
 70
129
 10
159.0800000000000125
 20
15.9000000000000057
 10
164.9199999999999875
 20
15.9000000000000057
 10
164.9199999999999875
 20
6.0999999999999943
 10
159.0800000000000125
 20
6.0999999999999943
  0
LWPOLYLINE
  5
C7
100
AcDbEntity
  8
private_parts
 62
256
370
-1
 48
1.0
  6
BYLAYER
100
AcDbPolyline
 90
4
 70
129
 10
159.5
 20
14.0
 10
164.5
 20
14.0
 10
164.5
 20
8.0
 10
159.5
 20
8.0
  0
LWPOLYLINE
  5
C8
100
AcDbEntity
  8
private_pcb
 62
256
370
-1
 48
1.0
  6
BYLAYER
100
AcDbPolyline
 90
7
 70
1
 10
47.0
 20
37.0
 10
89.0
 20
37.0
 10
89.0
 20
3.0
 10
56.0
 20
3.0
 10
56.0
 20
26.0
 10
47.0
 20
26.0
 10
47.0
 20
37.0
  0
LWPOLYLINE
  5
C9
100
AcDbEntity
  8
private_pcb
 62
256
370
-1
 48
1.0
  6
BYLAYER
100
AcDbPolyline
 90
7
 70
1
 10
125.0
 20
37.0
 10
167.0
 20
37.0
 10
167.0
 20
3.0
 10
134.0
 20
3.0
 10
134.0
 20
26.0
 10
125.0
 20
26.0
 10
125.0
 20
37.0
  0
CIRCLE
  5
CA
100
AcDbEntity
  8
private_parts
 62
256
370
-1
 48
1.0
  6
BYLAYER
100
AcDbCircle
 10
8.0
 20
33.0
 30
0.0
 40
2.5
  0
CIRCLE
  5
CB
100
AcDbEntity
  8
private_parts
 62
256
370
-1
 48
1.0
  6
BYLAYER
100
AcDbCircle
 10
8.0
 20
7.0
 30
0.0
 40
2.5
  0
CIRCLE
  5
CC
100
AcDbEntity
  8
private_parts
 62
256
370
-1
 48
1.0
  6
BYLAYER
100
AcDbCircle
 10
207.0
 20
33.0
 30
0.0
 40
2.5
  0
CIRCLE
  5
CD
100
AcDbEntity
  8
private_parts
 62
256
370
-1
 48
1.0
  6
BYLAYER
100
AcDbCircle
 10
207.0
 20
7.0
 30
0.0
 40
2.5
  0
LWPOLYLINE
  5
CE
100
AcDbEntity
  8
edge.inner
 62
256
370
-1
 48
1.0
  6
BYLAYER
100
AcDbPolyline
 90
4
 70
129
 10
188.9999999999999432
 20
31.0
 10
202.9999999999999432
 20
31.0
 10
202.9999999999999432
 20
9.0
 10
188.9999999999999432
 20
9.0
  0
LWPOLYLINE
  5
CF
100
AcDbEntity
  8
edge.inner
 62
256
370
-1
 48
1.0
  6
BYLAYER
100
AcDbPolyline
 90
4
 70
129
 10
155.0
 20
15.0
 10
165.0
 20
15.0
 10
165.0
 20
7.0
 10
155.0
 20
7.0
  0
LWPOLYLINE
  5
D0
100
AcDbEntity
  8
edge.inner
 62
256
370
-1
 48
1.0
  6
BYLAYER
100
AcDbPolyline
 90
4
 70
129
 10
77.0
 20
15.0
 10
87.0
 20
15.0
 10
87.0
 20
7.0
 10
77.0
 20
7.0
  0
LWPOLYLINE
  5
D1
100
AcDbEntity
  8
edge.inner
 62
256
370
-1
 48
1.0
  6
BYLAYER
100
AcDbPolyline
 90
4
 70
129
 10
126.0
 20
33.0
 10
134.0
 20
33.0
 10
134.0
 20
29.0
 10
126.0
 20
29.0
  0
LWPOLYLINE
  5
D2
100
AcDbEntity
  8
edge.inner
 62
256
370
-1
 48
1.0
  6
BYLAYER
100
AcDbPolyline
 90
4
 70
129
 10
48.0
 20
33.0
 10
56.0
 20
33.0
 10
56.0
 20
29.0
 10
48.0
 20
29.0
  0
LWPOLYLINE
  5
D3
100
AcDbEntity
  8
edge.inner
 62
256
370
-1
 48
1.0
  6
BYLAYER
100
AcDbPolyline
 90
10
 70
1
 10
59.0
 20
31.0
 10
63.5
 20
31.0
 10
63.4999999999999858
 20
32.9999999999999716
 10
74.4999999999999858
 20
32.9999999999999716
 10
74.4999999999999858
 20
25.0
 10
63.4999999999999858
 20
25.0
 10
63.5
 20
27.0
 10
59.0
 20
27.0
 10
59.0
 20
31.0
 10
59.0
 20
31.0
  0
LWPOLYLINE
  5
D4
100
AcDbEntity
  8
edge.inner
 62
256
370
-1
 48
1.0
  6
BYLAYER
100
AcDbPolyline
 90
10
 70
1
 10
59.0
 20
13.0
 10
63.5
 20
13.0
 10
63.4999999999999858
 20
14.9999999999999716
 10
74.4999999999999858
 20
14.9999999999999716
 10
74.4999999999999858
 20
7.0
 10
63.4999999999999858
 20
7.0
 10
63.5
 20
9.0
 10
59.0
 20
9.0
 10
59.0
 20
13.0
 10
59.0
 20
13.0
  0
LWPOLYLINE
  5
D5
100
AcDbEntity
  8
edge.inner
 62
256
370
-1
 48
1.0
  6
BYLAYER
100
AcDbPolyline
 90
10
 70
1
 10
137.0
 20
31.0
 10
141.5
 20
31.0
 10
141.5
 20
32.9999999999999716
 10
152.5
 20
32.9999999999999716
 10
152.5
 20
25.0
 10
141.5
 20
25.0
 10
141.5
 20
27.0
 10
137.0
 20
27.0
 10
137.0
 20
31.0
 10
137.0
 20
31.0
  0
LWPOLYLINE
  5
D6
100
AcDbEntity
  8
edge.inner
 62
256
370
-1
 48
1.0
  6
BYLAYER
100
AcDbPolyline
 90
10
 70
1
 10
137.0
 20
13.0
 10
141.5
 20
13.0
 10
141.5
 20
14.9999999999999716
 10
152.5
 20
14.9999999999999716
 10
152.5
 20
7.0
 10
141.5
 20
7.0
 10
141.5
 20
9.0
 10
137.0
 20
9.0
 10
137.0
 20
13.0
 10
137.0
 20
13.0
  0
CIRCLE
  5
D7
100
AcDbEntity
  8
edge.outer
 62
256
370
-1
 48
1.0
  6
BYLAYER
100
AcDbCircle
 10
47.0
 20
17.5300000000000011
 30
0.0
 40
7.5
  0
CIRCLE
  5
D8
100
AcDbEntity
  8
edge.outer
 62
256
370
-1
 48
1.0
  6
BYLAYER
100
AcDbCircle
 10
124.9999999999999858
 20
17.5300000000000011
 30
0.0
 40
7.5
  0
LWPOLYLINE
  5
D9
100
AcDbEntity
  8
edge.outer
 62
256
370
-1
 48
1.0
  6
BYLAYER
100
AcDbPolyline
 90
9
 70
128
 10
82.5
 20
14.5999999999999996
 10
85.5
 20
14.5999999999999996
 42
-0.414213562373095
 10
87.0
 20
13.0999999999999996
 10
87.0
 20
8.9000000000000004
 42
-0.414213562373095
 10
85.5
 20
7.4000000000000004
 10
82.5
 20
7.4000000000000004
 42
-0.414213562373095
 10
81.0
 20
8.9000000000000021
 10
81.0
 20
13.0999999999999996
 42
-0.414213562373095
 10
82.5
 20
14.5999999999999996
  0
LWPOLYLINE
  5
DA
100
AcDbEntity
  8
edge.outer
 62
256
370
-1
 48
1.0
  6
BYLAYER
100
AcDbPolyline
 90
9
 70
128
 10
160.5
 20
14.5999999999999996
 10
163.5
 20
14.5999999999999996
 42
-0.414213562373095
 10
165.0
 20
13.0999999999999996
 10
165.0
 20
8.9000000000000004
 42
-0.414213562373095
 10
163.5
 20
7.4000000000000004
 10
160.5
 20
7.4000000000000004
 42
-0.414213562373095
 10
159.0
 20
8.9000000000000021
 10
159.0
 20
13.0999999999999996
 42
-0.414213562373095
 10
160.5
 20
14.5999999999999996
  0
LWPOLYLINE
  5
DB
100
AcDbEntity
  8
private_pcb
 62
256
370
-1
 48
1.0
  6
BYLAYER
100
AcDbPolyline
 90
4
 70
129
 10
13.0
 20
8.0
 10
65.0
 20
8.0
 10
65.0
 20
6.4000000000000004
 10
13.0
 20
6.4000000000000004
  0
LWPOLYLINE
  5
DC
100
AcDbEntity
  8
private_pcb
 62
256
370
-1
 48
1.0
  6
BYLAYER
100
AcDbPolyline
 90
4
 70
129
 10
90.9999999999999858
 20
8.0
 10
143.0
 20
8.0
 10
143.0
 20
6.4000000000000004
 10
90.9999999999999858
 20
6.4000000000000004
  0
DIMENSION
  5
DD
100
AcDbEntity
  8
dimensions
 62
256
370
-1
 48
1.0
  6
BYLAYER
100
AcDbDimension
 10
90.0
 20
44.0
 30
0.0
 11
95.5
 21
45.875
 31
0.0
 70
1
 71
8
 72
2
 74
0
 75
0
 41
1.0
 42
0.0
  1

  3
Standard
100
AcDbAlignedDimension
 13
90.0
 23
42.0000000000000142
 33
0.0
 14
101.0
 24
42.0000000000000213
 34
0.0
1001
ACAD
1000
DSTYLE
1002
{
1070
144
1040
1.0
1070
40
1040
1.0
1002
}
  0
DIMENSION
  5
DE
100
AcDbEntity
  8
dimensions
 62
256
370
-1
 48
1.0
  6
BYLAYER
100
AcDbDimension
 10
101.0
 20
44.0000000000000284
 30
0.0
 11
113.0
 21
45.8750000000000142
 31
0.0
 70
1
 71
8
 72
2
 74
0
 75
0
 41
1.0
 42
0.0
  1

  3
Standard
100
AcDbAlignedDimension
 13
101.0
 23
42.0000000000000213
 33
0.0
 14
125.0
 24
42.0
 34
0.0
1001
ACAD
1000
DSTYLE
1002
{
1070
144
1040
1.0
1070
40
1040
1.0
1002
}
  0
DIMENSION
  5
DF
100
AcDbEntity
  8
dimensions
 62
256
370
-1
 48
1.0
  6
BYLAYER
100
AcDbDimension
 10
125.0
 20
43.9999999999999787
 30
0.0
 11
132.0
 21
45.8749999999999787
 31
0.0
 70
1
 71
8
 72
2
 74
0
 75
0
 41
1.0
 42
0.0
  1

  3
Standard
100
AcDbAlignedDimension
 13
125.0
 23
42.0
 33
0.0
 14
139.0
 24
42.0
 34
0.0
1001
ACAD
1000
DSTYLE
1002
{
1070
144
1040
1.0
1070
40
1040
1.0
1002
}
  0
DIMENSION
  5
E0
100
AcDbEntity
  8
dimensions
 62
256
370
-1
 48
1.0
  6
BYLAYER
100
AcDbDimension
 10
139.0
 20
43.9999999999999574
 30
0.0
 11
143.0
 21
45.8749999999999929
 31
0.0
 70
1
 71
8
 72
2
 74
0
 75
0
 41
1.0
 42
0.0
  1

  3
Standard
100
AcDbAlignedDimension
 13
139.0
 23
41.9999999999999858
 33
0.0
 14
147.0
 24
42.0000000000000568
 34
0.0
1001
ACAD
1000
DSTYLE
1002
{
1070
144
1040
1.0
1070
40
1040
1.0
1002
}
  0
DIMENSION
  5
E1
100
AcDbEntity
  8
dimensions
 62
256
370
-1
 48
1.0
  6
BYLAYER
100
AcDbDimension
 10
147.0
 20
44.0000000000000568
 30
0.0
 11
152.0
 21
45.8749999999999858
 31
0.0
 70
1
 71
8
 72
2
 74
0
 75
0
 41
1.0
 42
0.0
  1

  3
Standard
100
AcDbAlignedDimension
 13
147.0
 23
42.0000000000000568
 33
0.0
 14
157.0
 24
41.9999999999999147
 34
0.0
1001
ACAD
1000
DSTYLE
1002
{
1070
144
1040
1.0
1070
40
1040
1.0
1002
}
  0
DIMENSION
  5
E2
100
AcDbEntity
  8
dimensions
 62
256
370
-1
 48
1.0
  6
BYLAYER
100
AcDbDimension
 10
157.0
 20
43.9999999999999147
 30
0.0
 11
159.5
 21
45.8749999999999005
 31
0.0
 70
1
 71
8
 72
2
 74
0
 75
0
 41
1.0
 42
0.0
  1

  3
Standard
100
AcDbAlignedDimension
 13
157.0
 23
41.9999999999999147
 33
0.0
 14
162.0
 24
41.9999999999998792
 34
0.0
1001
ACAD
1000
DSTYLE
1002
{
1070
144
1040
1.0
1070
40
1040
1.0
1002
}
  0
CIRCLE
  5
E3
100
AcDbEntity
  8
edge.outer
 62
256
370
-1
 48
1.0
  6
BYLAYER
100
AcDbCircle
 10
8.0
 20
33.0
 30
0.0
 40
1.5999999999999996
  0
CIRCLE
  5
E4
100
AcDbEntity
  8
edge.outer
 62
256
370
-1
 48
1.0
  6
BYLAYER
100
AcDbCircle
 10
8.0
 20
7.0
 30
0.0
 40
1.5999999999999996
  0
CIRCLE
  5
E5
100
AcDbEntity
  8
edge.outer
 62
256
370
-1
 48
1.0
  6
BYLAYER
100
AcDbCircle
 10
207.0
 20
33.0
 30
0.0
 40
1.5999999999999943
  0
CIRCLE
  5
E6
100
AcDbEntity
  8
edge.outer
 62
256
370
-1
 48
1.0
  6
BYLAYER
100
AcDbCircle
 10
207.0
 20
7.0
 30
0.0
 40
1.5999999999999943
  0
LINE
  5
E7
100
AcDbEntity
  8
hidden
 62
256
370
-1
 48
1.0
  6
BYLAYER
100
AcDbLine
 10
1.1999999999999995
 20
1.2
 30
0.0
 11
213.8000000000000682
 21
1.2
 31
0.0
  0
LINE
  5
E8
100
AcDbEntity
  8
hidden
 62
256
370
-1
 48
1.0
  6
BYLAYER
100
AcDbLine
 10
1.1999999999999995
 20
38.5999999999999943
 30
0.0
 11
213.8000000000000114
 21
38.6000000000000014
 31
0.0
  0
LINE
  5
E9
100
AcDbEntity
  8
hidden
 62
256
370
-1
 48
1.0
  6
BYLAYER
100
AcDbLine
 10
2.3999999999999995
 20
39.7999999999999901
 30
0.0
 11
2.3999999999999999
 21
0.0
 31
0.0
  0
LINE
  5
EA
100
AcDbEntity
  8
hidden
 62
256
370
-1
 48
1.0
  6
BYLAYER
100
AcDbLine
 10
212.6000000000000227
 20
39.7999999999999972
 30
0.0
 11
212.5999999999999943
 21
0.0
 31
0.0
  0
LINE
  5
EB
100
AcDbEntity
  8
edge.inner
 62
256
370
-1
 48
1.0
  6
BYLAYER
100
AcDbLine
 10
1.1999999999999997
 20
-0.0
 30
0.0
 11
1.1999999999999997
 21
39.7999999999999901
 31
0.0
  0
LINE
  5
EC
100
AcDbEntity
  8
edge.inner
 62
256
370
-1
 48
1.0
  6
BYLAYER
100
AcDbLine
 10
213.8000000000000398
 20
-0.0
 30
0.0
 11
213.7999999999999829
 21
39.7999999999999901
 31
0.0
  0
LINE
  5
ED
100
AcDbEntity
  8
edge.inner
 62
256
370
-1
 48
1.0
  6
BYLAYER
100
AcDbLine
 10
1.2
 20
39.7999999999999972
 30
0.0
 11
213.8000000000000114
 21
39.7999999999999972
 31
0.0
  0
DIMENSION
  5
EE
100
AcDbEntity
  8
dimensions
 62
256
370
-1
 48
1.0
  6
BYLAYER
100
AcDbDimension
 10
219.0
 20
7.0
 30
0.0
 11
217.125
 21
9.0
 31
0.0
 70
1
 71
8
 72
2
 74
0
 75
0
 41
1.0
 42
0.0
  1

  3
Standard
100
AcDbAlignedDimension
 13
215.0
 23
7.0
 33
0.0
 14
215.0
 24
11.0
 34
0.0
1001
ACAD
1000
DSTYLE
1002
{
1070
144
1040
1.0
1070
40
1040
1.0
1002
}
  0
DIMENSION
  5
EF
100
AcDbEntity
  8
dimensions
 62
256
370
-1
 48
1.0
  6
BYLAYER
100
AcDbDimension
 10
219.0
 20
29.0
 30
0.0
 11
217.125
 21
31.0
 31
0.0
 70
1
 71
8
 72
2
 74
0
 75
0
 41
1.0
 42
0.0
  1

  3
Standard
100
AcDbAlignedDimension
 13
215.0
 23
29.0
 33
0.0
 14
215.0
 24
33.0
 34
0.0
1001
ACAD
1000
DSTYLE
1002
{
1070
144
1040
1.0
1070
40
1040
1.0
1002
}
  0
LWPOLYLINE
  5
F0
100
AcDbEntity
  8
edge.outer
 62
256
370
-1
 48
1.0
  6
BYLAYER
100
AcDbPolyline
 90
9
 70
128
 10
84.0
 20
14.0999999999999996
 10
84.0
 20
14.0999999999999996
 42
-0.414213562373095
 10
85.5
 20
12.5999999999999996
 10
85.5
 20
9.4000000000000004
 42
-0.414213562373095
 10
84.0
 20
7.9000000000000004
 10
84.0
 20
7.9000000000000004
 42
-0.414213562373095
 10
82.5
 20
9.4000000000000004
 10
82.5
 20
12.5999999999999996
 42
-0.414213562373095
 10
84.0
 20
14.0999999999999996
  0
LWPOLYLINE
  5
F1
100
AcDbEntity
  8
edge.outer
 62
256
370
-1
 48
1.0
  6
BYLAYER
100
AcDbPolyline
 90
9
 70
128
 10
162.0
 20
14.0999999999999996
 10
162.0
 20
14.0999999999999996
 42
-0.414213562373095
 10
163.5
 20
12.5999999999999996
 10
163.5
 20
9.4000000000000004
 42
-0.414213562373095
 10
162.0
 20
7.9000000000000004
 10
162.0
 20
7.9000000000000004
 42
-0.414213562373095
 10
160.5
 20
9.4000000000000004
 10
160.5
 20
12.5999999999999996
 42
-0.414213562373095
 10
162.0
 20
14.0999999999999996
  0
DIMENSION
  5
F2
100
AcDbEntity
  8
dimensions
 62
256
370
-1
 48
1.0
  6
BYLAYER
100
AcDbDimension
 10
14.0
 20
14.5000000000000018
 30
0.0
 11
12.125
 21
7.2500000000000018
 31
0.0
 70
1
 71
8
 72
2
 74
0
 75
0
 41
1.0
 42
0.0
  1

  3
Standard
100
AcDbAlignedDimension
 13
23.0
 23
14.5
 33
0.0
 14
23.0
 24
-0.0
 34
0.0
1001
ACAD
1000
DSTYLE
1002
{
1070
144
1040
1.0
1070
40
1040
1.0
1002
}
  0
DIMENSION
  5
F3
100
AcDbEntity
  8
dimensions
 62
256
370
-1
 48
1.0
  6
BYLAYER
100
AcDbDimension
 10
38.0
 20
17.5300000000000011
 30
0.0
 11
36.125
 21
8.7650000000000006
 31
0.0
 70
1
 71
8
 72
2
 74
0
 75
0
 41
1.0
 42
0.0
  1

  3
Standard
100
AcDbAlignedDimension
 13
47.0
 23
17.5300000000000011
 33
0.0
 14
47.0
 24
-0.0
 34
0.0
1001
ACAD
1000
DSTYLE
1002
{
1070
144
1040
1.0
1070
40
1040
1.0
1002
}
  0
ENDSEC
  0
SECTION
  2
OBJECTS
  0
DICTIONARY
  5
C
100
AcDbDictionary
280
0
281
1
  3
ACAD_GROUP
350
D
  3
ACAD_LAYOUT
350
1A
  3
ACAD_MLINESTYLE
350
17
  3
ACAD_PLOTSETTINGS
350
19
  3
ACAD_PLOTSTYLENAME
350
E
  3
AcDbVariableDictionary
350
F4
  3
QCAD_OBJECTS
350
F5
  0
DICTIONARY
  5
D
100
AcDbDictionary
280
0
281
1
  0
ACDBDICTIONARYWDFLT
  5
E
100
AcDbDictionary
281
1
  3
Normal
350
F
100
AcDbDictionaryWithDefault
340
F
  0
ACDBPLACEHOLDER
  5
F
  0
DICTIONARY
  5
17
100
AcDbDictionary
280
0
281
1
  3
Standard
350
18
  0
MLINESTYLE
  5
18
100
AcDbMlineStyle
  2
STANDARD
 70
0
  3

 62
256
 51
90.0
 52
90.0
 71
2
 49
0.5
 62
256
  6
BYLAYER
 49
-0.5
 62
256
  6
BYLAYER
  0
DICTIONARY
  5
19
100
AcDbDictionary
280
0
281
1
  0
DICTIONARY
  5
1A
100
AcDbDictionary
281
1
  3
Layout1
350
1E
  3
Layout2
350
26
  3
Model
350
22
  0
LAYOUT
  5
1E
100
AcDbPlotSettings
  1

  2
none_device
  4

  6

 40
0.0
 41
0.0
 42
0.0
 43
0.0
 44
0.0
 45
0.0
 46
0.0
 47
0.0
 48
0.0
 49
0.0
140
0.0
141
0.0
142
1.0
143
1.0
 70
688
 72
0
 73
0
 74
5
  7

 75
16
147
1.0
148
0.0
149
0.0
100
AcDbLayout
  1
Layout1
 70
1
 71
1
 10
0.0
 20
0.0
 11
420.0
 21
297.0
 12
0.0
 22
0.0
 32
0.0
 14
100000000000000000000.0
 24
100000000000000000000.0
 34
100000000000000000000.0
 15
-100000000000000000000.0
 25
-100000000000000000000.0
 35
-100000000000000000000.0
146
0.0
 13
0.0
 23
0.0
 33
0.0
 16
1.0
 26
0.0
 36
0.0
 17
0.0
 27
1.0
 37
0.0
 76
0
330
1B
  0
LAYOUT
  5
22
100
AcDbPlotSettings
  1

  2
none_device
  4

  6

 40
0.0
 41
0.0
 42
0.0
 43
0.0
 44
0.0
 45
0.0
 46
0.0
 47
0.0
 48
0.0
 49
0.0
140
0.0
141
0.0
142
1.0
143
1.0
 70
1712
 72
0
 73
0
 74
0
  7

 75
0
147
1.0
148
0.0
149
0.0
100
AcDbLayout
  1
Model
 70
1
 71
0
 10
0.0
 20
0.0
 11
12.0
 21
9.0
 12
0.0
 22
0.0
 32
0.0
 14
0.0
 24
0.0
 34
0.0
 15
0.0
 25
0.0
 35
0.0
146
0.0
 13
0.0
 23
0.0
 33
0.0
 16
1.0
 26
0.0
 36
0.0
 17
0.0
 27
1.0
 37
0.0
 76
0
330
1F
  0
LAYOUT
  5
26
100
AcDbPlotSettings
  1

  2
none_device
  4

  6

 40
0.0
 41
0.0
 42
0.0
 43
0.0
 44
0.0
 45
0.0
 46
0.0
 47
0.0
 48
0.0
 49
0.0
140
0.0
141
0.0
142
1.0
143
1.0
 70
688
 72
0
 73
0
 74
5
  7

 75
16
147
1.0
148
0.0
149
0.0
100
AcDbLayout
  1
Layout2
 70
1
 71
2
 10
0.0
 20
0.0
 11
12.0
 21
9.0
 12
0.0
 22
0.0
 32
0.0
 14
0.0
 24
0.0
 34
0.0
 15
0.0
 25
0.0
 35
0.0
146
0.0
 13
0.0
 23
0.0
 33
0.0
 16
1.0
 26
0.0
 36
0.0
 17
0.0
 27
1.0
 37
0.0
 76
0
330
23
  0
DICTIONARY
  5
F4
100
AcDbDictionary
281
1
  3
DIMASSOC
350
F7
  3
HIDETEXT
350
F6
  0
DICTIONARYVAR
  5
F6
100
DictionaryVariables
280
0
  1
2
  0
DICTIONARYVAR
  5
F7
100
DictionaryVariables
280
0
  1
1
  0
DICTIONARY
  5
F5
100
AcDbDictionary
281
1
  3
ColorSettings/BackgroundColor
350
F8
  3
ColorSettings/ColorMode
350
F9
  3
DimensionSettings/AngularFormat
350
FA
  3
DimensionSettings/AngularPrecision
350
FB
  3
DimensionSettings/DecimalPoint
350
FC
  3
DimensionSettings/DimensionFont
350
FD
  3
DimensionSettings/DimensionTextColor
350
FE
  3
DimensionSettings/KeepProportions
350
FF
  3
DimensionSettings/LinearFormat
350
100
  3
DimensionSettings/LinearPrecision
350
101
  3
Grid/DisplayGrid00
350
102
  3
Grid/DisplayGrid01
350
103
  3
Grid/DisplayGrid02
350
104
  3
Grid/DisplayGrid03
350
105
  3
Grid/GridSpacingX00
350
106
  3
Grid/GridSpacingX01
350
107
  3
Grid/GridSpacingX02
350
108
  3
Grid/GridSpacingX03
350
109
  3
Grid/GridSpacingY00
350
10A
  3
Grid/GridSpacingY01
350
10B
  3
Grid/GridSpacingY02
350
10C
  3
Grid/GridSpacingY03
350
10D
  3
Grid/IsometricGrid00
350
10E
  3
Grid/IsometricGrid01
350
10F
  3
Grid/IsometricGrid02
350
110
  3
Grid/IsometricGrid03
350
111
  3
Grid/IsometricProjection00
350
112
  3
Grid/IsometricProjection01
350
113
  3
Grid/IsometricProjection02
350
114
  3
Grid/IsometricProjection03
350
115
  3
Grid/MetaGridSpacingX00
350
116
  3
Grid/MetaGridSpacingX01
350
117
  3
Grid/MetaGridSpacingX02
350
118
  3
Grid/MetaGridSpacingX03
350
119
  3
Grid/MetaGridSpacingY00
350
11A
  3
Grid/MetaGridSpacingY01
350
11B
  3
Grid/MetaGridSpacingY02
350
11C
  3
Grid/MetaGridSpacingY03
350
11D
  3
LinetypeSettings/PSLTSCALE
350
11E
  3
MultiPageSettings/Columns
350
11F
  3
MultiPageSettings/GlueMarginsBottom
350
120
  3
MultiPageSettings/GlueMarginsLeft
350
121
  3
MultiPageSettings/GlueMarginsRight
350
122
  3
MultiPageSettings/GlueMarginsTop
350
123
  3
MultiPageSettings/PrintCropMarks
350
124
  3
MultiPageSettings/Rows
350
125
  3
PageSettings/OffsetX
350
126
  3
PageSettings/OffsetY
350
127
  3
PageSettings/PageOrientation
350
128
  3
PageSettings/PaperHeight
350
129
  3
PageSettings/PaperSizeName
350
12A
  3
PageSettings/PaperWidth
350
12B
  3
PageSettings/PointSize
350
12C
  3
PageSettings/Scale
350
12D
  3
PageSettings/ShowPaperBorders
350
12E
  3
PageTagSettings/EnablePageTags
350
12F
  3
PageTagSettings/TagAlignment
350
130
  3
PageTagSettings/TagFont
350
131
  3
PageTagSettings/TagPosition
350
132
  3
QCADVersion
350
133
  3
UnitSettings/PaperUnit
350
134
  3
Viewport/ViewportList.data
350
135
  3
ViewportCenter
350
136
  3
ViewportHeight
350
137
  3
ViewportWidth
350
138
  0
XRECORD
  5
F8
330
F5
100
AcDbXrecord
280
1
1000
\U+767d
  0
XRECORD
  5
F9
330
F5
100
AcDbXrecord
280
1
1000
FullColor
  0
XRECORD
  5
FA
330
F5
100
AcDbXrecord
280
1
 90
0
  0
XRECORD
  5
FB
330
F5
100
AcDbXrecord
280
1
 90
0
  0
XRECORD
  5
FC
330
F5
100
AcDbXrecord
280
1
 90
46
  0
XRECORD
  5
FD
330
F5
100
AcDbXrecord
280
1
1000
MS UI Gothic
  0
XRECORD
  5
FE
330
F5
100
AcDbXrecord
280
1
1000
\U+753b\U+5c64\U+306b\U+3088\U+308b
  0
XRECORD
  5
FF
330
F5
100
AcDbXrecord
280
1
290
1
  0
XRECORD
  5
100
330
F5
100
AcDbXrecord
280
1
 90
2
  0
XRECORD
  5
101
330
F5
100
AcDbXrecord
280
1
 90
4
  0
XRECORD
  5
102
330
F5
100
AcDbXrecord
280
1
290
1
  0
XRECORD
  5
103
330
F5
100
AcDbXrecord
280
1
290
1
  0
XRECORD
  5
104
330
F5
100
AcDbXrecord
280
1
290
1
  0
XRECORD
  5
105
330
F5
100
AcDbXrecord
280
1
290
1
  0
XRECORD
  5
106
330
F5
100
AcDbXrecord
280
1
1000
\U+81ea\U+52d5
  0
XRECORD
  5
107
330
F5
100
AcDbXrecord
280
1
1000
auto
  0
XRECORD
  5
108
330
F5
100
AcDbXrecord
280
1
1000
auto
  0
XRECORD
  5
109
330
F5
100
AcDbXrecord
280
1
1000
auto
  0
XRECORD
  5
10A
330
F5
100
AcDbXrecord
280
1
1000
\U+81ea\U+52d5
  0
XRECORD
  5
10B
330
F5
100
AcDbXrecord
280
1
1000
auto
  0
XRECORD
  5
10C
330
F5
100
AcDbXrecord
280
1
1000
auto
  0
XRECORD
  5
10D
330
F5
100
AcDbXrecord
280
1
1000
auto
  0
XRECORD
  5
10E
330
F5
100
AcDbXrecord
280
1
290
0
  0
XRECORD
  5
10F
330
F5
100
AcDbXrecord
280
1
290
0
  0
XRECORD
  5
110
330
F5
100
AcDbXrecord
280
1
290
0
  0
XRECORD
  5
111
330
F5
100
AcDbXrecord
280
1
290
0
  0
XRECORD
  5
112
330
F5
100
AcDbXrecord
280
1
 90
65537
  0
XRECORD
  5
113
330
F5
100
AcDbXrecord
280
1
 90
65537
  0
XRECORD
  5
114
330
F5
100
AcDbXrecord
280
1
 90
65537
  0
XRECORD
  5
115
330
F5
100
AcDbXrecord
280
1
 90
65537
  0
XRECORD
  5
116
330
F5
100
AcDbXrecord
280
1
1000
\U+81ea\U+52d5
  0
XRECORD
  5
117
330
F5
100
AcDbXrecord
280
1
1000
auto
  0
XRECORD
  5
118
330
F5
100
AcDbXrecord
280
1
1000
auto
  0
XRECORD
  5
119
330
F5
100
AcDbXrecord
280
1
1000
auto
  0
XRECORD
  5
11A
330
F5
100
AcDbXrecord
280
1
1000
\U+81ea\U+52d5
  0
XRECORD
  5
11B
330
F5
100
AcDbXrecord
280
1
1000
auto
  0
XRECORD
  5
11C
330
F5
100
AcDbXrecord
280
1
1000
auto
  0
XRECORD
  5
11D
330
F5
100
AcDbXrecord
280
1
1000
auto
  0
XRECORD
  5
11E
330
F5
100
AcDbXrecord
280
1
290
0
  0
XRECORD
  5
11F
330
F5
100
AcDbXrecord
280
1
 90
1
  0
XRECORD
  5
120
330
F5
100
AcDbXrecord
280
1
 40
10.0
  0
XRECORD
  5
121
330
F5
100
AcDbXrecord
280
1
 40
10.0
  0
XRECORD
  5
122
330
F5
100
AcDbXrecord
280
1
 40
10.0
  0
XRECORD
  5
123
330
F5
100
AcDbXrecord
280
1
 40
10.0
  0
XRECORD
  5
124
330
F5
100
AcDbXrecord
280
1
290
0
  0
XRECORD
  5
125
330
F5
100
AcDbXrecord
280
1
 90
1
  0
XRECORD
  5
126
330
F5
100
AcDbXrecord
280
1
 40
0.0
  0
XRECORD
  5
127
330
F5
100
AcDbXrecord
280
1
 40
0.0
  0
XRECORD
  5
128
330
F5
100
AcDbXrecord
280
1
1000
Landscape
  0
XRECORD
  5
129
330
F5
100
AcDbXrecord
280
1
 40
297.0
  0
XRECORD
  5
12A
330
F5
100
AcDbXrecord
280
1
1000
ISO A4
  0
XRECORD
  5
12B
330
F5
100
AcDbXrecord
280
1
 40
210.0
  0
XRECORD
  5
12C
330
F5
100
AcDbXrecord
280
1
1000
0.5
  0
XRECORD
  5
12D
330
F5
100
AcDbXrecord
280
1
1000
1:1
  0
XRECORD
  5
12E
330
F5
100
AcDbXrecord
280
1
290
1
  0
XRECORD
  5
12F
330
F5
100
AcDbXrecord
280
1
290
0
  0
XRECORD
  5
130
330
F5
100
AcDbXrecord
280
1
1000
Inside
  0
XRECORD
  5
131
330
F5
100
AcDbXrecord
280
1
1000
Arial,10,-1,5,50,0,0,0,0,0
  0
XRECORD
  5
132
330
F5
100
AcDbXrecord
280
1
1000
TopLeft
  0
XRECORD
  5
133
330
F5
100
AcDbXrecord
280
1
1000
3.27.1
  0
XRECORD
  5
134
330
F5
100
AcDbXrecord
280
1
 90
4
  0
XRECORD
  5
135
330
F5
100
AcDbXrecord
280
1
1000
00_Single.ui
  0
XRECORD
  5
137
330
F5
100
AcDbXrecord
280
1
 40
106.9269578313253248
  0
XRECORD
  5
138
330
F5
100
AcDbXrecord
280
1
 40
233.793674698795229
  0
ENDSEC
  0
EOF
