999
dxflib 3.26.4.0
  0
SECTION
  2
HEADER
  9
$ACADVER
  1
AC1015
  9
$HANDSEED
  5
FFFF
  9
$DIMADEC
 70
0
  9
$DIMASZ
 40
2.5
  9
$DIMATFIT
 70
0
  9
$DIMAUNIT
 70
0
  9
$DIMAZIN
 70
2
  9
$DIMBLK
  1
0
  9
$DIMBLK1
  1
0
  9
$DIMBLK2
  1
0
  9
$DIMDEC
 70
4
  9
$DIMDLI
 40
5.0
  9
$DIMDSEP
 70
46
  9
$DIMEXE
 40
1.25
  9
$DIMEXO
 40
0.625
  9
$DIMGAP
 40
0.625
  9
$DIMLFAC
 40
0.0
  9
$DIMLUNIT
 70
2
  9
$DIMSCALE
 40
1.0
  9
$DIMTAD
 70
1
  9
$DIMTIH
 70
0
  9
$DIMTSZ
 40
0.0
  9
$DIMTXT
 40
2.5
  9
$DIMZIN
 70
8
  9
$DWGCODEPAGE
  3
ANSI_1252
  9
$INSUNITS
 70
4
  9
$LTSCALE
 40
1.0
  9
$MAXACTVP
 70
64
  9
$MEASUREMENT
 70
1
  9
$MIRRTEXT
 70
0
  9
$PDMODE
 70
0
  9
$PDSIZE
 40
0.0
  0
ENDSEC
  0
SECTION
  2
TABLES
  0
TABLE
  2
VPORT
  5
8
100
AcDbSymbolTable
 70
1
  0
VPORT
  5
30
100
AcDbSymbolTableRecord
100
AcDbViewportTableRecord
  2
*Active
 70
0
 10
0.0
 20
0.0
 11
1.0
 21
1.0
 12
286.3055555555554861
 22
148.5
 13
0.0
 23
0.0
 14
10.0
 24
10.0
 15
10.0
 25
10.0
 16
0.0
 26
0.0
 36
1.0
 17
0.0
 27
0.0
 37
0.0
 40
297.0
 41
1.92798353909465
 42
50.0
 43
0.0
 44
0.0
 50
0.0
 51
0.0
 71
0
 72
100
 73
1
 74
3
 75
1
 76
1
 77
0
 78
0
281
0
 65
1
110
0.0
120
0.0
130
0.0
111
1.0
121
0.0
131
0.0
112
0.0
122
1.0
132
0.0
 79
0
146
0.0
  0
ENDTAB
  0
TABLE
  2
LTYPE
  5
5
100
AcDbSymbolTable
 70
41
  0
LTYPE
  5
16
100
AcDbSymbolTableRecord
100
AcDbLinetypeTableRecord
  2
Continuous
 70
0
  3
Solid line
 72
65
 73
0
 40
0.0
  0
LTYPE
  5
31
100
AcDbSymbolTableRecord
100
AcDbLinetypeTableRecord
  2
DIVIDE
 70
0
  3
Divide ____ . . ____ . . ____ . . ____ . . ____
 72
65
 73
6
 40
31.7500000000000036
 49
12.6999999999999993
 74
0
 49
-6.2999999999999998
 74
0
 49
0.1
 74
0
 49
-6.25
 74
0
 49
0.1
 74
0
 49
-6.2999999999999998
 74
0
  0
LTYPE
  5
32
100
AcDbSymbolTableRecord
100
AcDbLinetypeTableRecord
  2
DOT2
 70
0
  3
Dot (.5x) ........................................
 72
65
 73
2
 40
3.1749999999999998
 49
0.1
 74
0
 49
-3.0749999999999997
 74
0
  0
LTYPE
  5
33
100
AcDbSymbolTableRecord
100
AcDbLinetypeTableRecord
  2
DOT
 70
0
  3
Dot . . . . . . . . . . . . . . . . . . . . . . . .
 72
65
 73
2
 40
6.3499999999999996
 49
0.1
 74
0
 49
-6.25
 74
0
  0
LTYPE
  5
34
100
AcDbSymbolTableRecord
100
AcDbLinetypeTableRecord
  2
CENTER2
 70
0
  3
Center (.5x) ___ _ ___ _ ___ _ ___ _ ___ _ ___
 72
65
 73
4
 40
28.5750000000000028
 49
19.0500000000000007
 74
0
 49
-3.1749999999999998
 74
0
 49
3.1749999999999998
 74
0
 49
-3.1749999999999998
 74
0
  0
LTYPE
  5
35
100
AcDbSymbolTableRecord
100
AcDbLinetypeTableRecord
  2
ACAD_ISO09W100
 70
0
  3
ISO long-dash double-short-dash ____ __ __ ____
 72
65
 73
6
 40
45.0
 49
24.0
 74
0
 49
-3.0
 74
0
 49
6.0
 74
0
 49
-3.0
 74
0
 49
6.0
 74
0
 49
-3.0
 74
0
  0
LTYPE
  5
36
100
AcDbSymbolTableRecord
100
AcDbLinetypeTableRecord
  2
ACAD_ISO04W100
 70
0
  3
ISO long-dash dot ____ . ____ . ____ . ____ . _
 72
65
 73
4
 40
30.0
 49
24.0
 74
0
 49
-2.9500000000000002
 74
0
 49
0.1
 74
0
 49
-2.9500000000000002
 74
0
  0
LTYPE
  5
37
100
AcDbSymbolTableRecord
100
AcDbLinetypeTableRecord
  2
PHANTOM
 70
0
  3
Phantom ______  __  __  ______  __  __  ______ 
 72
65
 73
6
 40
63.5000000000000071
 49
31.75
 74
0
 49
-6.3499999999999996
 74
0
 49
6.3499999999999996
 74
0
 49
-6.3499999999999996
 74
0
 49
6.3499999999999996
 74
0
 49
-6.3499999999999996
 74
0
  0
LTYPE
  5
38
100
AcDbSymbolTableRecord
100
AcDbLinetypeTableRecord
  2
HIDDEN
 70
0
  3
Hidden __ __ __ __ __ __ __ __ __ __ __ __ __ __
 72
65
 73
2
 40
9.5249999999999986
 49
6.3499999999999996
 74
0
 49
-3.1749999999999998
 74
0
  0
LTYPE
  5
39
100
AcDbSymbolTableRecord
100
AcDbLinetypeTableRecord
  2
CENTER
 70
0
  3
Center ____ _ ____ _ ____ _ ____ _ ____ _ ____
 72
65
 73
4
 40
50.8000000000000043
 49
31.75
 74
0
 49
-6.3499999999999996
 74
0
 49
6.3499999999999996
 74
0
 49
-6.3499999999999996
 74
0
  0
LTYPE
  5
3A
100
AcDbSymbolTableRecord
100
AcDbLinetypeTableRecord
  2
DIVIDE2
 70
0
  3
Divide (.5x) __..__..__..__..__..__..__..__.._
 72
65
 73
6
 40
15.8749999999999982
 49
6.3499999999999996
 74
0
 49
-3.125
 74
0
 49
0.1
 74
0
 49
-3.0750000000000002
 74
0
 49
0.1
 74
0
 49
-3.125
 74
0
  0
LTYPE
  5
3B
100
AcDbSymbolTableRecord
100
AcDbLinetypeTableRecord
  2
ACAD_ISO08W100
 70
0
  3
ISO long-dash short-dash ____ __ ____ __ ____ _
 72
65
 73
4
 40
36.0
 49
24.0
 74
0
 49
-3.0
 74
0
 49
6.0
 74
0
 49
-3.0
 74
0
  0
LTYPE
  5
3C
100
AcDbSymbolTableRecord
100
AcDbLinetypeTableRecord
  2
DASHDOTX2
 70
0
  3
Dash dot (2x) ____  .  ____  .  ____  .  ___
 72
65
 73
4
 40
50.7999999999999972
 49
25.3999999999999986
 74
0
 49
-12.6499999999999986
 74
0
 49
0.1
 74
0
 49
-12.6499999999999986
 74
0
  0
LTYPE
  5
3D
100
AcDbSymbolTableRecord
100
AcDbLinetypeTableRecord
  2
DASHEDX2
 70
0
  3
Dashed (2x) ____  ____  ____  ____  ____  ___
 72
65
 73
2
 40
38.0999999999999943
 49
25.3999999999999986
 74
0
 49
-12.6999999999999993
 74
0
  0
LTYPE
  5
3E
100
AcDbSymbolTableRecord
100
AcDbLinetypeTableRecord
  2
PHANTOM2
 70
0
  3
Phantom (.5x) ___ _ _ ___ _ _ ___ _ _ ___ _ _
 72
65
 73
6
 40
31.7500000000000036
 49
15.875
 74
0
 49
-3.1749999999999998
 74
0
 49
3.1749999999999998
 74
0
 49
-3.1749999999999998
 74
0
 49
3.1749999999999998
 74
0
 49
-3.1749999999999998
 74
0
  0
LTYPE
  5
3F
100
AcDbSymbolTableRecord
100
AcDbLinetypeTableRecord
  2
ACAD_ISO14W100
 70
0
  3
ISO dash triple-dot __ . . . __ . . . __ . . . _
 72
65
 73
8
 40
24.0000000000000036
 49
12.0
 74
0
 49
-2.9500000000000002
 74
0
 49
0.1
 74
0
 49
-2.9000000000000004
 74
0
 49
0.1
 74
0
 49
-2.9000000000000004
 74
0
 49
0.1
 74
0
 49
-2.9500000000000002
 74
0
  0
LTYPE
  5
40
100
AcDbSymbolTableRecord
100
AcDbLinetypeTableRecord
  2
HIDDEN2
 70
0
  3
Hidden (.5x) _ _ _ _ _ _ _ _ _ _ _ _ _ _ _ _ _ 
 72
65
 73
2
 40
4.7624999999999993
 49
3.1749999999999998
 74
0
 49
-1.5874999999999999
 74
0
  0
LTYPE
  5
41
100
AcDbSymbolTableRecord
100
AcDbLinetypeTableRecord
  2
ACAD_ISO06W100
 70
0
  3
ISO long-dash triple-dot ____ ... ____ ... ____
 72
65
 73
8
 40
36.0000000000000071
 49
24.0
 74
0
 49
-2.9500000000000002
 74
0
 49
0.1
 74
0
 49
-2.9000000000000004
 74
0
 49
0.1
 74
0
 49
-2.9000000000000004
 74
0
 49
0.1
 74
0
 49
-2.9500000000000002
 74
0
  0
LTYPE
  5
42
100
AcDbSymbolTableRecord
100
AcDbLinetypeTableRecord
  2
BORDER
 70
0
  3
Border __ __ . __ __ . __ __ . __ __ . __ __ .
 72
65
 73
6
 40
44.4499999999999957
 49
12.6999999999999993
 74
0
 49
-6.3499999999999996
 74
0
 49
12.6999999999999993
 74
0
 49
-6.2999999999999998
 74
0
 49
0.1
 74
0
 49
-6.2999999999999998
 74
0
  0
LTYPE
  5
43
100
AcDbSymbolTableRecord
100
AcDbLinetypeTableRecord
  2
ACAD_ISO02W100
 70
0
  3
ISO dash __ __ __ __ __ __ __ __ __ __ __ __ __
 72
65
 73
2
 40
15.0
 49
12.0
 74
0
 49
-3.0
 74
0
  0
LTYPE
  5
44
100
AcDbSymbolTableRecord
100
AcDbLinetypeTableRecord
  2
ACAD_ISO10W100
 70
0
  3
ISO dash dot __ . __ . __ . __ . __ . __ . __ . 
 72
65
 73
4
 40
18.0
 49
12.0
 74
0
 49
-2.9500000000000002
 74
0
 49
0.1
 74
0
 49
-2.9500000000000002
 74
0
  0
LTYPE
  5
45
100
AcDbSymbolTableRecord
100
AcDbLinetypeTableRecord
  2
ACAD_ISO15W100
 70
0
  3
ISO double-dash triple-dot __ __ . . . __ __ . .
 72
65
 73
10
 40
39.0000000000000071
 49
12.0
 74
0
 49
-3.0
 74
0
 49
12.0
 74
0
 49
-2.9500000000000002
 74
0
 49
0.1
 74
0
 49
-2.9000000000000004
 74
0
 49
0.1
 74
0
 49
-2.9000000000000004
 74
0
 49
0.1
 74
0
 49
-2.9500000000000002
 74
0
  0
LTYPE
  5
46
100
AcDbSymbolTableRecord
100
AcDbLinetypeTableRecord
  2
PHANTOMX2
 70
0
  3
Phantom (2x) ____________    ____    ____   _
 72
65
 73
6
 40
127.0000000000000142
 49
63.5
 74
0
 49
-12.6999999999999993
 74
0
 49
12.6999999999999993
 74
0
 49
-12.6999999999999993
 74
0
 49
12.6999999999999993
 74
0
 49
-12.6999999999999993
 74
0
  0
LTYPE
  5
47
100
AcDbSymbolTableRecord
100
AcDbLinetypeTableRecord
  2
ACAD_ISO05W100
 70
0
  3
ISO long-dash double-dot ____ .. ____ .. ____ . 
 72
65
 73
6
 40
33.0000000000000071
 49
24.0
 74
0
 49
-2.9500000000000002
 74
0
 49
0.1
 74
0
 49
-2.9000000000000004
 74
0
 49
0.1
 74
0
 49
-2.9500000000000002
 74
0
  0
LTYPE
  5
48
100
AcDbSymbolTableRecord
100
AcDbLinetypeTableRecord
  2
ACAD_ISO11W100
 70
0
  3
ISO double-dash dot __ __ . __ __ . __ __ . __ _
 72
65
 73
6
 40
33.0
 49
12.0
 74
0
 49
-3.0
 74
0
 49
12.0
 74
0
 49
-2.9500000000000002
 74
0
 49
0.1
 74
0
 49
-2.9500000000000002
 74
0
  0
LTYPE
  5
49
100
AcDbSymbolTableRecord
100
AcDbLinetypeTableRecord
  2
DIVIDEX2
 70
0
  3
Divide (2x) ________  .  .  ________  .  .  _
 72
65
 73
6
 40
63.5
 49
25.3999999999999986
 74
0
 49
-12.6499999999999986
 74
0
 49
0.1
 74
0
 49
-12.5999999999999979
 74
0
 49
0.1
 74
0
 49
-12.6499999999999986
 74
0
  0
LTYPE
  5
4A
100
AcDbSymbolTableRecord
100
AcDbLinetypeTableRecord
  2
ACAD_ISO03W100
 70
0
  3
ISO dash space __    __    __    __    __    __
 72
65
 73
2
 40
30.0
 49
12.0
 74
0
 49
-18.0
 74
0
  0
LTYPE
  5
4B
100
AcDbSymbolTableRecord
100
AcDbLinetypeTableRecord
  2
DASHED2
 70
0
  3
Dashed (.5x) _ _ _ _ _ _ _ _ _ _ _ _ _ _ _ _ _ 
 72
65
 73
2
 40
9.5249999999999986
 49
6.3499999999999996
 74
0
 49
-3.1749999999999998
 74
0
  0
LTYPE
  5
4C
100
AcDbSymbolTableRecord
100
AcDbLinetypeTableRecord
  2
DASHDOT
 70
0
  3
Dash dot __ . __ . __ . __ . __ . __ . __ . __
 72
65
 73
4
 40
25.4000000000000021
 49
12.6999999999999993
 74
0
 49
-6.2999999999999998
 74
0
 49
0.1
 74
0
 49
-6.2999999999999998
 74
0
  0
LTYPE
  5
4D
100
AcDbSymbolTableRecord
100
AcDbLinetypeTableRecord
  2
DASHED
 70
0
  3
Dashed __ __ __ __ __ __ __ __ __ __ __ __ __ _
 72
65
 73
2
 40
19.0499999999999972
 49
12.6999999999999993
 74
0
 49
-6.3499999999999996
 74
0
  0
LTYPE
  5
14
100
AcDbSymbolTableRecord
100
AcDbLinetypeTableRecord
  2
BYBLOCK
 70
0
  3

 72
65
 73
0
 40
0.0
  0
LTYPE
  5
4E
100
AcDbSymbolTableRecord
100
AcDbLinetypeTableRecord
  2
ACAD_ISO12W100
 70
0
  3
ISO dash double-dot __ . . __ . . __ . . __ . . 
 72
65
 73
6
 40
21.0
 49
12.0
 74
0
 49
-2.9500000000000002
 74
0
 49
0.1
 74
0
 49
-2.9000000000000004
 74
0
 49
0.1
 74
0
 49
-2.9500000000000002
 74
0
  0
LTYPE
  5
4F
100
AcDbSymbolTableRecord
100
AcDbLinetypeTableRecord
  2
ACAD_ISO13W100
 70
0
  3
ISO double-dash double-dot __ __ . . __ __ . . _
 72
65
 73
8
 40
36.0000000000000071
 49
12.0
 74
0
 49
-3.0
 74
0
 49
12.0
 74
0
 49
-2.9500000000000002
 74
0
 49
0.1
 74
0
 49
-2.9000000000000004
 74
0
 49
0.1
 74
0
 49
-2.9500000000000002
 74
0
  0
LTYPE
  5
50
100
AcDbSymbolTableRecord
100
AcDbLinetypeTableRecord
  2
HIDDENX2
 70
0
  3
Hidden (2x) ____ ____ ____ ____ ____ ____ ____ 
 72
65
 73
2
 40
19.0499999999999972
 49
12.6999999999999993
 74
0
 49
-6.3499999999999996
 74
0
  0
LTYPE
  5
51
100
AcDbSymbolTableRecord
100
AcDbLinetypeTableRecord
  2
DOTX2
 70
0
  3
Dot (2x) .  .  .  .  .  .  .  .  .  .  .  .  .  .
 72
65
 73
2
 40
12.6999999999999993
 49
0.1
 74
0
 49
-12.5999999999999996
 74
0
  0
LTYPE
  5
52
100
AcDbSymbolTableRecord
100
AcDbLinetypeTableRecord
  2
CENTERX2
 70
0
  3
Center (2x) ________  __  ________  __  _____
 72
65
 73
4
 40
101.6000000000000085
 49
63.5
 74
0
 49
-12.6999999999999993
 74
0
 49
12.6999999999999993
 74
0
 49
-12.6999999999999993
 74
0
  0
LTYPE
  5
53
100
AcDbSymbolTableRecord
100
AcDbLinetypeTableRecord
  2
BORDER2
 70
0
  3
Border (.5x) __.__.__.__.__.__.__.__.__.__.__.
 72
65
 73
6
 40
22.2250000000000014
 49
6.3499999999999996
 74
0
 49
-3.1749999999999998
 74
0
 49
6.3499999999999996
 74
0
 49
-3.125
 74
0
 49
0.1
 74
0
 49
-3.125
 74
0
  0
LTYPE
  5
54
100
AcDbSymbolTableRecord
100
AcDbLinetypeTableRecord
  2
ACAD_ISO07W100
 70
0
  3
ISO dot . . . . . . . . . . . . . . . . . . . . 
 72
65
 73
2
 40
3.0
 49
0.1
 74
0
 49
-2.8999999999999999
 74
0
  0
LTYPE
  5
55
100
AcDbSymbolTableRecord
100
AcDbLinetypeTableRecord
  2
DASHDOT2
 70
0
  3
Dash dot (.5x) _._._._._._._._._._._._._._._.
 72
65
 73
4
 40
12.6999999999999993
 49
6.3499999999999996
 74
0
 49
-3.125
 74
0
 49
0.1
 74
0
 49
-3.125
 74
0
  0
LTYPE
  5
56
100
AcDbSymbolTableRecord
100
AcDbLinetypeTableRecord
  2
BORDERX2
 70
0
  3
Border (2x) ____  ____  .  ____  ____  .  ___
 72
65
 73
6
 40
88.8999999999999773
 49
25.3999999999999986
 74
0
 49
-12.6999999999999993
 74
0
 49
25.3999999999999986
 74
0
 49
-12.6499999999999986
 74
0
 49
0.1
 74
0
 49
-12.6499999999999986
 74
0
  0
LTYPE
  5
15
100
AcDbSymbolTableRecord
100
AcDbLinetypeTableRecord
  2
BYLAYER
 70
0
  3

 72
65
 73
0
 40
0.0
  0
ENDTAB
  0
TABLE
  2
LAYER
  5
2
100
AcDbSymbolTable
 70
9
  0
LAYER
  5
57
100
AcDbSymbolTableRecord
100
AcDbLayerTableRecord
  2
private_pcb
 70
0
 62
134
420
32896
  6
Continuous
370
25
390
F
  0
LAYER
  5
58
100
AcDbSymbolTableRecord
100
AcDbLayerTableRecord
  2
private_parts
 70
0
 62
54
420
8421376
  6
Continuous
370
25
390
F
  0
LAYER
  5
59
100
AcDbSymbolTableRecord
100
AcDbLayerTableRecord
  2
chassis
 70
0
 62
250
420
6250337
  6
Continuous
370
25
390
F
  0
LAYER
  5
10
100
AcDbSymbolTableRecord
100
AcDbLayerTableRecord
  2
0
 70
0
 62
7
420
0
  6
Continuous
370
25
390
F
  0
LAYER
  5
5A
100
AcDbSymbolTableRecord
100
AcDbLayerTableRecord
  2
edge.outer
 70
0
 62
7
420
16777215
  6
Continuous
370
25
390
F
  0
LAYER
  5
5B
100
AcDbSymbolTableRecord
100
AcDbLayerTableRecord
  2
dimensions
 70
0
 62
161
420
5614335
  6
Continuous
370
13
390
F
  0
LAYER
  5
5C
100
AcDbSymbolTableRecord
100
AcDbLayerTableRecord
  2
auxiliary
 70
0
 62
7
420
0
  6
ACAD_ISO10W100
370
13
390
F
  0
LAYER
  5
5D
100
AcDbSymbolTableRecord
100
AcDbLayerTableRecord
  2
spacer
 70
0
 62
14
420
8388608
  6
Continuous
370
25
390
F
  0
LAYER
  5
5E
100
AcDbSymbolTableRecord
100
AcDbLayerTableRecord
  2
edge.inner
 70
0
 62
7
420
16777215
  6
Continuous
370
25
390
F
  0
ENDTAB
  0
TABLE
  2
STYLE
  5
3
100
AcDbSymbolTable
 70
12
  0
STYLE
  5
5F
100
AcDbSymbolTableRecord
100
AcDbTextStyleTableRecord
  2
Standard
 70
0
 40
0.0
 41
1.0
 50
0.0
 71
0
 42
2.5
  3

  4

1001
ACAD
1000
txt
1071
0
  0
STYLE
  5
60
100
AcDbSymbolTableRecord
100
AcDbTextStyleTableRecord
  2
textstyle0
 70
0
 40
0.0
 41
1.0
 50
0.0
 71
0
 42
3.0
  3

  4

1001
ACAD
1000
BIZ UDP\U+30b4\U+30b7\U+30c3\U+30af
1071
0
  0
STYLE
  5
61
100
AcDbSymbolTableRecord
100
AcDbTextStyleTableRecord
  2
textstyle1
 70
0
 40
0.0
 41
1.0
 50
0.0
 71
0
 42
3.0
  3

  4

1001
ACAD
1000
BIZ UDP\U+30b4\U+30b7\U+30c3\U+30af
1071
0
  0
STYLE
  5
62
100
AcDbSymbolTableRecord
100
AcDbTextStyleTableRecord
  2
textstyle2
 70
0
 40
0.0
 41
1.0
 50
0.0
 71
0
 42
3.0
  3

  4

1001
ACAD
1000
BIZ UDP\U+30b4\U+30b7\U+30c3\U+30af
1071
0
  0
STYLE
  5
63
100
AcDbSymbolTableRecord
100
AcDbTextStyleTableRecord
  2
textstyle3
 70
0
 40
0.0
 41
1.0
 50
0.0
 71
0
 42
3.0
  3

  4

1001
ACAD
1000
BIZ UDP\U+30b4\U+30b7\U+30c3\U+30af
1071
0
  0
STYLE
  5
64
100
AcDbSymbolTableRecord
100
AcDbTextStyleTableRecord
  2
textstyle4
 70
0
 40
0.0
 41
1.0
 50
0.0
 71
0
 42
3.0
  3

  4

1001
ACAD
1000
BIZ UDP\U+30b4\U+30b7\U+30c3\U+30af
1071
0
  0
STYLE
  5
65
100
AcDbSymbolTableRecord
100
AcDbTextStyleTableRecord
  2
textstyle5
 70
0
 40
0.0
 41
1.0
 50
0.0
 71
0
 42
3.0
  3

  4

1001
ACAD
1000
BIZ UDP\U+30b4\U+30b7\U+30c3\U+30af
1071
0
  0
STYLE
  5
66
100
AcDbSymbolTableRecord
100
AcDbTextStyleTableRecord
  2
textstyle6
 70
0
 40
0.0
 41
1.0
 50
0.0
 71
0
 42
3.0
  3

  4

1001
ACAD
1000
BIZ UDP\U+30b4\U+30b7\U+30c3\U+30af
1071
0
  0
STYLE
  5
67
100
AcDbSymbolTableRecord
100
AcDbTextStyleTableRecord
  2
textstyle7
 70
0
 40
0.0
 41
1.0
 50
0.0
 71
0
 42
3.0
  3

  4

1001
ACAD
1000
BIZ UDP\U+30b4\U+30b7\U+30c3\U+30af
1071
0
  0
STYLE
  5
68
100
AcDbSymbolTableRecord
100
AcDbTextStyleTableRecord
  2
textstyle8
 70
0
 40
0.0
 41
1.0
 50
0.0
 71
0
 42
3.0
  3

  4

1001
ACAD
1000
BIZ UDP\U+30b4\U+30b7\U+30c3\U+30af
1071
0
  0
STYLE
  5
69
100
AcDbSymbolTableRecord
100
AcDbTextStyleTableRecord
  2
textstyle9
 70
0
 40
0.0
 41
1.0
 50
0.0
 71
0
 42
3.0
  3

  4

1001
ACAD
1000
BIZ UDP\U+30b4\U+30b7\U+30c3\U+30af
1071
0
  0
STYLE
  5
6A
100
AcDbSymbolTableRecord
100
AcDbTextStyleTableRecord
  2
textstyle10
 70
0
 40
0.0
 41
1.0
 50
0.0
 71
0
 42
3.0
  3

  4

1001
ACAD
1000
BIZ UDP\U+30b4\U+30b7\U+30c3\U+30af
1071
0
  0
ENDTAB
  0
TABLE
  2
VIEW
  5
6
100
AcDbSymbolTable
 70
0
  0
ENDTAB
  0
TABLE
  2
UCS
  5
7
100
AcDbSymbolTable
 70
0
  0
ENDTAB
  0
TABLE
  2
APPID
  5
9
100
AcDbSymbolTable
 70
1
  0
APPID
  5
12
100
AcDbSymbolTableRecord
100
AcDbRegAppTableRecord
  2
ACAD
 70
0
  0
APPID
  5
6B
100
AcDbSymbolTableRecord
100
AcDbRegAppTableRecord
  2
QCAD
 70
0
  0
ENDTAB
  0
TABLE
  2
DIMSTYLE
  5
A
100
AcDbSymbolTable
 70
1
100
AcDbDimStyleTable
 71
0
  0
DIMSTYLE
105
27
100
AcDbSymbolTableRecord
100
AcDbDimStyleTableRecord
  2
Standard
 41
2.5
 42
0.625
 43
3.75
 44
1.25
 70
0
 73
0
 74
0
 77
1
 78
8
140
2.5
141
2.5
143
0.03937007874016
147
0.625
171
3
172
1
271
2
272
2
274
3
278
44
283
0
284
8
340
5F
  0
ENDTAB
  0
TABLE
  2
BLOCK_RECORD
  5
1
100
AcDbSymbolTable
 70
1
  0
BLOCK_RECORD
  5
1F
100
AcDbSymbolTableRecord
100
AcDbBlockTableRecord
  2
*Model_Space
340
22
  0
BLOCK_RECORD
  5
1B
100
AcDbSymbolTableRecord
100
AcDbBlockTableRecord
  2
*Paper_Space
340
1E
  0
BLOCK_RECORD
  5
23
100
AcDbSymbolTableRecord
100
AcDbBlockTableRecord
  2
*Paper_Space0
340
26
  0
ENDTAB
  0
ENDSEC
  0
SECTION
  2
BLOCKS
  0
BLOCK
  5
20
100
AcDbEntity
  8
0
100
AcDbBlockBegin
  2
*Model_Space
 70
0
 10
0.0
 20
0.0
 30
0.0
  3
*Model_Space
  1

  0
ENDBLK
  5
21
100
AcDbEntity
  8
0
100
AcDbBlockEnd
  0
BLOCK
  5
1C
100
AcDbEntity
 67
1
  8
0
100
AcDbBlockBegin
  2
*Paper_Space
 70
0
 10
0.0
 20
0.0
 30
0.0
  3
*Paper_Space
  1

  0
ENDBLK
  5
1D
100
AcDbEntity
 67
1
  8
0
100
AcDbBlockEnd
  0
BLOCK
  5
24
100
AcDbEntity
  8
0
100
AcDbBlockBegin
  2
*Paper_Space0
 70
0
 10
0.0
 20
0.0
 30
0.0
  3
*Paper_Space0
  1

  0
ENDBLK
  5
25
100
AcDbEntity
  8
0
100
AcDbBlockEnd
  0
ENDSEC
  0
SECTION
  2
ENTITIES
  0
LWPOLYLINE
  5
6C
100
AcDbEntity
  8
0
 62
256
370
-1
 48
1.0
  6
BYLAYER
100
AcDbPolyline
 90
4
 70
129
 10
31.0000000000000142
 20
10.0
 10
6.6000000000000085
 20
10.0
 10
6.6000000000000085
 20
22.6999999999999993
 10
31.0000000000000142
 20
22.6999999999999993
  0
LINE
  5
6D
100
AcDbEntity
  8
auxiliary
 62
256
370
-1
 48
1.0
  6
BYLAYER
100
AcDbLine
 10
142.0
 20
8.0000000000000178
 30
0.0
 11
142.0
 21
52.0
 31
0.0
  0
CIRCLE
  5
6E
100
AcDbEntity
  8
spacer
 62
256
370
-1
 48
1.0
  6
BYLAYER
100
AcDbCircle
 10
211.0000000000000284
 20
84.5
 30
0.0
 40
5.7000000000000002
  0
LWPOLYLINE
  5
6F
100
AcDbEntity
  8
0
 62
256
370
-1
 48
1.0
  6
BYLAYER
100
AcDbPolyline
 90
4
 70
129
 10
30.9999999999999964
 20
40.0
 10
6.5999999999999908
 20
40.0
 10
6.5999999999999908
 20
52.7000000000000028
 10
30.9999999999999964
 20
52.7000000000000028
  0
CIRCLE
  5
70
100
AcDbEntity
  8
spacer
 62
256
370
-1
 48
1.0
  6
BYLAYER
100
AcDbCircle
 10
140.0
 20
84.5
 30
0.0
 40
5.6999999999999957
  0
LINE
  5
71
100
AcDbEntity
  8
auxiliary
 62
256
370
-1
 48
1.0
  6
BYLAYER
100
AcDbLine
 10
153.0
 20
52.0
 30
0.0
 11
153.0
 21
8.0000000000000178
 31
0.0
  0
CIRCLE
  5
72
100
AcDbEntity
  8
spacer
 62
256
370
-1
 48
1.0
  6
BYLAYER
100
AcDbCircle
 10
164.0
 20
87.5300000000000011
 30
0.0
 40
4.9550000000000125
  0
CIRCLE
  5
73
100
AcDbEntity
  8
spacer
 62
256
370
-1
 48
1.0
  6
BYLAYER
100
AcDbCircle
 10
242.0000000000000284
 20
84.5
 30
0.0
 40
5.7000000000000002
  0
LINE
  5
74
100
AcDbEntity
  8
0
 62
256
370
-1
 48
1.0
  6
BYLAYER
100
AcDbLine
 10
6.6000000000000085
 20
16.5
 30
0.0
 11
40.1000000000000085
 21
16.5
 31
0.0
  0
ARC
  5
75
100
AcDbEntity
  8
spacer
 62
256
370
-1
 48
1.0
  6
ACAD_ISO02W100
100
AcDbCircle
 10
164.0
 20
87.5300000000000011
 30
0.0
 40
7.4699999999999998
100
AcDbArc
 50
209.5242439308124744
 51
150.4757560691875256
  0
LWPOLYLINE
  5
76
100
AcDbEntity
  8
spacer
 62
256
370
-1
 48
1.0
  6
BYLAYER
100
AcDbPolyline
 90
13
 70
0
 10
190.0
 20
92.0
 10
252.0
 20
92.0
 10
252.0
 20
84.0
 10
250.0
 20
84.0
 10
250.0
 20
77.0
 10
234.0
 20
77.0
 10
234.0
 20
84.0
 10
219.0
 20
84.0
 10
219.0
 20
77.0
 10
203.0
 20
77.0
 10
203.0
 20
84.0
 10
190.0
 20
84.0
 10
190.0
 20
92.0
  0
LINE
  5
77
100
AcDbEntity
  8
auxiliary
 62
256
370
-1
 48
1.0
  6
BYLAYER
100
AcDbLine
 10
177.0
 20
52.0
 30
0.0
 11
177.0
 21
8.0000000000000178
 31
0.0
  0
LWPOLYLINE
  5
78
100
AcDbEntity
  8
spacer
 62
256
370
-1
 48
1.0
  6
BYLAYER
100
AcDbPolyline
 90
4
 70
129
 10
132.0
 20
95.0
 10
172.0
 20
95.0
 10
172.0
 20
77.0
 10
132.0
 20
77.0
  0
LINE
  5
79
100
AcDbEntity
  8
0
 62
256
370
-1
 48
1.0
  6
BYLAYER
100
AcDbLine
 10
6.5999999999999908
 20
46.5
 30
0.0
 11
40.0999999999999943
 21
46.5
 31
0.0
  0
LINE
  5
7A
100
AcDbEntity
  8
auxiliary
 62
256
370
-1
 48
1.0
  6
BYLAYER
100
AcDbLine
 10
191.0
 20
8.0000000000000178
 30
0.0
 11
191.0
 21
52.0
 31
0.0
  0
LWPOLYLINE
  5
7B
100
AcDbEntity
  8
chassis
 62
256
370
-1
 48
1.0
  6
BYLAYER
100
AcDbPolyline
 90
4
 70
129
 10
34.3000000000000114
 20
26.5
 10
35.5000000000000142
 20
26.5
 10
35.5000000000000142
 20
6.5
 10
34.3000000000000114
 20
6.5
  0
LINE
  5
7C
100
AcDbEntity
  8
auxiliary
 62
256
370
-1
 48
1.0
  6
BYLAYER
100
AcDbLine
 10
199.0
 20
52.0
 30
0.0
 11
199.0
 21
8.0000000000000178
 31
0.0
  0
LWPOLYLINE
  5
7D
100
AcDbEntity
  8
chassis
 62
256
370
-1
 48
1.0
  6
BYLAYER
100
AcDbPolyline
 90
4
 70
129
 10
34.2999999999999829
 20
56.5
 10
35.4999999999999858
 20
56.5
 10
35.4999999999999858
 20
36.5
 10
34.2999999999999829
 20
36.5
  0
LINE
  5
7E
100
AcDbEntity
  8
auxiliary
 62
256
370
-1
 48
1.0
  6
BYLAYER
100
AcDbLine
 10
209.0
 20
52.0
 30
0.0
 11
209.0
 21
8.0000000000000178
 31
0.0
  0
LWPOLYLINE
  5
7F
100
AcDbEntity
  8
0
 62
256
370
-1
 48
1.0
  6
BYLAYER
100
AcDbPolyline
 90
4
 70
129
 10
30.9999999999999964
 20
52.2000000000000028
 10
39.0999999999999659
 20
52.2000000000000028
 10
39.0999999999999659
 20
40.7999999999999972
 10
30.9999999999999964
 20
40.7999999999999972
  0
LINE
  5
80
100
AcDbEntity
  8
auxiliary
 62
256
370
-1
 48
1.0
  6
BYLAYER
100
AcDbLine
 10
214.0
 20
52.0
 30
0.0
 11
214.0
 21
8.0000000000000178
 31
0.0
  0
LWPOLYLINE
  5
81
100
AcDbEntity
  8
0
 62
256
370
-1
 48
1.0
  6
BYLAYER
100
AcDbPolyline
 90
4
 70
129
 10
31.0000000000000142
 20
22.1999999999999993
 10
39.0999999999999943
 20
22.1999999999999993
 10
39.0999999999999943
 20
10.8000000000000007
 10
31.0000000000000142
 20
10.8000000000000007
  0
LINE
  5
82
100
AcDbEntity
  8
auxiliary
 62
256
370
-1
 48
1.0
  6
BYLAYER
100
AcDbLine
 10
220.0
 20
51.0
 30
0.0
 11
220.0
 21
8.0000000000000178
 31
0.0
  0
LWPOLYLINE
  5
83
100
AcDbEntity
  8
private_pcb
 62
256
370
-1
 48
1.0
  6
BYLAYER
100
AcDbPolyline
 90
4
 70
129
 10
5.9999999999999822
 20
40.0
 10
30.9999999999999822
 20
40.0
 10
30.9999999999999822
 20
38.3999999999999986
 10
5.9999999999999822
 20
38.3999999999999986
  0
LINE
  5
84
100
AcDbEntity
  8
auxiliary
 62
256
370
-1
 48
1.0
  6
BYLAYER
100
AcDbLine
 10
231.0
 20
52.0
 30
0.0
 11
231.0
 21
8.0000000000000178
 31
0.0
  0
LWPOLYLINE
  5
85
100
AcDbEntity
  8
private_pcb
 62
256
370
-1
 48
1.0
  6
BYLAYER
100
AcDbPolyline
 90
4
 70
129
 10
6.0
 20
10.0
 10
31.0
 20
10.0
 10
31.0
 20
8.3999999999999986
 10
6.0
 20
8.3999999999999986
  0
LINE
  5
86
100
AcDbEntity
  8
auxiliary
 62
256
370
-1
 48
1.0
  6
BYLAYER
100
AcDbLine
 10
255.0
 20
52.0
 30
0.0
 11
255.0
 21
8.0000000000000178
 31
0.0
  0
HATCH
  5
87
100
AcDbEntity
  8
private_pcb
 62
256
370
-1
 48
1.0
  6
BYLAYER
100
AcDbHatch
 10
0.0
 20
0.0
 30
0.0
210
0.0
220
0.0
230
1.0
  2
DOTS
 70
0
 71
0
 91
1
 92
1
 93
4
 72
1
 10
5.9999999999999822
 20
40.0
 11
30.9999999999999822
 21
40.0
 72
1
 10
30.9999999999999822
 20
40.0
 11
30.9999999999999822
 21
38.3999999999999986
 72
1
 10
30.9999999999999822
 20
38.3999999999999986
 11
5.9999999999999822
 21
38.3999999999999986
 72
1
 10
5.9999999999999822
 20
38.3999999999999986
 11
5.9999999999999822
 21
40.0
 97
0
 75
0
 76
1
 52
0.0
 41
0.5
 77
0
 78
1
 53
45.0
 43
0.0
 44
0.0
 45
-0.0883883476483184
 46
0.0883883476483185
 79
0
 98
0
1001
ACAD
1010
0.0
1020
0.0
1030
0
  0
LINE
  5
88
100
AcDbEntity
  8
auxiliary
 62
256
370
-1
 48
1.0
  6
BYLAYER
100
AcDbLine
 10
269.0
 20
52.0
 30
0.0
 11
269.0
 21
8.0000000000000178
 31
0.0
  0
MTEXT
  5
89
100
AcDbEntity
  8
0
 62
256
370
-1
 48
1.0
  6
BYLAYER
100
AcDbMText
 10
57.0
 20
47.0
 30
0.0
 40
3.0
 41
0.0
 71
4
 72
1
  1
Channel\PAmphenol ACJS-MHDR
  7
textstyle10
 50
0.0
 73
2
 44
1.0
  0
LINE
  5
8A
100
AcDbEntity
  8
auxiliary
 62
256
370
-1
 48
1.0
  6
BYLAYER
100
AcDbLine
 10
277.0
 20
52.0
 30
0.0
 11
277.0
 21
8.0000000000000178
 31
0.0
  0
HATCH
  5
8B
100
AcDbEntity
  8
private_pcb
 62
256
370
-1
 48
1.0
  6
BYLAYER
100
AcDbHatch
 10
0.0
 20
0.0
 30
0.0
210
0.0
220
0.0
230
1.0
  2
DOTS
 70
0
 71
0
 91
1
 92
1
 93
4
 72
1
 10
6.0
 20
10.0
 11
31.0
 21
10.0
 72
1
 10
31.0
 20
10.0
 11
31.0
 21
8.3999999999999986
 72
1
 10
31.0
 20
8.3999999999999986
 11
6.0
 21
8.3999999999999986
 72
1
 10
6.0
 20
8.3999999999999986
 11
6.0
 21
10.0
 97
0
 75
0
 76
1
 52
0.0
 41
0.5
 77
0
 78
1
 53
45.0
 43
0.0
 44
0.0
 45
-0.0883883476483184
 46
0.0883883476483185
 79
0
 98
0
1001
ACAD
1010
0.0
1020
0.0
1030
0
  0
LINE
  5
8C
100
AcDbEntity
  8
auxiliary
 62
256
370
-1
 48
1.0
  6
BYLAYER
100
AcDbLine
 10
287.0
 20
52.0
 30
0.0
 11
287.0
 21
8.0000000000000178
 31
0.0
  0
MTEXT
  5
8D
100
AcDbEntity
  8
0
 62
256
370
-1
 48
1.0
  6
BYLAYER
100
AcDbMText
 10
57.0
 20
17.0
 30
0.0
 40
3.0
 41
0.0
 71
4
 72
1
  1
OutputConnector\PAmphenol ACJS-MHDR
  7
textstyle9
 50
0.0
 73
2
 44
1.0
  0
LINE
  5
8E
100
AcDbEntity
  8
auxiliary
 62
256
370
-1
 48
1.0
  6
BYLAYER
100
AcDbLine
 10
292.0
 20
52.0
 30
0.0
 11
292.0
 21
8.0000000000000178
 31
0.0
  0
LWPOLYLINE
  5
8F
100
AcDbEntity
  8
0
 62
256
370
-1
 48
1.0
  6
BYLAYER
100
AcDbPolyline
 90
4
 70
129
 10
15.7500000000000284
 20
84.4500000000000171
 10
28.4500000000000135
 20
84.4500000000000171
 10
28.4500000000000135
 20
67.0000000000000142
 10
15.7500000000000284
 20
67.0000000000000142
  0
LINE
  5
90
100
AcDbEntity
  8
auxiliary
 62
256
370
-1
 48
1.0
  6
BYLAYER
100
AcDbLine
 10
298.0
 20
8.0000000000000178
 30
0.0
 11
298.0
 21
52.0
 31
0.0
  0
LINE
  5
91
100
AcDbEntity
  8
auxiliary
 62
256
370
-1
 48
1.0
  6
BYLAYER
100
AcDbLine
 10
192.0000000000000284
 20
81.0
 30
0.0
 11
202.0000000000000284
 21
81.0
 31
0.0
  0
LINE
  5
92
100
AcDbEntity
  8
auxiliary
 62
256
370
-1
 48
1.0
  6
BYLAYER
100
AcDbLine
 10
326.0
 20
52.0
 30
0.0
 11
326.0
 21
8.0000000000000178
 31
0.0
  0
LINE
  5
93
100
AcDbEntity
  8
0
 62
256
370
-1
 48
1.0
  6
BYLAYER
100
AcDbLine
 10
15.75
 20
76.5300000000000153
 30
0.0
 11
47.5
 21
76.5300000000000153
 31
0.0
  0
LINE
  5
94
100
AcDbEntity
  8
auxiliary
 62
256
370
-1
 48
1.0
  6
BYLAYER
100
AcDbLine
 10
130.0
 20
21.0000000000000036
 30
0.0
 11
345.0
 21
21.0000000000000036
 31
0.0
  0
LINE
  5
95
100
AcDbEntity
  8
auxiliary
 62
256
370
-1
 48
1.0
  6
BYLAYER
100
AcDbLine
 10
223.0000000000000284
 20
81.0
 30
0.0
 11
233.0000000000000284
 21
81.0
 31
0.0
  0
LINE
  5
96
100
AcDbEntity
  8
auxiliary
 62
256
370
-1
 48
1.0
  6
BYLAYER
100
AcDbLine
 10
130.0
 20
30.0000000000000036
 30
0.0
 11
345.0
 21
30.0000000000000036
 31
0.0
  0
LINE
  5
97
100
AcDbEntity
  8
0
 62
256
370
-1
 48
1.0
  6
BYLAYER
100
AcDbLine
 10
17.4000000000000448
 20
67.0000000000000142
 30
0.0
 11
17.4000000000000448
 21
84.4500000000000171
 31
0.0
  0
LINE
  5
98
100
AcDbEntity
  8
auxiliary
 62
256
370
-1
 48
1.0
  6
BYLAYER
100
AcDbLine
 10
130.0
 20
39.0
 30
0.0
 11
345.0
 21
39.0
 31
0.0
  0
LINE
  5
99
100
AcDbEntity
  8
auxiliary
 62
256
370
-1
 48
1.0
  6
BYLAYER
100
AcDbLine
 10
203.0000000000000284
 20
84.5
 30
0.0
 11
219.0000000000000284
 21
84.5
 31
0.0
  0
CIRCLE
  5
9A
100
AcDbEntity
  8
edge.inner
 62
256
370
-1
 48
1.0
  6
BYLAYER
100
AcDbCircle
 10
138.0
 20
43.0
 30
0.0
 40
1.25
  0
MTEXT
  5
9B
100
AcDbEntity
  8
0
 62
256
370
-1
 48
1.0
  6
BYLAYER
100
AcDbMText
 10
57.0
 20
76.0
 30
0.0
 40
3.0
 41
0.0
 71
4
 72
1
  1
Channel\PBourns 91A1A-B24-D20L
  7
textstyle8
 50
0.0
 73
2
 44
1.0
  0
CIRCLE
  5
9C
100
AcDbEntity
  8
edge.inner
 62
256
370
-1
 48
1.0
  6
BYLAYER
100
AcDbCircle
 10
138.0
 20
17.0000000000000178
 30
0.0
 40
1.25
  0
LINE
  5
9D
100
AcDbEntity
  8
auxiliary
 62
256
370
-1
 48
1.0
  6
BYLAYER
100
AcDbLine
 10
234.0000000000000284
 20
84.5
 30
0.0
 11
250.0000000000000284
 21
84.5
 31
0.0
  0
CIRCLE
  5
9E
100
AcDbEntity
  8
edge.inner
 62
256
370
-1
 48
1.0
  6
BYLAYER
100
AcDbCircle
 10
337.0
 20
43.0
 30
0.0
 40
1.25
  0
LWPOLYLINE
  5
9F
100
AcDbEntity
  8
0
 62
256
370
-1
 48
1.0
  6
BYLAYER
100
AcDbPolyline
 90
4
 70
129
 10
28.4499999999999993
 20
79.7050000000000125
 10
47.5000000000000142
 20
79.7050000000000125
 10
47.5000000000000142
 20
73.3550000000000182
 10
28.4499999999999993
 20
73.3550000000000182
  0
CIRCLE
  5
A0
100
AcDbEntity
  8
edge.inner
 62
256
370
-1
 48
1.0
  6
BYLAYER
100
AcDbCircle
 10
337.0
 20
17.0000000000000178
 30
0.0
 40
1.25
  0
CIRCLE
  5
A1
100
AcDbEntity
  8
edge.inner
 62
256
370
-1
 48
1.0
  6
BYLAYER
100
AcDbCircle
 10
153.0
 20
24.5000000000000036
 30
0.0
 40
5.7000000000000002
  0
CIRCLE
  5
A2
100
AcDbEntity
  8
edge.inner
 62
256
370
-1
 48
1.0
  6
BYLAYER
100
AcDbCircle
 10
140.0
 20
134.5
 30
0.0
 40
5.7000000000000002
  0
LWPOLYLINE
  5
A3
100
AcDbEntity
  8
0
 62
256
370
-1
 48
1.0
  6
BYLAYER
100
AcDbPolyline
 90
4
 70
129
 10
28.4499999999999993
 20
81.4850000000000136
 10
37.980000000000004
 20
81.4850000000000136
 10
37.980000000000004
 20
71.5750000000000171
 10
28.4499999999999993
 20
71.5750000000000171
  0
CIRCLE
  5
A4
100
AcDbEntity
  8
edge.outer
 62
256
370
-1
 48
1.0
  6
BYLAYER
100
AcDbCircle
 10
153.0
 20
24.5000000000000036
 30
0.0
 40
8.0
  0
CIRCLE
  5
A5
100
AcDbEntity
  8
edge.outer
 62
256
370
-1
 48
1.0
  6
BYLAYER
100
AcDbCircle
 10
140.0
 20
134.5
 30
0.0
 40
8.0
  0
CIRCLE
  5
A6
100
AcDbEntity
  8
edge.outer
 62
256
370
-1
 48
1.0
  6
BYLAYER
100
AcDbCircle
 10
231.0
 20
24.5000000000000036
 30
0.0
 40
8.0
  0
LWPOLYLINE
  5
A7
100
AcDbEntity
  8
private_pcb
 62
256
370
-1
 48
1.0
  6
BYLAYER
100
AcDbPolyline
 90
4
 70
129
 10
15.0000000000000036
 20
67.0
 10
31.0
 20
67.0
 10
31.0
 20
65.4000000000000057
 10
15.0000000000000036
 20
65.4000000000000057
  0
CIRCLE
  5
A8
100
AcDbEntity
  8
edge.inner
 62
256
370
-1
 48
1.0
  6
BYLAYER
100
AcDbCircle
 10
231.0
 20
24.5000000000000036
 30
0.0
 40
5.7000000000000002
  0
HATCH
  5
A9
100
AcDbEntity
  8
private_pcb
 62
256
370
-1
 48
1.0
  6
BYLAYER
100
AcDbHatch
 10
0.0
 20
0.0
 30
0.0
210
0.0
220
0.0
230
1.0
  2
DOTS
 70
0
 71
0
 91
1
 92
1
 93
4
 72
1
 10
15.0000000000000036
 20
67.0
 11
31.0
 21
67.0
 72
1
 10
31.0
 20
67.0
 11
31.0
 21
65.4000000000000057
 72
1
 10
31.0
 20
65.4000000000000057
 11
15.0000000000000036
 21
65.4000000000000057
 72
1
 10
15.0000000000000036
 20
65.4000000000000057
 11
15.0000000000000036
 21
67.0
 97
0
 75
0
 76
1
 52
0.0
 41
0.5
 77
0
 78
1
 53
45.0
 43
0.0
 44
0.0
 45
-0.0883883476483184
 46
0.0883883476483185
 79
0
 98
0
1001
ACAD
1010
0.0
1020
0.0
1030
0
  0
CIRCLE
  5
AA
100
AcDbEntity
  8
edge.inner
 62
256
370
-1
 48
1.0
  6
BYLAYER
100
AcDbCircle
 10
177.0
 20
27.5300000000000331
 30
0.0
 40
4.9550000000000001
  0
CIRCLE
  5
AB
100
AcDbEntity
  8
edge.inner
 62
256
370
-1
 48
1.0
  6
BYLAYER
100
AcDbCircle
 10
164.0
 20
137.5300000000000296
 30
0.0
 40
4.9550000000000001
  0
LWPOLYLINE
  5
AC
100
AcDbEntity
  8
chassis
 62
256
370
-1
 48
1.0
  6
BYLAYER
100
AcDbPolyline
 90
4
 70
129
 10
34.2999999999999687
 20
88.5300000000000153
 10
35.4999999999999574
 20
88.5300000000000153
 10
35.4999999999999574
 20
64.5300000000000153
 10
34.2999999999999687
 20
64.5300000000000153
  0
CIRCLE
  5
AD
100
AcDbEntity
  8
edge.inner
 62
256
370
-1
 48
1.0
  6
BYLAYER
100
AcDbCircle
 10
255.0
 20
27.5300000000000331
 30
0.0
 40
4.9550000000000001
  0
LWPOLYLINE
  5
AE
100
AcDbEntity
  8
0
 62
256
370
-1
 48
1.0
  6
BYLAYER
100
AcDbPolyline
 90
4
 70
129
 10
24.9000000000000021
 20
105.8999999999999915
 10
33.5
 20
105.8999999999999915
 10
33.5
 20
96.0999999999999943
 10
24.9000000000000021
 20
96.0999999999999943
  0
CIRCLE
  5
AF
100
AcDbEntity
  8
edge.outer
 62
256
370
-1
 48
1.0
  6
BYLAYER
100
AcDbCircle
 10
184.0
 20
41.0
 30
0.0
 40
1.6000000000000001
  0
MTEXT
  5
B0
100
AcDbEntity
  8
0
 62
256
370
-1
 48
1.0
  6
BYLAYER
100
AcDbMText
 10
57.0
 20
101.0
 30
0.0
 40
3.0
 41
0.0
 71
4
 72
1
  1
Channel:ControlPanel\PNKK A-12JB
  7
textstyle7
 50
0.0
 73
2
 44
1.0
  0
DIMENSION
  5
B1
100
AcDbEntity
  8
dimensions
 62
256
370
-1
 48
1.0
  6
BYLAYER
100
AcDbDimension
 10
129.9794502094766813
 20
57.9395598329934742
 30
0.0
 11
135.9794502094766813
 21
59.8145598329934387
 31
0.0
 70
1
 71
8
 72
2
 74
0
 75
0
 41
1.0
 42
0.0
  1

  3
Standard
100
AcDbAlignedDimension
 13
129.9794502094766528
 23
51.9395598329936803
 33
0.0
 14
141.9794502094766813
 24
51.9395598329936092
 34
0.0
1001
ACAD
1000
DSTYLE
1002
{
1070
144
1040
1.0
1070
40
1040
1.0
1002
}
  0
CIRCLE
  5
B2
100
AcDbEntity
  8
edge.outer
 62
256
370
-1
 48
1.0
  6
BYLAYER
100
AcDbCircle
 10
262.0
 20
41.0
 30
0.0
 40
1.6000000000000001
  0
DIMENSION
  5
B3
100
AcDbEntity
  8
dimensions
 62
256
370
-1
 48
1.0
  6
BYLAYER
100
AcDbDimension
 10
141.9794502094766813
 20
53.9395598329936377
 30
0.0
 11
147.4794502094766813
 21
55.8145598329935737
 31
0.0
 70
1
 71
8
 72
2
 74
0
 75
0
 41
1.0
 42
0.0
  1

  3
Standard
100
AcDbAlignedDimension
 13
141.9794502094766813
 23
51.9395598329936092
 33
0.0
 14
152.9794502094767097
 24
51.9395598329934813
 34
0.0
1001
ACAD
1000
DSTYLE
1002
{
1070
144
1040
1.0
1070
40
1040
1.0
1002
}
  0
LWPOLYLINE
  5
B4
100
AcDbEntity
  8
0
 62
256
370
-1
 48
1.0
  6
BYLAYER
100
AcDbPolyline
 90
4
 70
129
 10
33.5
 20
103.9999999999999858
 10
38.0
 20
103.9999999999999858
 10
38.0
 20
97.9999999999999858
 10
33.5
 20
97.9999999999999858
  0
DIMENSION
  5
B5
100
AcDbEntity
  8
dimensions
 62
256
370
-1
 48
1.0
  6
BYLAYER
100
AcDbDimension
 10
152.9794502094767097
 20
53.9395598329932753
 30
0.0
 11
164.9794502094766813
 21
55.8145598329932824
 31
0.0
 70
1
 71
8
 72
2
 74
0
 75
0
 41
1.0
 42
0.0
  1

  3
Standard
100
AcDbAlignedDimension
 13
152.9794502094767097
 23
51.9395598329934813
 33
0.0
 14
176.9794502094766813
 24
51.9395598329934955
 34
0.0
1001
ACAD
1000
DSTYLE
1002
{
1070
144
1040
1.0
1070
40
1040
1.0
1002
}
  0
CIRCLE
  5
B6
100
AcDbEntity
  8
edge.outer
 62
256
370
-1
 48
1.0
  6
BYLAYER
100
AcDbCircle
 10
180.0
 20
41.0
 30
0.0
 40
1.6000000000000001
  0
DIMENSION
  5
B7
100
AcDbEntity
  8
dimensions
 62
256
370
-1
 48
1.0
  6
BYLAYER
100
AcDbDimension
 10
190.9794502094766813
 20
53.9395598329935169
 30
0.0
 11
194.9794502094766813
 21
55.8145598329935311
 31
0.0
 70
1
 71
8
 72
2
 74
0
 75
0
 41
1.0
 42
0.0
  1

  3
Standard
100
AcDbAlignedDimension
 13
190.9794502094766813
 23
51.9395598329936092
 33
0.0
 14
198.9794502094766813
 24
51.9395598329936377
 34
0.0
1001
ACAD
1000
DSTYLE
1002
{
1070
144
1040
1.0
1070
40
1040
1.0
1002
}
  0
LINE
  5
B8
100
AcDbEntity
  8
0
 62
256
370
-1
 48
1.0
  6
BYLAYER
100
AcDbLine
 10
24.9000000000000021
 20
100.9999999999999858
 30
0.0
 11
45.75
 21
100.9999999999999858
 31
0.0
  0
DIMENSION
  5
B9
100
AcDbEntity
  8
dimensions
 62
256
370
-1
 48
1.0
  6
BYLAYER
100
AcDbDimension
 10
198.9794502094766813
 20
53.9395598329937016
 30
0.0
 11
203.9794502094766813
 21
55.8145598329936945
 31
0.0
 70
1
 71
8
 72
2
 74
0
 75
0
 41
1.0
 42
0.0
  1

  3
Standard
100
AcDbAlignedDimension
 13
198.9794502094766813
 23
51.9395598329936377
 33
0.0
 14
208.9794502094766813
 24
51.9395598329936234
 34
0.0
1001
ACAD
1000
DSTYLE
1002
{
1070
144
1040
1.0
1070
40
1040
1.0
1002
}
  0
CIRCLE
  5
BA
100
AcDbEntity
  8
edge.outer
 62
256
370
-1
 48
1.0
  6
BYLAYER
100
AcDbCircle
 10
258.0
 20
41.0
 30
0.0
 40
1.6000000000000001
  0
DIMENSION
  5
BB
100
AcDbEntity
  8
dimensions
 62
256
370
-1
 48
1.0
  6
BYLAYER
100
AcDbDimension
 10
208.9794502094766813
 20
53.9395598329935311
 30
0.0
 11
211.4794502094766813
 21
55.8145598329934813
 31
0.0
 70
1
 71
8
 72
2
 74
0
 75
0
 41
1.0
 42
0.0
  1

  3
Standard
100
AcDbAlignedDimension
 13
208.9794502094766813
 23
51.9395598329936234
 33
0.0
 14
213.9794502094766813
 24
51.939559832993524
 34
0.0
1001
ACAD
1000
DSTYLE
1002
{
1070
144
1040
1.0
1070
40
1040
1.0
1002
}
  0
LINE
  5
BC
100
AcDbEntity
  8
0
 62
256
370
-1
 48
1.0
  6
BYLAYER
100
AcDbLine
 10
33.5000000000000142
 20
103.9999999999999858
 30
0.0
 11
38.0
 21
97.9999999999999858
 31
0.0
  0
DIMENSION
  5
BD
100
AcDbEntity
  8
dimensions
 62
256
370
-1
 48
1.0
  6
BYLAYER
100
AcDbDimension
 10
141.9794502094766813
 20
57.9395598329940569
 30
0.0
 11
180.9794502094766813
 21
59.8145598329940427
 31
0.0
 70
1
 71
8
 72
2
 74
0
 75
0
 41
1.0
 42
0.0
  1

  3
Standard
100
AcDbAlignedDimension
 13
141.9794502094766813
 23
51.9395598329936092
 33
0.0
 14
219.9794502094766813
 24
51.9395598329935808
 34
0.0
1001
ACAD
1000
DSTYLE
1002
{
1070
144
1040
1.0
1070
40
1040
1.0
1002
}
  0
CIRCLE
  5
BE
100
AcDbEntity
  8
edge.outer
 62
256
370
-1
 48
1.0
  6
BYLAYER
100
AcDbCircle
 10
191.0
 20
39.0
 30
0.0
 40
1.6000000000000001
  0
DIMENSION
  5
BF
100
AcDbEntity
  8
dimensions
 62
256
370
-1
 48
1.0
  6
BYLAYER
100
AcDbDimension
 10
219.9794502094766813
 20
57.9395598329936234
 30
0.0
 11
258.9794502094766813
 21
59.8145598329936306
 31
0.0
 70
1
 71
8
 72
2
 74
0
 75
0
 41
1.0
 42
0.0
  1

  3
Standard
100
AcDbAlignedDimension
 13
219.9794502094766813
 23
51.9395598329935808
 33
0.0
 14
297.9794502094766813
 24
51.939559832993595
 34
0.0
1001
ACAD
1000
DSTYLE
1002
{
1070
144
1040
1.0
1070
40
1040
1.0
1002
}
  0
LINE
  5
C0
100
AcDbEntity
  8
0
 62
256
370
-1
 48
1.0
  6
BYLAYER
100
AcDbLine
 10
33.5000000000000142
 20
97.9999999999999858
 30
0.0
 11
38.0
 21
103.9999999999999858
 31
0.0
  0
DIMENSION
  5
C1
100
AcDbEntity
  8
dimensions
 62
256
370
-1
 48
1.0
  6
BYLAYER
100
AcDbDimension
 10
344.9794502094766813
 20
57.9395598329934316
 30
0.0
 11
335.4794502094766813
 21
59.8145598329936021
 31
0.0
 70
1
 71
8
 72
2
 74
0
 75
0
 41
1.0
 42
0.0
  1

  3
Standard
100
AcDbAlignedDimension
 13
344.9794502094766813
 23
51.9395598329932113
 33
0.0
 14
325.9794502094766813
 24
51.9395598329935524
 34
0.0
1001
ACAD
1000
DSTYLE
1002
{
1070
144
1040
1.0
1070
40
1040
1.0
1002
}
  0
CIRCLE
  5
C2
100
AcDbEntity
  8
edge.outer
 62
256
370
-1
 48
1.0
  6
BYLAYER
100
AcDbCircle
 10
209.0
 20
23.0000000000000036
 30
0.0
 40
1.6000000000000001
  0
DIMENSION
  5
C3
100
AcDbEntity
  8
dimensions
 62
256
370
-1
 48
1.0
  6
BYLAYER
100
AcDbDimension
 10
348.9947032189044762
 20
30.0147723597776661
 30
0.0
 11
347.1197032189045331
 21
34.5147723597780569
 31
0.0
 70
1
 71
8
 72
2
 74
0
 75
0
 41
1.0
 42
0.0
  1

  3
Standard
100
AcDbAlignedDimension
 13
344.9947032189045331
 23
30.0147723597777158
 33
0.0
 14
344.9947032189045899
 24
39.0147723597784122
 34
0.0
1001
ACAD
1000
DSTYLE
1002
{
1070
144
1040
1.0
1070
40
1040
1.0
1002
}
  0
LINE
  5
C4
100
AcDbEntity
  8
0
 62
256
370
-1
 48
1.0
  6
BYLAYER
100
AcDbLine
 10
35.7500000000000142
 20
100.9999999999999858
 30
0.0
 11
45.4092582628906882
 21
103.5881904510251985
 31
0.0
  0
DIMENSION
  5
C5
100
AcDbEntity
  8
dimensions
 62
256
370
-1
 48
1.0
  6
BYLAYER
100
AcDbDimension
 10
348.9947032189045331
 20
21.0147723597772398
 30
0.0
 11
347.1197032189045331
 21
25.5147723597777265
 31
0.0
 70
1
 71
8
 72
2
 74
0
 75
0
 41
1.0
 42
0.0
  1

  3
Standard
100
AcDbAlignedDimension
 13
344.9947032189044762
 23
21.0147723597777691
 33
0.0
 14
344.9947032189045331
 24
30.0147723597777158
 34
0.0
1001
ACAD
1000
DSTYLE
1002
{
1070
144
1040
1.0
1070
40
1040
1.0
1002
}
  0
CIRCLE
  5
C6
100
AcDbEntity
  8
edge.outer
 62
256
370
-1
 48
1.0
  6
BYLAYER
100
AcDbCircle
 10
209.0
 20
19.0000000000000036
 30
0.0
 40
1.6000000000000001
  0
DIMENSION
  5
C7
100
AcDbEntity
  8
dimensions
 62
256
370
-1
 48
1.0
  6
BYLAYER
100
AcDbDimension
 10
176.9794502094766813
 20
53.93955983299373
 30
0.0
 11
183.9794502094766813
 21
55.8145598329937869
 31
0.0
 70
1
 71
8
 72
2
 74
0
 75
0
 41
1.0
 42
0.0
  1

  3
Standard
100
AcDbAlignedDimension
 13
176.9794502094766813
 23
51.9395598329934955
 33
0.0
 14
190.9794502094766813
 24
51.9395598329936092
 34
0.0
1001
ACAD
1000
DSTYLE
1002
{
1070
144
1040
1.0
1070
40
1040
1.0
1002
}
  0
LWPOLYLINE
  5
C8
100
AcDbEntity
  8
private_pcb
 62
256
370
-1
 48
1.0
  6
BYLAYER
100
AcDbPolyline
 90
4
 70
129
 10
23.3000000000000078
 20
108.4999999999999858
 10
24.9000000000000021
 20
108.4999999999999858
 10
24.9000000000000021
 20
93.4999999999999858
 10
23.3000000000000078
 20
93.4999999999999858
  0
DIMENSION
  5
C9
100
AcDbEntity
  8
dimensions
 62
256
370
-1
 48
1.0
  6
BYLAYER
100
AcDbDimension
 10
336.9794502094766813
 20
53.9395598329939929
 30
0.0
 11
340.9794502094766813
 21
55.8145598329938863
 31
0.0
 70
1
 71
8
 72
2
 74
0
 75
0
 41
1.0
 42
0.0
  1

  3
Standard
100
AcDbAlignedDimension
 13
336.9794502094766813
 23
51.9395598329934245
 33
0.0
 14
344.9794502094766813
 24
51.9395598329932113
 34
0.0
1001
ACAD
1000
DSTYLE
1002
{
1070
144
1040
1.0
1070
40
1040
1.0
1002
}
  0
CIRCLE
  5
CA
100
AcDbEntity
  8
edge.outer
 62
256
370
-1
 48
1.0
  6
BYLAYER
100
AcDbCircle
 10
269.0
 20
39.0
 30
0.0
 40
1.6000000000000001
  0
DIMENSION
  5
CB
100
AcDbEntity
  8
dimensions
 62
256
370
-1
 48
1.0
  6
BYLAYER
100
AcDbDimension
 10
348.9947032189045331
 20
52.0147723597773819
 30
0.0
 11
347.1197032189045331
 21
47.5147723597774458
 31
0.0
 70
1
 71
8
 72
2
 74
0
 75
0
 41
1.0
 42
0.0
  1

  3
Standard
100
AcDbAlignedDimension
 13
344.9947032189045331
 23
52.0147723597774103
 33
0.0
 14
344.9947032189045331
 24
43.0147723597774814
 34
0.0
1001
ACAD
1000
DSTYLE
1002
{
1070
144
1040
1.0
1070
40
1040
1.0
1002
}
  0
HATCH
  5
CC
100
AcDbEntity
  8
private_pcb
 62
256
370
-1
 48
1.0
  6
BYLAYER
100
AcDbHatch
 10
0.0
 20
0.0
 30
0.0
210
0.0
220
0.0
230
1.0
  2
DOTS
 70
0
 71
0
 91
1
 92
1
 93
4
 72
1
 10
23.3000000000000078
 20
108.4999999999999858
 11
24.9000000000000021
 21
108.4999999999999858
 72
1
 10
24.9000000000000021
 20
108.4999999999999858
 11
24.9000000000000021
 21
93.4999999999999858
 72
1
 10
24.9000000000000021
 20
93.4999999999999858
 11
23.3000000000000078
 21
93.4999999999999858
 72
1
 10
23.3000000000000078
 20
93.4999999999999858
 11
23.3000000000000078
 21
108.4999999999999858
 97
0
 75
0
 76
1
 52
0.0
 41
0.5
 77
0
 78
1
 53
45.0
 43
0.0
 44
0.0
 45
-0.0883883476483184
 46
0.0883883476483185
 79
0
 98
0
1001
ACAD
1010
0.0
1020
0.0
1030
0
  0
DIMENSION
  5
CD
100
AcDbEntity
  8
dimensions
 62
256
370
-1
 48
1.0
  6
BYLAYER
100
AcDbDimension
 10
348.9947032189045331
 20
17.014772359776746
 30
0.0
 11
347.1197032189045331
 21
12.5147723597761527
 31
0.0
 70
1
 71
8
 72
2
 74
0
 75
0
 41
1.0
 42
0.0
  1

  3
Standard
100
AcDbAlignedDimension
 13
344.9947032189045331
 23
17.0147723597776483
 33
0.0
 14
344.9947032189045331
 24
8.0147723597746587
 34
0.0
1001
ACAD
1000
DSTYLE
1002
{
1070
144
1040
1.0
1070
40
1040
1.0
1002
}
  0
CIRCLE
  5
CE
100
AcDbEntity
  8
edge.outer
 62
256
370
-1
 48
1.0
  6
BYLAYER
100
AcDbCircle
 10
287.0
 20
23.0000000000000036
 30
0.0
 40
1.6000000000000001
  0
DIMENSION
  5
CF
100
AcDbEntity
  8
dimensions
 62
256
370
-1
 48
1.0
  6
BYLAYER
100
AcDbDimension
 10
129.9794502094766528
 20
53.9395598329937656
 30
0.0
 11
133.9794502094766813
 21
55.8145598329936306
 31
0.0
 70
1
 71
8
 72
2
 74
0
 75
0
 41
1.0
 42
0.0
  1

  3
Standard
100
AcDbAlignedDimension
 13
129.9794502094766528
 23
51.9395598329936803
 33
0.0
 14
137.9794502094766813
 24
51.9395598329934103
 34
0.0
1001
ACAD
1000
DSTYLE
1002
{
1070
144
1040
1.0
1070
40
1040
1.0
1002
}
  0
LWPOLYLINE
  5
D0
100
AcDbEntity
  8
0
 62
256
370
-1
 48
1.0
  6
BYLAYER
100
AcDbPolyline
 90
7
 70
128
 10
36.0864647586332694
 20
99.7442964258241886
 10
35.4135352413667306
 20
102.2557035741757545
 10
42.4164974819624661
 20
104.1321416511690359
 42
-0.414213562373095
 10
44.0086658147715468
 20
103.2129028356265223
 10
44.0086658147715468
 20
103.2129028356265223
 42
-0.414213562373095
 10
43.0894269992290333
 20
101.6207345028174558
 10
36.0864647586332694
 20
99.7442964258241886
  0
CIRCLE
  5
D1
100
AcDbEntity
  8
edge.outer
 62
256
370
-1
 48
1.0
  6
BYLAYER
100
AcDbCircle
 10
287.0
 20
19.0000000000000036
 30
0.0
 40
1.6000000000000001
  0
LWPOLYLINE
  5
D2
100
AcDbEntity
  8
chassis
 62
256
370
-1
 48
1.0
  6
BYLAYER
100
AcDbPolyline
 90
4
 70
129
 10
34.2999999999999972
 20
108.4999999999999858
 10
35.4999999999999858
 20
108.4999999999999858
 10
35.4999999999999858
 20
93.4999999999999858
 10
34.2999999999999972
 20
93.4999999999999858
  0
CIRCLE
  5
D3
100
AcDbEntity
  8
edge.outer
 62
256
370
-1
 48
1.0
  6
BYLAYER
100
AcDbCircle
 10
191.0
 20
21.0000000000000036
 30
0.0
 40
1.6000000000000001
  0
HATCH
  5
D4
100
AcDbEntity
  8
chassis
 62
256
370
-1
 48
1.0
  6
BYLAYER
100
AcDbHatch
 10
0.0
 20
0.0
 30
0.0
210
0.0
220
0.0
230
1.0
  2
DOTS
 70
0
 71
0
 91
1
 92
1
 93
4
 72
1
 10
34.2999999999999972
 20
108.4999999999999858
 11
35.4999999999999858
 21
108.4999999999999858
 72
1
 10
35.4999999999999858
 20
108.4999999999999858
 11
35.4999999999999858
 21
93.4999999999999858
 72
1
 10
35.4999999999999858
 20
93.4999999999999858
 11
34.2999999999999972
 21
93.4999999999999858
 72
1
 10
34.2999999999999972
 20
93.4999999999999858
 11
34.2999999999999972
 21
108.4999999999999858
 97
0
 75
0
 76
1
 52
0.0
 41
0.5
 77
0
 78
1
 53
45.0
 43
0.0
 44
0.0
 45
-0.0883883476483184
 46
0.0883883476483185
 79
0
 98
0
1001
ACAD
1010
0.0
1020
0.0
1030
0
  0
CIRCLE
  5
D5
100
AcDbEntity
  8
edge.outer
 62
256
370
-1
 48
1.0
  6
BYLAYER
100
AcDbCircle
 10
269.0
 20
21.0000000000000036
 30
0.0
 40
1.6000000000000001
  0
LINE
  5
D6
100
AcDbEntity
  8
private_parts
 62
256
370
-1
 48
1.0
  6
BYLAYER
100
AcDbLine
 10
201.7500000000000284
 20
78.5999999999999943
 30
0.0
 11
192.2500000000000284
 21
78.5999999999999943
 31
0.0
  0
CIRCLE
  5
D7
100
AcDbEntity
  8
edge.inner
 62
256
370
-1
 48
1.0
  6
BYLAYER
100
AcDbCircle
 10
191.0
 20
44.0
 30
0.0
 40
1.6000000000000001
  0
HATCH
  5
D8
100
AcDbEntity
  8
chassis
 62
256
370
-1
 48
1.0
  6
BYLAYER
100
AcDbHatch
 10
0.0
 20
0.0
 30
0.0
210
0.0
220
0.0
230
1.0
  2
DOTS
 70
0
 71
0
 91
1
 92
1
 93
4
 72
1
 10
34.2999999999999687
 20
88.5300000000000153
 11
35.4999999999999574
 21
88.5300000000000153
 72
1
 10
35.4999999999999574
 20
88.5300000000000153
 11
35.4999999999999574
 21
64.5300000000000153
 72
1
 10
35.4999999999999574
 20
64.5300000000000153
 11
34.2999999999999687
 21
64.5300000000000153
 72
1
 10
34.2999999999999687
 20
64.5300000000000153
 11
34.2999999999999687
 21
88.5300000000000153
 97
0
 75
0
 76
1
 52
0.0
 41
0.5
 77
0
 78
1
 53
45.0
 43
0.0
 44
0.0
 45
-0.0883883476483184
 46
0.0883883476483185
 79
0
 98
0
1001
ACAD
1010
0.0
1020
0.0
1030
0
  0
CIRCLE
  5
D9
100
AcDbEntity
  8
edge.inner
 62
256
370
-1
 48
1.0
  6
BYLAYER
100
AcDbCircle
 10
269.0
 20
44.0
 30
0.0
 40
1.6000000000000001
  0
LINE
  5
DA
100
AcDbEntity
  8
private_parts
 62
256
370
-1
 48
1.0
  6
BYLAYER
100
AcDbLine
 10
232.7500000000000284
 20
78.5999999999999943
 30
0.0
 11
223.2500000000000284
 21
78.5999999999999943
 31
0.0
  0
CIRCLE
  5
DB
100
AcDbEntity
  8
edge.inner
 62
256
370
-1
 48
1.0
  6
BYLAYER
100
AcDbCircle
 10
191.0
 20
16.0000000000000178
 30
0.0
 40
1.6000000000000001
  0
HATCH
  5
DC
100
AcDbEntity
  8
chassis
 62
256
370
-1
 48
1.0
  6
BYLAYER
100
AcDbHatch
 10
0.0
 20
0.0
 30
0.0
210
0.0
220
0.0
230
1.0
  2
DOTS
 70
0
 71
0
 91
1
 92
1
 93
4
 72
1
 10
34.3000000000000114
 20
26.5
 11
35.5000000000000142
 21
26.5
 72
1
 10
35.5000000000000142
 20
26.5
 11
35.5000000000000142
 21
6.5
 72
1
 10
35.5000000000000142
 20
6.5
 11
34.3000000000000114
 21
6.5
 72
1
 10
34.3000000000000114
 20
6.5
 11
34.3000000000000114
 21
26.5
 97
0
 75
0
 76
1
 52
0.0
 41
0.5
 77
0
 78
1
 53
45.0
 43
0.0
 44
0.0
 45
-0.0883883476483184
 46
0.0883883476483185
 79
0
 98
0
1001
ACAD
1010
0.0
1020
0.0
1030
0
  0
CIRCLE
  5
DD
100
AcDbEntity
  8
edge.inner
 62
256
370
-1
 48
1.0
  6
BYLAYER
100
AcDbCircle
 10
214.0
 20
30.0000000000000036
 30
0.0
 40
1.6000000000000001
  0
CIRCLE
  5
DE
100
AcDbEntity
  8
edge.outer
 62
256
370
-1
 48
1.0
  6
BYLAYER
100
AcDbCircle
 10
302.0
 20
83.0
 30
0.0
 40
1.6000000000000001
  0
CIRCLE
  5
DF
100
AcDbEntity
  8
edge.inner
 62
256
370
-1
 48
1.0
  6
BYLAYER
100
AcDbCircle
 10
269.0
 20
16.0000000000000178
 30
0.0
 40
1.6000000000000001
  0
CIRCLE
  5
E0
100
AcDbEntity
  8
edge.outer
 62
256
370
-1
 48
1.0
  6
BYLAYER
100
AcDbCircle
 10
302.0
 20
79.0
 30
0.0
 40
1.6000000000000001
  0
CIRCLE
  5
E1
100
AcDbEntity
  8
edge.inner
 62
256
370
-1
 48
1.0
  6
BYLAYER
100
AcDbCircle
 10
292.0
 20
30.0000000000000036
 30
0.0
 40
1.6000000000000001
  0
HATCH
  5
E2
100
AcDbEntity
  8
chassis
 62
256
370
-1
 48
1.0
  6
BYLAYER
100
AcDbHatch
 10
0.0
 20
0.0
 30
0.0
210
0.0
220
0.0
230
1.0
  2
DOTS
 70
0
 71
0
 91
1
 92
1
 93
4
 72
1
 10
34.2999999999999829
 20
56.5
 11
35.4999999999999858
 21
56.5
 72
1
 10
35.4999999999999858
 20
56.5
 11
35.4999999999999858
 21
36.5
 72
1
 10
35.4999999999999858
 20
36.5
 11
34.2999999999999829
 21
36.5
 72
1
 10
34.2999999999999829
 20
36.5
 11
34.2999999999999829
 21
56.5
 97
0
 75
0
 76
1
 52
0.0
 41
0.5
 77
0
 78
1
 53
45.0
 43
0.0
 44
0.0
 45
-0.0883883476483184
 46
0.0883883476483185
 79
0
 98
0
1001
ACAD
1010
0.0
1020
0.0
1030
0
  0
CIRCLE
  5
E3
100
AcDbEntity
  8
edge.inner
 62
256
370
-1
 48
1.0
  6
BYLAYER
100
AcDbCircle
 10
269.0
 20
30.0000000000000036
 30
0.0
 40
1.6000000000000001
  0
CIRCLE
  5
E4
100
AcDbEntity
  8
edge.outer
 62
256
370
-1
 48
1.0
  6
BYLAYER
100
AcDbCircle
 10
284.0
 20
81.0
 30
0.0
 40
1.6000000000000001
  0
CIRCLE
  5
E5
100
AcDbEntity
  8
edge.inner
 62
256
370
-1
 48
1.0
  6
BYLAYER
100
AcDbCircle
 10
191.0
 20
30.0000000000000036
 30
0.0
 40
1.6000000000000001
  0
CIRCLE
  5
E6
100
AcDbEntity
  8
edge.outer
 62
256
370
-1
 48
1.0
  6
BYLAYER
100
AcDbCircle
 10
284.0
 20
99.0
 30
0.0
 40
1.6000000000000001
  0
LINE
  5
E7
100
AcDbEntity
  8
auxiliary
 62
256
370
-1
 48
1.0
  6
BYLAYER
100
AcDbLine
 10
145.0
 20
24.5000000000000036
 30
0.0
 11
161.0
 21
24.5000000000000036
 31
0.0
  0
LINE
  5
E8
100
AcDbEntity
  8
auxiliary
 62
256
370
-1
 48
1.0
  6
BYLAYER
100
AcDbLine
 10
132.0
 20
134.5
 30
0.0
 11
148.0
 21
134.5
 31
0.0
  0
LWPOLYLINE
  5
E9
100
AcDbEntity
  8
private_parts
 62
256
370
-1
 48
1.0
  6
BYLAYER
100
AcDbPolyline
 90
4
 70
129
 10
192.2500000000000284
 20
83.6000000000000227
 10
201.7500000000000284
 20
83.6000000000000227
 10
201.7500000000000284
 20
78.0
 10
192.2500000000000284
 20
78.0
  0
LINE
  5
EA
100
AcDbEntity
  8
auxiliary
 62
256
370
-1
 48
1.0
  6
BYLAYER
100
AcDbLine
 10
169.0
 20
27.5300000000000331
 30
0.0
 11
185.0
 21
27.5300000000000331
 31
0.0
  0
LINE
  5
EB
100
AcDbEntity
  8
auxiliary
 62
256
370
-1
 48
1.0
  6
BYLAYER
100
AcDbLine
 10
156.0
 20
137.5300000000000296
 30
0.0
 11
172.0
 21
137.5300000000000296
 31
0.0
  0
CIRCLE
  5
EC
100
AcDbEntity
  8
edge.outer
 62
256
370
-1
 48
1.0
  6
BYLAYER
100
AcDbCircle
 10
273.0
 20
101.0
 30
0.0
 40
1.6000000000000001
  0
LINE
  5
ED
100
AcDbEntity
  8
auxiliary
 62
256
370
-1
 48
1.0
  6
BYLAYER
100
AcDbLine
 10
223.0
 20
24.5000000000000036
 30
0.0
 11
239.0
 21
24.5000000000000036
 31
0.0
  0
LWPOLYLINE
  5
EE
100
AcDbEntity
  8
private_parts
 62
256
370
-1
 48
1.0
  6
BYLAYER
100
AcDbPolyline
 90
4
 70
129
 10
203.0000000000000284
 20
91.0
 10
219.0000000000000284
 20
91.0
 10
219.0000000000000284
 20
78.0
 10
203.0000000000000284
 20
78.0
  0
LINE
  5
EF
100
AcDbEntity
  8
auxiliary
 62
256
370
-1
 48
1.0
  6
BYLAYER
100
AcDbLine
 10
247.0
 20
27.5300000000000331
 30
0.0
 11
263.0
 21
27.5300000000000331
 31
0.0
  0
CIRCLE
  5
F0
100
AcDbEntity
  8
edge.outer
 62
256
370
-1
 48
1.0
  6
BYLAYER
100
AcDbCircle
 10
277.0
 20
101.0
 30
0.0
 40
1.6000000000000001
  0
LWPOLYLINE
  5
F1
100
AcDbEntity
  8
private_parts
 62
256
370
-1
 48
1.0
  6
BYLAYER
100
AcDbPolyline
 90
4
 70
129
 10
223.2500000000000568
 20
83.6000000000000227
 10
232.7500000000000284
 20
83.6000000000000227
 10
232.7500000000000284
 20
78.0
 10
223.2500000000000568
 20
78.0
  0
LWPOLYLINE
  5
F2
100
AcDbEntity
  8
private_parts
 62
256
370
-1
 48
1.0
  6
BYLAYER
100
AcDbPolyline
 90
4
 70
129
 10
234.0000000000000284
 20
91.0
 10
250.0000000000000284
 20
91.0
 10
250.0000000000000284
 20
78.0
 10
234.0000000000000284
 20
78.0
  0
LINE
  5
F3
100
AcDbEntity
  8
auxiliary
 62
256
370
-1
 48
1.0
  6
BYLAYER
100
AcDbLine
 10
138.0
 20
7.9999999999999893
 30
0.0
 11
138.0
 21
52.0
 31
0.0
  0
DIMENSION
  5
F4
100
AcDbEntity
  8
dimensions
 62
256
370
-1
 48
1.0
  6
BYLAYER
100
AcDbDimension
 10
28.4500000000000135
 20
60.5
 30
0.0
 11
37.841666666666633
 21
62.375
 31
0.0
 70
0
 71
8
 72
2
 74
0
 75
0
 41
1.0
 42
0.0
  1

  3
Standard
100
AcDbAlignedDimension
 13
28.4500000000000171
 23
67.0
 33
0.0
 14
34.2999999999999687
 24
64.5299999999999727
 34
0.0
 50
0.0
100
AcDbRotatedDimension
1001
ACAD
1000
DSTYLE
1002
{
1070
144
1040
1.0
1070
40
1040
1.0
1002
}
  0
LINE
  5
F5
100
AcDbEntity
  8
auxiliary
 62
256
370
-1
 48
1.0
  6
BYLAYER
100
AcDbLine
 10
337.0
 20
7.9999999999999893
 30
0.0
 11
337.0
 21
52.0
 31
0.0
  0
DIMENSION
  5
F6
100
AcDbEntity
  8
dimensions
 62
256
370
-1
 48
1.0
  6
BYLAYER
100
AcDbDimension
 10
24.9000000000000021
 20
90.4999999999999716
 30
0.0
 11
29.6000000000000014
 21
92.3749999999999716
 31
0.0
 70
0
 71
8
 72
2
 74
0
 75
0
 41
1.0
 42
0.0
  1

  3
Standard
100
AcDbAlignedDimension
 13
24.8999999999999986
 23
93.5000000000000142
 33
0.0
 14
34.3000000000000043
 24
93.4999999999999574
 34
0.0
 50
0.0
100
AcDbRotatedDimension
1001
ACAD
1000
DSTYLE
1002
{
1070
144
1040
1.0
1070
40
1040
1.0
1002
}
  0
LINE
  5
F7
100
AcDbEntity
  8
auxiliary
 62
256
370
-1
 48
1.0
  6
BYLAYER
100
AcDbLine
 10
129.9999999999999432
 20
43.0
 30
0.0
 11
345.0
 21
43.0
 31
0.0
  0
LWPOLYLINE
  5
F8
100
AcDbEntity
  8
private_pcb
 62
256
370
-1
 48
1.0
  6
BYLAYER
100
AcDbPolyline
 90
4
 70
129
 10
190.0
 20
78.0
 10
252.0000000000000284
 20
78.0
 10
252.0000000000000284
 20
76.4000000000000057
 10
190.0
 20
76.4000000000000057
  0
LINE
  5
F9
100
AcDbEntity
  8
auxiliary
 62
256
370
-1
 48
1.0
  6
BYLAYER
100
AcDbLine
 10
129.9999999999999432
 20
17.0000000000000178
 30
0.0
 11
345.0
 21
17.0000000000000178
 31
0.0
  0
LWPOLYLINE
  5
FA
100
AcDbEntity
  8
0
 62
256
370
-1
 48
1.0
  6
BYLAYER
100
AcDbPolyline
 90
4
 70
129
 10
194.0000000000000284
 20
82.5
 10
200.0000000000000284
 20
82.5
 10
200.0000000000000284
 20
79.5
 10
194.0000000000000284
 20
79.5
  0
LINE
  5
FB
100
AcDbEntity
  8
auxiliary
 62
256
370
-1
 48
1.0
  6
BYLAYER
100
AcDbLine
 10
187.0
 20
37.0
 30
0.0
 11
187.0
 21
37.0
 31
0.0
  0
ARC
  5
FC
100
AcDbEntity
  8
dimensions
 62
256
370
-1
 48
1.0
  6
BYLAYER
100
AcDbCircle
 10
35.7499999999999858
 20
101.0000000000000426
 30
0.0
 40
10.0000000000000124
100
AcDbArc
 50
360.0
 51
14.9999999999996749
  0
LWPOLYLINE
  5
FD
100
AcDbEntity
  8
0
 62
256
370
-1
 48
1.0
  6
BYLAYER
100
AcDbPolyline
 90
4
 70
129
 10
225.0000000000000284
 20
82.5
 10
231.0000000000000284
 20
82.5
 10
231.0000000000000284
 20
79.5
 10
225.0000000000000284
 20
79.5
  0
DIMENSION
  5
FE
100
AcDbEntity
  8
dimensions
 62
256
370
-1
 48
1.0
  6
BYLAYER
100
AcDbDimension
 10
45.4092582628906953
 20
103.5881904510251843
 30
0.0
 11
49.0347965855639103
 21
102.7489766504299951
 31
0.0
 70
2
 71
8
 72
2
 74
0
 75
0
 41
1.0
 42
0.0
  1

  3
Standard
100
AcDb2LineAngularDimension
 13
24.9000000000000057
 23
100.9999999999999858
 33
0.0
 14
45.75
 24
100.9999999999999716
 34
0.0
 15
35.7500000000000213
 25
100.9999999999999716
 35
0.0
 16
46.9999999999999716
 26
103.5
 36
0.0
  0
DIMENSION
  5
FF
100
AcDbEntity
  8
dimensions
 62
256
370
-1
 48
1.0
  6
BYLAYER
100
AcDbDimension
 10
30.9999999999999609
 20
32.5000000000000355
 30
0.0
 11
36.8694444444444116
 21
34.3750000000000355
 31
0.0
 70
0
 71
8
 72
2
 74
0
 75
0
 41
1.0
 42
0.0
  1

  3
Standard
100
AcDbAlignedDimension
 13
30.9999999999999716
 23
38.4000000000000128
 33
0.0
 14
34.2999999999999687
 24
36.4999999999999076
 34
0.0
 50
0.0
100
AcDbRotatedDimension
1001
ACAD
1000
DSTYLE
1002
{
1070
144
1040
1.0
1070
40
1040
1.0
1002
}
  0
CIRCLE
  5
100
100
AcDbEntity
  8
spacer
 62
256
370
-1
 48
1.0
  6
BYLAYER
100
AcDbCircle
 10
284.0
 20
104.0
 30
0.0
 40
1.6000000000000001
  0
LWPOLYLINE
  5
101
100
AcDbEntity
  8
0
 62
256
370
-1
 48
1.0
  6
BYLAYER
100
AcDbPolyline
 90
4
 70
129
 10
31.0000000000000142
 20
21.3500000000000014
 10
40.1000000000000227
 20
21.3500000000000014
 10
40.1000000000000227
 20
11.6500000000000021
 10
31.0000000000000142
 20
11.6500000000000021
  0
DIMENSION
  5
102
100
AcDbEntity
  8
dimensions
 62
256
370
-1
 48
1.0
  6
BYLAYER
100
AcDbDimension
 10
39.9999999999999645
 20
83.5
 30
0.0
 11
43.7499999999999929
 21
85.375
 31
0.0
 70
1
 71
8
 72
2
 74
0
 75
0
 41
1.0
 42
0.0
  1

  3
Standard
100
AcDbAlignedDimension
 13
39.9999999999999716
 23
79.7049999999999983
 33
0.0
 14
47.5000000000000142
 24
79.7049999999999983
 34
0.0
1001
ACAD
1000
DSTYLE
1002
{
1070
144
1040
1.0
1070
40
1040
1.0
1002
}
  0
CIRCLE
  5
103
100
AcDbEntity
  8
spacer
 62
256
370
-1
 48
1.0
  6
BYLAYER
100
AcDbCircle
 10
284.0
 20
76.0
 30
0.0
 40
1.6000000000000001
  0
DIMENSION
  5
104
100
AcDbEntity
  8
dimensions
 62
256
370
-1
 48
1.0
  6
BYLAYER
100
AcDbDimension
 10
219.9794502094766813
 20
53.9395598329935169
 30
0.0
 11
225.4794502094766813
 21
55.814559832993524
 31
0.0
 70
1
 71
8
 72
2
 74
0
 75
0
 41
1.0
 42
0.0
  1

  3
Standard
100
AcDbAlignedDimension
 13
219.9794502094766813
 23
51.9395598329935808
 33
0.0
 14
230.9794502094766813
 24
51.9395598329935879
 34
0.0
1001
ACAD
1000
DSTYLE
1002
{
1070
144
1040
1.0
1070
40
1040
1.0
1002
}
  0
LWPOLYLINE
  5
105
100
AcDbEntity
  8
private_pcb
 62
256
370
-1
 48
1.0
  6
BYLAYER
100
AcDbPolyline
 90
4
 70
129
 10
23.3000000000000007
 20
126.0
 10
24.8999999999999986
 20
126.0
 10
24.8999999999999986
 20
116.0
 10
23.3000000000000007
 20
116.0
  0
DIMENSION
  5
106
100
AcDbEntity
  8
dimensions
 62
256
370
-1
 48
1.0
  6
BYLAYER
100
AcDbDimension
 10
230.9794502094766813
 20
53.9395598329935453
 30
0.0
 11
242.9794502094766813
 21
55.8145598329934671
 31
0.0
 70
1
 71
8
 72
2
 74
0
 75
0
 41
1.0
 42
0.0
  1

  3
Standard
100
AcDbAlignedDimension
 13
230.9794502094766813
 23
51.9395598329935879
 33
0.0
 14
254.9794502094766813
 24
51.9395598329934316
 34
0.0
1001
ACAD
1000
DSTYLE
1002
{
1070
144
1040
1.0
1070
40
1040
1.0
1002
}
  0
CIRCLE
  5
107
100
AcDbEntity
  8
spacer
 62
256
370
-1
 48
1.0
  6
BYLAYER
100
AcDbCircle
 10
307.0
 20
90.0
 30
0.0
 40
1.6000000000000001
  0
DIMENSION
  5
108
100
AcDbEntity
  8
dimensions
 62
256
370
-1
 48
1.0
  6
BYLAYER
100
AcDbDimension
 10
254.9794502094766813
 20
53.9395598329937584
 30
0.0
 11
261.9794502094766813
 21
55.8145598329937016
 31
0.0
 70
1
 71
8
 72
2
 74
0
 75
0
 41
1.0
 42
0.0
  1

  3
Standard
100
AcDbAlignedDimension
 13
254.9794502094766813
 23
51.9395598329934316
 33
0.0
 14
268.9794502094766813
 24
51.9395598329933179
 34
0.0
1001
ACAD
1000
DSTYLE
1002
{
1070
144
1040
1.0
1070
40
1040
1.0
1002
}
  0
LWPOLYLINE
  5
109
100
AcDbEntity
  8
private_pcb
 62
256
370
-1
 48
1.0
  6
BYLAYER
100
AcDbPolyline
 90
4
 70
129
 10
23.2999999999999865
 20
143.0
 10
24.8999999999999844
 20
143.0
 10
24.8999999999999844
 20
133.0
 10
23.2999999999999865
 20
133.0
  0
DIMENSION
  5
10A
100
AcDbEntity
  8
dimensions
 62
256
370
-1
 48
1.0
  6
BYLAYER
100
AcDbDimension
 10
268.9794502094766813
 20
53.9395598329933676
 30
0.0
 11
272.9794502094766813
 21
55.8145598329934103
 31
0.0
 70
1
 71
8
 72
2
 74
0
 75
0
 41
1.0
 42
0.0
  1

  3
Standard
100
AcDbAlignedDimension
 13
268.9794502094766813
 23
51.9395598329933179
 33
0.0
 14
276.9794502094766813
 24
51.9395598329934103
 34
0.0
1001
ACAD
1000
DSTYLE
1002
{
1070
144
1040
1.0
1070
40
1040
1.0
1002
}
  0
LWPOLYLINE
  5
10B
100
AcDbEntity
  8
chassis
 62
256
370
-1
 48
1.0
  6
BYLAYER
100
AcDbPolyline
 90
4
 70
129
 10
34.2999999999999972
 20
126.0
 10
35.5
 20
126.0
 10
35.5
 20
116.0
 10
34.2999999999999972
 20
116.0
  0
DIMENSION
  5
10C
100
AcDbEntity
  8
dimensions
 62
256
370
-1
 48
1.0
  6
BYLAYER
100
AcDbDimension
 10
276.9794502094766813
 20
53.93955983299346
 30
0.0
 11
281.9794502094766813
 21
55.8145598329934387
 31
0.0
 70
1
 71
8
 72
2
 74
0
 75
0
 41
1.0
 42
0.0
  1

  3
Standard
100
AcDbAlignedDimension
 13
276.9794502094766813
 23
51.9395598329934103
 33
0.0
 14
286.9794502094766813
 24
51.9395598329933748
 34
0.0
1001
ACAD
1000
DSTYLE
1002
{
1070
144
1040
1.0
1070
40
1040
1.0
1002
}
  0
LWPOLYLINE
  5
10D
100
AcDbEntity
  8
chassis
 62
256
370
-1
 48
1.0
  6
BYLAYER
100
AcDbPolyline
 90
4
 70
129
 10
34.3000000000000114
 20
143.0
 10
35.5
 20
143.0
 10
35.5
 20
133.0
 10
34.3000000000000114
 20
133.0
  0
DIMENSION
  5
10E
100
AcDbEntity
  8
dimensions
 62
256
370
-1
 48
1.0
  6
BYLAYER
100
AcDbDimension
 10
286.9794502094766813
 20
53.9395598329936021
 30
0.0
 11
289.4794502094766813
 21
55.8145598329936448
 31
0.0
 70
1
 71
8
 72
2
 74
0
 75
0
 41
1.0
 42
0.0
  1

  3
Standard
100
AcDbAlignedDimension
 13
286.9794502094766813
 23
51.9395598329933748
 33
0.0
 14
291.9794502094766813
 24
51.93955983299346
 34
0.0
1001
ACAD
1000
DSTYLE
1002
{
1070
144
1040
1.0
1070
40
1040
1.0
1002
}
  0
LWPOLYLINE
  5
10F
100
AcDbEntity
  8
chassis
 62
256
370
-1
 48
1.0
  6
BYLAYER
100
AcDbPolyline
 90
4
 70
129
 10
37.0
 20
126.0
 10
40.0
 20
126.0
 10
40.0
 20
116.0
 10
37.0
 20
116.0
  0
LWPOLYLINE
  5
110
100
AcDbEntity
  8
0
 62
256
370
-1
 48
1.0
  6
BYLAYER
100
AcDbPolyline
 90
4
 70
129
 10
30.9999999999999964
 20
51.3500000000000014
 10
40.0999999999999943
 20
51.3500000000000014
 10
40.0999999999999943
 20
41.6500000000000057
 10
30.9999999999999964
 20
41.6500000000000057
  0
LWPOLYLINE
  5
111
100
AcDbEntity
  8
chassis
 62
256
370
-1
 48
1.0
  6
BYLAYER
100
AcDbPolyline
 90
4
 70
129
 10
37.0
 20
143.0
 10
40.0
 20
143.0
 10
40.0
 20
133.0
 10
37.0
 20
133.0
  0
CIRCLE
  5
112
100
AcDbEntity
  8
spacer
 62
256
370
-1
 48
1.0
  6
BYLAYER
100
AcDbCircle
 10
284.0
 20
90.0
 30
0.0
 40
1.6000000000000001
  0
CIRCLE
  5
113
100
AcDbEntity
  8
edge.outer
 62
256
370
-1
 48
1.0
  6
BYLAYER
100
AcDbCircle
 10
177.0
 20
27.5300000000000331
 30
0.0
 40
3.5
  0
CIRCLE
  5
114
100
AcDbEntity
  8
edge.outer
 62
256
370
-1
 48
1.0
  6
BYLAYER
100
AcDbCircle
 10
164.0
 20
137.5300000000000296
 30
0.0
 40
3.5
  0
CIRCLE
  5
115
100
AcDbEntity
  8
spacer
 62
256
370
-1
 48
1.0
  6
BYLAYER
100
AcDbCircle
 10
296.0
 20
90.0
 30
0.0
 40
1.6000000000000001
  0
CIRCLE
  5
116
100
AcDbEntity
  8
edge.outer
 62
256
370
-1
 48
1.0
  6
BYLAYER
100
AcDbCircle
 10
255.0
 20
27.5300000000000331
 30
0.0
 40
3.5
  0
LWPOLYLINE
  5
117
100
AcDbEntity
  8
0
 62
256
370
-1
 48
1.0
  6
BYLAYER
100
AcDbPolyline
 90
7
 70
128
 10
35.9000000000000057
 20
122.5
 10
39.4000000000000057
 20
122.5
 42
-0.414213562373095
 10
40.9000000000000057
 20
121.0
 10
40.9000000000000057
 20
121.0
 42
-0.414213562373095
 10
39.4000000000000057
 20
119.5
 10
35.9000000000000057
 20
119.5
 10
35.9000000000000057
 20
122.5
  0
CIRCLE
  5
118
100
AcDbEntity
  8
edge.outer
 62
256
370
-1
 48
1.0
  6
BYLAYER
100
AcDbCircle
 10
153.0
 20
24.5000000000000036
 30
0.0
 40
5.0
  0
CIRCLE
  5
119
100
AcDbEntity
  8
edge.outer
 62
256
370
-1
 48
1.0
  6
BYLAYER
100
AcDbCircle
 10
140.0
 20
134.5
 30
0.0
 40
5.0
  0
CIRCLE
  5
11A
100
AcDbEntity
  8
edge.outer
 62
256
370
-1
 48
1.0
  6
BYLAYER
100
AcDbCircle
 10
231.0
 20
24.5000000000000036
 30
0.0
 40
5.0
  0
DIMENSION
  5
11B
100
AcDbEntity
  8
dimensions
 62
256
370
-1
 48
1.0
  6
BYLAYER
100
AcDbDimension
 10
348.9947032189045331
 20
17.014772359776746
 30
0.0
 11
347.1197032189045331
 21
19.0147723597777087
 31
0.0
 70
1
 71
8
 72
2
 74
0
 75
0
 41
1.0
 42
0.0
  1

  3
Standard
100
AcDbAlignedDimension
 13
344.9947032189045331
 23
17.0147723597776483
 33
0.0
 14
344.9947032189045331
 24
21.0147723597777727
 34
0.0
1001
ACAD
1000
DSTYLE
1002
{
1070
144
1040
1.0
1070
40
1040
1.0
1002
}
  0
LINE
  5
11C
100
AcDbEntity
  8
private_parts
 62
256
370
-1
 48
1.0
  6
BYLAYER
100
AcDbLine
 10
239.0
 20
31.0000000000000036
 30
0.0
 11
239.0
 21
18.0000000000000036
 31
0.0
  0
DIMENSION
  5
11D
100
AcDbEntity
  8
dimensions
 62
256
370
-1
 48
1.0
  6
BYLAYER
100
AcDbDimension
 10
348.9947032189045331
 20
39.0147723597776306
 30
0.0
 11
347.1197032189045331
 21
41.014772359777588
 31
0.0
 70
1
 71
8
 72
2
 74
0
 75
0
 41
1.0
 42
0.0
  1

  3
Standard
100
AcDbAlignedDimension
 13
344.9947032189045331
 23
39.0147723597776945
 33
0.0
 14
344.9947032189045331
 24
43.0147723597774814
 34
0.0
1001
ACAD
1000
DSTYLE
1002
{
1070
144
1040
1.0
1070
40
1040
1.0
1002
}
  0
HATCH
  5
11E
100
AcDbEntity
  8
chassis
 62
256
370
-1
 48
1.0
  6
BYLAYER
100
AcDbHatch
 10
0.0
 20
0.0
 30
0.0
210
0.0
220
0.0
230
1.0
  2
DOTS
 70
0
 71
0
 91
1
 92
1
 93
4
 72
1
 10
34.2999999999999972
 20
126.0
 11
35.5
 21
126.0
 72
1
 10
35.5
 20
126.0
 11
35.5
 21
116.0
 72
1
 10
35.5
 20
116.0
 11
34.2999999999999972
 21
116.0
 72
1
 10
34.2999999999999972
 20
116.0
 11
34.2999999999999972
 21
126.0
 97
0
 75
0
 76
1
 52
0.0
 41
0.5
 77
0
 78
1
 53
45.0
 43
0.0
 44
0.0
 45
-0.0883883476483184
 46
0.0883883476483185
 79
0
 98
0
1001
ACAD
1010
0.0
1020
0.0
1030
0
  0
CIRCLE
  5
11F
100
AcDbEntity
  8
private_parts
 62
256
370
-1
 48
1.0
  6
BYLAYER
100
AcDbCircle
 10
177.0
 20
27.5300000000000331
 30
0.0
 40
7.75
  0
CIRCLE
  5
120
100
AcDbEntity
  8
private_parts
 62
256
370
-1
 48
1.0
  6
BYLAYER
100
AcDbCircle
 10
164.0
 20
137.5300000000000296
 30
0.0
 40
7.75
  0
LINE
  5
121
100
AcDbEntity
  8
0
 62
256
370
-1
 48
1.0
  6
BYLAYER
100
AcDbLine
 10
24.8999999999999986
 20
121.0
 30
0.0
 11
40.9000000000000057
 21
121.0
 31
0.0
  0
CIRCLE
  5
122
100
AcDbEntity
  8
private_parts
 62
256
370
-1
 48
1.0
  6
BYLAYER
100
AcDbCircle
 10
255.0
 20
27.5300000000000331
 30
0.0
 40
7.75
  0
MTEXT
  5
123
100
AcDbEntity
  8
0
 62
256
370
-1
 48
1.0
  6
BYLAYER
100
AcDbMText
 10
57.0
 20
121.0
 30
0.0
 40
3.0
 41
0.0
 71
4
 72
1
  1
Channel:ControlPanel\PLEDs
  7
textstyle6
 50
0.0
 73
2
 44
1.0
  0
LWPOLYLINE
  5
124
100
AcDbEntity
  8
private_parts
 62
256
370
-1
 48
1.0
  6
BYLAYER
100
AcDbPolyline
 90
6
 70
129
 10
145.4944465005348775
 20
24.5000000000000036
 10
149.2472232502674387
 20
18.0000000000000036
 10
156.7527767497325613
 20
18.0000000000000036
 10
160.5055534994651225
 20
24.5000000000000036
 10
156.7527767497325613
 20
31.0000000000000036
 10
149.2472232502674387
 20
31.0000000000000036
  0
LWPOLYLINE
  5
125
100
AcDbEntity
  8
private_parts
 62
256
370
-1
 48
1.0
  6
BYLAYER
100
AcDbPolyline
 90
6
 70
129
 10
132.4944465005348775
 20
134.5
 10
136.2472232502674387
 20
128.0
 10
143.7527767497325613
 20
128.0
 10
147.5055534994651225
 20
134.5
 10
143.7527767497325613
 20
141.0
 10
136.2472232502674387
 20
141.0
  0
DIMENSION
  5
126
100
AcDbEntity
  8
dimensions
 62
256
370
-1
 48
1.0
  6
BYLAYER
100
AcDbDimension
 10
24.8999999999999986
 20
114.0
 30
0.0
 11
30.4000000000000021
 21
115.875
 31
0.0
 70
0
 71
8
 72
2
 74
0
 75
0
 41
1.0
 42
0.0
  1

  3
Standard
100
AcDbAlignedDimension
 13
24.8999999999999986
 23
116.0000000000000142
 33
0.0
 14
35.9000000000000057
 24
119.0
 34
0.0
 50
0.0
100
AcDbRotatedDimension
1001
ACAD
1000
DSTYLE
1002
{
1070
144
1040
1.0
1070
40
1040
1.0
1002
}
  0
LWPOLYLINE
  5
127
100
AcDbEntity
  8
private_parts
 62
256
370
-1
 48
1.0
  6
BYLAYER
100
AcDbPolyline
 90
6
 70
129
 10
169.4944465005348775
 20
27.5300000000000331
 10
173.2472232502674387
 20
21.0300000000000331
 10
180.7527767497325613
 20
21.0300000000000331
 10
184.5055534994651225
 20
27.5300000000000331
 10
180.7527767497325613
 20
34.0300000000000296
 10
173.2472232502674387
 20
34.0300000000000296
  0
LWPOLYLINE
  5
128
100
AcDbEntity
  8
private_parts
 62
256
370
-1
 48
1.0
  6
BYLAYER
100
AcDbPolyline
 90
6
 70
129
 10
156.4944465005348775
 20
137.5300000000000296
 10
160.2472232502674387
 20
131.0300000000000296
 10
167.7527767497325613
 20
131.0300000000000296
 10
171.5055534994651225
 20
137.5300000000000296
 10
167.7527767497325613
 20
144.0300000000000296
 10
160.2472232502674387
 20
144.0300000000000296
  0
DIMENSION
  5
129
100
AcDbEntity
  8
dimensions
 62
256
370
-1
 48
1.0
  6
BYLAYER
100
AcDbDimension
 10
48.0
 20
11.0
 30
0.0
 11
46.125
 21
16.4999999999999751
 31
0.0
 70
1
 71
8
 72
2
 74
0
 75
0
 41
1.0
 42
0.0
  1

  3
Standard
100
AcDbAlignedDimension
 13
38.9999999999999858
 23
22.1999999999999567
 33
0.0
 14
38.9999999999999858
 24
10.8000000000000007
 34
0.0
1001
ACAD
1000
DSTYLE
1002
{
1070
144
1040
1.0
1070
40
1040
1.0
1002
}
  0
LWPOLYLINE
  5
12A
100
AcDbEntity
  8
private_parts
 62
256
370
-1
 48
1.0
  6
BYLAYER
100
AcDbPolyline
 90
6
 70
129
 10
223.4944465005348775
 20
24.5000000000000036
 10
227.2472232502674387
 20
18.0000000000000036
 10
234.7527767497325613
 20
18.0000000000000036
 10
238.5055534994651225
 20
24.5000000000000036
 10
234.7527767497325613
 20
31.0000000000000036
 10
227.2472232502674387
 20
31.0000000000000036
  0
DIMENSION
  5
12B
100
AcDbEntity
  8
dimensions
 62
256
370
-1
 48
1.0
  6
BYLAYER
100
AcDbDimension
 10
55.0
 20
72.0
 30
0.0
 11
53.125
 21
76.5300000000000153
 31
0.0
 70
1
 71
8
 72
2
 74
0
 75
0
 41
1.0
 42
0.0
  1

  3
Standard
100
AcDbAlignedDimension
 13
37.980000000000004
 23
81.4849999999999994
 33
0.0
 14
37.980000000000004
 24
71.5750000000000313
 34
0.0
1001
ACAD
1000
DSTYLE
1002
{
1070
144
1040
1.0
1070
40
1040
1.0
1002
}
  0
LWPOLYLINE
  5
12C
100
AcDbEntity
  8
private_parts
 62
256
370
-1
 48
1.0
  6
BYLAYER
100
AcDbPolyline
 90
6
 70
129
 10
247.4944465005348775
 20
27.5300000000000331
 10
251.2472232502674387
 20
21.0300000000000331
 10
258.7527767497325613
 20
21.0300000000000331
 10
262.5055534994651225
 20
27.5300000000000331
 10
258.7527767497325613
 20
34.0300000000000296
 10
251.2472232502674387
 20
34.0300000000000296
  0
LWPOLYLINE
  5
12D
100
AcDbEntity
  8
private_pcb
 62
256
370
-1
 48
1.0
  6
BYLAYER
100
AcDbPolyline
 90
4
 70
129
 10
130.0
 20
78.0
 10
174.0
 20
78.0
 10
174.0
 20
76.4000000000000057
 10
130.0
 20
76.4000000000000057
  0
LWPOLYLINE
  5
12E
100
AcDbEntity
  8
private_parts
 62
256
370
-1
 48
1.0
  6
BYLAYER
100
AcDbPolyline
 90
6
 70
129
 10
223.4944465005348775
 20
24.5000000000000036
 10
227.2472232502674387
 20
18.0000000000000036
 10
234.7527767497325613
 20
18.0000000000000036
 10
238.5055534994651225
 20
24.5000000000000036
 10
234.7527767497325613
 20
31.0000000000000036
 10
227.2472232502674387
 20
31.0000000000000036
  0
LWPOLYLINE
  5
12F
100
AcDbEntity
  8
edge.inner
 62
256
370
-1
 48
1.0
  6
BYLAYER
100
AcDbPolyline
 90
4
 70
129
 10
130.0
 20
51.0
 10
345.0
 20
51.0
 10
345.0
 20
10.0000000000000178
 10
130.0
 20
10.0000000000000178
  0
HATCH
  5
130
100
AcDbEntity
  8
private_pcb
 62
256
370
-1
 48
1.0
  6
BYLAYER
100
AcDbHatch
 10
0.0
 20
0.0
 30
0.0
210
0.0
220
0.0
230
1.0
  2
DOTS
 70
0
 71
0
 91
1
 92
1
 93
4
 72
1
 10
130.0
 20
78.0
 11
174.0
 21
78.0
 72
1
 10
174.0
 20
78.0
 11
174.0
 21
76.4000000000000057
 72
1
 10
174.0
 20
76.4000000000000057
 11
130.0
 21
76.4000000000000057
 72
1
 10
130.0
 20
76.4000000000000057
 11
130.0
 21
78.0
 97
0
 75
0
 76
1
 52
0.0
 41
0.5
 77
0
 78
1
 53
45.0
 43
0.0
 44
0.0
 45
-0.0883883476483184
 46
0.0883883476483185
 79
0
 98
0
1001
ACAD
1010
0.0
1020
0.0
1030
0
  0
DIMENSION
  5
131
100
AcDbEntity
  8
dimensions
 62
256
370
-1
 48
1.0
  6
BYLAYER
100
AcDbDimension
 10
182.0
 20
70.0
 30
0.0
 11
180.125
 21
73.9999999999996447
 31
0.0
 70
1
 71
8
 72
2
 74
0
 75
0
 41
1.0
 42
0.0
  1

  3
Standard
100
AcDbAlignedDimension
 13
174.0
 23
77.9999999999993463
 33
0.0
 14
174.0
 24
69.9999999999999432
 34
0.0
1001
ACAD
1000
DSTYLE
1002
{
1070
144
1040
1.0
1070
40
1040
1.0
1002
}
  0
LWPOLYLINE
  5
132
100
AcDbEntity
  8
edge.outer
 62
256
370
-1
 48
1.0
  6
BYLAYER
100
AcDbPolyline
 90
4
 70
129
 10
130.0
 20
52.0
 10
345.0
 20
52.0
 10
345.0
 20
8.0000000000000178
 10
130.0
 20
8.0000000000000178
  0
LINE
  5
133
100
AcDbEntity
  8
auxiliary
 62
256
370
-1
 48
1.0
  6
BYLAYER
100
AcDbLine
 10
132.0
 20
84.5
 30
0.0
 11
148.0
 21
84.5
 31
0.0
  0
LWPOLYLINE
  5
134
100
AcDbEntity
  8
edge.outer
 62
256
370
-1
 48
1.0
  6
BYLAYER
100
AcDbPolyline
 90
9
 70
128
 10
320.5499999999999545
 20
39.6000000000000227
 10
331.4499999999999318
 20
39.6000000000000227
 42
-0.414213562373095
 10
332.4499999999999318
 20
38.6000000000000227
 10
332.4499999999999318
 20
21.4000000000000377
 42
-0.414213562373095
 10
331.4499999999999318
 20
20.4000000000000377
 10
320.5499999999999545
 20
20.4000000000000377
 42
-0.414213562373095
 10
319.5499999999999545
 20
21.4000000000000377
 10
319.5499999999999545
 20
38.6000000000000227
 42
-0.414213562373095
 10
320.5499999999999545
 20
39.6000000000000227
  0
LINE
  5
135
100
AcDbEntity
  8
auxiliary
 62
256
370
-1
 48
1.0
  6
BYLAYER
100
AcDbLine
 10
156.0
 20
87.5300000000000011
 30
0.0
 11
172.0
 21
87.5300000000000011
 31
0.0
  0
LWPOLYLINE
  5
136
100
AcDbEntity
  8
edge.outer
 62
256
370
-1
 48
1.0
  6
BYLAYER
100
AcDbPolyline
 90
9
 70
128
 10
195.3999999999999773
 20
42.6000000000000227
 10
202.6000000000000227
 20
42.6000000000000227
 42
-0.414213562373095
 10
204.1000000000000227
 20
41.1000000000000227
 10
204.1000000000000227
 20
36.9000000000000341
 42
-0.4142135623730924
 10
202.6000000000000227
 20
35.4000000000000341
 10
195.3999999999999773
 20
35.4000000000000341
 42
-0.414213562373095
 10
193.8999999999999773
 20
36.8999999999999773
 10
193.8999999999999773
 20
41.1000000000000227
 42
-0.414213562373095
 10
195.3999999999999773
 20
42.6000000000000227
  0
LINE
  5
137
100
AcDbEntity
  8
auxiliary
 62
256
370
-1
 48
1.0
  6
BYLAYER
100
AcDbLine
 10
140.0
 20
78.0
 30
0.0
 11
140.0
 21
91.0
 31
0.0
  0
LWPOLYLINE
  5
138
100
AcDbEntity
  8
edge.outer
 62
256
370
-1
 48
1.0
  6
BYLAYER
100
AcDbPolyline
 90
9
 70
128
 10
195.3999999999999773
 20
24.6000000000000263
 10
202.6000000000000227
 20
24.6000000000000263
 42
-0.414213562373095
 10
204.1000000000000227
 20
23.1000000000000263
 10
204.1000000000000227
 20
18.9000000000000377
 42
-0.4142135623730924
 10
202.6000000000000227
 20
17.4000000000000234
 10
195.3999999999999773
 20
17.4000000000000234
 42
-0.414213562373095
 10
193.8999999999999773
 20
18.8999999999999808
 10
193.8999999999999773
 20
23.1000000000000263
 42
-0.414213562373095
 10
195.3999999999999773
 20
24.6000000000000263
  0
DIMENSION
  5
139
100
AcDbEntity
  8
dimensions
 62
256
370
-1
 48
1.0
  6
BYLAYER
100
AcDbDimension
 10
48.0
 20
52.0
 30
0.0
 11
46.125
 21
46.5000000000000071
 31
0.0
 70
1
 71
8
 72
2
 74
0
 75
0
 41
1.0
 42
0.0
  1

  3
Standard
100
AcDbAlignedDimension
 13
38.9999999999999716
 23
52.1999999999999744
 33
0.0
 14
38.9999999999999716
 24
40.8000000000000398
 34
0.0
1001
ACAD
1000
DSTYLE
1002
{
1070
144
1040
1.0
1070
40
1040
1.0
1002
}
  0
LWPOLYLINE
  5
13A
100
AcDbEntity
  8
edge.outer
 62
256
370
-1
 48
1.0
  6
BYLAYER
100
AcDbPolyline
 90
9
 70
128
 10
273.3999999999999773
 20
42.6000000000000227
 10
280.6000000000000227
 20
42.6000000000000227
 42
-0.414213562373095
 10
282.1000000000000227
 20
41.1000000000000227
 10
282.1000000000000227
 20
36.9000000000000341
 42
-0.4142135623730924
 10
280.6000000000000227
 20
35.4000000000000341
 10
273.3999999999999773
 20
35.4000000000000341
 42
-0.414213562373095
 10
271.8999999999999773
 20
36.8999999999999773
 10
271.8999999999999773
 20
41.1000000000000227
 42
-0.414213562373095
 10
273.3999999999999773
 20
42.6000000000000227
  0
DIMENSION
  5
13B
100
AcDbEntity
  8
dimensions
 62
256
370
-1
 48
1.0
  6
BYLAYER
100
AcDbDimension
 10
140.0
 20
72.3648058279081567
 30
0.0
 11
152.0
 21
74.2398058279081567
 31
0.0
 70
1
 71
8
 72
2
 74
0
 75
0
 41
1.0
 42
0.0
  1

  3
Standard
100
AcDbAlignedDimension
 13
140.0
 23
77.99999999999946
 33
0.0
 14
164.0
 24
77.99999999999946
 34
0.0
1001
ACAD
1000
DSTYLE
1002
{
1070
144
1040
1.0
1070
40
1040
1.0
1002
}
  0
LWPOLYLINE
  5
13C
100
AcDbEntity
  8
edge.outer
 62
256
370
-1
 48
1.0
  6
BYLAYER
100
AcDbPolyline
 90
9
 70
128
 10
273.3999999999999773
 20
24.6000000000000263
 10
280.6000000000000227
 20
24.6000000000000263
 42
-0.414213562373095
 10
282.1000000000000227
 20
23.1000000000000263
 10
282.1000000000000227
 20
18.9000000000000377
 42
-0.4142135623730924
 10
280.6000000000000227
 20
17.4000000000000234
 10
273.3999999999999773
 20
17.4000000000000234
 42
-0.414213562373095
 10
271.8999999999999773
 20
18.8999999999999808
 10
271.8999999999999773
 20
23.1000000000000263
 42
-0.414213562373095
 10
273.3999999999999773
 20
24.6000000000000263
  0
LINE
  5
13D
100
AcDbEntity
  8
auxiliary
 62
256
370
-1
 48
1.0
  6
BYLAYER
100
AcDbLine
 10
164.0
 20
78.0
 30
0.0
 11
164.0
 21
94.0
 31
0.0
  0
LWPOLYLINE
  5
13E
100
AcDbEntity
  8
private_parts
 62
256
370
-1
 48
1.0
  6
BYLAYER
100
AcDbPolyline
 90
4
 70
129
 10
318.4500000000000455
 20
40.5500000000000114
 10
333.5499999999999545
 20
40.5500000000000114
 10
333.5499999999999545
 20
19.4499999999999922
 10
318.4500000000000455
 20
19.4499999999999922
  0
LWPOLYLINE
  5
13F
100
AcDbEntity
  8
private_parts
 62
256
370
-1
 48
1.0
  6
BYLAYER
100
AcDbPolyline
 90
4
 70
129
 10
145.0
 20
31.0000000000000036
 10
161.0
 20
31.0000000000000036
 10
161.0
 20
18.0000000000000036
 10
145.0
 20
18.0000000000000036
  0
LWPOLYLINE
  5
140
100
AcDbEntity
  8
private_parts
 62
256
370
-1
 48
1.0
  6
BYLAYER
100
AcDbPolyline
 90
4
 70
129
 10
132.0
 20
141.0
 10
148.0
 20
141.0
 10
148.0
 20
128.0
 10
132.0
 20
128.0
  0
LWPOLYLINE
  5
141
100
AcDbEntity
  8
private_parts
 62
256
370
-1
 48
1.0
  6
BYLAYER
100
AcDbPolyline
 90
4
 70
129
 10
169.0
 20
35.4499999999999886
 10
185.0
 20
35.4499999999999886
 10
185.0
 20
18.0000000000000036
 10
169.0
 20
18.0000000000000036
  0
LWPOLYLINE
  5
142
100
AcDbEntity
  8
private_parts
 62
256
370
-1
 48
1.0
  6
BYLAYER
100
AcDbPolyline
 90
4
 70
129
 10
156.0
 20
145.4499999999999886
 10
172.0
 20
145.4499999999999886
 10
172.0
 20
128.0
 10
156.0
 20
128.0
  0
DIMENSION
  5
143
100
AcDbEntity
  8
dimensions
 62
256
370
-1
 48
1.0
  6
BYLAYER
100
AcDbDimension
 10
132.0
 20
103.0000000000000284
 30
0.0
 11
152.0
 21
104.8749999999999574
 31
0.0
 70
1
 71
8
 72
2
 74
0
 75
0
 41
1.0
 42
0.0
  1

  3
Standard
100
AcDbAlignedDimension
 13
132.0
 23
95.0000000000000853
 33
0.0
 14
172.0
 24
94.9999999999999432
 34
0.0
1001
ACAD
1000
DSTYLE
1002
{
1070
144
1040
1.0
1070
40
1040
1.0
1002
}
  0
LWPOLYLINE
  5
144
100
AcDbEntity
  8
private_parts
 62
256
370
-1
 48
1.0
  6
BYLAYER
100
AcDbPolyline
 90
4
 70
129
 10
223.0
 20
31.0000000000000036
 10
239.0
 20
31.0000000000000036
 10
239.0
 20
18.0000000000000036
 10
223.0
 20
18.0000000000000036
  0
DIMENSION
  5
145
100
AcDbEntity
  8
dimensions
 62
256
370
-1
 48
1.0
  6
BYLAYER
100
AcDbDimension
 10
128.0
 20
76.999999999999801
 30
0.0
 11
126.125
 21
86.0000000000001705
 31
0.0
 70
1
 71
8
 72
2
 74
0
 75
0
 41
1.0
 42
0.0
  1

  3
Standard
100
AcDbAlignedDimension
 13
132.0
 23
77.0000000000002558
 33
0.0
 14
132.0
 24
95.0000000000000853
 34
0.0
1001
ACAD
1000
DSTYLE
1002
{
1070
144
1040
1.0
1070
40
1040
1.0
1002
}
  0
LWPOLYLINE
  5
146
100
AcDbEntity
  8
private_parts
 62
256
370
-1
 48
1.0
  6
BYLAYER
100
AcDbPolyline
 90
4
 70
129
 10
247.0
 20
35.4499999999999886
 10
263.0
 20
35.4499999999999886
 10
263.0
 20
18.0000000000000036
 10
247.0
 20
18.0000000000000036
  0
LWPOLYLINE
  5
147
100
AcDbEntity
  8
edge.outer
 62
256
370
-1
 48
1.0
  6
BYLAYER
100
AcDbPolyline
 90
9
 70
128
 10
288.3999999999999773
 20
102.5999999999999943
 10
295.6000000000000227
 20
102.5999999999999943
 42
-0.414213562373095
 10
297.1000000000000227
 20
101.0999999999999943
 10
297.1000000000000227
 20
96.9000000000000057
 42
-0.4142135623730924
 10
295.6000000000000227
 20
95.4000000000000057
 10
288.3999999999999773
 20
95.4000000000000057
 42
-0.414213562373095
 10
286.8999999999999773
 20
96.8999999999999773
 10
286.8999999999999773
 20
101.0999999999999943
 42
-0.414213562373095
 10
288.3999999999999773
 20
102.5999999999999943
  0
LWPOLYLINE
  5
148
100
AcDbEntity
  8
private_parts
 62
256
370
-1
 48
1.0
  6
BYLAYER
100
AcDbPolyline
 90
4
 70
129
 10
211.0799999999999841
 20
25.9000000000000377
 10
216.9199999999999591
 20
25.9000000000000377
 10
216.9199999999999591
 20
16.1000000000000121
 10
211.0799999999999841
 20
16.1000000000000121
  0
LWPOLYLINE
  5
149
100
AcDbEntity
  8
edge.outer
 62
256
370
-1
 48
1.0
  6
BYLAYER
100
AcDbPolyline
 90
9
 70
128
 10
288.3999999999999773
 20
84.5999999999999943
 10
295.6000000000000227
 20
84.5999999999999943
 42
-0.414213562373095
 10
297.1000000000000227
 20
83.0999999999999943
 10
297.1000000000000227
 20
78.9000000000000057
 42
-0.4142135623730924
 10
295.6000000000000227
 20
77.4000000000000057
 10
288.3999999999999773
 20
77.4000000000000057
 42
-0.414213562373095
 10
286.8999999999999773
 20
78.8999999999999773
 10
286.8999999999999773
 20
83.0999999999999943
 42
-0.414213562373095
 10
288.3999999999999773
 20
84.5999999999999943
  0
LWPOLYLINE
  5
14A
100
AcDbEntity
  8
private_parts
 62
256
370
-1
 48
1.0
  6
BYLAYER
100
AcDbPolyline
 90
4
 70
129
 10
211.5
 20
24.0000000000000036
 10
216.5
 20
24.0000000000000036
 10
216.5
 20
18.0000000000000036
 10
211.5
 20
18.0000000000000036
  0
LWPOLYLINE
  5
14B
100
AcDbEntity
  8
private_parts
 62
256
370
-1
 48
1.0
  6
BYLAYER
100
AcDbPolyline
 90
4
 70
129
 10
132.0
 20
91.0
 10
148.0
 20
91.0
 10
148.0
 20
78.0
 10
132.0
 20
78.0
  0
LWPOLYLINE
  5
14C
100
AcDbEntity
  8
private_parts
 62
256
370
-1
 48
1.0
  6
BYLAYER
100
AcDbPolyline
 90
4
 70
129
 10
289.0800000000000409
 20
25.9000000000000377
 10
294.9199999999999591
 20
25.9000000000000377
 10
294.9199999999999591
 20
16.1000000000000121
 10
289.0800000000000409
 20
16.1000000000000121
  0
LWPOLYLINE
  5
14D
100
AcDbEntity
  8
private_parts
 62
256
370
-1
 48
1.0
  6
BYLAYER
100
AcDbPolyline
 90
4
 70
129
 10
156.0
 20
95.4499999999999886
 10
172.0
 20
95.4499999999999886
 10
172.0
 20
78.0
 10
156.0
 20
78.0
  0
LWPOLYLINE
  5
14E
100
AcDbEntity
  8
private_parts
 62
256
370
-1
 48
1.0
  6
BYLAYER
100
AcDbPolyline
 90
4
 70
129
 10
289.5
 20
24.0000000000000036
 10
294.5
 20
24.0000000000000036
 10
294.5
 20
18.0000000000000036
 10
289.5
 20
18.0000000000000036
  0
TEXT
  5
14F
100
AcDbEntity
  8
0
 62
256
370
-1
 48
1.0
  6
BYLAYER
100
AcDbText
 10
0.0
 20
0.0
 30
0.0
 40
3.0
  1
ChannelSpacer
 50
0.0
 41
1.0
  7
textstyle5
 71
0
 72
0
 11
130.0
 21
107.0000000000000284
 31
0.0
100
AcDbText
 73
1
  0
TEXT
  5
150
100
AcDbEntity
  8
0
 62
256
370
-1
 48
1.0
  6
BYLAYER
100
AcDbText
 10
66.4060221007800919
 20
-0.6459392027428237
 30
0.0
 40
3.0
  1
OutputConnectorSpacer
 50
0.0
 41
1.0
  7
textstyle4
 71
0
 72
0
 11
191.0
 21
101.0
 31
0.0
100
AcDbText
 73
1
  0
LWPOLYLINE
  5
151
100
AcDbEntity
  8
private_pcb
 62
256
370
-1
 48
1.0
  6
BYLAYER
100
AcDbPolyline
 90
7
 70
1
 10
177.0
 20
47.0
 10
219.0
 20
47.0
 10
219.0
 20
13.0000000000000178
 10
186.0
 20
13.0000000000000178
 10
186.0
 20
36.0
 10
177.0
 20
36.0
 10
177.0
 20
47.0
  0
DIMENSION
  5
152
100
AcDbEntity
  8
dimensions
 62
256
370
-1
 48
1.0
  6
BYLAYER
100
AcDbDimension
 10
132.0
 20
72.3648058279089952
 30
0.0
 11
136.0
 21
74.2398058279086683
 31
0.0
 70
1
 71
8
 72
2
 74
0
 75
0
 41
1.0
 42
0.0
  1

  3
Standard
100
AcDbAlignedDimension
 13
132.0
 23
78.0000000000001137
 33
0.0
 14
140.0
 24
77.99999999999946
 34
0.0
1001
ACAD
1000
DSTYLE
1002
{
1070
144
1040
1.0
1070
40
1040
1.0
1002
}
  0
LWPOLYLINE
  5
153
100
AcDbEntity
  8
private_pcb
 62
256
370
-1
 48
1.0
  6
BYLAYER
100
AcDbPolyline
 90
7
 70
1
 10
255.0
 20
47.0
 10
297.0
 20
47.0
 10
297.0
 20
13.0000000000000178
 10
264.0
 20
13.0000000000000178
 10
264.0
 20
36.0
 10
255.0
 20
36.0
 10
255.0
 20
47.0
  0
LWPOLYLINE
  5
154
100
AcDbEntity
  8
chassis
 62
256
370
-1
 48
1.0
  6
BYLAYER
100
AcDbPolyline
 90
4
 70
129
 10
130.0
 20
71.2000000000000171
 10
174.0
 20
71.2000000000000171
 10
174.0
 20
70.0
 10
130.0
 20
70.0
  0
CIRCLE
  5
155
100
AcDbEntity
  8
private_parts
 62
256
370
-1
 48
1.0
  6
BYLAYER
100
AcDbCircle
 10
138.0
 20
43.0
 30
0.0
 40
2.5
  0
LWPOLYLINE
  5
156
100
AcDbEntity
  8
private_parts
 62
256
370
-1
 48
1.0
  6
BYLAYER
100
AcDbPolyline
 90
4
 70
129
 10
304.0799999999999841
 20
85.9000000000000341
 10
309.9200000000000159
 20
85.9000000000000341
 10
309.9200000000000159
 20
76.0999999999999943
 10
304.0799999999999841
 20
76.0999999999999943
  0
CIRCLE
  5
157
100
AcDbEntity
  8
private_parts
 62
256
370
-1
 48
1.0
  6
BYLAYER
100
AcDbCircle
 10
138.0
 20
17.0000000000000178
 30
0.0
 40
2.5
  0
DIMENSION
  5
158
100
AcDbEntity
  8
dimensions
 62
256
370
-1
 48
1.0
  6
BYLAYER
100
AcDbDimension
 10
178.25
 20
71.1999999999996902
 30
0.0
 11
176.375
 21
73.7999999999980218
 31
0.0
 70
1
 71
8
 72
2
 74
0
 75
0
 41
1.0
 42
0.0
  1

  3
Standard
100
AcDbAlignedDimension
 13
174.0
 23
76.4000000000000625
 33
0.0
 14
174.0
 24
71.1999999999959812
 34
0.0
1001
ACAD
1000
DSTYLE
1002
{
1070
144
1040
1.0
1070
40
1040
1.0
1002
}
  0
CIRCLE
  5
159
100
AcDbEntity
  8
private_parts
 62
256
370
-1
 48
1.0
  6
BYLAYER
100
AcDbCircle
 10
337.0
 20
43.0
 30
0.0
 40
2.5
  0
LWPOLYLINE
  5
15A
100
AcDbEntity
  8
private_parts
 62
256
370
-1
 48
1.0
  6
BYLAYER
100
AcDbPolyline
 90
4
 70
129
 10
304.5
 20
84.0
 10
309.5
 20
84.0
 10
309.5
 20
78.0
 10
304.5
 20
78.0
  0
CIRCLE
  5
15B
100
AcDbEntity
  8
private_parts
 62
256
370
-1
 48
1.0
  6
BYLAYER
100
AcDbCircle
 10
337.0
 20
17.0000000000000178
 30
0.0
 40
2.5
  0
LWPOLYLINE
  5
15C
100
AcDbEntity
  8
private_pcb
 62
256
370
-1
 48
1.0
  6
BYLAYER
100
AcDbPolyline
 90
7
 70
1
 10
270.0
 20
107.0
 10
312.0
 20
107.0
 10
312.0
 20
73.0
 10
279.0
 20
73.0
 10
279.0
 20
96.0
 10
270.0
 20
96.0
 10
270.0
 20
107.0
  0
LWPOLYLINE
  5
15D
100
AcDbEntity
  8
edge.inner
 62
256
370
-1
 48
1.0
  6
BYLAYER
100
AcDbPolyline
 90
4
 70
129
 10
319.0
 20
41.0
 10
333.0
 20
41.0
 10
333.0
 20
19.0000000000000036
 10
319.0
 20
19.0000000000000036
  0
DIMENSION
  5
15E
100
AcDbEntity
  8
dimensions
 62
256
370
-1
 48
1.0
  6
BYLAYER
100
AcDbDimension
 10
138.0
 20
84.0
 30
0.0
 11
136.125
 21
80.2500000000000142
 31
0.0
 70
1
 71
8
 72
2
 74
0
 75
0
 41
1.0
 42
0.0
  1

  3
Standard
100
AcDbAlignedDimension
 13
140.0
 23
84.5000000000001421
 33
0.0
 14
140.0
 24
75.9999999999998863
 34
0.0
1001
ACAD
1000
DSTYLE
1002
{
1070
144
1040
1.0
1070
40
1040
1.0
1002
}
  0
LWPOLYLINE
  5
15F
100
AcDbEntity
  8
edge.inner
 62
256
370
-1
 48
1.0
  6
BYLAYER
100
AcDbPolyline
 90
4
 70
129
 10
285.0
 20
25.0000000000000036
 10
295.0
 20
25.0000000000000036
 10
295.0
 20
17.0000000000000178
 10
285.0
 20
17.0000000000000178
  0
DIMENSION
  5
160
100
AcDbEntity
  8
dimensions
 62
256
370
-1
 48
1.0
  6
BYLAYER
100
AcDbDimension
 10
162.0
 20
76.0000000000000568
 30
0.0
 11
160.125
 21
81.7649999999995032
 31
0.0
 70
1
 71
8
 72
2
 74
0
 75
0
 41
1.0
 42
0.0
  1

  3
Standard
100
AcDbAlignedDimension
 13
164.0
 23
87.5299999999998875
 33
0.0
 14
164.0
 24
75.9999999999991189
 34
0.0
1001
ACAD
1000
DSTYLE
1002
{
1070
144
1040
1.0
1070
40
1040
1.0
1002
}
  0
LWPOLYLINE
  5
161
100
AcDbEntity
  8
edge.inner
 62
256
370
-1
 48
1.0
  6
BYLAYER
100
AcDbPolyline
 90
4
 70
129
 10
207.0
 20
25.0000000000000036
 10
217.0
 20
25.0000000000000036
 10
217.0
 20
17.0000000000000178
 10
207.0
 20
17.0000000000000178
  0
DIMENSION
  5
162
100
AcDbEntity
  8
dimensions
 62
256
370
-1
 48
1.0
  6
BYLAYER
100
AcDbDimension
 10
176.0
 20
95.0
 30
0.0
 11
174.125
 21
86.5000000000000426
 31
0.0
 70
1
 71
8
 72
2
 74
0
 75
0
 41
1.0
 42
0.0
  1

  3
Standard
100
AcDbAlignedDimension
 13
172.0
 23
94.9999999999999432
 33
0.0
 14
172.0
 24
78.0000000000001421
 34
0.0
1001
ACAD
1000
DSTYLE
1002
{
1070
144
1040
1.0
1070
40
1040
1.0
1002
}
  0
LWPOLYLINE
  5
163
100
AcDbEntity
  8
edge.inner
 62
256
370
-1
 48
1.0
  6
BYLAYER
100
AcDbPolyline
 90
4
 70
129
 10
256.0
 20
43.0
 10
264.0
 20
43.0
 10
264.0
 20
39.0
 10
256.0
 20
39.0
  0
LINE
  5
164
100
AcDbEntity
  8
auxiliary
 62
256
370
-1
 48
1.0
  6
BYLAYER
100
AcDbLine
 10
270.0
 20
90.0
 30
0.0
 11
312.0
 21
90.0
 31
0.0
  0
LWPOLYLINE
  5
165
100
AcDbEntity
  8
edge.inner
 62
256
370
-1
 48
1.0
  6
BYLAYER
100
AcDbPolyline
 90
4
 70
129
 10
178.0
 20
43.0
 10
186.0
 20
43.0
 10
186.0
 20
39.0
 10
178.0
 20
39.0
  0
DIMENSION
  5
166
100
AcDbEntity
  8
dimensions
 62
256
370
-1
 48
1.0
  6
BYLAYER
100
AcDbDimension
 10
316.0
 20
89.9999999999998863
 30
0.0
 11
314.125
 21
85.4999999999999289
 31
0.0
 70
1
 71
8
 72
2
 74
0
 75
0
 41
1.0
 42
0.0
  1

  3
Standard
100
AcDbAlignedDimension
 13
312.0
 23
89.9999999999999432
 33
0.0
 14
312.0
 24
80.9999999999999147
 34
0.0
1001
ACAD
1000
DSTYLE
1002
{
1070
144
1040
1.0
1070
40
1040
1.0
1002
}
  0
LWPOLYLINE
  5
167
100
AcDbEntity
  8
edge.inner
 62
256
370
-1
 48
1.0
  6
BYLAYER
100
AcDbPolyline
 90
10
 70
1
 10
189.0
 20
41.0
 10
193.5
 20
41.0
 10
193.5
 20
43.0
 10
204.5
 20
43.0
 10
204.5
 20
35.0
 10
193.5
 20
35.0
 10
193.5
 20
37.0
 10
189.0
 20
37.0
 10
189.0
 20
41.0
 10
189.0
 20
41.0
  0
LWPOLYLINE
  5
168
100
AcDbEntity
  8
spacer
 62
256
370
-1
 48
1.0
  6
BYLAYER
100
AcDbPolyline
 90
10
 70
1
 10
282.0
 20
101.0
 10
286.5
 20
101.0
 10
286.5
 20
102.9999999999999716
 10
297.5
 20
102.9999999999999716
 10
297.5
 20
95.0
 10
286.5
 20
95.0
 10
286.5
 20
97.0
 10
282.0
 20
97.0
 10
282.0
 20
101.0
 10
282.0
 20
101.0
  0
LWPOLYLINE
  5
169
100
AcDbEntity
  8
edge.inner
 62
256
370
-1
 48
1.0
  6
BYLAYER
100
AcDbPolyline
 90
10
 70
1
 10
189.0
 20
23.0000000000000036
 10
193.5
 20
23.0000000000000036
 10
193.5
 20
25.0000000000000036
 10
204.5
 20
25.0000000000000036
 10
204.5
 20
17.0000000000000178
 10
193.5
 20
17.0000000000000178
 10
193.5
 20
19.0000000000000036
 10
189.0
 20
19.0000000000000036
 10
189.0
 20
23.0000000000000036
 10
189.0
 20
23.0000000000000036
  0
LWPOLYLINE
  5
16A
100
AcDbEntity
  8
spacer
 62
256
370
-1
 48
1.0
  6
BYLAYER
100
AcDbPolyline
 90
10
 70
1
 10
282.0
 20
83.0
 10
286.5
 20
83.0
 10
286.5
 20
84.9999999999999716
 10
297.5
 20
84.9999999999999716
 10
297.5
 20
77.0
 10
286.5
 20
77.0
 10
286.5
 20
79.0
 10
282.0
 20
79.0
 10
282.0
 20
83.0
 10
282.0
 20
83.0
  0
LWPOLYLINE
  5
16B
100
AcDbEntity
  8
edge.inner
 62
256
370
-1
 48
1.0
  6
BYLAYER
100
AcDbPolyline
 90
10
 70
1
 10
267.0
 20
41.0
 10
271.5
 20
41.0
 10
271.5
 20
43.0
 10
282.5
 20
43.0
 10
282.5
 20
35.0
 10
271.5
 20
35.0
 10
271.5
 20
37.0
 10
267.0
 20
37.0
 10
267.0
 20
41.0
 10
267.0
 20
41.0
  0
DIMENSION
  5
16C
100
AcDbEntity
  8
dimensions
 62
256
370
-1
 48
1.0
  6
BYLAYER
100
AcDbDimension
 10
316.0
 20
89.9999999999998863
 30
0.0
 11
314.125
 21
94.4999999999999858
 31
0.0
 70
1
 71
8
 72
2
 74
0
 75
0
 41
1.0
 42
0.0
  1

  3
Standard
100
AcDbAlignedDimension
 13
312.0
 23
89.9999999999999432
 33
0.0
 14
312.0
 24
99.0000000000000284
 34
0.0
1001
ACAD
1000
DSTYLE
1002
{
1070
144
1040
1.0
1070
40
1040
1.0
1002
}
  0
LWPOLYLINE
  5
16D
100
AcDbEntity
  8
edge.inner
 62
256
370
-1
 48
1.0
  6
BYLAYER
100
AcDbPolyline
 90
10
 70
1
 10
267.0
 20
23.0000000000000036
 10
271.5
 20
23.0000000000000036
 10
271.5
 20
25.0000000000000036
 10
282.5
 20
25.0000000000000036
 10
282.5
 20
17.0000000000000178
 10
271.5
 20
17.0000000000000178
 10
271.5
 20
19.0000000000000036
 10
267.0
 20
19.0000000000000036
 10
267.0
 20
23.0000000000000036
 10
267.0
 20
23.0000000000000036
  0
DIMENSION
  5
16E
100
AcDbEntity
  8
dimensions
 62
256
370
-1
 48
1.0
  6
BYLAYER
100
AcDbDimension
 10
316.0
 20
81.0
 30
0.0
 11
314.125
 21
79.0
 31
0.0
 70
1
 71
8
 72
2
 74
0
 75
0
 41
1.0
 42
0.0
  1

  3
Standard
100
AcDbAlignedDimension
 13
312.0
 23
80.9999999999999147
 33
0.0
 14
312.0
 24
77.0000000000000995
 34
0.0
1001
ACAD
1000
DSTYLE
1002
{
1070
144
1040
1.0
1070
40
1040
1.0
1002
}
  0
CIRCLE
  5
16F
100
AcDbEntity
  8
edge.outer
 62
256
370
-1
 48
1.0
  6
BYLAYER
100
AcDbCircle
 10
177.0
 20
27.5300000000000331
 30
0.0
 40
7.5
  0
CIRCLE
  5
170
100
AcDbEntity
  8
edge.outer
 62
256
370
-1
 48
1.0
  6
BYLAYER
100
AcDbCircle
 10
164.0
 20
137.5300000000000296
 30
0.0
 40
7.5
  0
DIMENSION
  5
171
100
AcDbEntity
  8
dimensions
 62
256
370
-1
 48
1.0
  6
BYLAYER
100
AcDbDimension
 10
316.0
 20
99.0000000000000284
 30
0.0
 11
314.125
 21
101.0000000000000568
 31
0.0
 70
1
 71
8
 72
2
 74
0
 75
0
 41
1.0
 42
0.0
  1

  3
Standard
100
AcDbAlignedDimension
 13
312.0
 23
99.0000000000000284
 33
0.0
 14
312.0
 24
103.0000000000000853
 34
0.0
1001
ACAD
1000
DSTYLE
1002
{
1070
144
1040
1.0
1070
40
1040
1.0
1002
}
  0
CIRCLE
  5
172
100
AcDbEntity
  8
edge.outer
 62
256
370
-1
 48
1.0
  6
BYLAYER
100
AcDbCircle
 10
255.0
 20
27.5300000000000331
 30
0.0
 40
7.5
  0
LINE
  5
173
100
AcDbEntity
  8
auxiliary
 62
256
370
-1
 48
1.0
  6
BYLAYER
100
AcDbLine
 10
312.0
 20
81.0
 30
0.0
 11
270.0
 21
81.0
 31
0.0
  0
LWPOLYLINE
  5
174
100
AcDbEntity
  8
edge.outer
 62
256
370
-1
 48
1.0
  6
BYLAYER
100
AcDbPolyline
 90
9
 70
128
 10
212.5
 20
24.6000000000000263
 10
215.5
 20
24.6000000000000263
 42
-0.414213562373095
 10
217.0
 20
23.1000000000000263
 10
217.0
 20
18.9000000000000092
 42
-0.414213562373095
 10
215.5
 20
17.4000000000000234
 10
212.5
 20
17.4000000000000234
 42
-0.414213562373095
 10
211.0
 20
18.9000000000000092
 10
211.0
 20
23.1000000000000263
 42
-0.414213562373095
 10
212.5
 20
24.6000000000000263
  0
LINE
  5
175
100
AcDbEntity
  8
auxiliary
 62
256
370
-1
 48
1.0
  6
BYLAYER
100
AcDbLine
 10
312.0
 20
77.0
 30
0.0
 11
270.0
 21
77.0
 31
0.0
  0
LWPOLYLINE
  5
176
100
AcDbEntity
  8
edge.outer
 62
256
370
-1
 48
1.0
  6
BYLAYER
100
AcDbPolyline
 90
9
 70
128
 10
290.5
 20
24.6000000000000263
 10
293.5
 20
24.6000000000000263
 42
-0.414213562373095
 10
295.0
 20
23.1000000000000263
 10
295.0
 20
18.9000000000000092
 42
-0.414213562373095
 10
293.5
 20
17.4000000000000234
 10
290.5
 20
17.4000000000000234
 42
-0.414213562373095
 10
289.0
 20
18.9000000000000092
 10
289.0
 20
23.1000000000000263
 42
-0.414213562373095
 10
290.5
 20
24.6000000000000263
  0
LINE
  5
177
100
AcDbEntity
  8
auxiliary
 62
256
370
-1
 48
1.0
  6
BYLAYER
100
AcDbLine
 10
312.0
 20
99.0
 30
0.0
 11
270.0
 21
99.0
 31
0.0
  0
LWPOLYLINE
  5
178
100
AcDbEntity
  8
private_pcb
 62
256
370
-1
 48
1.0
  6
BYLAYER
100
AcDbPolyline
 90
4
 70
129
 10
143.0
 20
18.0000000000000036
 10
195.0
 20
18.0000000000000036
 10
195.0
 20
16.4000000000000234
 10
143.0
 20
16.4000000000000234
  0
LWPOLYLINE
  5
179
100
AcDbEntity
  8
private_pcb
 62
256
370
-1
 48
1.0
  6
BYLAYER
100
AcDbPolyline
 90
4
 70
129
 10
130.0
 20
128.0
 10
182.0
 20
128.0
 10
182.0
 20
126.4000000000000341
 10
130.0
 20
126.4000000000000341
  0
LINE
  5
17A
100
AcDbEntity
  8
auxiliary
 62
256
370
-1
 48
1.0
  6
BYLAYER
100
AcDbLine
 10
284.0
 20
107.0
 30
0.0
 11
284.0
 21
73.0
 31
0.0
  0
LWPOLYLINE
  5
17B
100
AcDbEntity
  8
private_pcb
 62
256
370
-1
 48
1.0
  6
BYLAYER
100
AcDbPolyline
 90
4
 70
129
 10
221.0
 20
18.0000000000000036
 10
273.0
 20
18.0000000000000036
 10
273.0
 20
16.4000000000000234
 10
221.0
 20
16.4000000000000234
  0
DIMENSION
  5
17C
100
AcDbEntity
  8
dimensions
 62
256
370
-1
 48
1.0
  6
BYLAYER
100
AcDbDimension
 10
284.0
 20
111.0000000000000284
 30
0.0
 11
288.0
 21
112.8750000000000568
 31
0.0
 70
1
 71
8
 72
2
 74
0
 75
0
 41
1.0
 42
0.0
  1

  3
Standard
100
AcDbAlignedDimension
 13
284.0
 23
106.9999999999999432
 33
0.0
 14
292.0
 24
107.0
 34
0.0
1001
ACAD
1000
DSTYLE
1002
{
1070
144
1040
1.0
1070
40
1040
1.0
1002
}
  0
DIMENSION
  5
17D
100
AcDbEntity
  8
dimensions
 62
256
370
-1
 48
1.0
  6
BYLAYER
100
AcDbDimension
 10
292.0
 20
110.9999999999999716
 30
0.0
 11
297.0
 21
112.8749999999999289
 31
0.0
 70
1
 71
8
 72
2
 74
0
 75
0
 41
1.0
 42
0.0
  1

  3
Standard
100
AcDbAlignedDimension
 13
292.0
 23
107.0
 33
0.0
 14
302.0
 24
106.9999999999999147
 34
0.0
1001
ACAD
1000
DSTYLE
1002
{
1070
144
1040
1.0
1070
40
1040
1.0
1002
}
  0
DIMENSION
  5
17E
100
AcDbEntity
  8
dimensions
 62
256
370
-1
 48
1.0
  6
BYLAYER
100
AcDbDimension
 10
302.0
 20
110.9999999999999432
 30
0.0
 11
304.5
 21
112.8749999999999858
 31
0.0
 70
1
 71
8
 72
2
 74
0
 75
0
 41
1.0
 42
0.0
  1

  3
Standard
100
AcDbAlignedDimension
 13
302.0
 23
106.9999999999999147
 33
0.0
 14
307.0
 24
107.0
 34
0.0
1001
ACAD
1000
DSTYLE
1002
{
1070
144
1040
1.0
1070
40
1040
1.0
1002
}
  0
LINE
  5
17F
100
AcDbEntity
  8
auxiliary
 62
256
370
-1
 48
1.0
  6
BYLAYER
100
AcDbLine
 10
292.0
 20
107.0
 30
0.0
 11
292.0
 21
73.0
 31
0.0
  0
LINE
  5
180
100
AcDbEntity
  8
auxiliary
 62
256
370
-1
 48
1.0
  6
BYLAYER
100
AcDbLine
 10
302.0
 20
107.0
 30
0.0
 11
302.0
 21
73.0
 31
0.0
  0
LINE
  5
181
100
AcDbEntity
  8
auxiliary
 62
256
370
-1
 48
1.0
  6
BYLAYER
100
AcDbLine
 10
307.0
 20
107.0
 30
0.0
 11
307.0
 21
73.0
 31
0.0
  0
LINE
  5
182
100
AcDbEntity
  8
auxiliary
 62
256
370
-1
 48
1.0
  6
BYLAYER
100
AcDbLine
 10
270.0
 20
103.0
 30
0.0
 11
312.0
 21
103.0
 31
0.0
  0
TEXT
  5
183
100
AcDbEntity
  8
auxiliary
 62
256
370
-1
 48
1.0
  6
BYLAYER
100
AcDbText
 10
0.0
 20
0.0
 30
0.0
 40
3.0
  1
ControllPanelSpacer
 50
0.0
 41
1.0
  7
textstyle3
 71
0
 72
0
 11
270.0
 21
115.0
 31
0.0
100
AcDbText
 73
1
  0
LWPOLYLINE
  5
184
100
AcDbEntity
  8
spacer
 62
256
370
-1
 48
1.0
  6
BYLAYER
100
AcDbPolyline
 90
4
 70
129
 10
279.0
 20
107.0
 10
312.0
 20
107.0
 10
312.0
 20
73.0
 10
279.0
 20
73.0
  0
CIRCLE
  5
185
100
AcDbEntity
  8
spacer
 62
256
370
-1
 48
1.0
  6
ACAD_ISO02W100
100
AcDbCircle
 10
284.0
 20
104.0
 30
0.0
 40
3.0
  0
CIRCLE
  5
186
100
AcDbEntity
  8
spacer
 62
256
370
-1
 48
1.0
  6
ACAD_ISO02W100
100
AcDbCircle
 10
284.0
 20
76.0
 30
0.0
 40
3.0
  0
LWPOLYLINE
  5
187
100
AcDbEntity
  8
0
 62
256
370
-1
 48
1.0
  6
BYLAYER
100
AcDbPolyline
 90
9
 70
128
 10
289.5
 20
105.25
 10
294.5
 20
105.25
 42
-0.414213562373095
 10
295.5
 20
104.25
 10
295.5
 20
103.75
 42
-0.414213562373095
 10
294.5
 20
102.75
 10
289.5
 20
102.75
 42
-0.414213562373095
 10
288.5
 20
103.75
 10
288.5
 20
104.25
 42
-0.414213562373095
 10
289.5
 20
105.25
  0
LWPOLYLINE
  5
188
100
AcDbEntity
  8
0
 62
256
370
-1
 48
1.0
  6
BYLAYER
100
AcDbPolyline
 90
9
 70
128
 10
289.5
 20
77.25
 10
294.5
 20
77.25
 42
-0.414213562373095
 10
295.5
 20
76.25
 10
295.5
 20
75.75
 42
-0.414213562373095
 10
294.5
 20
74.75
 10
289.5
 20
74.75
 42
-0.414213562373095
 10
288.5
 20
75.75
 10
288.5
 20
76.25
 42
-0.414213562373095
 10
289.5
 20
77.25
  0
LWPOLYLINE
  5
189
100
AcDbEntity
  8
0
 62
256
370
-1
 48
1.0
  6
BYLAYER
100
AcDbPolyline
 90
9
 70
128
 10
281.5
 20
97.25
 10
286.5
 20
97.25
 42
-0.414213562373095
 10
287.5
 20
96.25
 10
287.5
 20
95.75
 42
-0.414213562373095
 10
286.5
 20
94.75
 10
281.5
 20
94.75
 42
-0.414213562373095
 10
280.5
 20
95.75
 10
280.5
 20
96.25
 42
-0.414213562373095
 10
281.5
 20
97.25
  0
LWPOLYLINE
  5
18A
100
AcDbEntity
  8
0
 62
256
370
-1
 48
1.0
  6
BYLAYER
100
AcDbPolyline
 90
9
 70
128
 10
281.5
 20
85.25
 10
286.5
 20
85.25
 42
-0.414213562373095
 10
287.5
 20
84.25
 10
287.5
 20
83.75
 42
-0.414213562373095
 10
286.5
 20
82.75
 10
281.5
 20
82.75
 42
-0.414213562373095
 10
280.5
 20
83.75
 10
280.5
 20
84.25
 42
-0.414213562373095
 10
281.5
 20
85.25
  0
CIRCLE
  5
18B
100
AcDbEntity
  8
edge.outer
 62
256
370
-1
 48
1.0
  6
BYLAYER
100
AcDbCircle
 10
138.0
 20
43.0
 30
0.0
 40
1.5999999999999996
  0
LWPOLYLINE
  5
18C
100
AcDbEntity
  8
0
 62
256
370
-1
 48
1.0
  6
BYLAYER
100
AcDbPolyline
 90
9
 70
128
 10
296.5
 20
77.25
 10
301.5
 20
77.25
 42
-0.414213562373095
 10
302.5
 20
76.25
 10
302.5
 20
75.75
 42
-0.414213562373095
 10
301.5
 20
74.75
 10
296.5
 20
74.75
 42
-0.414213562373095
 10
295.5
 20
75.75
 10
295.5
 20
76.25
 42
-0.414213562373095
 10
296.5
 20
77.25
  0
LWPOLYLINE
  5
18D
100
AcDbEntity
  8
0
 62
256
370
-1
 48
1.0
  6
BYLAYER
100
AcDbPolyline
 90
9
 70
128
 10
272.5
 20
98.75
 10
277.5
 20
98.75
 42
-0.414213562373095
 10
278.5
 20
97.75
 10
278.5
 20
97.25
 42
-0.414213562373095
 10
277.5
 20
96.25
 10
272.5
 20
96.25
 42
-0.414213562373095
 10
271.5
 20
97.25
 10
271.5
 20
97.75
 42
-0.414213562373095
 10
272.5
 20
98.75
  0
CIRCLE
  5
18E
100
AcDbEntity
  8
edge.outer
 62
256
370
-1
 48
1.0
  6
BYLAYER
100
AcDbCircle
 10
138.0
 20
17.0000000000000178
 30
0.0
 40
1.5999999999999996
  0
LWPOLYLINE
  5
18F
100
AcDbEntity
  8
0
 62
256
370
-1
 48
1.0
  6
BYLAYER
100
AcDbPolyline
 90
4
 70
129
 10
298.0
 20
104.0
 10
310.0
 20
104.0
 10
310.0
 20
99.0
 10
298.0
 20
99.0
  0
DIMENSION
  5
190
100
AcDbEntity
  8
dimensions
 62
256
370
-1
 48
1.0
  6
BYLAYER
100
AcDbDimension
 10
279.0
 20
69.0000000000000853
 30
0.0
 11
295.5
 21
70.8750000000000568
 31
0.0
 70
1
 71
8
 72
2
 74
0
 75
0
 41
1.0
 42
0.0
  1

  3
Standard
100
AcDbAlignedDimension
 13
279.0
 23
72.9999999999999716
 33
0.0
 14
312.0
 24
72.9999999999999289
 34
0.0
1001
ACAD
1000
DSTYLE
1002
{
1070
144
1040
1.0
1070
40
1040
1.0
1002
}
  0
CIRCLE
  5
191
100
AcDbEntity
  8
edge.outer
 62
256
370
-1
 48
1.0
  6
BYLAYER
100
AcDbCircle
 10
337.0
 20
43.0
 30
0.0
 40
1.5999999999999943
  0
DIMENSION
  5
192
100
AcDbEntity
  8
dimensions
 62
256
370
-1
 48
1.0
  6
BYLAYER
100
AcDbDimension
 10
320.0
 20
107.0000000000000284
 30
0.0
 11
318.125
 21
89.9999999999999716
 31
0.0
 70
1
 71
8
 72
2
 74
0
 75
0
 41
1.0
 42
0.0
  1

  3
Standard
100
AcDbAlignedDimension
 13
312.0
 23
107.0000000000000284
 33
0.0
 14
312.0
 24
72.9999999999999289
 34
0.0
1001
ACAD
1000
DSTYLE
1002
{
1070
144
1040
1.0
1070
40
1040
1.0
1002
}
  0
DIMENSION
  5
193
100
AcDbEntity
  8
dimensions
 62
256
370
-1
 48
1.0
  6
BYLAYER
100
AcDbDimension
 10
132.0
 20
98.9999999999999432
 30
0.0
 11
144.0
 21
100.8749999999999432
 31
0.0
 70
1
 71
8
 72
2
 74
0
 75
0
 41
1.0
 42
0.0
  1

  3
Standard
100
AcDbAlignedDimension
 13
132.0
 23
95.0000000000000853
 33
0.0
 14
156.0
 24
95.0000000000000853
 34
0.0
1001
ACAD
1000
DSTYLE
1002
{
1070
144
1040
1.0
1070
40
1040
1.0
1002
}
  0
CIRCLE
  5
194
100
AcDbEntity
  8
edge.outer
 62
256
370
-1
 48
1.0
  6
BYLAYER
100
AcDbCircle
 10
337.0
 20
17.0000000000000178
 30
0.0
 40
1.5999999999999943
  0
CIRCLE
  5
195
100
AcDbEntity
  8
spacer
 62
256
370
-1
 48
1.0
  6
ACAD_ISO02W100
100
AcDbCircle
 10
284.0
 20
90.0
 30
0.0
 40
4.0
  0
CIRCLE
  5
196
100
AcDbEntity
  8
spacer
 62
256
370
-1
 48
1.0
  6
ACAD_ISO02W100
100
AcDbCircle
 10
307.0
 20
90.0
 30
0.0
 40
3.0
  0
CIRCLE
  5
197
100
AcDbEntity
  8
spacer
 62
256
370
-1
 48
1.0
  6
ACAD_ISO02W100
100
AcDbCircle
 10
296.0
 20
90.0
 30
0.0
 40
4.0
  0
LWPOLYLINE
  5
198
100
AcDbEntity
  8
0
 62
256
370
-1
 48
1.0
  6
BYLAYER
100
AcDbPolyline
 90
4
 70
129
 10
24.8999999999999844
 20
141.25
 10
33.3999999999999915
 20
141.25
 10
33.3999999999999915
 20
134.75
 10
24.8999999999999844
 20
134.75
  0
LWPOLYLINE
  5
199
100
AcDbEntity
  8
0
 62
256
370
-1
 48
1.0
  6
BYLAYER
100
AcDbPolyline
 90
4
 70
129
 10
33.3999999999999915
 20
140.25
 10
38.8999999999999915
 20
140.25
 10
38.8999999999999915
 20
135.75
 10
33.3999999999999915
 20
135.75
  0
LINE
  5
19A
100
AcDbEntity
  8
0
 62
256
370
-1
 48
1.0
  6
BYLAYER
100
AcDbLine
 10
24.8999999999999844
 20
138.0
 30
0.0
 11
42.9000000000000057
 21
138.0
 31
0.0
  0
LWPOLYLINE
  5
19B
100
AcDbEntity
  8
0
 62
256
370
-1
 48
1.0
  6
BYLAYER
100
AcDbPolyline
 90
4
 70
129
 10
38.8999999999999915
 20
139.6499999999999773
 10
39.8999999999999915
 20
139.6499999999999773
 10
39.8999999999999915
 20
136.3499999999999943
 10
38.8999999999999915
 20
136.3499999999999943
  0
LWPOLYLINE
  5
19C
100
AcDbEntity
  8
0
 62
256
370
-1
 48
1.0
  6
BYLAYER
100
AcDbPolyline
 90
4
 70
129
 10
39.9000000000000057
 20
139.25
 10
40.9000000000000057
 20
139.25
 10
40.9000000000000057
 20
136.75
 10
39.9000000000000057
 20
136.75
  0
LWPOLYLINE
  5
19D
100
AcDbEntity
  8
0
 62
256
370
-1
 48
1.0
  6
BYLAYER
100
AcDbPolyline
 90
4
 70
129
 10
40.9000000000000057
 20
139.6499999999999773
 10
42.9000000000000057
 20
139.6499999999999773
 10
42.9000000000000057
 20
136.3499999999999943
 10
40.9000000000000057
 20
136.3499999999999943
  0
MTEXT
  5
19E
100
AcDbEntity
  8
0
 62
256
370
-1
 48
1.0
  6
BYLAYER
100
AcDbMText
 10
56.9999999999999858
 20
138.0
 30
0.0
 40
3.0
 41
0.0
 71
4
 72
1
  1
Channel:ControlPanel\PALPS SPPH430100
  7
textstyle2
 50
0.0
 73
2
 44
1.0
  0
LWPOLYLINE
  5
19F
100
AcDbEntity
  8
private_parts
 62
256
370
-1
 48
1.0
  6
BYLAYER
100
AcDbPolyline
 90
7
 70
128
 10
37.8999999999999844
 20
141.5
 10
43.3999999999999844
 20
141.5
 42
-0.414213562373095
 10
43.8999999999999844
 20
141.0
 10
43.8999999999999844
 20
135.0
 42
-0.414213562373095
 10
43.3999999999999844
 20
134.5
 10
37.8999999999999844
 20
134.5
 10
37.8999999999999844
 20
141.5
  0
LWPOLYLINE
  5
1A0
100
AcDbEntity
  8
chassis
 62
256
370
-1
 48
1.0
  6
BYLAYER
100
AcDbPolyline
 90
4
 70
129
 10
36.9999999999999716
 20
56.5
 10
39.9999999999999716
 20
56.5
 10
39.9999999999999716
 20
36.5
 10
36.9999999999999716
 20
36.5
  0
LWPOLYLINE
  5
1A1
100
AcDbEntity
  8
chassis
 62
256
370
-1
 48
1.0
  6
BYLAYER
100
AcDbPolyline
 90
9
 70
1
 10
36.9999999999999716
 20
54.5
 10
38.9999999999999716
 20
54.5
 10
38.9999999999999716
 20
51.5
 10
39.9999999999999716
 20
51.5
 10
39.9999999999999716
 20
41.5
 10
38.9999999999999716
 20
41.5
 10
38.9999999999999716
 20
38.5
 10
36.9999999999999716
 20
38.5
 10
36.9999999999999716
 20
54.5
  0
HATCH
  5
1A2
100
AcDbEntity
  8
chassis
 62
256
370
-1
 48
1.0
  6
BYLAYER
100
AcDbHatch
 10
0.0
 20
0.0
 30
0.0
210
0.0
220
0.0
230
1.0
  2
DOTS
 70
0
 71
0
 91
2
 92
1
 93
8
 72
1
 10
36.9999999999999716
 20
54.5
 11
38.9999999999999716
 21
54.5
 72
1
 10
38.9999999999999716
 20
54.5
 11
38.9999999999999716
 21
51.5
 72
1
 10
38.9999999999999716
 20
51.5
 11
39.9999999999999716
 21
51.5
 72
1
 10
39.9999999999999716
 20
51.5
 11
39.9999999999999716
 21
41.5
 72
1
 10
39.9999999999999716
 20
41.5
 11
38.9999999999999716
 21
41.5
 72
1
 10
38.9999999999999716
 20
41.5
 11
38.9999999999999716
 21
38.5
 72
1
 10
38.9999999999999716
 20
38.5
 11
36.9999999999999716
 21
38.5
 72
1
 10
36.9999999999999716
 20
38.5
 11
36.9999999999999716
 21
54.5
 97
0
 92
1
 93
4
 72
1
 10
36.9999999999999716
 20
56.5
 11
39.9999999999999716
 21
56.5
 72
1
 10
39.9999999999999716
 20
56.5
 11
39.9999999999999716
 21
36.5
 72
1
 10
39.9999999999999716
 20
36.5
 11
36.9999999999999716
 21
36.5
 72
1
 10
36.9999999999999716
 20
36.5
 11
36.9999999999999716
 21
56.5
 97
0
 75
0
 76
1
 52
0.0
 41
0.5
 77
0
 78
1
 53
45.0
 43
0.0
 44
0.0
 45
-0.0883883476483184
 46
0.0883883476483185
 79
0
 98
0
1001
ACAD
1010
0.0
1020
0.0
1030
0
  0
LWPOLYLINE
  5
1A3
100
AcDbEntity
  8
chassis
 62
256
370
-1
 48
1.0
  6
BYLAYER
100
AcDbPolyline
 90
4
 70
129
 10
36.9999999999999574
 20
88.5300000000000296
 10
39.9999999999999574
 20
88.5300000000000296
 10
39.9999999999999574
 20
64.5300000000000296
 10
36.9999999999999574
 20
64.5300000000000296
  0
LWPOLYLINE
  5
1A4
100
AcDbEntity
  8
chassis
 62
256
370
-1
 48
1.0
  6
BYLAYER
100
AcDbPolyline
 90
9
 70
1
 10
36.9999999999999574
 20
84.0300000000000296
 10
38.9999999999999574
 20
84.0300000000000296
 10
38.9999999999999574
 20
80.0300000000000296
 10
39.9999999999999574
 20
80.0300000000000296
 10
39.9999999999999574
 20
73.0300000000000296
 10
38.9999999999999574
 20
73.0300000000000296
 10
38.9999999999999574
 20
69.0300000000000296
 10
36.9999999999999574
 20
69.0300000000000296
 10
36.9999999999999574
 20
84.0300000000000296
  0
LWPOLYLINE
  5
1A5
100
AcDbEntity
  8
edge.outer
 62
256
370
-1
 48
1.0
  6
BYLAYER
100
AcDbPolyline
 90
9
 70
128
 10
214.0
 20
24.1000000000000263
 10
214.0
 20
24.1000000000000263
 42
-0.414213562373095
 10
215.5
 20
22.6000000000000263
 10
215.5
 20
19.4000000000000092
 42
-0.414213562373095
 10
214.0
 20
17.9000000000000092
 10
214.0
 20
17.9000000000000092
 42
-0.414213562373095
 10
212.5
 20
19.4000000000000092
 10
212.5
 20
22.6000000000000263
 42
-0.414213562373095
 10
214.0
 20
24.1000000000000263
  0
HATCH
  5
1A6
100
AcDbEntity
  8
chassis
 62
256
370
-1
 48
1.0
  6
BYLAYER
100
AcDbHatch
 10
0.0
 20
0.0
 30
0.0
210
0.0
220
0.0
230
1.0
  2
DOTS
 70
0
 71
0
 91
2
 92
1
 93
8
 72
1
 10
36.9999999999999574
 20
84.0300000000000296
 11
38.9999999999999574
 21
84.0300000000000296
 72
1
 10
38.9999999999999574
 20
84.0300000000000296
 11
38.9999999999999574
 21
80.0300000000000296
 72
1
 10
38.9999999999999574
 20
80.0300000000000296
 11
39.9999999999999574
 21
80.0300000000000296
 72
1
 10
39.9999999999999574
 20
80.0300000000000296
 11
39.9999999999999574
 21
73.0300000000000296
 72
1
 10
39.9999999999999574
 20
73.0300000000000296
 11
38.9999999999999574
 21
73.0300000000000296
 72
1
 10
38.9999999999999574
 20
73.0300000000000296
 11
38.9999999999999574
 21
69.0300000000000296
 72
1
 10
38.9999999999999574
 20
69.0300000000000296
 11
36.9999999999999574
 21
69.0300000000000296
 72
1
 10
36.9999999999999574
 20
69.0300000000000296
 11
36.9999999999999574
 21
84.0300000000000296
 97
0
 92
1
 93
4
 72
1
 10
36.9999999999999574
 20
88.5300000000000296
 11
39.9999999999999574
 21
88.5300000000000296
 72
1
 10
39.9999999999999574
 20
88.5300000000000296
 11
39.9999999999999574
 21
64.5300000000000296
 72
1
 10
39.9999999999999574
 20
64.5300000000000296
 11
36.9999999999999574
 21
64.5300000000000296
 72
1
 10
36.9999999999999574
 20
64.5300000000000296
 11
36.9999999999999574
 21
88.5300000000000296
 97
0
 75
0
 76
1
 52
0.0
 41
0.5
 77
0
 78
1
 53
45.0
 43
0.0
 44
0.0
 45
-0.0883883476483184
 46
0.0883883476483185
 79
0
 98
0
1001
ACAD
1010
0.0
1020
0.0
1030
0
  0
LWPOLYLINE
  5
1A7
100
AcDbEntity
  8
edge.outer
 62
256
370
-1
 48
1.0
  6
BYLAYER
100
AcDbPolyline
 90
9
 70
128
 10
292.0
 20
24.1000000000000263
 10
292.0
 20
24.1000000000000263
 42
-0.414213562373095
 10
293.5
 20
22.6000000000000263
 10
293.5
 20
19.4000000000000092
 42
-0.414213562373095
 10
292.0
 20
17.9000000000000092
 10
292.0
 20
17.9000000000000092
 42
-0.414213562373095
 10
290.5
 20
19.4000000000000092
 10
290.5
 20
22.6000000000000263
 42
-0.414213562373095
 10
292.0
 20
24.1000000000000263
  0
LWPOLYLINE
  5
1A8
100
AcDbEntity
  8
edge.outer
 62
256
370
-1
 48
1.0
  6
BYLAYER
100
AcDbPolyline
 90
9
 70
128
 10
307.0
 20
84.1000000000000085
 10
307.0
 20
84.1000000000000085
 42
-0.414213562373095
 10
308.5
 20
82.6000000000000085
 10
308.5
 20
79.3999999999999915
 42
-0.414213562373095
 10
307.0
 20
77.8999999999999915
 10
307.0
 20
77.8999999999999915
 42
-0.414213562373095
 10
305.5
 20
79.3999999999999915
 10
305.5
 20
82.6000000000000085
 42
-0.414213562373095
 10
307.0
 20
84.1000000000000085
  0
LWPOLYLINE
  5
1A9
100
AcDbEntity
  8
chassis
 62
256
370
-1
 48
1.0
  6
BYLAYER
100
AcDbPolyline
 90
4
 70
129
 10
37.0000000000000142
 20
108.5
 10
40.0000000000000142
 20
108.5
 10
40.0000000000000142
 20
93.5
 10
37.0000000000000142
 20
93.5
  0
LWPOLYLINE
  5
1AA
100
AcDbEntity
  8
chassis
 62
256
370
-1
 48
1.0
  6
BYLAYER
100
AcDbPolyline
 90
9
 70
1
 10
37.0000000000000142
 20
104.6000000000000085
 10
38.0000000000000142
 20
104.6000000000000085
 10
38.0000000000000142
 20
104.1000000000000085
 10
40.0000000000000142
 20
104.1000000000000085
 10
40.0000000000000142
 20
97.9000000000000057
 10
38.0000000000000142
 20
97.9000000000000057
 10
38.0000000000000142
 20
97.4000000000000057
 10
37.0000000000000142
 20
97.4000000000000057
 10
37.0000000000000142
 20
104.6000000000000085
  0
HATCH
  5
1AB
100
AcDbEntity
  8
chassis
 62
256
370
-1
 48
1.0
  6
BYLAYER
100
AcDbHatch
 10
0.0
 20
0.0
 30
0.0
210
0.0
220
0.0
230
1.0
  2
DOTS
 70
0
 71
0
 91
2
 92
1
 93
8
 72
1
 10
37.0000000000000142
 20
104.6000000000000085
 11
38.0000000000000142
 21
104.6000000000000085
 72
1
 10
38.0000000000000142
 20
104.6000000000000085
 11
38.0000000000000142
 21
104.1000000000000085
 72
1
 10
38.0000000000000142
 20
104.1000000000000085
 11
40.0000000000000142
 21
104.1000000000000085
 72
1
 10
40.0000000000000142
 20
104.1000000000000085
 11
40.0000000000000142
 21
97.9000000000000057
 72
1
 10
40.0000000000000142
 20
97.9000000000000057
 11
38.0000000000000142
 21
97.9000000000000057
 72
1
 10
38.0000000000000142
 20
97.9000000000000057
 11
38.0000000000000142
 21
97.4000000000000057
 72
1
 10
38.0000000000000142
 20
97.4000000000000057
 11
37.0000000000000142
 21
97.4000000000000057
 72
1
 10
37.0000000000000142
 20
97.4000000000000057
 11
37.0000000000000142
 21
104.6000000000000085
 97
0
 92
1
 93
4
 72
1
 10
37.0000000000000142
 20
108.5
 11
40.0000000000000142
 21
108.5
 72
1
 10
40.0000000000000142
 20
108.5
 11
40.0000000000000142
 21
93.5
 72
1
 10
40.0000000000000142
 20
93.5
 11
37.0000000000000142
 21
93.5
 72
1
 10
37.0000000000000142
 20
93.5
 11
37.0000000000000142
 21
108.5
 97
0
 75
0
 76
1
 52
0.0
 41
0.5
 77
0
 78
1
 53
45.0
 43
0.0
 44
0.0
 45
-0.0883883476483184
 46
0.0883883476483185
 79
0
 98
0
1001
ACAD
1010
0.0
1020
0.0
1030
0
  0
LWPOLYLINE
  5
1AC
100
AcDbEntity
  8
chassis
 62
256
370
-1
 48
1.0
  6
BYLAYER
100
AcDbPolyline
 90
4
 70
129
 10
37.0
 20
122.5999999999999943
 10
40.0
 20
122.5999999999999943
 10
40.0
 20
119.4000000000000057
 10
37.0
 20
119.4000000000000057
  0
HATCH
  5
1AD
100
AcDbEntity
  8
chassis
 62
256
370
-1
 48
1.0
  6
BYLAYER
100
AcDbHatch
 10
0.0
 20
0.0
 30
0.0
210
0.0
220
0.0
230
1.0
  2
DOTS
 70
0
 71
0
 91
2
 92
1
 93
4
 72
1
 10
37.0
 20
122.5999999999999943
 11
40.0
 21
122.5999999999999943
 72
1
 10
40.0
 20
122.5999999999999943
 11
40.0
 21
119.4000000000000057
 72
1
 10
40.0
 20
119.4000000000000057
 11
37.0
 21
119.4000000000000057
 72
1
 10
37.0
 20
119.4000000000000057
 11
37.0
 21
122.5999999999999943
 97
0
 92
1
 93
4
 72
1
 10
37.0
 20
126.0
 11
40.0
 21
126.0
 72
1
 10
40.0
 20
126.0
 11
40.0
 21
116.0
 72
1
 10
40.0
 20
116.0
 11
37.0
 21
116.0
 72
1
 10
37.0
 20
116.0
 11
37.0
 21
126.0
 97
0
 75
0
 76
1
 52
0.0
 41
0.5
 77
0
 78
1
 53
45.0
 43
0.0
 44
0.0
 45
-0.0883883476483184
 46
0.0883883476483185
 79
0
 98
0
1001
ACAD
1010
0.0
1020
0.0
1030
0
  0
LWPOLYLINE
  5
1AE
100
AcDbEntity
  8
chassis
 62
256
370
-1
 48
1.0
  6
BYLAYER
100
AcDbPolyline
 90
4
 70
129
 10
37.0
 20
141.6000000000000227
 10
40.0
 20
141.6000000000000227
 10
40.0
 20
134.4000000000000057
 10
37.0
 20
134.4000000000000057
  0
HATCH
  5
1AF
100
AcDbEntity
  8
chassis
 62
256
370
-1
 48
1.0
  6
BYLAYER
100
AcDbHatch
 10
0.0
 20
0.0
 30
0.0
210
0.0
220
0.0
230
1.0
  2
DOTS
 70
0
 71
0
 91
2
 92
1
 93
4
 72
1
 10
37.0
 20
141.6000000000000227
 11
40.0
 21
141.6000000000000227
 72
1
 10
40.0
 20
141.6000000000000227
 11
40.0
 21
134.4000000000000057
 72
1
 10
40.0
 20
134.4000000000000057
 11
37.0
 21
134.4000000000000057
 72
1
 10
37.0
 20
134.4000000000000057
 11
37.0
 21
141.6000000000000227
 97
0
 92
1
 93
4
 72
1
 10
37.0
 20
143.0
 11
40.0
 21
143.0
 72
1
 10
40.0
 20
143.0
 11
40.0
 21
133.0
 72
1
 10
40.0
 20
133.0
 11
37.0
 21
133.0
 72
1
 10
37.0
 20
133.0
 11
37.0
 21
143.0
 97
0
 75
0
 76
1
 52
0.0
 41
0.5
 77
0
 78
1
 53
45.0
 43
0.0
 44
0.0
 45
-0.0883883476483184
 46
0.0883883476483185
 79
0
 98
0
1001
ACAD
1010
0.0
1020
0.0
1030
0
  0
LWPOLYLINE
  5
1B0
100
AcDbEntity
  8
chassis
 62
256
370
-1
 48
1.0
  6
BYLAYER
100
AcDbPolyline
 90
4
 70
129
 10
190.0
 20
71.2000000000000171
 10
252.0
 20
71.2000000000000171
 10
252.0
 20
70.0
 10
190.0
 20
70.0
  0
LINE
  5
1B1
100
AcDbEntity
  8
auxiliary
 62
256
370
-1
 48
1.0
  6
BYLAYER
100
AcDbLine
 10
211.0000000000000284
 20
91.0
 30
0.0
 11
211.0000000000000284
 21
78.0
 31
0.0
  0
LINE
  5
1B2
100
AcDbEntity
  8
auxiliary
 62
256
370
-1
 48
1.0
  6
BYLAYER
100
AcDbLine
 10
242.0000000000000284
 20
91.0
 30
0.0
 11
242.0000000000000284
 21
78.0
 31
0.0
  0
DIMENSION
  5
1B3
100
AcDbEntity
  8
dimensions
 62
256
370
-1
 48
1.0
  6
BYLAYER
100
AcDbDimension
 10
211.0000000000000284
 20
72.9999999999989484
 30
0.0
 11
226.5000000000000568
 21
74.8749999999990479
 31
0.0
 70
1
 71
8
 72
2
 74
0
 75
0
 41
1.0
 42
0.0
  1

  3
Standard
100
AcDbAlignedDimension
 13
211.0000000000000284
 23
78.0000000000002274
 33
0.0
 14
242.0000000000000568
 24
78.0000000000004263
 34
0.0
1001
ACAD
1000
DSTYLE
1002
{
1070
144
1040
1.0
1070
40
1040
1.0
1002
}
  0
DIMENSION
  5
1B4
100
AcDbEntity
  8
dimensions
 62
256
370
-1
 48
1.0
  6
BYLAYER
100
AcDbDimension
 10
190.0
 20
95.9999999999997442
 30
0.0
 11
221.0
 21
97.8749999999999858
 31
0.0
 70
1
 71
8
 72
2
 74
0
 75
0
 41
1.0
 42
0.0
  1

  3
Standard
100
AcDbAlignedDimension
 13
190.0
 23
92.0000000000000568
 33
0.0
 14
251.9999999999999716
 24
92.00000000000054
 34
0.0
1001
ACAD
1000
DSTYLE
1002
{
1070
144
1040
1.0
1070
40
1040
1.0
1002
}
  0
HATCH
  5
1B5
100
AcDbEntity
  8
chassis
 62
256
370
-1
 48
1.0
  6
BYLAYER
100
AcDbHatch
 10
0.0
 20
0.0
 30
0.0
210
0.0
220
0.0
230
1.0
  2
DOTS
 70
0
 71
0
 91
1
 92
1
 93
4
 72
1
 10
34.3000000000000114
 20
143.0
 11
35.5
 21
143.0
 72
1
 10
35.5
 20
143.0
 11
35.5
 21
133.0
 72
1
 10
35.5
 20
133.0
 11
34.3000000000000114
 21
133.0
 72
1
 10
34.3000000000000114
 20
133.0
 11
34.3000000000000114
 21
143.0
 97
0
 75
0
 76
1
 52
0.0
 41
0.5
 77
0
 78
1
 53
45.0
 43
0.0
 44
0.0
 45
-0.0883883476483184
 46
0.0883883476483185
 79
0
 98
0
1001
ACAD
1010
0.0
1020
0.0
1030
0
  0
DIMENSION
  5
1B6
100
AcDbEntity
  8
dimensions
 62
256
370
-1
 48
1.0
  6
BYLAYER
100
AcDbDimension
 10
31.0
 20
3.0
 30
0.0
 11
36.8694444444444542
 21
4.875
 31
0.0
 70
0
 71
8
 72
2
 74
0
 75
0
 41
1.0
 42
0.0
  1

  3
Standard
100
AcDbAlignedDimension
 13
31.0
 23
8.3999999999999986
 33
0.0
 14
34.3000000000000114
 24
6.5
 34
0.0
 50
0.0
100
AcDbRotatedDimension
1001
ACAD
1000
DSTYLE
1002
{
1070
144
1040
1.0
1070
40
1040
1.0
1002
}
  0
DIMENSION
  5
1B7
100
AcDbEntity
  8
dimensions
 62
256
370
-1
 48
1.0
  6
BYLAYER
100
AcDbDimension
 10
256.0
 20
91.9999999999998295
 30
0.0
 11
254.125
 21
84.5
 31
0.0
 70
0
 71
8
 72
2
 74
0
 75
0
 41
1.0
 42
0.0
  1

  3
Standard
100
AcDbAlignedDimension
 13
252.0
 23
91.9999999999998579
 33
0.0
 14
250.0
 24
77.0000000000001421
 34
0.0
 50
90.0
100
AcDbRotatedDimension
1001
ACAD
1000
DSTYLE
1002
{
1070
144
1040
1.0
1070
40
1040
1.0
1002
}
  0
LWPOLYLINE
  5
1B8
100
AcDbEntity
  8
spacer
 62
256
370
-1
 48
1.0
  6
ACAD_ISO02W100
100
AcDbPolyline
 90
4
 70
129
 10
297.0
 20
107.0
 10
312.0
 20
107.0
 10
312.0
 20
104.5
 10
297.0
 20
104.5
  0
LWPOLYLINE
  5
1B9
100
AcDbEntity
  8
spacer
 62
256
370
-1
 48
1.0
  6
BYLAYER
100
AcDbPolyline
 90
9
 70
0
 10
300.0
 20
85.0
 10
303.5
 20
85.0
 10
303.5
 20
86.5
 10
310.5
 20
86.5
 10
310.5
 20
75.5
 10
303.5
 20
75.5
 10
303.5
 20
77.0
 10
300.0
 20
77.0
 10
300.0
 20
85.0
  0
DIMENSION
  5
1BA
100
AcDbEntity
  8
dimensions
 62
256
370
-1
 48
1.0
  6
BYLAYER
100
AcDbDimension
 10
44.0
 20
51.0
 30
0.0
 11
42.125
 21
46.5000000000000071
 31
0.0
 70
1
 71
8
 72
2
 74
0
 75
0
 41
1.0
 42
0.0
  1

  3
Standard
100
AcDbAlignedDimension
 13
40.0999999999999943
 23
51.3500000000000014
 33
0.0
 14
40.0999999999999943
 24
41.6500000000000128
 34
0.0
1001
ACAD
1000
DSTYLE
1002
{
1070
144
1040
1.0
1070
40
1040
1.0
1002
}
  0
DIMENSION
  5
1BB
100
AcDbEntity
  8
dimensions
 62
256
370
-1
 48
1.0
  6
BYLAYER
100
AcDbDimension
 10
51.0
 20
73.0
 30
0.0
 11
49.125
 21
76.5300000000000153
 31
0.0
 70
1
 71
8
 72
2
 74
0
 75
0
 41
1.0
 42
0.0
  1

  3
Standard
100
AcDbAlignedDimension
 13
47.5000000000000142
 23
79.7050000000000125
 33
0.0
 14
47.5000000000000142
 24
73.3550000000000182
 34
0.0
1001
ACAD
1000
DSTYLE
1002
{
1070
144
1040
1.0
1070
40
1040
1.0
1002
}
  0
HATCH
  5
1BC
100
AcDbEntity
  8
private_pcb
 62
256
370
-1
 48
1.0
  6
BYLAYER
100
AcDbHatch
 10
0.0
 20
0.0
 30
0.0
210
0.0
220
0.0
230
1.0
  2
DOTS
 70
0
 71
0
 91
1
 92
1
 93
4
 72
1
 10
190.0
 20
78.0
 11
252.0000000000000284
 21
78.0
 72
1
 10
252.0000000000000284
 20
78.0
 11
252.0000000000000284
 21
76.4000000000000057
 72
1
 10
252.0000000000000284
 20
76.4000000000000057
 11
190.0
 21
76.4000000000000057
 72
1
 10
190.0
 20
76.4000000000000057
 11
190.0
 21
78.0
 97
0
 75
0
 76
1
 52
0.0
 41
0.5
 77
0
 78
1
 53
45.0
 43
0.0
 44
0.0
 45
-0.0883883476483184
 46
0.0883883476483185
 79
0
 98
0
1001
ACAD
1010
0.0
1020
0.0
1030
0
  0
DIMENSION
  5
1BD
100
AcDbEntity
  8
dimensions
 62
256
370
-1
 48
1.0
  6
BYLAYER
100
AcDbDimension
 10
43.9999999999999858
 20
21.3500000000000014
 30
0.0
 11
42.1249999999999858
 21
16.5
 31
0.0
 70
1
 71
8
 72
2
 74
0
 75
0
 41
1.0
 42
0.0
  1

  3
Standard
100
AcDbAlignedDimension
 13
40.1000000000000227
 23
21.3500000000000014
 33
0.0
 14
40.1000000000000227
 24
11.6500000000000004
 34
0.0
1001
ACAD
1000
DSTYLE
1002
{
1070
144
1040
1.0
1070
40
1040
1.0
1002
}
  0
TEXT
  5
1BE
100
AcDbEntity
  8
edge.inner
 62
256
370
-1
 48
1.0
  6
BYLAYER
100
AcDbText
 10
0.0
 20
0.0
 30
0.0
 40
3.0
  1
FrontPanelSpacer
 50
0.0
 41
1.0
  7
textstyle1
 71
0
 72
0
 11
130.0
 21
62.0
 31
0.0
100
AcDbText
 73
1
  0
CIRCLE
  5
1BF
100
AcDbEntity
  8
spacer
 62
256
370
-1
 48
1.0
  6
BYLAYER
100
AcDbCircle
 10
138.0
 20
42.9999999999999716
 30
0.0
 40
1.75
  0
CIRCLE
  5
1C0
100
AcDbEntity
  8
spacer
 62
256
370
-1
 48
1.0
  6
BYLAYER
100
AcDbCircle
 10
138.0
 20
17.000000000000032
 30
0.0
 40
1.75
  0
CIRCLE
  5
1C1
100
AcDbEntity
  8
spacer
 62
256
370
-1
 48
1.0
  6
BYLAYER
100
AcDbCircle
 10
337.0
 20
17.000000000000032
 30
0.0
 40
1.75
  0
CIRCLE
  5
1C2
100
AcDbEntity
  8
spacer
 62
256
370
-1
 48
1.0
  6
BYLAYER
100
AcDbCircle
 10
337.0
 20
42.9999999999999716
 30
0.0
 40
1.75
  0
LWPOLYLINE
  5
1C3
100
AcDbEntity
  8
spacer
 62
256
370
-1
 48
1.0
  6
BYLAYER
100
AcDbPolyline
 90
4
 70
129
 10
318.0
 20
41.0
 10
334.0
 20
41.0
 10
334.0
 20
19.0
 10
318.0
 20
19.0
  0
LWPOLYLINE
  5
1C4
100
AcDbEntity
  8
spacer
 62
256
370
-1
 48
1.0
  6
BYLAYER
100
AcDbPolyline
 90
4
 70
129
 10
130.0
 20
51.0
 10
345.0
 20
51.0
 10
345.0
 20
10.0000000000000178
 10
130.0
 20
10.0000000000000178
  0
DIMENSION
  5
1C5
100
AcDbEntity
  8
dimensions
 62
256
370
-1
 48
1.0
  6
BYLAYER
100
AcDbDimension
 10
126.0
 20
10.0000000000000178
 30
0.0
 11
124.125
 21
30.5000000000000071
 31
0.0
 70
1
 71
8
 72
2
 74
0
 75
0
 41
1.0
 42
0.0
  1

  3
Standard
100
AcDbAlignedDimension
 13
130.0
 23
10.0000000000000178
 33
0.0
 14
130.0
 24
51.0
 34
0.0
1001
ACAD
1000
DSTYLE
1002
{
1070
144
1040
1.0
1070
40
1040
1.0
1002
}
  0
DIMENSION
  5
1C6
100
AcDbEntity
  8
dimensions
 62
256
370
-1
 48
1.0
  6
BYLAYER
100
AcDbDimension
 10
130.0
 20
4.0
 30
0.0
 11
237.5
 21
5.875
 31
0.0
 70
1
 71
8
 72
2
 74
0
 75
0
 41
1.0
 42
0.0
  1

  3
Standard
100
AcDbAlignedDimension
 13
130.0
 23
8.0000000000000178
 33
0.0
 14
345.0
 24
8.0000000000000178
 34
0.0
1001
ACAD
1000
DSTYLE
1002
{
1070
144
1040
1.0
1070
40
1040
1.0
1002
}
  0
LWPOLYLINE
  5
1C7
100
AcDbEntity
  8
spacer
 62
256
370
-1
 48
1.0
  6
BYLAYER
100
AcDbPolyline
 90
4
 70
129
 10
35.4999999999999929
 20
143.0
 10
37.0
 20
143.0
 10
37.0
 20
133.0
 10
35.4999999999999929
 20
133.0
  0
LWPOLYLINE
  5
1C8
100
AcDbEntity
  8
spacer
 62
256
370
-1
 48
1.0
  6
BYLAYER
100
AcDbPolyline
 90
4
 70
129
 10
35.5
 20
126.0
 10
37.0
 20
126.0
 10
37.0
 20
116.0
 10
35.5
 20
116.0
  0
LWPOLYLINE
  5
1C9
100
AcDbEntity
  8
spacer
 62
256
370
-1
 48
1.0
  6
BYLAYER
100
AcDbPolyline
 90
4
 70
129
 10
35.4999999999999858
 20
108.4999999999999858
 10
37.0000000000000142
 20
108.4999999999999858
 10
37.0000000000000142
 20
93.5
 10
35.4999999999999858
 20
93.5
  0
LWPOLYLINE
  5
1CA
100
AcDbEntity
  8
spacer
 62
256
370
-1
 48
1.0
  6
BYLAYER
100
AcDbPolyline
 90
4
 70
129
 10
35.4999999999999574
 20
88.5300000000000153
 10
36.9999999999999574
 20
88.5300000000000153
 10
36.9999999999999574
 20
64.5300000000000296
 10
35.4999999999999574
 20
64.5300000000000296
  0
LWPOLYLINE
  5
1CB
100
AcDbEntity
  8
spacer
 62
256
370
-1
 48
1.0
  6
BYLAYER
100
AcDbPolyline
 90
4
 70
129
 10
35.4999999999999858
 20
56.5
 10
36.9999999999999716
 20
56.5
 10
36.9999999999999716
 20
36.5
 10
35.4999999999999858
 20
36.5
  0
LWPOLYLINE
  5
1CC
100
AcDbEntity
  8
spacer
 62
256
370
-1
 48
1.0
  6
BYLAYER
100
AcDbPolyline
 90
4
 70
129
 10
24.8999999999999844
 20
143.0000000000000284
 10
34.3000000000000114
 20
143.0
 10
34.3000000000000114
 20
133.0
 10
24.8999999999999844
 20
133.0
  0
LWPOLYLINE
  5
1CD
100
AcDbEntity
  8
spacer
 62
256
370
-1
 48
1.0
  6
BYLAYER
100
AcDbPolyline
 90
4
 70
129
 10
24.8999999999999986
 20
126.0
 10
34.3000000000000043
 20
126.0
 10
34.3000000000000043
 20
115.9999999999999858
 10
24.8999999999999986
 20
115.9999999999999858
  0
LWPOLYLINE
  5
1CE
100
AcDbEntity
  8
spacer
 62
256
370
-1
 48
1.0
  6
BYLAYER
100
AcDbPolyline
 90
4
 70
129
 10
24.9000000000000057
 20
108.4999999999999858
 10
34.3000000000000043
 20
108.4999999999999858
 10
34.3000000000000043
 20
93.4999999999999858
 10
24.9000000000000057
 20
93.4999999999999858
  0
LINE
  5
1CF
100
AcDbEntity
  8
auxiliary
 62
256
370
-1
 48
1.0
  6
BYLAYER
100
AcDbLine
 10
171.75
 20
120.0
 30
0.0
 11
171.75
 21
161.0
 31
0.0
  0
LWPOLYLINE
  5
1D0
100
AcDbEntity
  8
private_parts
 62
256
370
-1
 48
1.0
  6
BYLAYER
100
AcDbPolyline
 90
4
 70
129
 10
169.2099999999999795
 20
139.0
 10
174.289999999999992
 20
139.0
 10
174.289999999999992
 20
128.0
 10
169.2099999999999795
 20
128.0
  0
LINE
  5
1D1
100
AcDbEntity
  8
auxiliary
 62
256
370
-1
 48
1.0
  6
BYLAYER
100
AcDbLine
 10
140.0
 20
120.0
 30
0.0
 11
140.0
 21
161.0
 31
0.0
  0
LINE
  5
1D2
100
AcDbEntity
  8
auxiliary
 62
256
370
-1
 48
1.0
  6
BYLAYER
100
AcDbLine
 10
164.0
 20
120.0
 30
0.0
 11
164.0
 21
161.0
 31
0.0
  0
LWPOLYLINE
  5
1D3
100
AcDbEntity
  8
private_pcb
 62
256
370
-1
 48
1.0
  6
BYLAYER
100
AcDbPolyline
 90
4
 70
129
 10
134.9200000000000443
 20
140.5999999999999943
 10
175.5600000000000307
 20
140.5999999999999943
 10
175.5600000000000307
 20
139.0
 10
134.9200000000000443
 20
139.0
  0
DIMENSION
  5
1D4
100
AcDbEntity
  8
dimensions
 62
256
370
-1
 48
1.0
  6
BYLAYER
100
AcDbDimension
 10
126.0
 20
120.0
 30
0.0
 11
124.125
 21
140.5000000000000284
 31
0.0
 70
1
 71
8
 72
2
 74
0
 75
0
 41
1.0
 42
0.0
  1

  3
Standard
100
AcDbAlignedDimension
 13
130.0
 23
161.0000000000000853
 33
0.0
 14
130.0
 24
119.9999999999999716
 34
0.0
1001
ACAD
1000
DSTYLE
1002
{
1070
144
1040
1.0
1070
40
1040
1.0
1002
}
  0
DIMENSION
  5
1D5
100
AcDbEntity
  8
dimensions
 62
256
370
-1
 48
1.0
  6
BYLAYER
100
AcDbDimension
 10
178.0
 20
139.0000000000000284
 30
0.0
 11
176.125
 21
133.4999999999999432
 31
0.0
 70
1
 71
8
 72
2
 74
0
 75
0
 41
1.0
 42
0.0
  1

  3
Standard
100
AcDbAlignedDimension
 13
174.289999999999992
 23
138.9999999999999432
 33
0.0
 14
174.289999999999992
 24
127.9999999999999716
 34
0.0
1001
ACAD
1000
DSTYLE
1002
{
1070
144
1040
1.0
1070
40
1040
1.0
1002
}
  0
LINE
  5
1D6
100
AcDbEntity
  8
auxiliary
 62
256
370
-1
 48
1.0
  6
BYLAYER
100
AcDbLine
 10
152.7000000000000455
 20
140.6000000000000227
 30
0.0
 11
152.7000000000000455
 21
161.0000000000000284
 31
0.0
  0
LWPOLYLINE
  5
1D7
100
AcDbEntity
  8
chassis
 62
256
370
-1
 48
1.0
  6
BYLAYER
100
AcDbPolyline
 90
4
 70
129
 10
130.0
 20
121.1999999999999886
 10
182.0
 20
121.1999999999999886
 10
182.0
 20
120.0
 10
130.0
 20
120.0
  0
LWPOLYLINE
  5
1D8
100
AcDbEntity
  8
chassis
 62
256
370
-1
 48
1.0
  6
BYLAYER
100
AcDbPolyline
 90
4
 70
129
 10
130.0
 20
161.0000000000000284
 10
182.0
 20
161.0000000000000284
 10
182.0
 20
159.8000000000000398
 10
130.0
 20
159.8000000000000398
  0
DIMENSION
  5
1D9
100
AcDbEntity
  8
dimensions
 62
256
370
-1
 48
1.0
  6
BYLAYER
100
AcDbDimension
 10
185.0
 20
126.4000000000000341
 30
0.0
 11
183.125
 21
123.8000000000000114
 31
0.0
 70
1
 71
8
 72
2
 74
0
 75
0
 41
1.0
 42
0.0
  1

  3
Standard
100
AcDbAlignedDimension
 13
182.0
 23
126.4000000000000625
 33
0.0
 14
182.0
 24
121.1999999999999602
 34
0.0
1001
ACAD
1000
DSTYLE
1002
{
1070
144
1040
1.0
1070
40
1040
1.0
1002
}
  0
DIMENSION
  5
1DA
100
AcDbEntity
  8
dimensions
 62
256
370
-1
 48
1.0
  6
BYLAYER
100
AcDbDimension
 10
189.0
 20
127.9999999999999716
 30
0.0
 11
187.125
 21
124.0000000000000142
 31
0.0
 70
1
 71
8
 72
2
 74
0
 75
0
 41
1.0
 42
0.0
  1

  3
Standard
100
AcDbAlignedDimension
 13
182.0
 23
128.0000000000000284
 33
0.0
 14
182.0
 24
120.0
 34
0.0
1001
ACAD
1000
DSTYLE
1002
{
1070
144
1040
1.0
1070
40
1040
1.0
1002
}
  0
DIMENSION
  5
1DB
100
AcDbEntity
  8
dimensions
 62
256
370
-1
 48
1.0
  6
BYLAYER
100
AcDbDimension
 10
151.0
 20
141.0
 30
0.0
 11
149.125
 21
150.2000000000000171
 31
0.0
 70
1
 71
8
 72
2
 74
0
 75
0
 41
1.0
 42
0.0
  1

  3
Standard
100
AcDbAlignedDimension
 13
152.7000000000000455
 23
140.5999999999999943
 33
0.0
 14
152.7000000000000455
 24
159.8000000000000398
 34
0.0
1001
ACAD
1000
DSTYLE
1002
{
1070
144
1040
1.0
1070
40
1040
1.0
1002
}
  0
HATCH
  5
1DC
100
AcDbEntity
  8
private_pcb
 62
256
370
-1
 48
1.0
  6
BYLAYER
100
AcDbHatch
 10
0.0
 20
0.0
 30
0.0
210
0.0
220
0.0
230
1.0
  2
DOTS
 70
0
 71
0
 91
1
 92
1
 93
4
 72
1
 10
23.3000000000000007
 20
126.0
 11
24.8999999999999986
 21
126.0
 72
1
 10
24.8999999999999986
 20
126.0
 11
24.8999999999999986
 21
116.0
 72
1
 10
24.8999999999999986
 20
116.0
 11
23.3000000000000007
 21
116.0
 72
1
 10
23.3000000000000007
 20
116.0
 11
23.3000000000000007
 21
126.0
 97
0
 75
0
 76
1
 52
0.0
 41
0.5
 77
0
 78
1
 53
45.0
 43
0.0
 44
0.0
 45
-0.0883883476483184
 46
0.0883883476483185
 79
0
 98
0
1001
ACAD
1010
0.0
1020
0.0
1030
0
  0
HATCH
  5
1DD
100
AcDbEntity
  8
private_pcb
 62
256
370
-1
 48
1.0
  6
BYLAYER
100
AcDbHatch
 10
0.0
 20
0.0
 30
0.0
210
0.0
220
0.0
230
1.0
  2
DOTS
 70
0
 71
0
 91
1
 92
1
 93
4
 72
1
 10
23.2999999999999865
 20
143.0
 11
24.8999999999999844
 21
143.0
 72
1
 10
24.8999999999999844
 20
143.0
 11
24.8999999999999844
 21
133.0
 72
1
 10
24.8999999999999844
 20
133.0
 11
23.2999999999999865
 21
133.0
 72
1
 10
23.2999999999999865
 20
133.0
 11
23.2999999999999865
 21
143.0
 97
0
 75
0
 76
1
 52
0.0
 41
0.5
 77
0
 78
1
 53
45.0
 43
0.0
 44
0.0
 45
-0.0883883476483184
 46
0.0883883476483185
 79
0
 98
0
1001
ACAD
1010
0.0
1020
0.0
1030
0
  0
TEXT
  5
1DE
100
AcDbEntity
  8
0
 62
256
370
-1
 48
1.0
  6
BYLAYER
100
AcDbText
 10
0.0
 20
0.0
 30
0.0
 40
3.0
  1
XPower
 50
0.0
 41
1.0
  7
textstyle0
 71
0
 72
0
 11
130.0
 21
163.0
 31
0.0
100
AcDbText
 73
1
  0
LWPOLYLINE
  5
1DF
100
AcDbEntity
  8
spacer
 62
256
370
-1
 48
1.0
  6
BYLAYER
100
AcDbPolyline
 90
4
 70
129
 10
303.5
 20
75.0
 10
312.0
 20
75.0
 10
312.0
 20
73.0
 10
303.5
 20
73.0
  0
CIRCLE
  5
1E0
100
AcDbEntity
  8
spacer
 62
256
370
-1
 48
1.0
  6
BYLAYER
100
AcDbCircle
 10
153.0
 20
24.5
 30
0.0
 40
8.5
  0
CIRCLE
  5
1E1
100
AcDbEntity
  8
spacer
 62
256
370
-1
 48
1.0
  6
BYLAYER
100
AcDbCircle
 10
231.0
 20
24.5
 30
0.0
 40
8.5
  0
CIRCLE
  5
1E2
100
AcDbEntity
  8
spacer
 62
256
370
-1
 48
1.0
  6
BYLAYER
100
AcDbCircle
 10
177.0
 20
27.5300000000000296
 30
0.0
 40
8.25
  0
CIRCLE
  5
1E3
100
AcDbEntity
  8
spacer
 62
256
370
-1
 48
1.0
  6
BYLAYER
100
AcDbCircle
 10
255.0
 20
27.5300000000000296
 30
0.0
 40
8.25
  0
LWPOLYLINE
  5
1E4
100
AcDbEntity
  8
spacer
 62
256
370
-1
 48
1.0
  6
BYLAYER
100
AcDbPolyline
 90
7
 70
0
 10
177.0
 20
47.0
 10
217.0
 20
47.0
 10
217.0
 20
13.0
 10
188.0
 20
13.0
 10
188.0
 20
38.0
 10
177.0
 20
38.0
 10
176.9999999999999716
 20
46.9999999999999929
  0
LWPOLYLINE
  5
1E5
100
AcDbEntity
  8
spacer
 62
256
370
-1
 48
1.0
  6
BYLAYER
100
AcDbPolyline
 90
7
 70
0
 10
255.0
 20
46.9999999999999929
 10
295.0
 20
47.0
 10
295.0
 20
13.0
 10
266.0
 20
13.0
 10
266.0
 20
38.0
 10
255.0
 20
38.0
 10
255.0
 20
46.9999999999999858
  0
LWPOLYLINE
  5
1E6
100
AcDbEntity
  8
spacer
 62
256
370
-1
 48
1.0
  6
BYLAYER
100
AcDbPolyline
 90
4
 70
129
 10
28.4500000000000135
 20
68.5300000000000011
 10
34.3000000000000114
 20
68.5300000000000011
 10
34.3000000000000114
 20
84.5300000000000011
 10
28.4500000000000135
 20
84.5300000000000011
  0
LWPOLYLINE
  5
1E7
100
AcDbEntity
  8
spacer
 62
256
370
-1
 48
1.0
  6
BYLAYER
100
AcDbPolyline
 90
4
 70
129
 10
31.0000000000000142
 20
8.5
 10
34.3000000000000114
 20
8.5
 10
34.3000000000000114
 20
24.5
 10
31.0000000000000142
 20
24.5
  0
LWPOLYLINE
  5
1E8
100
AcDbEntity
  8
spacer
 62
256
370
-1
 48
1.0
  6
BYLAYER
100
AcDbPolyline
 90
4
 70
129
 10
31.0
 20
38.5
 10
34.2999999999999972
 20
38.5
 10
34.2999999999999972
 20
54.5
 10
31.0
 20
54.5
  0
LWPOLYLINE
  5
1E9
100
AcDbEntity
  8
0
 62
256
370
-1
 48
1.0
  6
BYLAYER
100
AcDbPolyline
 90
4
 70
129
 10
24.9000000000000021
 20
121.25
 10
35.9000000000000057
 20
121.25
 10
35.9000000000000057
 20
120.75
 10
24.9000000000000021
 20
120.75
  0
LWPOLYLINE
  5
1EA
100
AcDbEntity
  8
0
 62
256
370
-1
 48
1.0
  6
BYLAYER
100
AcDbPolyline
 90
4
 70
129
 10
35.9000000000000057
 20
119.0
 10
36.4000000000000057
 20
119.0
 10
36.4000000000000057
 20
123.0
 10
35.9000000000000057
 20
123.0
  0
DIMENSION
  5
1EB
100
AcDbEntity
  8
dimensions
 62
256
370
-1
 48
1.0
  6
BYLAYER
100
AcDbDimension
 10
34.3000000000000043
 20
127.0
 30
0.0
 11
38.1916666666666771
 21
128.875
 31
0.0
 70
0
 71
8
 72
2
 74
0
 75
0
 41
1.0
 42
0.0
  1

  3
Standard
100
AcDbAlignedDimension
 13
34.3000000000000043
 23
125.9999999999999858
 33
0.0
 14
35.9000000000000057
 24
123.0
 34
0.0
 50
0.0
100
AcDbRotatedDimension
1001
ACAD
1000
DSTYLE
1002
{
1070
144
1040
1.0
1070
40
1040
1.0
1002
}
  0
LINE
  5
1EC
100
AcDbEntity
  8
spacer
 62
256
370
-1
 48
1.0
  6
ACAD_ISO02W100
100
AcDbLine
 10
157.5
 20
91.211154710141912
 30
0.0
 11
157.5
 21
83.8488452898580903
 31
0.0
  0
CIRCLE
  5
1ED
100
AcDbEntity
  8
spacer
 62
256
370
-1
 48
1.0
  6
ACAD_ISO02W100
100
AcDbCircle
 10
191.0
 20
44.0
 30
0.0
 40
3.75
  0
CIRCLE
  5
1EE
100
AcDbEntity
  8
spacer
 62
256
370
-1
 48
1.0
  6
ACAD_ISO02W100
100
AcDbCircle
 10
191.0000000000000284
 20
30.0000000000000071
 30
0.0
 40
3.75
  0
CIRCLE
  5
1EF
100
AcDbEntity
  8
spacer
 62
256
370
-1
 48
1.0
  6
ACAD_ISO02W100
100
AcDbCircle
 10
191.0
 20
16.0000000000000178
 30
0.0
 40
3.75
  0
CIRCLE
  5
1F0
100
AcDbEntity
  8
spacer
 62
256
370
-1
 48
1.0
  6
ACAD_ISO02W100
100
AcDbCircle
 10
214.0
 20
30.0000000000000071
 30
0.0
 40
3.75
  0
CIRCLE
  5
1F1
100
AcDbEntity
  8
spacer
 62
256
370
-1
 48
1.0
  6
ACAD_ISO02W100
100
AcDbCircle
 10
269.0
 20
44.0
 30
0.0
 40
3.75
  0
CIRCLE
  5
1F2
100
AcDbEntity
  8
spacer
 62
256
370
-1
 48
1.0
  6
ACAD_ISO02W100
100
AcDbCircle
 10
269.0
 20
30.0000000000000071
 30
0.0
 40
3.75
  0
CIRCLE
  5
1F3
100
AcDbEntity
  8
spacer
 62
256
370
-1
 48
1.0
  6
ACAD_ISO02W100
100
AcDbCircle
 10
269.0
 20
16.0000000000000178
 30
0.0
 40
3.75
  0
CIRCLE
  5
1F4
100
AcDbEntity
  8
spacer
 62
256
370
-1
 48
1.0
  6
ACAD_ISO02W100
100
AcDbCircle
 10
292.0
 20
30.0000000000000071
 30
0.0
 40
3.75
  0
ENDSEC
  0
SECTION
  2
OBJECTS
  0
DICTIONARY
  5
C
100
AcDbDictionary
280
0
281
1
  3
ACAD_GROUP
350
D
  3
ACAD_LAYOUT
350
1A
  3
ACAD_MLINESTYLE
350
17
  3
ACAD_PLOTSETTINGS
350
19
  3
ACAD_PLOTSTYLENAME
350
E
  3
AcDbVariableDictionary
350
1F5
  3
QCAD_OBJECTS
350
1F6
  0
DICTIONARY
  5
D
100
AcDbDictionary
280
0
281
1
  0
ACDBDICTIONARYWDFLT
  5
E
100
AcDbDictionary
281
1
  3
Normal
350
F
100
AcDbDictionaryWithDefault
340
F
  0
ACDBPLACEHOLDER
  5
F
  0
DICTIONARY
  5
17
100
AcDbDictionary
280
0
281
1
  3
Standard
350
18
  0
MLINESTYLE
  5
18
100
AcDbMlineStyle
  2
STANDARD
 70
0
  3

 62
256
 51
90.0
 52
90.0
 71
2
 49
0.5
 62
256
  6
BYLAYER
 49
-0.5
 62
256
  6
BYLAYER
  0
DICTIONARY
  5
19
100
AcDbDictionary
280
0
281
1
  0
DICTIONARY
  5
1A
100
AcDbDictionary
281
1
  3
Layout1
350
1E
  3
Layout2
350
26
  3
Model
350
22
  0
LAYOUT
  5
1E
100
AcDbPlotSettings
  1

  2
none_device
  4

  6

 40
0.0
 41
0.0
 42
0.0
 43
0.0
 44
0.0
 45
0.0
 46
0.0
 47
0.0
 48
0.0
 49
0.0
140
0.0
141
0.0
142
1.0
143
1.0
 70
688
 72
0
 73
0
 74
5
  7

 75
16
147
1.0
148
0.0
149
0.0
100
AcDbLayout
  1
Layout1
 70
1
 71
1
 10
0.0
 20
0.0
 11
420.0
 21
297.0
 12
0.0
 22
0.0
 32
0.0
 14
100000000000000000000.0
 24
100000000000000000000.0
 34
100000000000000000000.0
 15
-100000000000000000000.0
 25
-100000000000000000000.0
 35
-100000000000000000000.0
146
0.0
 13
0.0
 23
0.0
 33
0.0
 16
1.0
 26
0.0
 36
0.0
 17
0.0
 27
1.0
 37
0.0
 76
0
330
1B
  0
LAYOUT
  5
22
100
AcDbPlotSettings
  1

  2
none_device
  4

  6

 40
0.0
 41
0.0
 42
0.0
 43
0.0
 44
0.0
 45
0.0
 46
0.0
 47
0.0
 48
0.0
 49
0.0
140
0.0
141
0.0
142
1.0
143
1.0
 70
1712
 72
0
 73
0
 74
0
  7

 75
0
147
1.0
148
0.0
149
0.0
100
AcDbLayout
  1
Model
 70
1
 71
0
 10
0.0
 20
0.0
 11
12.0
 21
9.0
 12
0.0
 22
0.0
 32
0.0
 14
0.0
 24
0.0
 34
0.0
 15
0.0
 25
0.0
 35
0.0
146
0.0
 13
0.0
 23
0.0
 33
0.0
 16
1.0
 26
0.0
 36
0.0
 17
0.0
 27
1.0
 37
0.0
 76
0
330
1F
  0
LAYOUT
  5
26
100
AcDbPlotSettings
  1

  2
none_device
  4

  6

 40
0.0
 41
0.0
 42
0.0
 43
0.0
 44
0.0
 45
0.0
 46
0.0
 47
0.0
 48
0.0
 49
0.0
140
0.0
141
0.0
142
1.0
143
1.0
 70
688
 72
0
 73
0
 74
5
  7

 75
16
147
1.0
148
0.0
149
0.0
100
AcDbLayout
  1
Layout2
 70
1
 71
2
 10
0.0
 20
0.0
 11
12.0
 21
9.0
 12
0.0
 22
0.0
 32
0.0
 14
0.0
 24
0.0
 34
0.0
 15
0.0
 25
0.0
 35
0.0
146
0.0
 13
0.0
 23
0.0
 33
0.0
 16
1.0
 26
0.0
 36
0.0
 17
0.0
 27
1.0
 37
0.0
 76
0
330
23
  0
DICTIONARY
  5
1F5
100
AcDbDictionary
281
1
  3
DIMASSOC
350
1F8
  3
HIDETEXT
350
1F7
  0
DICTIONARYVAR
  5
1F7
100
DictionaryVariables
280
0
  1
2
  0
DICTIONARYVAR
  5
1F8
100
DictionaryVariables
280
0
  1
1
  0
DICTIONARY
  5
1F6
100
AcDbDictionary
281
1
  3
ColorSettings/BackgroundColor
350
1F9
  3
ColorSettings/ColorMode
350
1FA
  3
Grid/DisplayGrid00
350
1FB
  3
Grid/DisplayGrid01
350
1FC
  3
Grid/DisplayGrid02
350
1FD
  3
Grid/DisplayGrid03
350
1FE
  3
Grid/GridSpacingX00
350
1FF
  3
Grid/GridSpacingX01
350
200
  3
Grid/GridSpacingX02
350
201
  3
Grid/GridSpacingX03
350
202
  3
Grid/GridSpacingY00
350
203
  3
Grid/GridSpacingY01
350
204
  3
Grid/GridSpacingY02
350
205
  3
Grid/GridSpacingY03
350
206
  3
Grid/IsometricGrid00
350
207
  3
Grid/IsometricGrid01
350
208
  3
Grid/IsometricGrid02
350
209
  3
Grid/IsometricGrid03
350
20A
  3
Grid/IsometricProjection00
350
20B
  3
Grid/IsometricProjection01
350
20C
  3
Grid/IsometricProjection02
350
20D
  3
Grid/IsometricProjection03
350
20E
  3
Grid/MetaGridSpacingX00
350
20F
  3
Grid/MetaGridSpacingX01
350
210
  3
Grid/MetaGridSpacingX02
350
211
  3
Grid/MetaGridSpacingX03
350
212
  3
Grid/MetaGridSpacingY00
350
213
  3
Grid/MetaGridSpacingY01
350
214
  3
Grid/MetaGridSpacingY02
350
215
  3
Grid/MetaGridSpacingY03
350
216
  3
MultiPageSettings/Columns
350
217
  3
MultiPageSettings/GlueMarginsBottom
350
218
  3
MultiPageSettings/GlueMarginsLeft
350
219
  3
MultiPageSettings/GlueMarginsRight
350
21A
  3
MultiPageSettings/GlueMarginsTop
350
21B
  3
MultiPageSettings/PrintCropMarks
350
21C
  3
MultiPageSettings/Rows
350
21D
  3
PageSettings/OffsetX
350
21E
  3
PageSettings/OffsetY
350
21F
  3
PageSettings/PageOrientation
350
220
  3
PageSettings/PaperHeight
350
221
  3
PageSettings/PaperWidth
350
222
  3
PageSettings/Scale
350
223
  3
PageSettings/ShowPaperBorders
350
224
  3
PageTagSettings/EnablePageTags
350
225
  3
PageTagSettings/TagAlignment
350
226
  3
PageTagSettings/TagFont
350
227
  3
PageTagSettings/TagPosition
350
228
  3
QCADVersion
350
229
  3
UnitSettings/PaperUnit
350
22A
  3
ViewportCenter
350
22B
  3
ViewportHeight
350
22C
  3
ViewportWidth
350
22D
  0
XRECORD
  5
1F9
330
1F6
100
AcDbXrecord
280
1
1000
\U+767d
  0
XRECORD
  5
1FA
330
1F6
100
AcDbXrecord
280
1
1000
FullColor
  0
XRECORD
  5
1FB
330
1F6
100
AcDbXrecord
280
1
290
1
  0
XRECORD
  5
1FC
330
1F6
100
AcDbXrecord
280
1
290
1
  0
XRECORD
  5
1FD
330
1F6
100
AcDbXrecord
280
1
290
1
  0
XRECORD
  5
1FE
330
1F6
100
AcDbXrecord
280
1
290
1
  0
XRECORD
  5
1FF
330
1F6
100
AcDbXrecord
280
1
1000
\U+81ea\U+52d5
  0
XRECORD
  5
200
330
1F6
100
AcDbXrecord
280
1
1000
\U+81ea\U+52d5
  0
XRECORD
  5
201
330
1F6
100
AcDbXrecord
280
1
1000
\U+81ea\U+52d5
  0
XRECORD
  5
202
330
1F6
100
AcDbXrecord
280
1
1000
\U+81ea\U+52d5
  0
XRECORD
  5
203
330
1F6
100
AcDbXrecord
280
1
1000
\U+81ea\U+52d5
  0
XRECORD
  5
204
330
1F6
100
AcDbXrecord
280
1
1000
\U+81ea\U+52d5
  0
XRECORD
  5
205
330
1F6
100
AcDbXrecord
280
1
1000
\U+81ea\U+52d5
  0
XRECORD
  5
206
330
1F6
100
AcDbXrecord
280
1
1000
\U+81ea\U+52d5
  0
XRECORD
  5
207
330
1F6
100
AcDbXrecord
280
1
290
0
  0
XRECORD
  5
208
330
1F6
100
AcDbXrecord
280
1
290
0
  0
XRECORD
  5
209
330
1F6
100
AcDbXrecord
280
1
290
0
  0
XRECORD
  5
20A
330
1F6
100
AcDbXrecord
280
1
290
0
  0
XRECORD
  5
20B
330
1F6
100
AcDbXrecord
280
1
 90
65537
  0
XRECORD
  5
20C
330
1F6
100
AcDbXrecord
280
1
 90
65537
  0
XRECORD
  5
20D
330
1F6
100
AcDbXrecord
280
1
 90
65537
  0
XRECORD
  5
20E
330
1F6
100
AcDbXrecord
280
1
 90
65537
  0
XRECORD
  5
20F
330
1F6
100
AcDbXrecord
280
1
1000
\U+81ea\U+52d5
  0
XRECORD
  5
210
330
1F6
100
AcDbXrecord
280
1
1000
\U+81ea\U+52d5
  0
XRECORD
  5
211
330
1F6
100
AcDbXrecord
280
1
1000
\U+81ea\U+52d5
  0
XRECORD
  5
212
330
1F6
100
AcDbXrecord
280
1
1000
\U+81ea\U+52d5
  0
XRECORD
  5
213
330
1F6
100
AcDbXrecord
280
1
1000
\U+81ea\U+52d5
  0
XRECORD
  5
214
330
1F6
100
AcDbXrecord
280
1
1000
\U+81ea\U+52d5
  0
XRECORD
  5
215
330
1F6
100
AcDbXrecord
280
1
1000
\U+81ea\U+52d5
  0
XRECORD
  5
216
330
1F6
100
AcDbXrecord
280
1
1000
\U+81ea\U+52d5
  0
XRECORD
  5
217
330
1F6
100
AcDbXrecord
280
1
 90
1
  0
XRECORD
  5
218
330
1F6
100
AcDbXrecord
280
1
 40
10.0
  0
XRECORD
  5
219
330
1F6
100
AcDbXrecord
280
1
 40
10.0
  0
XRECORD
  5
21A
330
1F6
100
AcDbXrecord
280
1
 40
10.0
  0
XRECORD
  5
21B
330
1F6
100
AcDbXrecord
280
1
 40
10.0
  0
XRECORD
  5
21C
330
1F6
100
AcDbXrecord
280
1
290
0
  0
XRECORD
  5
21D
330
1F6
100
AcDbXrecord
280
1
 90
1
  0
XRECORD
  5
21E
330
1F6
100
AcDbXrecord
280
1
 40
0.0
  0
XRECORD
  5
21F
330
1F6
100
AcDbXrecord
280
1
 40
0.0
  0
XRECORD
  5
220
330
1F6
100
AcDbXrecord
280
1
1000
Portrait
  0
XRECORD
  5
221
330
1F6
100
AcDbXrecord
280
1
 40
297.0
  0
XRECORD
  5
222
330
1F6
100
AcDbXrecord
280
1
 40
210.0
  0
XRECORD
  5
223
330
1F6
100
AcDbXrecord
280
1
1000
1:1
  0
XRECORD
  5
224
330
1F6
100
AcDbXrecord
280
1
290
1
  0
XRECORD
  5
225
330
1F6
100
AcDbXrecord
280
1
290
0
  0
XRECORD
  5
226
330
1F6
100
AcDbXrecord
280
1
1000
Inside
  0
XRECORD
  5
227
330
1F6
100
AcDbXrecord
280
1
1000
Arial,10,-1,5,50,0,0,0,0,0
  0
XRECORD
  5
228
330
1F6
100
AcDbXrecord
280
1
1000
TopLeft
  0
XRECORD
  5
229
330
1F6
100
AcDbXrecord
280
1
1000
3.27.4
  0
XRECORD
  5
22A
330
1F6
100
AcDbXrecord
280
1
 90
4
  0
XRECORD
  5
22C
330
1F6
100
AcDbXrecord
280
1
 40
121.9488387180951747
  0
XRECORD
  5
22D
330
1F6
100
AcDbXrecord
280
1
 40
250.9303098530621128
  0
ENDSEC
  0
EOF
