999
dxflib 3.26.4.0
  0
SECTION
  2
HEADER
  9
$ACADVER
  1
AC1015
  9
$HANDSEED
  5
FFFF
  9
$DIMADEC
 70
0
  9
$DIMASZ
 40
2.5
  9
$DIMATFIT
 70
0
  9
$DIMAUNIT
 70
0
  9
$DIMAZIN
 70
2
  9
$DIMBLK
  1
0
  9
$DIMBLK1
  1
0
  9
$DIMBLK2
  1
0
  9
$DIMDEC
 70
4
  9
$DIMDLI
 40
5.0
  9
$DIMDSEP
 70
46
  9
$DIMEXE
 40
1.25
  9
$DIMEXO
 40
0.625
  9
$DIMGAP
 40
0.625
  9
$DIMLFAC
 40
0.0
  9
$DIMLUNIT
 70
2
  9
$DIMSCALE
 40
1.0
  9
$DIMTAD
 70
1
  9
$DIMTIH
 70
0
  9
$DIMTSZ
 40
0.0
  9
$DIMTXT
 40
2.5
  9
$DIMZIN
 70
8
  9
$DWGCODEPAGE
  3
ANSI_1252
  9
$INSUNITS
 70
4
  9
$LTSCALE
 40
1.0
  9
$MAXACTVP
 70
64
  9
$MEASUREMENT
 70
1
  9
$MIRRTEXT
 70
0
  9
$PDMODE
 70
0
  9
$PDSIZE
 40
0.0
  0
ENDSEC
  0
SECTION
  2
TABLES
  0
TABLE
  2
VPORT
  5
8
100
AcDbSymbolTable
 70
1
  0
VPORT
  5
30
100
AcDbSymbolTableRecord
100
AcDbViewportTableRecord
  2
*Active
 70
0
 10
0.0
 20
0.0
 11
1.0
 21
1.0
 12
286.3055555555554861
 22
148.5
 13
0.0
 23
0.0
 14
10.0
 24
10.0
 15
10.0
 25
10.0
 16
0.0
 26
0.0
 36
1.0
 17
0.0
 27
0.0
 37
0.0
 40
297.0
 41
1.92798353909465
 42
50.0
 43
0.0
 44
0.0
 50
0.0
 51
0.0
 71
0
 72
100
 73
1
 74
3
 75
1
 76
1
 77
0
 78
0
281
0
 65
1
110
0.0
120
0.0
130
0.0
111
1.0
121
0.0
131
0.0
112
0.0
122
1.0
132
0.0
 79
0
146
0.0
  0
ENDTAB
  0
TABLE
  2
LTYPE
  5
5
100
AcDbSymbolTable
 70
41
  0
LTYPE
  5
16
100
AcDbSymbolTableRecord
100
AcDbLinetypeTableRecord
  2
Continuous
 70
0
  3
Solid line
 72
65
 73
0
 40
0.0
  0
LTYPE
  5
31
100
AcDbSymbolTableRecord
100
AcDbLinetypeTableRecord
  2
BORDER
 70
0
  3
Border __ __ . __ __ . __ __ . __ __ . __ __ .
 72
65
 73
6
 40
44.4499999999999957
 49
12.6999999999999993
 74
0
 49
-6.3499999999999996
 74
0
 49
12.6999999999999993
 74
0
 49
-6.2999999999999998
 74
0
 49
0.1
 74
0
 49
-6.2999999999999998
 74
0
  0
LTYPE
  5
32
100
AcDbSymbolTableRecord
100
AcDbLinetypeTableRecord
  2
ACAD_ISO10W100
 70
0
  3
ISO dash dot __ . __ . __ . __ . __ . __ . __ . 
 72
65
 73
4
 40
18.0
 49
12.0
 74
0
 49
-2.9500000000000002
 74
0
 49
0.1
 74
0
 49
-2.9500000000000002
 74
0
  0
LTYPE
  5
14
100
AcDbSymbolTableRecord
100
AcDbLinetypeTableRecord
  2
BYBLOCK
 70
0
  3

 72
65
 73
0
 40
0.0
  0
LTYPE
  5
33
100
AcDbSymbolTableRecord
100
AcDbLinetypeTableRecord
  2
DASHEDX2
 70
0
  3
Dashed (2x) ____  ____  ____  ____  ____  ___
 72
65
 73
2
 40
38.0999999999999943
 49
25.3999999999999986
 74
0
 49
-12.6999999999999993
 74
0
  0
LTYPE
  5
34
100
AcDbSymbolTableRecord
100
AcDbLinetypeTableRecord
  2
BORDER2
 70
0
  3
Border (.5x) __.__.__.__.__.__.__.__.__.__.__.
 72
65
 73
6
 40
22.2250000000000014
 49
6.3499999999999996
 74
0
 49
-3.1749999999999998
 74
0
 49
6.3499999999999996
 74
0
 49
-3.125
 74
0
 49
0.1
 74
0
 49
-3.125
 74
0
  0
LTYPE
  5
35
100
AcDbSymbolTableRecord
100
AcDbLinetypeTableRecord
  2
DASHED2
 70
0
  3
Dashed (.5x) _ _ _ _ _ _ _ _ _ _ _ _ _ _ _ _ _ 
 72
65
 73
2
 40
9.5249999999999986
 49
6.3499999999999996
 74
0
 49
-3.1749999999999998
 74
0
  0
LTYPE
  5
36
100
AcDbSymbolTableRecord
100
AcDbLinetypeTableRecord
  2
DASHDOTX2
 70
0
  3
Dash dot (2x) ____  .  ____  .  ____  .  ___
 72
65
 73
4
 40
50.7999999999999972
 49
25.3999999999999986
 74
0
 49
-12.6499999999999986
 74
0
 49
0.1
 74
0
 49
-12.6499999999999986
 74
0
  0
LTYPE
  5
37
100
AcDbSymbolTableRecord
100
AcDbLinetypeTableRecord
  2
HIDDEN2
 70
0
  3
Hidden (.5x) _ _ _ _ _ _ _ _ _ _ _ _ _ _ _ _ _ 
 72
65
 73
2
 40
4.7624999999999993
 49
3.1749999999999998
 74
0
 49
-1.5874999999999999
 74
0
  0
LTYPE
  5
38
100
AcDbSymbolTableRecord
100
AcDbLinetypeTableRecord
  2
PHANTOMX2
 70
0
  3
Phantom (2x) ____________    ____    ____   _
 72
65
 73
6
 40
127.0000000000000142
 49
63.5
 74
0
 49
-12.6999999999999993
 74
0
 49
12.6999999999999993
 74
0
 49
-12.6999999999999993
 74
0
 49
12.6999999999999993
 74
0
 49
-12.6999999999999993
 74
0
  0
LTYPE
  5
39
100
AcDbSymbolTableRecord
100
AcDbLinetypeTableRecord
  2
HIDDENX2
 70
0
  3
Hidden (2x) ____ ____ ____ ____ ____ ____ ____ 
 72
65
 73
2
 40
19.0499999999999972
 49
12.6999999999999993
 74
0
 49
-6.3499999999999996
 74
0
  0
LTYPE
  5
3A
100
AcDbSymbolTableRecord
100
AcDbLinetypeTableRecord
  2
CENTER
 70
0
  3
Center ____ _ ____ _ ____ _ ____ _ ____ _ ____
 72
65
 73
4
 40
50.8000000000000043
 49
31.75
 74
0
 49
-6.3499999999999996
 74
0
 49
6.3499999999999996
 74
0
 49
-6.3499999999999996
 74
0
  0
LTYPE
  5
3B
100
AcDbSymbolTableRecord
100
AcDbLinetypeTableRecord
  2
ACAD_ISO11W100
 70
0
  3
ISO double-dash dot __ __ . __ __ . __ __ . __ _
 72
65
 73
6
 40
33.0
 49
12.0
 74
0
 49
-3.0
 74
0
 49
12.0
 74
0
 49
-2.9500000000000002
 74
0
 49
0.1
 74
0
 49
-2.9500000000000002
 74
0
  0
LTYPE
  5
3C
100
AcDbSymbolTableRecord
100
AcDbLinetypeTableRecord
  2
BORDERX2
 70
0
  3
Border (2x) ____  ____  .  ____  ____  .  ___
 72
65
 73
6
 40
88.8999999999999773
 49
25.3999999999999986
 74
0
 49
-12.6999999999999993
 74
0
 49
25.3999999999999986
 74
0
 49
-12.6499999999999986
 74
0
 49
0.1
 74
0
 49
-12.6499999999999986
 74
0
  0
LTYPE
  5
15
100
AcDbSymbolTableRecord
100
AcDbLinetypeTableRecord
  2
BYLAYER
 70
0
  3

 72
65
 73
0
 40
0.0
  0
LTYPE
  5
3D
100
AcDbSymbolTableRecord
100
AcDbLinetypeTableRecord
  2
ACAD_ISO07W100
 70
0
  3
ISO dot . . . . . . . . . . . . . . . . . . . . 
 72
65
 73
2
 40
3.0
 49
0.1
 74
0
 49
-2.8999999999999999
 74
0
  0
LTYPE
  5
3E
100
AcDbSymbolTableRecord
100
AcDbLinetypeTableRecord
  2
ACAD_ISO05W100
 70
0
  3
ISO long-dash double-dot ____ .. ____ .. ____ . 
 72
65
 73
6
 40
33.0000000000000071
 49
24.0
 74
0
 49
-2.9500000000000002
 74
0
 49
0.1
 74
0
 49
-2.9000000000000004
 74
0
 49
0.1
 74
0
 49
-2.9500000000000002
 74
0
  0
LTYPE
  5
3F
100
AcDbSymbolTableRecord
100
AcDbLinetypeTableRecord
  2
DASHDOT2
 70
0
  3
Dash dot (.5x) _._._._._._._._._._._._._._._.
 72
65
 73
4
 40
12.6999999999999993
 49
6.3499999999999996
 74
0
 49
-3.125
 74
0
 49
0.1
 74
0
 49
-3.125
 74
0
  0
LTYPE
  5
40
100
AcDbSymbolTableRecord
100
AcDbLinetypeTableRecord
  2
ACAD_ISO15W100
 70
0
  3
ISO double-dash triple-dot __ __ . . . __ __ . .
 72
65
 73
10
 40
39.0000000000000071
 49
12.0
 74
0
 49
-3.0
 74
0
 49
12.0
 74
0
 49
-2.9500000000000002
 74
0
 49
0.1
 74
0
 49
-2.9000000000000004
 74
0
 49
0.1
 74
0
 49
-2.9000000000000004
 74
0
 49
0.1
 74
0
 49
-2.9500000000000002
 74
0
  0
LTYPE
  5
41
100
AcDbSymbolTableRecord
100
AcDbLinetypeTableRecord
  2
CENTERX2
 70
0
  3
Center (2x) ________  __  ________  __  _____
 72
65
 73
4
 40
101.6000000000000085
 49
63.5
 74
0
 49
-12.6999999999999993
 74
0
 49
12.6999999999999993
 74
0
 49
-12.6999999999999993
 74
0
  0
LTYPE
  5
42
100
AcDbSymbolTableRecord
100
AcDbLinetypeTableRecord
  2
DASHED
 70
0
  3
Dashed __ __ __ __ __ __ __ __ __ __ __ __ __ _
 72
65
 73
2
 40
19.0499999999999972
 49
12.6999999999999993
 74
0
 49
-6.3499999999999996
 74
0
  0
LTYPE
  5
43
100
AcDbSymbolTableRecord
100
AcDbLinetypeTableRecord
  2
DIVIDE2
 70
0
  3
Divide (.5x) __..__..__..__..__..__..__..__.._
 72
65
 73
6
 40
15.8749999999999982
 49
6.3499999999999996
 74
0
 49
-3.125
 74
0
 49
0.1
 74
0
 49
-3.0750000000000002
 74
0
 49
0.1
 74
0
 49
-3.125
 74
0
  0
LTYPE
  5
44
100
AcDbSymbolTableRecord
100
AcDbLinetypeTableRecord
  2
DOT2
 70
0
  3
Dot (.5x) ........................................
 72
65
 73
2
 40
3.1749999999999998
 49
0.1
 74
0
 49
-3.0749999999999997
 74
0
  0
LTYPE
  5
45
100
AcDbSymbolTableRecord
100
AcDbLinetypeTableRecord
  2
PHANTOM
 70
0
  3
Phantom ______  __  __  ______  __  __  ______ 
 72
65
 73
6
 40
63.5000000000000071
 49
31.75
 74
0
 49
-6.3499999999999996
 74
0
 49
6.3499999999999996
 74
0
 49
-6.3499999999999996
 74
0
 49
6.3499999999999996
 74
0
 49
-6.3499999999999996
 74
0
  0
LTYPE
  5
46
100
AcDbSymbolTableRecord
100
AcDbLinetypeTableRecord
  2
DOT
 70
0
  3
Dot . . . . . . . . . . . . . . . . . . . . . . . .
 72
65
 73
2
 40
6.3499999999999996
 49
0.1
 74
0
 49
-6.25
 74
0
  0
LTYPE
  5
47
100
AcDbSymbolTableRecord
100
AcDbLinetypeTableRecord
  2
ACAD_ISO14W100
 70
0
  3
ISO dash triple-dot __ . . . __ . . . __ . . . _
 72
65
 73
8
 40
24.0000000000000036
 49
12.0
 74
0
 49
-2.9500000000000002
 74
0
 49
0.1
 74
0
 49
-2.9000000000000004
 74
0
 49
0.1
 74
0
 49
-2.9000000000000004
 74
0
 49
0.1
 74
0
 49
-2.9500000000000002
 74
0
  0
LTYPE
  5
48
100
AcDbSymbolTableRecord
100
AcDbLinetypeTableRecord
  2
ACAD_ISO04W100
 70
0
  3
ISO long-dash dot ____ . ____ . ____ . ____ . _
 72
65
 73
4
 40
30.0
 49
24.0
 74
0
 49
-2.9500000000000002
 74
0
 49
0.1
 74
0
 49
-2.9500000000000002
 74
0
  0
LTYPE
  5
49
100
AcDbSymbolTableRecord
100
AcDbLinetypeTableRecord
  2
ACAD_ISO08W100
 70
0
  3
ISO long-dash short-dash ____ __ ____ __ ____ _
 72
65
 73
4
 40
36.0
 49
24.0
 74
0
 49
-3.0
 74
0
 49
6.0
 74
0
 49
-3.0
 74
0
  0
LTYPE
  5
4A
100
AcDbSymbolTableRecord
100
AcDbLinetypeTableRecord
  2
ACAD_ISO13W100
 70
0
  3
ISO double-dash double-dot __ __ . . __ __ . . _
 72
65
 73
8
 40
36.0000000000000071
 49
12.0
 74
0
 49
-3.0
 74
0
 49
12.0
 74
0
 49
-2.9500000000000002
 74
0
 49
0.1
 74
0
 49
-2.9000000000000004
 74
0
 49
0.1
 74
0
 49
-2.9500000000000002
 74
0
  0
LTYPE
  5
4B
100
AcDbSymbolTableRecord
100
AcDbLinetypeTableRecord
  2
ACAD_ISO06W100
 70
0
  3
ISO long-dash triple-dot ____ ... ____ ... ____
 72
65
 73
8
 40
36.0000000000000071
 49
24.0
 74
0
 49
-2.9500000000000002
 74
0
 49
0.1
 74
0
 49
-2.9000000000000004
 74
0
 49
0.1
 74
0
 49
-2.9000000000000004
 74
0
 49
0.1
 74
0
 49
-2.9500000000000002
 74
0
  0
LTYPE
  5
4C
100
AcDbSymbolTableRecord
100
AcDbLinetypeTableRecord
  2
HIDDEN
 70
0
  3
Hidden __ __ __ __ __ __ __ __ __ __ __ __ __ __
 72
65
 73
2
 40
9.5249999999999986
 49
6.3499999999999996
 74
0
 49
-3.1749999999999998
 74
0
  0
LTYPE
  5
4D
100
AcDbSymbolTableRecord
100
AcDbLinetypeTableRecord
  2
PHANTOM2
 70
0
  3
Phantom (.5x) ___ _ _ ___ _ _ ___ _ _ ___ _ _
 72
65
 73
6
 40
31.7500000000000036
 49
15.875
 74
0
 49
-3.1749999999999998
 74
0
 49
3.1749999999999998
 74
0
 49
-3.1749999999999998
 74
0
 49
3.1749999999999998
 74
0
 49
-3.1749999999999998
 74
0
  0
LTYPE
  5
4E
100
AcDbSymbolTableRecord
100
AcDbLinetypeTableRecord
  2
ACAD_ISO03W100
 70
0
  3
ISO dash space __    __    __    __    __    __
 72
65
 73
2
 40
30.0
 49
12.0
 74
0
 49
-18.0
 74
0
  0
LTYPE
  5
4F
100
AcDbSymbolTableRecord
100
AcDbLinetypeTableRecord
  2
DIVIDE
 70
0
  3
Divide ____ . . ____ . . ____ . . ____ . . ____
 72
65
 73
6
 40
31.7500000000000036
 49
12.6999999999999993
 74
0
 49
-6.2999999999999998
 74
0
 49
0.1
 74
0
 49
-6.25
 74
0
 49
0.1
 74
0
 49
-6.2999999999999998
 74
0
  0
LTYPE
  5
50
100
AcDbSymbolTableRecord
100
AcDbLinetypeTableRecord
  2
ACAD_ISO02W100
 70
0
  3
ISO dash __ __ __ __ __ __ __ __ __ __ __ __ __
 72
65
 73
2
 40
15.0
 49
12.0
 74
0
 49
-3.0
 74
0
  0
LTYPE
  5
51
100
AcDbSymbolTableRecord
100
AcDbLinetypeTableRecord
  2
DIVIDEX2
 70
0
  3
Divide (2x) ________  .  .  ________  .  .  _
 72
65
 73
6
 40
63.5
 49
25.3999999999999986
 74
0
 49
-12.6499999999999986
 74
0
 49
0.1
 74
0
 49
-12.5999999999999979
 74
0
 49
0.1
 74
0
 49
-12.6499999999999986
 74
0
  0
LTYPE
  5
52
100
AcDbSymbolTableRecord
100
AcDbLinetypeTableRecord
  2
ACAD_ISO09W100
 70
0
  3
ISO long-dash double-short-dash ____ __ __ ____
 72
65
 73
6
 40
45.0
 49
24.0
 74
0
 49
-3.0
 74
0
 49
6.0
 74
0
 49
-3.0
 74
0
 49
6.0
 74
0
 49
-3.0
 74
0
  0
LTYPE
  5
53
100
AcDbSymbolTableRecord
100
AcDbLinetypeTableRecord
  2
CENTER2
 70
0
  3
Center (.5x) ___ _ ___ _ ___ _ ___ _ ___ _ ___
 72
65
 73
4
 40
28.5750000000000028
 49
19.0500000000000007
 74
0
 49
-3.1749999999999998
 74
0
 49
3.1749999999999998
 74
0
 49
-3.1749999999999998
 74
0
  0
LTYPE
  5
54
100
AcDbSymbolTableRecord
100
AcDbLinetypeTableRecord
  2
DOTX2
 70
0
  3
Dot (2x) .  .  .  .  .  .  .  .  .  .  .  .  .  .
 72
65
 73
2
 40
12.6999999999999993
 49
0.1
 74
0
 49
-12.5999999999999996
 74
0
  0
LTYPE
  5
55
100
AcDbSymbolTableRecord
100
AcDbLinetypeTableRecord
  2
ACAD_ISO12W100
 70
0
  3
ISO dash double-dot __ . . __ . . __ . . __ . . 
 72
65
 73
6
 40
21.0
 49
12.0
 74
0
 49
-2.9500000000000002
 74
0
 49
0.1
 74
0
 49
-2.9000000000000004
 74
0
 49
0.1
 74
0
 49
-2.9500000000000002
 74
0
  0
LTYPE
  5
56
100
AcDbSymbolTableRecord
100
AcDbLinetypeTableRecord
  2
DASHDOT
 70
0
  3
Dash dot __ . __ . __ . __ . __ . __ . __ . __
 72
65
 73
4
 40
25.4000000000000021
 49
12.6999999999999993
 74
0
 49
-6.2999999999999998
 74
0
 49
0.1
 74
0
 49
-6.2999999999999998
 74
0
  0
ENDTAB
  0
TABLE
  2
LAYER
  5
2
100
AcDbSymbolTable
 70
8
  0
LAYER
  5
57
100
AcDbSymbolTableRecord
100
AcDbLayerTableRecord
  2
dimensions
 70
0
 62
161
420
5614335
  6
Continuous
370
13
390
F
  0
LAYER
  5
58
100
AcDbSymbolTableRecord
100
AcDbLayerTableRecord
  2
hidden
 70
1
 62
7
420
0
  6
ACAD_ISO02W100
370
25
390
F
  0
LAYER
  5
59
100
AcDbSymbolTableRecord
100
AcDbLayerTableRecord
  2
private_dimensions
 70
1
 62
161
420
5614335
  6
Continuous
370
13
390
F
  0
LAYER
  5
5A
100
AcDbSymbolTableRecord
100
AcDbLayerTableRecord
  2
auxiliary
 70
0
 62
7
420
0
  6
ACAD_ISO10W100
370
13
390
F
  0
LAYER
  5
5B
100
AcDbSymbolTableRecord
100
AcDbLayerTableRecord
  2
private_parts
 70
1
 62
54
420
8421376
  6
Continuous
370
25
390
F
  0
LAYER
  5
5C
100
AcDbSymbolTableRecord
100
AcDbLayerTableRecord
  2
requests
 70
0
 62
7
420
0
  6
Continuous
370
13
390
F
  0
LAYER
  5
10
100
AcDbSymbolTableRecord
100
AcDbLayerTableRecord
  2
0
 70
0
 62
7
420
0
  6
Continuous
370
25
390
F
  0
LAYER
  5
5D
100
AcDbSymbolTableRecord
100
AcDbLayerTableRecord
  2
private_pcb
 70
1
 62
134
420
32896
  6
Continuous
370
25
390
F
  0
ENDTAB
  0
TABLE
  2
STYLE
  5
3
100
AcDbSymbolTable
 70
21
  0
STYLE
  5
5E
100
AcDbSymbolTableRecord
100
AcDbTextStyleTableRecord
  2
Standard
 70
0
 40
0.0
 41
1.0
 50
0.0
 71
0
 42
2.5
  3

  4

1001
ACAD
1000
txt
1071
0
  0
STYLE
  5
5F
100
AcDbSymbolTableRecord
100
AcDbTextStyleTableRecord
  2
textstyle0
 70
0
 40
0.0
 41
1.0
 50
0.0
 71
0
 42
5.0
  3

  4

1001
ACAD
1000
BIZ UDP\U+30b4\U+30b7\U+30c3\U+30af
1071
0
  0
STYLE
  5
60
100
AcDbSymbolTableRecord
100
AcDbTextStyleTableRecord
  2
textstyle1
 70
0
 40
0.0
 41
1.0
 50
0.0
 71
0
 42
5.0
  3

  4

1001
ACAD
1000
BIZ UDP\U+30b4\U+30b7\U+30c3\U+30af
1071
0
  0
STYLE
  5
61
100
AcDbSymbolTableRecord
100
AcDbTextStyleTableRecord
  2
textstyle2
 70
0
 40
0.0
 41
1.0
 50
0.0
 71
0
 42
5.0
  3

  4

1001
ACAD
1000
BIZ UDP\U+30b4\U+30b7\U+30c3\U+30af
1071
0
  0
STYLE
  5
62
100
AcDbSymbolTableRecord
100
AcDbTextStyleTableRecord
  2
textstyle3
 70
0
 40
0.0
 41
1.0
 50
0.0
 71
0
 42
5.0
  3

  4

1001
ACAD
1000
BIZ UDP\U+30b4\U+30b7\U+30c3\U+30af
1071
0
  0
STYLE
  5
63
100
AcDbSymbolTableRecord
100
AcDbTextStyleTableRecord
  2
textstyle4
 70
0
 40
0.0
 41
1.0
 50
0.0
 71
0
 42
5.0
  3

  4

1001
ACAD
1000
BIZ UDP\U+30b4\U+30b7\U+30c3\U+30af
1071
0
  0
STYLE
  5
64
100
AcDbSymbolTableRecord
100
AcDbTextStyleTableRecord
  2
textstyle5
 70
0
 40
0.0
 41
1.0
 50
0.0
 71
0
 42
5.0
  3

  4

1001
ACAD
1000
BIZ UDP\U+30b4\U+30b7\U+30c3\U+30af
1071
0
  0
STYLE
  5
65
100
AcDbSymbolTableRecord
100
AcDbTextStyleTableRecord
  2
textstyle6
 70
0
 40
0.0
 41
1.0
 50
0.0
 71
0
 42
5.0
  3

  4

1001
ACAD
1000
BIZ UDP\U+30b4\U+30b7\U+30c3\U+30af
1071
33554432
  0
STYLE
  5
66
100
AcDbSymbolTableRecord
100
AcDbTextStyleTableRecord
  2
textstyle7
 70
0
 40
0.0
 41
1.0
 50
0.0
 71
0
 42
5.0
  3

  4

1001
ACAD
1000
BIZ UDP\U+30b4\U+30b7\U+30c3\U+30af
1071
33554432
  0
STYLE
  5
67
100
AcDbSymbolTableRecord
100
AcDbTextStyleTableRecord
  2
textstyle8
 70
0
 40
0.0
 41
1.0
 50
0.0
 71
0
 42
5.0
  3

  4

1001
ACAD
1000
BIZ UDP\U+30b4\U+30b7\U+30c3\U+30af
1071
33554432
  0
STYLE
  5
68
100
AcDbSymbolTableRecord
100
AcDbTextStyleTableRecord
  2
textstyle9
 70
0
 40
0.0
 41
1.0
 50
0.0
 71
0
 42
4.0
  3

  4

1001
ACAD
1000
BIZ UDP\U+30b4\U+30b7\U+30c3\U+30af
1071
0
  0
STYLE
  5
69
100
AcDbSymbolTableRecord
100
AcDbTextStyleTableRecord
  2
textstyle10
 70
0
 40
0.0
 41
1.0
 50
0.0
 71
0
 42
4.0
  3

  4

1001
ACAD
1000
BIZ UDP\U+30b4\U+30b7\U+30c3\U+30af
1071
0
  0
STYLE
  5
6A
100
AcDbSymbolTableRecord
100
AcDbTextStyleTableRecord
  2
textstyle11
 70
0
 40
0.0
 41
1.0
 50
0.0
 71
0
 42
5.0
  3

  4

1001
ACAD
1000
BIZ UDP\U+30b4\U+30b7\U+30c3\U+30af
1071
0
  0
STYLE
  5
6B
100
AcDbSymbolTableRecord
100
AcDbTextStyleTableRecord
  2
textstyle12
 70
0
 40
0.0
 41
1.0
 50
0.0
 71
0
 42
5.0
  3

  4

1001
ACAD
1000
BIZ UDP\U+30b4\U+30b7\U+30c3\U+30af
1071
33554432
  0
STYLE
  5
6C
100
AcDbSymbolTableRecord
100
AcDbTextStyleTableRecord
  2
textstyle13
 70
0
 40
0.0
 41
1.0
 50
0.0
 71
0
 42
5.0
  3

  4

1001
ACAD
1000
BIZ UDP\U+30b4\U+30b7\U+30c3\U+30af
1071
33554432
  0
STYLE
  5
6D
100
AcDbSymbolTableRecord
100
AcDbTextStyleTableRecord
  2
textstyle14
 70
0
 40
0.0
 41
1.0
 50
0.0
 71
0
 42
5.0
  3

  4

1001
ACAD
1000
BIZ UDP\U+30b4\U+30b7\U+30c3\U+30af
1071
33554432
  0
STYLE
  5
6E
100
AcDbSymbolTableRecord
100
AcDbTextStyleTableRecord
  2
textstyle15
 70
0
 40
0.0
 41
1.0
 50
0.0
 71
0
 42
5.0
  3

  4

1001
ACAD
1000
BIZ UDP\U+30b4\U+30b7\U+30c3\U+30af
1071
0
  0
STYLE
  5
6F
100
AcDbSymbolTableRecord
100
AcDbTextStyleTableRecord
  2
textstyle16
 70
0
 40
0.0
 41
1.0
 50
0.0
 71
0
 42
4.0
  3

  4

1001
ACAD
1000
BIZ UDP\U+30b4\U+30b7\U+30c3\U+30af
1071
0
  0
STYLE
  5
70
100
AcDbSymbolTableRecord
100
AcDbTextStyleTableRecord
  2
textstyle17
 70
0
 40
0.0
 41
1.0
 50
0.0
 71
0
 42
4.0
  3

  4

1001
ACAD
1000
BIZ UDP\U+30b4\U+30b7\U+30c3\U+30af
1071
0
  0
STYLE
  5
71
100
AcDbSymbolTableRecord
100
AcDbTextStyleTableRecord
  2
textstyle18
 70
0
 40
0.0
 41
1.0
 50
0.0
 71
0
 42
4.0
  3

  4

1001
ACAD
1000
BIZ UDP\U+30b4\U+30b7\U+30c3\U+30af
1071
0
  0
STYLE
  5
72
100
AcDbSymbolTableRecord
100
AcDbTextStyleTableRecord
  2
textstyle19
 70
0
 40
0.0
 41
1.0
 50
0.0
 71
0
 42
4.0
  3

  4

1001
ACAD
1000
BIZ UDP\U+30b4\U+30b7\U+30c3\U+30af
1071
0
  0
ENDTAB
  0
TABLE
  2
VIEW
  5
6
100
AcDbSymbolTable
 70
0
  0
ENDTAB
  0
TABLE
  2
UCS
  5
7
100
AcDbSymbolTable
 70
0
  0
ENDTAB
  0
TABLE
  2
APPID
  5
9
100
AcDbSymbolTable
 70
1
  0
APPID
  5
12
100
AcDbSymbolTableRecord
100
AcDbRegAppTableRecord
  2
ACAD
 70
0
  0
APPID
  5
73
100
AcDbSymbolTableRecord
100
AcDbRegAppTableRecord
  2
QCAD
 70
0
  0
ENDTAB
  0
TABLE
  2
DIMSTYLE
  5
A
100
AcDbSymbolTable
 70
1
100
AcDbDimStyleTable
 71
0
  0
DIMSTYLE
105
27
100
AcDbSymbolTableRecord
100
AcDbDimStyleTableRecord
  2
Standard
 41
2.5
 42
0.625
 43
3.75
 44
1.25
 70
0
 73
0
 74
0
 77
1
 78
8
140
2.5
141
2.5
143
0.03937007874016
147
0.625
171
3
172
1
271
2
272
2
274
3
278
44
283
0
284
8
340
5E
  0
ENDTAB
  0
TABLE
  2
BLOCK_RECORD
  5
1
100
AcDbSymbolTable
 70
1
  0
BLOCK_RECORD
  5
1F
100
AcDbSymbolTableRecord
100
AcDbBlockTableRecord
  2
*Model_Space
340
22
  0
BLOCK_RECORD
  5
1B
100
AcDbSymbolTableRecord
100
AcDbBlockTableRecord
  2
*Paper_Space
340
1E
  0
BLOCK_RECORD
  5
23
100
AcDbSymbolTableRecord
100
AcDbBlockTableRecord
  2
*Paper_Space0
340
26
  0
ENDTAB
  0
ENDSEC
  0
SECTION
  2
BLOCKS
  0
BLOCK
  5
20
100
AcDbEntity
  8
0
100
AcDbBlockBegin
  2
*Model_Space
 70
0
 10
0.0
 20
0.0
 30
0.0
  3
*Model_Space
  1

  0
ENDBLK
  5
21
100
AcDbEntity
  8
0
100
AcDbBlockEnd
  0
BLOCK
  5
1C
100
AcDbEntity
 67
1
  8
0
100
AcDbBlockBegin
  2
*Paper_Space
 70
0
 10
0.0
 20
0.0
 30
0.0
  3
*Paper_Space
  1

  0
ENDBLK
  5
1D
100
AcDbEntity
 67
1
  8
0
100
AcDbBlockEnd
  0
BLOCK
  5
24
100
AcDbEntity
  8
0
100
AcDbBlockBegin
  2
*Paper_Space0
 70
0
 10
0.0
 20
0.0
 30
0.0
  3
*Paper_Space0
  1

  0
ENDBLK
  5
25
100
AcDbEntity
  8
0
100
AcDbBlockEnd
  0
ENDSEC
  0
SECTION
  2
ENTITIES
  0
LINE
  5
74
100
AcDbEntity
  8
auxiliary
 62
256
370
-1
 48
1.0
  6
BYLAYER
100
AcDbLine
 10
42.0
 20
340.0
 30
0.0
 11
42.0
 21
381.0
 31
0.0
  0
CIRCLE
  5
75
100
AcDbEntity
  8
0
 62
256
370
-1
 48
1.0
  6
BYLAYER
100
AcDbCircle
 10
158.9999999999999432
 20
108.0000000000000142
 30
0.0
 40
1.6000000000000227
  0
CIRCLE
  5
76
100
AcDbEntity
  8
0
 62
256
370
-1
 48
1.0
  6
BYLAYER
100
AcDbCircle
 10
236.0
 20
107.9999999999999858
 30
0.0
 40
1.6000000000000227
  0
CIRCLE
  5
77
100
AcDbEntity
  8
0
 62
256
370
-1
 48
1.0
  6
BYLAYER
100
AcDbCircle
 10
236.0
 20
197.0
 30
0.0
 40
1.6000000000000227
  0
LWPOLYLINE
  5
78
100
AcDbEntity
  8
0
 62
256
370
-1
 48
1.0
  6
BYLAYER
100
AcDbPolyline
 90
4
 70
0
 10
441.9744245126689748
 20
324.6281229913304855
 10
441.9744245126689748
 20
324.5328729913304073
 10
442.0378745126689637
 20
324.3741279913303401
 10
442.1331245126689282
 20
324.3106779913304649
  0
CIRCLE
  5
79
100
AcDbEntity
  8
0
 62
256
370
-1
 48
1.0
  6
BYLAYER
100
AcDbCircle
 10
158.9999999999999432
 20
197.0000000000004547
 30
0.0
 40
1.6000000000000227
  0
LINE
  5
7A
100
AcDbEntity
  8
auxiliary
 62
256
370
-1
 48
1.0
  6
BYLAYER
100
AcDbLine
 10
53.0
 20
381.0
 30
0.0
 11
53.0
 21
340.0
 31
0.0
  0
CIRCLE
  5
7B
100
AcDbEntity
  8
0
 62
256
370
-1
 48
1.0
  6
BYLAYER
100
AcDbCircle
 10
107.9999999999999432
 20
108.0000000000001847
 30
0.0
 40
1.6000000000000227
  0
CIRCLE
  5
7C
100
AcDbEntity
  8
0
 62
256
370
-1
 48
1.0
  6
BYLAYER
100
AcDbCircle
 10
149.9999999999999432
 20
107.9999999999998863
 30
0.0
 40
1.6000000000000227
  0
CIRCLE
  5
7D
100
AcDbEntity
  8
0
 62
256
370
-1
 48
1.0
  6
BYLAYER
100
AcDbCircle
 10
149.9999999999999432
 20
196.9999999999996589
 30
0.0
 40
1.6000000000000227
  0
LWPOLYLINE
  5
7E
100
AcDbEntity
  8
0
 62
256
370
-1
 48
1.0
  6
BYLAYER
100
AcDbPolyline
 90
7
 70
0
 10
442.736423012668979
 20
324.1200789913304448
 10
442.57767351266898
 20
324.1200789913304448
 10
442.4824235126689587
 20
324.1200789913304448
 10
442.3554230126690072
 20
324.1835784913303655
 10
442.3236725126689635
 20
324.3105789913304307
 10
442.2919220126689197
 20
324.5010789913304166
 10
441.9744245126689748
 20
324.6281829913303909
  0
CIRCLE
  5
7F
100
AcDbEntity
  8
0
 62
256
370
-1
 48
1.0
  6
BYLAYER
100
AcDbCircle
 10
107.9999999999999432
 20
197.0000000000002274
 30
0.0
 40
1.6000000000000227
  0
LINE
  5
80
100
AcDbEntity
  8
auxiliary
 62
256
370
-1
 48
1.0
  6
BYLAYER
100
AcDbLine
 10
77.0
 20
381.0
 30
0.0
 11
77.0
 21
340.0
 31
0.0
  0
LINE
  5
81
100
AcDbEntity
  8
auxiliary
 62
256
370
-1
 48
1.0
  6
BYLAYER
100
AcDbLine
 10
54.9999999999999929
 20
29.9999999999999858
 30
0.0
 11
54.9999999999999929
 21
71.0000000000001137
 31
0.0
  0
LWPOLYLINE
  5
82
100
AcDbEntity
  8
0
 62
256
370
-1
 48
1.0
  6
BYLAYER
100
AcDbPolyline
 90
10
 70
0
 10
495.5366795126689681
 20
293.7353829913304253
 10
495.3461795126689822
 20
293.6719329913303795
 10
495.2509295126690176
 20
293.6719329913303795
 10
495.1238795126689638
 20
293.7353829913304253
 10
495.0604295126689749
 20
293.8624329913304223
 10
494.996979512668986
 20
294.052932991330465
 10
494.7111695126689597
 20
294.2433729913304319
 10
494.7111695126689597
 20
294.0846279913303647
 10
494.7429695126689921
 20
293.9575779913304245
 10
494.8700195126689891
 20
293.8941279913303788
  0
LINE
  5
83
100
AcDbEntity
  8
auxiliary
 62
256
370
-1
 48
1.0
  6
BYLAYER
100
AcDbLine
 10
85.0
 20
30.0
 30
0.0
 11
85.0
 21
71.0000000000000995
 31
0.0
  0
LWPOLYLINE
  5
84
100
AcDbEntity
  8
0
 62
256
370
-1
 48
1.0
  6
BYLAYER
100
AcDbPolyline
 90
6
 70
0
 10
548.0511680126689953
 20
324.6281289913304704
 10
548.0194175126689515
 20
324.4376289913304277
 10
547.924167512668987
 20
324.2153784913304548
 10
547.8289175126690225
 20
324.0248784913304121
 10
547.6701680126689098
 20
323.8661289913304131
 10
547.5114170126689714
 20
323.7391284913304048
  0
LINE
  5
85
100
AcDbEntity
  8
auxiliary
 62
256
370
-1
 48
1.0
  6
BYLAYER
100
AcDbLine
 10
91.0
 20
340.0
 30
0.0
 11
91.0
 21
381.0
 31
0.0
  0
LINE
  5
86
100
AcDbEntity
  8
auxiliary
 62
256
370
-1
 48
1.0
  6
BYLAYER
100
AcDbLine
 10
179.9999999999999432
 20
29.9999999999998579
 30
0.0
 11
179.9999999999999432
 21
71.0000000000000853
 31
0.0
  0
LWPOLYLINE
  5
87
100
AcDbEntity
  8
0
 62
256
370
-1
 48
1.0
  6
BYLAYER
100
AcDbPolyline
 90
2
 70
0
 10
442.4188520126689923
 20
324.1518789913304204
 10
442.1331020126690419
 20
324.3106284913304194
  0
DIMENSION
  5
88
100
AcDbEntity
  8
dimensions
 62
256
370
-1
 48
1.0
  6
BYLAYER
100
AcDbDimension
 10
25.9375000000000213
 20
299.9999999999993179
 30
0.0
 11
24.0624999999999716
 21
199.999999999999801
 31
0.0
 70
129
 71
8
 72
2
 74
0
 75
0
 41
1.0
 42
0.0
  1

  3
Standard
100
AcDbAlignedDimension
 13
30.0000000000000355
 23
299.9999999999993179
 33
0.0
 14
29.9999999999999787
 24
100.0000000000002558
 34
0.0
1001
ACAD
1000
DSTYLE
1002
{
1070
279
1070
2
1070
144
1040
1.0
1070
40
1040
1.0
1002
}
  0
LINE
  5
89
100
AcDbEntity
  8
auxiliary
 62
256
370
-1
 48
1.0
  6
BYLAYER
100
AcDbLine
 10
99.0
 20
381.0
 30
0.0
 11
99.0
 21
340.0
 31
0.0
  0
LWPOLYLINE
  5
8A
100
AcDbEntity
  8
0
 62
256
370
-1
 48
1.0
  6
BYLAYER
100
AcDbPolyline
 90
4
 70
129
 10
30.0
 20
99.9999999999999858
 10
244.9999999999999432
 20
100.0000000000000142
 10
244.9999999999999432
 20
300.0000000000001137
 10
30.0
 20
300.0
  0
LINE
  5
8B
100
AcDbEntity
  8
auxiliary
 62
256
370
-1
 48
1.0
  6
BYLAYER
100
AcDbLine
 10
194.0
 20
29.9999999999999289
 30
0.0
 11
193.9999999999999432
 21
71.0000000000000711
 31
0.0
  0
LWPOLYLINE
  5
8C
100
AcDbEntity
  8
private_pcb
 62
256
370
-1
 48
1.0
  6
BYLAYER
100
AcDbPolyline
 90
4
 70
129
 10
40.0
 20
102.5
 10
101.9999999999999432
 20
102.4999999999999858
 10
101.9999999999999432
 20
132.5
 10
40.0
 20
132.5
  0
LWPOLYLINE
  5
8D
100
AcDbEntity
  8
0
 62
256
370
-1
 48
1.0
  6
BYLAYER
100
AcDbPolyline
 90
2
 70
0
 10
494.8698845126689889
 20
293.8941099913304242
 10
495.1556345126689394
 20
293.7036099913304383
  0
LWPOLYLINE
  5
8E
100
AcDbEntity
  8
private_pcb
 62
256
370
-1
 48
1.0
  6
BYLAYER
100
AcDbPolyline
 90
4
 70
129
 10
103.9999999999999432
 20
103.9999999999999858
 10
153.9999999999999432
 20
103.9999999999999858
 10
153.9999999999999432
 20
200.9999999999990337
 10
103.9999999999999432
 20
200.9999999999999432
  0
LINE
  5
8F
100
AcDbEntity
  8
auxiliary
 62
256
370
-1
 48
1.0
  6
BYLAYER
100
AcDbLine
 10
210.9999999999999432
 20
29.9999999999997797
 30
0.0
 11
211.0
 21
71.0000000000000711
 31
0.0
  0
LWPOLYLINE
  5
90
100
AcDbEntity
  8
private_pcb
 62
256
370
-1
 48
1.0
  6
BYLAYER
100
AcDbPolyline
 90
4
 70
129
 10
154.9999999999999432
 20
104.0000000000000284
 10
240.0
 20
103.9999999999999858
 10
240.0
 20
201.0
 10
154.9999999999999432
 20
200.9999999999992042
  0
LWPOLYLINE
  5
91
100
AcDbEntity
  8
0
 62
256
370
-1
 48
1.0
  6
BYLAYER
100
AcDbPolyline
 90
2
 70
0
 10
442.2918515126689272
 20
324.5011284913304053
 10
442.2918515126689272
 20
353.9333979913304233
  0
LINE
  5
92
100
AcDbEntity
  8
auxiliary
 62
256
370
-1
 48
1.0
  6
BYLAYER
100
AcDbLine
 10
114.0
 20
381.0
 30
0.0
 11
114.0
 21
340.0
 31
0.0
  0
LINE
  5
93
100
AcDbEntity
  8
private_pcb
 62
256
370
-1
 48
1.0
  6
BYLAYER
100
AcDbLine
 10
117.9999999999999432
 20
165.9999999999999432
 30
0.0
 11
153.9999999999999432
 21
166.0
 31
0.0
  0
LINE
  5
94
100
AcDbEntity
  8
auxiliary
 62
256
370
-1
 48
1.0
  6
BYLAYER
100
AcDbLine
 10
225.0
 20
30.0000000000000071
 30
0.0
 11
225.0
 21
71.0000000000000711
 31
0.0
  0
LWPOLYLINE
  5
95
100
AcDbEntity
  8
private_pcb
 62
256
370
-1
 48
1.0
  6
BYLAYER
100
AcDbPolyline
 90
4
 70
129
 10
117.9999999999999432
 20
150.9999999999999432
 10
153.9999999999999432
 20
150.9999999999999432
 10
153.9999999999999432
 20
181.0
 10
117.9999999999999432
 20
181.0
  0
DIMENSION
  5
96
100
AcDbEntity
  8
private_dimensions
 62
256
370
-1
 48
1.0
  6
BYLAYER
100
AcDbDimension
 10
117.9999999999999147
 20
184.9999999999994031
 30
0.0
 11
135.9999999999999716
 21
186.8749999999992895
 31
0.0
 70
129
 71
8
 72
2
 74
0
 75
0
 41
1.0
 42
0.0
  1

  3
Standard
100
AcDbAlignedDimension
 13
117.9999999999999432
 23
180.9999999999998579
 33
0.0
 14
153.9999999999999432
 24
180.9999999999996305
 34
0.0
1001
ACAD
1000
DSTYLE
1002
{
1070
279
1070
2
1070
144
1040
1.0
1070
40
1040
1.0
1002
}
  0
LWPOLYLINE
  5
97
100
AcDbEntity
  8
0
 62
256
370
-1
 48
1.0
  6
BYLAYER
100
AcDbPolyline
 90
2
 70
0
 10
441.9743510126689898
 20
354.1238979913304092
 10
441.9743510126689898
 20
324.6281289913304704
  0
DIMENSION
  5
98
100
AcDbEntity
  8
private_dimensions
 62
256
370
-1
 48
1.0
  6
BYLAYER
100
AcDbDimension
 10
115.9999999999999147
 20
150.9999999999996021
 30
0.0
 11
114.1249999999999147
 21
158.5
 31
0.0
 70
129
 71
8
 72
2
 74
0
 75
0
 41
1.0
 42
0.0
  1

  3
Standard
100
AcDbAlignedDimension
 13
117.9999999999999432
 23
150.9999999999995453
 33
0.0
 14
117.9999999999999574
 24
166.0000000000003979
 34
0.0
1001
ACAD
1000
DSTYLE
1002
{
1070
279
1070
2
1070
144
1040
1.0
1070
40
1040
1.0
1002
}
  0
LINE
  5
99
100
AcDbEntity
  8
auxiliary
 62
256
370
-1
 48
1.0
  6
BYLAYER
100
AcDbLine
 10
120.0
 20
381.0
 30
0.0
 11
120.0
 21
340.0
 31
0.0
  0
DIMENSION
  5
9A
100
AcDbEntity
  8
dimensions
 62
256
370
-1
 48
1.0
  6
BYLAYER
100
AcDbDimension
 10
145.9999999999999432
 20
170.0
 30
0.0
 11
135.9999999999999432
 21
171.8750000000002274
 31
0.0
 70
1
 71
8
 72
2
 74
0
 75
0
 41
1.0
 42
0.0
  1

  3
Standard
100
AcDbAlignedDimension
 13
125.9999999999999432
 23
166.0000000000006821
 33
0.0
 14
145.9999999999999432
 24
166.0000000000002274
 34
0.0
1001
ACAD
1000
DSTYLE
1002
{
1070
144
1040
1.0
1070
40
1040
1.0
1002
}
  0
LINE
  5
9B
100
AcDbEntity
  8
auxiliary
 62
256
370
-1
 48
1.0
  6
BYLAYER
100
AcDbLine
 10
77.0
 20
46.2499999999999005
 30
0.0
 11
93.0
 21
46.2499999999999574
 31
0.0
  0
CIRCLE
  5
9C
100
AcDbEntity
  8
0
 62
256
370
-1
 48
1.0
  6
BYLAYER
100
AcDbCircle
 10
125.9999999999999432
 20
165.9999999999999432
 30
0.0
 40
1.5999999999999943
  0
LWPOLYLINE
  5
9D
100
AcDbEntity
  8
0
 62
256
370
-1
 48
1.0
  6
BYLAYER
100
AcDbPolyline
 90
2
 70
0
 10
547.5114170126689714
 20
323.7391284913304048
 10
495.5366345126690248
 20
293.735358991330429
  0
CIRCLE
  5
9E
100
AcDbEntity
  8
0
 62
256
370
-1
 48
1.0
  6
BYLAYER
100
AcDbCircle
 10
145.9999999999999432
 20
166.0
 30
0.0
 40
1.5999999999999943
  0
LINE
  5
9F
100
AcDbEntity
  8
auxiliary
 62
256
370
-1
 48
1.0
  6
BYLAYER
100
AcDbLine
 10
131.0
 20
381.0
 30
0.0
 11
131.0
 21
340.0
 31
0.0
  0
LINE
  5
A0
100
AcDbEntity
  8
auxiliary
 62
256
370
-1
 48
1.0
  6
BYLAYER
100
AcDbLine
 10
175.0
 20
40.9999999999999289
 30
0.0
 11
185.0
 21
41.0000000000000853
 31
0.0
  0
DIMENSION
  5
A1
100
AcDbEntity
  8
private_dimensions
 62
256
370
-1
 48
1.0
  6
BYLAYER
100
AcDbDimension
 10
154.9999999999999432
 20
112.9999999999999005
 30
0.0
 11
197.4999999999999716
 21
114.8750000000007105
 31
0.0
 70
129
 71
8
 72
2
 74
0
 75
0
 41
1.0
 42
0.0
  1

  3
Standard
100
AcDbAlignedDimension
 13
154.9999999999999432
 23
103.9999999999982663
 33
0.0
 14
240.0
 24
104.0000000000000142
 34
0.0
1001
ACAD
1000
DSTYLE
1002
{
1070
279
1070
2
1070
144
1040
1.0
1070
40
1040
1.0
1002
}
  0
LWPOLYLINE
  5
A2
100
AcDbEntity
  8
0
 62
256
370
-1
 48
1.0
  6
BYLAYER
100
AcDbPolyline
 90
2
 70
0
 10
494.7111350126689331
 20
294.2433594913304091
 10
494.7111350126689331
 20
323.7391284913304048
  0
DIMENSION
  5
A3
100
AcDbEntity
  8
private_dimensions
 62
256
370
-1
 48
1.0
  6
BYLAYER
100
AcDbDimension
 10
103.9999999999999574
 20
112.9999999999992042
 30
0.0
 11
128.9999999999999432
 21
114.8750000000014069
 31
0.0
 70
129
 71
8
 72
2
 74
0
 75
0
 41
1.0
 42
0.0
  1

  3
Standard
100
AcDbAlignedDimension
 13
103.9999999999999432
 23
103.9999999999982947
 33
0.0
 14
153.9999999999999432
 24
104.0000000000026574
 34
0.0
1001
ACAD
1000
DSTYLE
1002
{
1070
279
1070
2
1070
144
1040
1.0
1070
40
1040
1.0
1002
}
  0
LINE
  5
A4
100
AcDbEntity
  8
auxiliary
 62
256
370
-1
 48
1.0
  6
BYLAYER
100
AcDbLine
 10
155.0
 20
381.0
 30
0.0
 11
155.0
 21
340.0
 31
0.0
  0
DIMENSION
  5
A5
100
AcDbEntity
  8
private_dimensions
 62
256
370
-1
 48
1.0
  6
BYLAYER
100
AcDbDimension
 10
231.0
 20
104.0000000000008669
 30
0.0
 11
229.125
 21
152.5000000000019895
 31
0.0
 70
129
 71
8
 72
2
 74
0
 75
0
 41
1.0
 42
0.0
  1

  3
Standard
100
AcDbAlignedDimension
 13
238.9999999999999432
 23
104.0000000000010658
 33
0.0
 14
238.9999999999999432
 24
201.0000000000029843
 34
0.0
1001
ACAD
1000
DSTYLE
1002
{
1070
279
1070
2
1070
144
1040
1.0
1070
40
1040
1.0
1002
}
  0
LINE
  5
A6
100
AcDbEntity
  8
auxiliary
 62
256
370
-1
 48
1.0
  6
BYLAYER
100
AcDbLine
 10
206.0
 20
40.9999999999999005
 30
0.0
 11
215.9999999999999432
 21
40.9999999999997797
 31
0.0
  0
LWPOLYLINE
  5
A7
100
AcDbEntity
  8
0
 62
256
370
-1
 48
1.0
  6
BYLAYER
100
AcDbPolyline
 90
2
 70
0
 10
548.0511680126689953
 20
354.1238979913304092
 10
548.0511680126689953
 20
324.6281289913304704
  0
DIMENSION
  5
A8
100
AcDbEntity
  8
private_dimensions
 62
256
370
-1
 48
1.0
  6
BYLAYER
100
AcDbDimension
 10
145.9999999999999432
 20
162.9999999999999147
 30
0.0
 11
149.9999999999999432
 21
164.8749999999997442
 31
0.0
 70
129
 71
8
 72
2
 74
0
 75
0
 41
1.0
 42
0.0
  1

  3
Standard
100
AcDbAlignedDimension
 13
145.9999999999999432
 23
166.0000000000002274
 33
0.0
 14
153.9999999999999432
 24
165.9999999999999147
 34
0.0
1001
ACAD
1000
DSTYLE
1002
{
1070
279
1070
2
1070
144
1040
1.0
1070
40
1040
1.0
1002
}
  0
LINE
  5
A9
100
AcDbEntity
  8
auxiliary
 62
256
370
-1
 48
1.0
  6
BYLAYER
100
AcDbLine
 10
186.0
 20
44.4999999999998863
 30
0.0
 11
202.0000000000000568
 21
44.5000000000001066
 31
0.0
  0
LWPOLYLINE
  5
AA
100
AcDbEntity
  8
0
 62
256
370
-1
 48
1.0
  6
BYLAYER
100
AcDbPolyline
 90
2
 70
0
 10
494.996885012669054
 20
294.0528594913304801
 10
494.996885012669054
 20
323.5486284913304189
  0
LINE
  5
AB
100
AcDbEntity
  8
auxiliary
 62
256
370
-1
 48
1.0
  6
BYLAYER
100
AcDbLine
 10
169.0
 20
381.0
 30
0.0
 11
169.0
 21
340.0
 31
0.0
  0
DIMENSION
  5
AC
100
AcDbEntity
  8
private_dimensions
 62
256
370
-1
 48
1.0
  6
BYLAYER
100
AcDbDimension
 10
115.9999999999999432
 20
166.00000000000054
 30
0.0
 11
114.1249999999999432
 21
173.5000000000001421
 31
0.0
 70
129
 71
8
 72
2
 74
0
 75
0
 41
1.0
 42
0.0
  1

  3
Standard
100
AcDbAlignedDimension
 13
117.9999999999999574
 23
166.0000000000003979
 33
0.0
 14
117.9999999999999432
 24
180.9999999999998579
 34
0.0
1001
ACAD
1000
DSTYLE
1002
{
1070
279
1070
2
1070
144
1040
1.0
1070
40
1040
1.0
1002
}
  0
LINE
  5
AD
100
AcDbEntity
  8
auxiliary
 62
256
370
-1
 48
1.0
  6
BYLAYER
100
AcDbLine
 10
216.9999999999999432
 20
44.5000000000000497
 30
0.0
 11
233.0
 21
44.5000000000000853
 31
0.0
  0
LWPOLYLINE
  5
AE
100
AcDbEntity
  8
private_pcb
 62
256
370
-1
 48
1.0
  6
BYLAYER
100
AcDbPolyline
 90
4
 70
129
 10
120.9999999999999432
 20
205.4999999999998863
 10
172.9999999999999432
 20
205.5000000000000568
 10
172.9999999999999432
 20
295.5000000000001137
 10
120.9999999999999432
 20
295.5
  0
LWPOLYLINE
  5
AF
100
AcDbEntity
  8
0
 62
256
370
-1
 48
1.0
  6
BYLAYER
100
AcDbPolyline
 90
2
 70
0
 10
442.2919295126690145
 20
353.9333799913304688
 10
441.9744245126689748
 20
354.1238799913303978
  0
LWPOLYLINE
  5
B0
100
AcDbEntity
  8
private_pcb
 62
256
370
-1
 48
1.0
  6
BYLAYER
100
AcDbPolyline
 90
4
 70
129
 10
43.0
 20
205.5
 10
94.9999999999999432
 20
205.5000000000000568
 10
94.9999999999999432
 20
295.5
 10
43.0
 20
295.5
  0
LWPOLYLINE
  5
B1
100
AcDbEntity
  8
private_pcb
 62
256
370
-1
 48
1.0
  6
BYLAYER
100
AcDbPolyline
 90
4
 70
129
 10
121.0
 20
37.9999999999999503
 10
171.0
 20
37.9999999999998721
 10
171.0000000000000568
 20
36.3999999999999488
 10
121.0
 20
36.3999999999999417
  0
LINE
  5
B2
100
AcDbEntity
  8
auxiliary
 62
256
370
-1
 48
1.0
  6
BYLAYER
100
AcDbLine
 10
177.0
 20
381.0
 30
0.0
 11
177.0
 21
340.0
 31
0.0
  0
CIRCLE
  5
B3
100
AcDbEntity
  8
0
 62
256
370
-1
 48
1.0
  6
BYLAYER
100
AcDbCircle
 10
124.9999999999999432
 20
209.4999999999999432
 30
0.0
 40
1.5999999999999943
  0
LWPOLYLINE
  5
B4
100
AcDbEntity
  8
private_pcb
 62
256
370
-1
 48
1.0
  6
BYLAYER
100
AcDbPolyline
 90
4
 70
129
 10
172.9999999999999432
 20
38.0000000000000497
 10
234.9999999999999432
 20
37.9999999999998792
 10
235.0
 20
36.3999999999998565
 10
172.9999999999999432
 20
36.4000000000000483
  0
CIRCLE
  5
B5
100
AcDbEntity
  8
0
 62
256
370
-1
 48
1.0
  6
BYLAYER
100
AcDbCircle
 10
194.0
 20
44.5000000000000142
 30
0.0
 40
5.7000000000000002
  0
CIRCLE
  5
B6
100
AcDbEntity
  8
0
 62
256
370
-1
 48
1.0
  6
BYLAYER
100
AcDbCircle
 10
47.0
 20
209.5
 30
0.0
 40
1.5999999999999943
  0
LWPOLYLINE
  5
B7
100
AcDbEntity
  8
0
 62
256
370
-1
 48
1.0
  6
BYLAYER
100
AcDbPolyline
 90
2
 70
0
 10
442.4189330126689583
 20
354.0285789913303347
 10
442.2919325126690069
 20
353.9333289913303702
  0
CIRCLE
  5
B8
100
AcDbEntity
  8
0
 62
256
370
-1
 48
1.0
  6
BYLAYER
100
AcDbCircle
 10
168.9999999999999432
 20
209.4999999999998863
 30
0.0
 40
1.6000000000000227
  0
CIRCLE
  5
B9
100
AcDbEntity
  8
0
 62
256
370
-1
 48
1.0
  6
BYLAYER
100
AcDbCircle
 10
225.0
 20
44.5000000000000497
 30
0.0
 40
5.7000000000000002
  0
CIRCLE
  5
BA
100
AcDbEntity
  8
0
 62
256
370
-1
 48
1.0
  6
BYLAYER
100
AcDbCircle
 10
90.9999999999999432
 20
209.5
 30
0.0
 40
1.6000000000000227
  0
LWPOLYLINE
  5
BB
100
AcDbEntity
  8
0
 62
256
370
-1
 48
1.0
  6
BYLAYER
100
AcDbPolyline
 90
2
 70
0
 10
548.0512490126689045
 20
354.1238289913304129
 10
494.9969660126689632
 20
323.5485594913304226
  0
LINE
  5
BC
100
AcDbEntity
  8
auxiliary
 62
256
370
-1
 48
1.0
  6
BYLAYER
100
AcDbLine
 10
192.0
 20
381.0
 30
0.0
 11
192.0
 21
340.0
 31
0.0
  0
LWPOLYLINE
  5
BD
100
AcDbEntity
  8
0
 62
256
370
-1
 48
1.0
  6
BYLAYER
100
AcDbPolyline
 90
6
 70
0
 10
547.6066745126689739
 20
354.9176199913304686
 10
547.733724512668914
 20
354.8223699913303903
 10
547.8607745126689679
 20
354.6636249913304368
 10
547.9242245126689568
 20
354.5048649913304075
 10
548.019474512669035
 20
354.3143649913304216
 10
548.0512745126688969
 20
354.1238649913304357
  0
LINE
  5
BE
100
AcDbEntity
  8
auxiliary
 62
256
370
-1
 48
1.0
  6
BYLAYER
100
AcDbLine
 10
198.0
 20
340.0
 30
0.0
 11
198.0
 21
381.0
 31
0.0
  0
LWPOLYLINE
  5
BF
100
AcDbEntity
  8
0
 62
256
370
-1
 48
1.0
  6
BYLAYER
100
AcDbPolyline
 90
2
 70
0
 10
494.5524245126690062
 20
324.3106329913303512
 10
547.6066745126689739
 20
354.9176349913304307
  0
DIMENSION
  5
C0
100
AcDbEntity
  8
private_dimensions
 62
256
370
-1
 48
1.0
  6
BYLAYER
100
AcDbDimension
 10
164.9999999999999432
 20
205.5000000000007958
 30
0.0
 11
163.125
 21
250.5000000000002842
 31
0.0
 70
129
 71
8
 72
2
 74
0
 75
0
 41
1.0
 42
0.0
  1

  3
Standard
100
AcDbAlignedDimension
 13
172.9999999999999432
 23
205.5000000000007958
 33
0.0
 14
173.0000000000000853
 24
295.4999999999997726
 34
0.0
1001
ACAD
1000
DSTYLE
1002
{
1070
279
1070
2
1070
144
1040
1.0
1070
40
1040
1.0
1002
}
  0
LWPOLYLINE
  5
C1
100
AcDbEntity
  8
private_pcb
 62
256
370
-1
 48
1.0
  6
BYLAYER
100
AcDbPolyline
 90
4
 70
129
 10
34.9999999999999929
 20
38.0000000000002771
 10
120.0
 20
38.0000000000000284
 10
119.9999999999999432
 20
36.3999999999999417
 10
34.9999999999999645
 20
36.399999999999693
  0
LWPOLYLINE
  5
C2
100
AcDbEntity
  8
0
 62
256
370
-1
 48
1.0
  6
BYLAYER
100
AcDbPolyline
 90
6
 70
0
 10
494.9969195126689101
 20
323.5486329913304075
 10
494.9651195126689913
 20
323.6756829913304045
 10
494.9333195126689589
 20
323.8661829913303905
 10
494.8062695126689619
 20
324.0566829913304332
 10
494.7110195126689973
 20
324.1837329913304302
 10
494.552274512668987
 20
324.3107829913304272
  0
DIMENSION
  5
C3
100
AcDbEntity
  8
private_dimensions
 62
256
370
-1
 48
1.0
  6
BYLAYER
100
AcDbDimension
 10
86.9999999999999147
 20
205.4999999999996021
 30
0.0
 11
85.1249999999999858
 21
250.4999999999993179
 31
0.0
 70
129
 71
8
 72
2
 74
0
 75
0
 41
1.0
 42
0.0
  1

  3
Standard
100
AcDbAlignedDimension
 13
94.9999999999998721
 23
205.4999999999995168
 33
0.0
 14
95.0
 24
295.499999999999261
 34
0.0
1001
ACAD
1000
DSTYLE
1002
{
1070
279
1070
2
1070
144
1040
1.0
1070
40
1040
1.0
1002
}
  0
DIMENSION
  5
C4
100
AcDbEntity
  8
dimensions
 62
256
370
-1
 48
1.0
  6
BYLAYER
100
AcDbDimension
 10
93.0000000000001705
 20
46.2500000000009521
 30
0.0
 11
91.1250000000002842
 21
38.1249999999979607
 31
0.0
 70
129
 71
8
 72
2
 74
0
 75
0
 41
1.0
 42
0.0
  1

  3
Standard
100
AcDbAlignedDimension
 13
84.9999999999999432
 23
46.250000000000135
 33
0.0
 14
85.0000000000000568
 24
29.9999999999998721
 34
0.0
1001
ACAD
1000
DSTYLE
1002
{
1070
279
1070
2
1070
144
1040
1.0
1070
40
1040
1.0
1002
}
  0
DIMENSION
  5
C5
100
AcDbEntity
  8
private_dimensions
 62
256
370
-1
 48
1.0
  6
BYLAYER
100
AcDbDimension
 10
120.9999999999999432
 20
213.0000000000003411
 30
0.0
 11
146.9999999999999432
 21
214.875000000000739
 31
0.0
 70
129
 71
8
 72
2
 74
0
 75
0
 41
1.0
 42
0.0
  1

  3
Standard
100
AcDbAlignedDimension
 13
120.9999999999998863
 23
205.4999999999999432
 33
0.0
 14
172.9999999999999432
 24
205.5000000000007958
 34
0.0
1001
ACAD
1000
DSTYLE
1002
{
1070
279
1070
2
1070
144
1040
1.0
1070
40
1040
1.0
1002
}
  0
LWPOLYLINE
  5
C6
100
AcDbEntity
  8
0
 62
256
370
-1
 48
1.0
  6
BYLAYER
100
AcDbPolyline
 90
2
 70
0
 10
494.9969195126689101
 20
323.5486329913304075
 10
494.7111695126689597
 20
323.7391329913304503
  0
DIMENSION
  5
C7
100
AcDbEntity
  8
private_dimensions
 62
256
370
-1
 48
1.0
  6
BYLAYER
100
AcDbDimension
 10
43.0000000000000639
 20
213.0000000000004547
 30
0.0
 11
68.9999999999999432
 21
214.8750000000003126
 31
0.0
 70
129
 71
8
 72
2
 74
0
 75
0
 41
1.0
 42
0.0
  1

  3
Standard
100
AcDbAlignedDimension
 13
43.0000000000000568
 23
205.4999999999997726
 33
0.0
 14
94.9999999999998721
 24
205.4999999999995168
 34
0.0
1001
ACAD
1000
DSTYLE
1002
{
1070
279
1070
2
1070
144
1040
1.0
1070
40
1040
1.0
1002
}
  0
LINE
  5
C8
100
AcDbEntity
  8
auxiliary
 62
256
370
-1
 48
1.0
  6
BYLAYER
100
AcDbLine
 10
226.0
 20
381.0
 30
0.0
 11
226.0
 21
340.0
 31
0.0
  0
DIMENSION
  5
C9
100
AcDbEntity
  8
dimensions
 62
256
370
-1
 48
1.0
  6
BYLAYER
100
AcDbDimension
 10
80.0000000000001137
 20
51.9999999999991331
 30
0.0
 11
85.0000000000000568
 21
53.8749999999997016
 31
0.0
 70
129
 71
8
 72
2
 74
0
 75
0
 41
1.0
 42
0.0
  1

  3
Standard
100
AcDbAlignedDimension
 13
80.0
 23
50.2499999999989484
 33
0.0
 14
89.9999999999999432
 24
50.2499999999990621
 34
0.0
1001
ACAD
1000
DSTYLE
1002
{
1070
279
1070
2
1070
144
1040
1.0
1070
40
1040
1.0
1002
}
  0
LWPOLYLINE
  5
CA
100
AcDbEntity
  8
0
 62
256
370
-1
 48
1.0
  6
BYLAYER
100
AcDbPolyline
 90
2
 70
0
 10
494.55246801266901
 20
323.9613789913304345
 10
494.55246801266901
 20
324.3106284913304194
  0
LINE
  5
CB
100
AcDbEntity
  8
auxiliary
 62
256
370
-1
 48
1.0
  6
BYLAYER
100
AcDbLine
 10
30.0
 20
351.0
 30
0.0
 11
245.0
 21
351.0
 31
0.0
  0
DIMENSION
  5
CC
100
AcDbEntity
  8
dimensions
 62
256
370
-1
 48
1.0
  6
BYLAYER
100
AcDbDimension
 10
78.0000000000002274
 20
42.2499999999432561
 30
0.0
 11
76.1250000000001705
 21
46.2500000000022666
 31
0.0
 70
129
 71
8
 72
2
 74
0
 75
0
 41
1.0
 42
0.0
  1

  3
Standard
100
AcDbAlignedDimension
 13
79.9999999999999432
 23
42.2500000000358753
 33
0.0
 14
80.0
 24
50.2499999999989484
 34
0.0
1001
ACAD
1000
DSTYLE
1002
{
1070
279
1070
2
1070
144
1040
1.0
1070
40
1040
1.0
1002
}
  0
LWPOLYLINE
  5
CD
100
AcDbEntity
  8
0
 62
256
370
-1
 48
1.0
  6
BYLAYER
100
AcDbPolyline
 90
4
 70
0
 10
494.7111695126689597
 20
323.7391329913304503
 10
494.6793695126690409
 20
323.8025829913304392
 10
494.6159195126689951
 20
323.8660329913304281
 10
494.5524695126689494
 20
323.9612829913303926
  0
LINE
  5
CE
100
AcDbEntity
  8
auxiliary
 62
256
370
-1
 48
1.0
  6
BYLAYER
100
AcDbLine
 10
30.0
 20
360.0
 30
0.0
 11
245.0
 21
360.0
 31
0.0
  0
DIMENSION
  5
CF
100
AcDbEntity
  8
dimensions
 62
256
370
-1
 48
1.0
  6
BYLAYER
100
AcDbDimension
 10
245.0
 20
92.0
 30
0.0
 11
137.4999999999999716
 21
93.8749999999965752
 31
0.0
 70
1
 71
8
 72
2
 74
0
 75
0
 41
1.0
 42
0.0
  1

  3
Standard
100
AcDbAlignedDimension
 13
29.9999999999999787
 23
99.9999999999975984
 33
0.0
 14
244.9999999999999432
 24
100.000000000004448
 34
0.0
1001
ACAD
1000
DSTYLE
1002
{
1070
144
1040
1.0
1070
40
1040
1.0
1002
}
  0
LINE
  5
D0
100
AcDbEntity
  8
auxiliary
 62
256
370
-1
 48
1.0
  6
BYLAYER
100
AcDbLine
 10
235.0
 20
29.9999999999999574
 30
0.0
 11
235.0
 21
71.0000000000000568
 31
0.0
  0
LWPOLYLINE
  5
D1
100
AcDbEntity
  8
0
 62
256
370
-1
 48
1.0
  6
BYLAYER
100
AcDbPolyline
 90
6
 70
0
 10
442.4189180126689962
 20
354.4095789913304202
 10
442.2919175126689879
 20
354.473078491330341
 10
442.1649185126690327
 20
354.473078491330341
 10
442.0379180126689675
 20
354.4095789913304202
 10
442.0061675126689806
 20
354.2825784913304119
 10
441.9744170126689937
 20
354.1238289913304129
  0
LINE
  5
D2
100
AcDbEntity
  8
auxiliary
 62
256
370
-1
 48
1.0
  6
BYLAYER
100
AcDbLine
 10
30.0
 20
369.0
 30
0.0
 11
245.0
 21
369.0
 31
0.0
  0
LINE
  5
D3
100
AcDbEntity
  8
auxiliary
 62
256
370
-1
 48
1.0
  6
BYLAYER
100
AcDbLine
 10
203.9999999999999432
 20
29.9999999999998508
 30
0.0
 11
203.9999999999999432
 21
71.0000000000000711
 31
0.0
  0
LWPOLYLINE
  5
D4
100
AcDbEntity
  8
0
 62
256
370
-1
 48
1.0
  6
BYLAYER
100
AcDbPolyline
 90
2
 70
0
 10
495.4731695126689601
 20
385.0166214913303975
 10
442.4189195126689924
 20
354.4096149913303861
  0
CIRCLE
  5
D5
100
AcDbEntity
  8
private_parts
 62
256
370
-1
 48
1.0
  6
BYLAYER
100
AcDbCircle
 10
236.0
 20
107.9999999999999858
 30
0.0
 40
3.0
  0
CIRCLE
  5
D6
100
AcDbEntity
  8
0
 62
256
370
-1
 48
1.0
  6
BYLAYER
100
AcDbCircle
 10
38.0
 20
373.0
 30
0.0
 40
1.25
  0
LINE
  5
D7
100
AcDbEntity
  8
auxiliary
 62
256
370
-1
 48
1.0
  6
BYLAYER
100
AcDbLine
 10
172.9999999999999432
 20
29.9999999999999076
 30
0.0
 11
173.0
 21
71.0000000000000853
 31
0.0
  0
LWPOLYLINE
  5
D8
100
AcDbEntity
  8
0
 62
256
370
-1
 48
1.0
  6
BYLAYER
100
AcDbPolyline
 90
4
 70
0
 10
495.1239245126689639
 20
385.0801224913303713
 10
495.2509745126689609
 20
385.0801224913303713
 10
495.3462245126689822
 20
385.0801224913303713
 10
495.4732745126690361
 20
385.0166274913303823
  0
CIRCLE
  5
D9
100
AcDbEntity
  8
0
 62
256
370
-1
 48
1.0
  6
BYLAYER
100
AcDbCircle
 10
38.0
 20
347.0
 30
0.0
 40
1.25
  0
LWPOLYLINE
  5
DA
100
AcDbEntity
  8
0
 62
256
370
-1
 48
1.0
  6
BYLAYER
100
AcDbPolyline
 90
4
 70
0
 10
442.2919280126689046
 20
353.9333289913303702
 10
442.3236785126690052
 20
354.0285789913303347
 10
442.3554275126689959
 20
354.0603294913304353
 10
442.4189285126689697
 20
354.0285789913303347
  0
CIRCLE
  5
DB
100
AcDbEntity
  8
0
 62
256
370
-1
 48
1.0
  6
BYLAYER
100
AcDbCircle
 10
237.0
 20
373.0
 30
0.0
 40
1.25
  0
LWPOLYLINE
  5
DC
100
AcDbEntity
  8
private_pcb
 62
256
370
-1
 48
1.0
  6
BYLAYER
100
AcDbPolyline
 90
7
 70
1
 10
77.0
 20
377.0
 10
119.0
 20
377.0
 10
119.0
 20
343.0
 10
86.0
 20
343.0
 10
86.0
 20
366.0
 10
77.0
 20
366.0
 10
77.0
 20
377.0
  0
LWPOLYLINE
  5
DD
100
AcDbEntity
  8
private_pcb
 62
256
370
-1
 48
1.0
  6
BYLAYER
100
AcDbPolyline
 90
7
 70
1
 10
155.0
 20
377.0
 10
197.0
 20
377.0
 10
197.0
 20
343.0
 10
164.0
 20
343.0
 10
164.0
 20
366.0
 10
155.0
 20
366.0
 10
155.0
 20
377.0
  0
DIMENSION
  5
DE
100
AcDbEntity
  8
private_dimensions
 62
256
370
-1
 48
1.0
  6
BYLAYER
100
AcDbDimension
 10
111.9999999999999432
 20
103.9999999999981384
 30
0.0
 11
110.1249999999999574
 21
152.4999999999991189
 31
0.0
 70
129
 71
8
 72
2
 74
0
 75
0
 41
1.0
 42
0.0
  1

  3
Standard
100
AcDbAlignedDimension
 13
103.9999999999999432
 23
103.9999999999982947
 33
0.0
 14
104.0
 24
200.9999999999999716
 34
0.0
1001
ACAD
1000
DSTYLE
1002
{
1070
279
1070
2
1070
144
1040
1.0
1070
40
1040
1.0
1002
}
  0
MTEXT
  5
DF
100
AcDbEntity
  8
requests
 62
256
370
-1
 48
1.0
  6
BYLAYER
100
AcDbMText
 10
270.0000000000000568
 20
300.0
 30
0.0
 40
4.0
 41
0.0
 71
1
 72
1
  3
\U+5f84\U+6307\U+5b9a\U+306e\U+306a\U+3044\U+4e38\U+7a74\U+306f\U+03c63.2\P\P2\U+3064\U+306eM4\U+30cd\U+30b8\U+7a74\U+306f\U+30d0\U+30fc\U+30ea\U+30f3\U+30b0\U+3068\U+30bf\U+30c3\U+30d7\U+306e\U+52a0\U+5de5\U+3092\U+5e0c\U+671b\P\U+203b\U+56f3\U+4e2d
  3
\U+306b\U+306fM4\U+30bf\U+30c3\U+30d7\U+306e\U+4e0b\U+7a74\U+3068\U+3057\U+3066\U+03c63.3\U+3067\U+63cf\U+3044\U+3066\U+3042\U+308b\P\P\U+305d\U+306e\U+4ed6\U+306e14\U+500b\U+306eM3\U+30cd\U+30b8\U+7a74\U+306f\U+76bf\U+7a74\U+52a0\U+5de5\U+3092\U+5e0
  3
c\U+671b\P\U+5c0f\U+982d\U+30bf\U+30a4\U+30d7\U+306eM3\U+76bf\U+30cd\U+30b8 (dk=5.0, k=1.3) \U+306e\U+4f7f\U+7528\U+3092\U+60f3\U+5b9a\U+3057\U+3066\U+3044\U+308b\P\U+677f\U+539at=1.2\U+306b\U+5bfe\U+3057\U+3066\U+4f59\U+308b\U+5206\U+306f\U+5185\U+5
  1
074\U+306b\U+7a81\U+51fa\U+3055\U+305b\U+3001\U+8868\U+9762\U+3092\U+30d5\U+30e9\U+30c3\U+30c8\U+306b\U+3059\U+308b
  7
textstyle16
 50
0.0
 73
2
 44
1.0
  0
DIMENSION
  5
E0
100
AcDbEntity
  8
private_dimensions
 62
256
370
-1
 48
1.0
  6
BYLAYER
100
AcDbDimension
 10
151.9999999999999432
 20
104.0000000000028706
 30
0.0
 11
150.1249999999999432
 21
135.000000000001279
 31
0.0
 70
129
 71
8
 72
2
 74
0
 75
0
 41
1.0
 42
0.0
  1

  3
Standard
100
AcDbAlignedDimension
 13
153.9999999999999432
 23
104.0000000000026574
 33
0.0
 14
153.9999999999999432
 24
165.9999999999999147
 34
0.0
1001
ACAD
1000
DSTYLE
1002
{
1070
279
1070
2
1070
144
1040
1.0
1070
40
1040
1.0
1002
}
  0
LWPOLYLINE
  5
E1
100
AcDbEntity
  8
0
 62
256
370
-1
 48
1.0
  6
BYLAYER
100
AcDbPolyline
 90
2
 70
0
 10
442.4189195126689924
 20
354.4096299913304051
 10
442.4189195126689924
 20
354.0286299913304333
  0
DIMENSION
  5
E2
100
AcDbEntity
  8
dimensions
 62
256
370
-1
 48
1.0
  6
BYLAYER
100
AcDbDimension
 10
248.9999999999999432
 20
300.0000000000002274
 30
0.0
 11
247.125
 21
268.0000000000001137
 31
0.0
 70
129
 71
8
 72
2
 74
0
 75
0
 41
1.0
 42
0.0
  1

  3
Standard
100
AcDbAlignedDimension
 13
244.9999999999998863
 23
300.0000000000002274
 33
0.0
 14
245.0000000000000284
 24
236.0000000000000568
 34
0.0
1001
ACAD
1000
DSTYLE
1002
{
1070
279
1070
2
1070
144
1040
1.0
1070
40
1040
1.0
1002
}
  0
CIRCLE
  5
E3
100
AcDbEntity
  8
0
 62
256
370
-1
 48
1.0
  6
BYLAYER
100
AcDbCircle
 10
237.0
 20
347.0
 30
0.0
 40
1.25
  0
LINE
  5
E4
100
AcDbEntity
  8
auxiliary
 62
256
370
-1
 48
1.0
  6
BYLAYER
100
AcDbLine
 10
245.0000000000000284
 20
236.0000000000000568
 30
0.0
 11
30.0000000000000853
 21
235.9999999999997726
 31
0.0
  0
CIRCLE
  5
E5
100
AcDbEntity
  8
0
 62
256
370
-1
 48
1.0
  6
BYLAYER
100
AcDbCircle
 10
192.4999999999999432
 20
236.0000000000003411
 30
0.0
 40
1.6499999999999999
  0
LWPOLYLINE
  5
E6
100
AcDbEntity
  8
0
 62
256
370
-1
 48
1.0
  6
BYLAYER
100
AcDbPolyline
 90
2
 70
0
 10
495.1239245126689639
 20
385.0801224913303713
 10
442.1014295126690286
 20
354.4413699913304185
  0
CIRCLE
  5
E7
100
AcDbEntity
  8
0
 62
256
370
-1
 48
1.0
  6
BYLAYER
100
AcDbCircle
 10
82.4999999999999432
 20
236.0000000000002274
 30
0.0
 40
1.6499999999999999
  0
CIRCLE
  5
E8
100
AcDbEntity
  8
0
 62
256
370
-1
 48
1.0
  6
BYLAYER
100
AcDbCircle
 10
53.0
 20
354.5
 30
0.0
 40
5.7000000000000002
  0
DIMENSION
  5
E9
100
AcDbEntity
  8
dimensions
 62
256
370
-1
 48
1.0
  6
BYLAYER
100
AcDbDimension
 10
82.4999999999999147
 20
239.0
 30
0.0
 11
56.2500000000000142
 21
240.875
 31
0.0
 70
129
 71
8
 72
2
 74
0
 75
0
 41
1.0
 42
0.0
  1

  3
Standard
100
AcDbAlignedDimension
 13
30.0000000000000284
 23
235.9999999999998295
 33
0.0
 14
82.4999999999999289
 24
235.9999999999998579
 34
0.0
1001
ACAD
1000
DSTYLE
1002
{
1070
279
1070
2
1070
144
1040
1.0
1070
40
1040
1.0
1002
}
  0
LWPOLYLINE
  5
EA
100
AcDbEntity
  8
0
 62
256
370
-1
 48
1.0
  6
BYLAYER
100
AcDbPolyline
 90
2
 70
0
 10
442.4189180126689962
 20
354.4095789913304202
 10
494.5524515126689948
 20
324.3105594913303662
  0
DIMENSION
  5
EB
100
AcDbEntity
  8
dimensions
 62
256
370
-1
 48
1.0
  6
BYLAYER
100
AcDbDimension
 10
82.9999999999999432
 20
239.0000000000000284
 30
0.0
 11
137.4999999999999147
 21
240.8749999999998579
 31
0.0
 70
129
 71
8
 72
2
 74
0
 75
0
 41
1.0
 42
0.0
  1

  3
Standard
100
AcDbAlignedDimension
 13
82.4999999999999147
 23
236.0000000000002842
 33
0.0
 14
192.4999999999999432
 24
235.9999999999999147
 34
0.0
1001
ACAD
1000
DSTYLE
1002
{
1070
279
1070
2
1070
144
1040
1.0
1070
40
1040
1.0
1002
}
  0
DIMENSION
  5
EC
100
AcDbEntity
  8
dimensions
 62
256
370
-1
 48
1.0
  6
BYLAYER
100
AcDbDimension
 10
215.0000000000000568
 20
40.9999999999981668
 30
0.0
 11
213.1250000000000568
 21
35.4999999999990621
 31
0.0
 70
129
 71
8
 72
2
 74
0
 75
0
 41
1.0
 42
0.0
  1

  3
Standard
100
AcDbAlignedDimension
 13
210.9999999999999432
 23
41.0000000000168967
 33
0.0
 14
211.0000000000000568
 24
30.0000000000007958
 34
0.0
1001
ACAD
1000
DSTYLE
1002
{
1070
279
1070
2
1070
144
1040
1.0
1070
40
1040
1.0
1002
}
  0
MTEXT
  5
ED
100
AcDbEntity
  8
requests
 62
256
370
-1
 48
1.0
  6
BYLAYER
100
AcDbMText
 10
204.0
 20
255.0
 30
0.0
 40
4.0
 41
0.0
 71
7
 72
1
  1
M4\U+30d0\U+30fc\U+30ea\U+30f3\U+30b0\U+3068\U+30bf\U+30c3\U+30d7
  7
textstyle17
 50
0.0
 73
2
 44
1.0
  0
LWPOLYLINE
  5
EE
100
AcDbEntity
  8
0
 62
256
370
-1
 48
1.0
  6
BYLAYER
100
AcDbPolyline
 90
2
 70
0
 10
442.4189180126689962
 20
354.0285789913303347
 10
494.5524515126689948
 20
323.9613099913304382
  0
DIMENSION
  5
EF
100
AcDbEntity
  8
private_dimensions
 62
256
370
-1
 48
1.0
  6
BYLAYER
100
AcDbDimension
 10
92.9999999999999716
 20
205.49999999999946
 30
0.0
 11
91.1249999999999858
 21
220.7499999999996874
 31
0.0
 70
129
 71
8
 72
2
 74
0
 75
0
 41
1.0
 42
0.0
  1

  3
Standard
100
AcDbAlignedDimension
 13
94.9999999999998721
 23
205.4999999999995168
 33
0.0
 14
94.9999999999999289
 24
235.9999999999998579
 34
0.0
1001
ACAD
1000
DSTYLE
1002
{
1070
279
1070
2
1070
144
1040
1.0
1070
40
1040
1.0
1002
}
  0
DIMENSION
  5
F0
100
AcDbEntity
  8
dimensions
 62
256
370
-1
 48
1.0
  6
BYLAYER
100
AcDbDimension
 10
231.9999999999999432
 20
44.4999999999955236
 30
0.0
 11
230.1250000000000568
 21
37.2500000000011866
 31
0.0
 70
129
 71
8
 72
2
 74
0
 75
0
 41
1.0
 42
0.0
  1

  3
Standard
100
AcDbAlignedDimension
 13
224.9999999999999432
 23
44.499999999996966
 33
0.0
 14
225.0000000000000568
 24
29.9999999999992326
 34
0.0
1001
ACAD
1000
DSTYLE
1002
{
1070
279
1070
2
1070
144
1040
1.0
1070
40
1040
1.0
1002
}
  0
DIMENSION
  5
F1
100
AcDbEntity
  8
private_dimensions
 62
256
370
-1
 48
1.0
  6
BYLAYER
100
AcDbDimension
 10
82.4999999999998721
 20
230.9999999999996305
 30
0.0
 11
88.7499999999998437
 21
232.8749999999992895
 31
0.0
 70
129
 71
8
 72
2
 74
0
 75
0
 41
1.0
 42
0.0
  1

  3
Standard
100
AcDbAlignedDimension
 13
82.4999999999998721
 23
235.9999999999998863
 33
0.0
 14
94.9999999999998295
 24
235.9999999999993179
 34
0.0
1001
ACAD
1000
DSTYLE
1002
{
1070
279
1070
2
1070
144
1040
1.0
1070
40
1040
1.0
1002
}
  0
LWPOLYLINE
  5
F2
100
AcDbEntity
  8
0
 62
256
370
-1
 48
1.0
  6
BYLAYER
100
AcDbPolyline
 90
2
 70
0
 10
547.6067345126689361
 20
354.9175794913304003
 10
495.4732010126690511
 20
385.0165989913303406
  0
CIRCLE
  5
F3
100
AcDbEntity
  8
0
 62
256
370
-1
 48
1.0
  6
BYLAYER
100
AcDbCircle
 10
131.0
 20
354.5
 30
0.0
 40
5.7000000000000002
  0
DIMENSION
  5
F4
100
AcDbEntity
  8
dimensions
 62
256
370
-1
 48
1.0
  6
BYLAYER
100
AcDbDimension
 10
229.9679805616098633
 20
47.2944890659064896
 30
0.0
 11
224.080760175689079
 21
46.1342041321065395
 31
0.0
 70
131
 71
8
 72
2
 74
0
 75
0
 41
1.0
 42
0.0
  1

  3
Standard
100
AcDbDiametricDimension
 15
220.032019438390023
 25
41.7055109339964503
 35
0.0
 40
0.0
1001
ACAD
1000
DSTYLE
1002
{
1070
279
1070
2
1070
144
1040
1.0
1070
40
1040
1.0
1002
}
  0
LEADER
  5
F5
100
AcDbEntity
  8
requests
 62
256
370
-1
 48
1.0
  6
BYLAYER
100
AcDbLeader
  3
Standard
 71
1
 72
0
 73
3
 74
0
 75
0
 40
1.0
 41
10.0
 76
4
 10
83.3249999999999886
 20
237.4289419162445824
 10
92.9999999999999432
 20
254.0000000000002842
 10
253.0
 20
254.0
 10
253.0
 20
254.0
1001
ACAD
1000
DSTYLE
1002
{
1070
40
1040
1.0
1002
}
  0
LWPOLYLINE
  5
F6
100
AcDbEntity
  8
0
 62
256
370
-1
 48
1.0
  6
BYLAYER
100
AcDbPolyline
 90
2
 70
0
 10
494.6794505126689501
 20
294.1480404913303914
 10
494.7112010126689938
 20
294.1162914913304007
  0
LEADER
  5
F7
100
AcDbEntity
  8
requests
 62
256
370
-1
 48
1.0
  6
BYLAYER
100
AcDbLeader
  3
Standard
 71
1
 72
0
 73
3
 74
0
 75
0
 40
1.0
 41
10.0
 76
2
 10
193.3249999999999886
 20
237.4289419162446393
 10
202.9999999999999432
 20
254.0000000000002842
1001
ACAD
1000
DSTYLE
1002
{
1070
40
1040
1.0
1002
}
  0
CIRCLE
  5
F8
100
AcDbEntity
  8
0
 62
256
370
-1
 48
1.0
  6
BYLAYER
100
AcDbCircle
 10
77.0
 20
357.5299999999999727
 30
0.0
 40
4.9550000000000001
  0
LINE
  5
F9
100
AcDbEntity
  8
hidden
 62
256
370
-1
 48
1.0
  6
BYLAYER
100
AcDbLine
 10
32.4000000000000341
 20
100.0
 30
0.0
 11
32.4000000000000341
 21
300.0
 31
0.0
  0
DIMENSION
  5
FA
100
AcDbEntity
  8
dimensions
 62
256
370
-1
 48
1.0
  6
BYLAYER
100
AcDbDimension
 10
207.9999999999999432
 20
44.9999999999990337
 30
0.0
 11
211.0
 21
46.87500000000216
 31
0.0
 70
129
 71
8
 72
2
 74
0
 75
0
 41
1.0
 42
0.0
  1

  3
Standard
100
AcDbAlignedDimension
 13
208.0000000000000568
 23
40.9999999999929301
 33
0.0
 14
214.0
 24
41.0000000000081215
 34
0.0
1001
ACAD
1000
DSTYLE
1002
{
1070
279
1070
2
1070
144
1040
1.0
1070
40
1040
1.0
1002
}
  0
LINE
  5
FB
100
AcDbEntity
  8
hidden
 62
256
370
-1
 48
1.0
  6
BYLAYER
100
AcDbLine
 10
242.6000000000000796
 20
99.9999999999999858
 30
0.0
 11
242.6000000000000796
 21
300.0
 31
0.0
  0
LINE
  5
FC
100
AcDbEntity
  8
hidden
 62
256
370
-1
 48
1.0
  6
BYLAYER
100
AcDbLine
 10
31.2000000000000028
 20
101.1999999999999744
 30
0.0
 11
243.8000000000000114
 21
101.1999999999999886
 31
0.0
  0
LWPOLYLINE
  5
FD
100
AcDbEntity
  8
0
 62
256
370
-1
 48
1.0
  6
BYLAYER
100
AcDbPolyline
 90
2
 70
0
 10
494.6794505126689501
 20
294.1480404913303914
 10
494.6794505126689501
 20
294.3067914913304435
  0
LINE
  5
FE
100
AcDbEntity
  8
hidden
 62
256
370
-1
 48
1.0
  6
BYLAYER
100
AcDbLine
 10
31.2000000000000028
 20
298.7999999999999545
 30
0.0
 11
243.8000000000000114
 21
298.7999999999999545
 31
0.0
  0
CIRCLE
  5
FF
100
AcDbEntity
  8
0
 62
256
370
-1
 48
1.0
  6
BYLAYER
100
AcDbCircle
 10
155.0
 20
357.5299999999999727
 30
0.0
 40
4.9550000000000001
  0
DIMENSION
  5
100
100
AcDbEntity
  8
dimensions
 62
256
370
-1
 48
1.0
  6
BYLAYER
100
AcDbDimension
 10
205.0625000000000568
 20
42.5000000000452403
 30
0.0
 11
203.1875000000001137
 21
40.9999999999979821
 31
0.0
 70
129
 71
8
 72
2
 74
0
 75
0
 41
1.0
 42
0.0
  1

  3
Standard
100
AcDbAlignedDimension
 13
211.0000000000000568
 23
42.4999999999982521
 33
0.0
 14
211.0000000000000568
 24
39.5000000000005045
 34
0.0
1001
ACAD
1000
DSTYLE
1002
{
1070
279
1070
2
1070
144
1040
1.0
1070
40
1040
1.0
1002
}
  0
LWPOLYLINE
  5
101
100
AcDbEntity
  8
0
 62
256
370
-1
 48
1.0
  6
BYLAYER
100
AcDbPolyline
 90
5
 70
0
 10
494.2032005126690137
 20
323.6120589913304002
 10
494.3302010126689083
 20
323.5803099913304095
 10
494.4254510126689866
 20
323.5803099913304095
 10
494.5524515126689948
 20
323.5803099913304095
 10
494.7112010126689938
 20
323.5803099913304095
  0
LINE
  5
102
100
AcDbEntity
  8
private_parts
 62
256
370
-1
 48
1.0
  6
BYLAYER
100
AcDbLine
 10
184.7499999999999432
 20
38.5999999999999659
 30
0.0
 11
175.25
 21
38.5999999999997598
 31
0.0
  0
LWPOLYLINE
  5
103
100
AcDbEntity
  8
0
 62
256
370
-1
 48
1.0
  6
BYLAYER
100
AcDbPolyline
 90
5
 70
0
 10
494.6794505126689501
 20
294.3067914913304435
 10
494.5524515126689948
 20
294.3067914913304435
 10
494.4254510126689866
 20
294.3067914913304435
 10
494.3302010126689083
 20
294.3385404913304342
 10
494.2032005126690137
 20
294.402041491330408
  0
LINE
  5
104
100
AcDbEntity
  8
private_parts
 62
256
370
-1
 48
1.0
  6
BYLAYER
100
AcDbLine
 10
215.75
 20
38.599999999999973
 30
0.0
 11
206.25
 21
38.6000000000000441
 31
0.0
  0
LWPOLYLINE
  5
105
100
AcDbEntity
  8
0
 62
256
370
-1
 48
1.0
  6
BYLAYER
100
AcDbPolyline
 90
3
 70
0
 10
494.5207010126689511
 20
323.8025589913303861
 10
494.5842005126689855
 20
323.8025589913303861
 10
494.6794505126689501
 20
323.8343094913304299
  0
LWPOLYLINE
  5
106
100
AcDbEntity
  8
0
 62
256
370
-1
 48
1.0
  6
BYLAYER
100
AcDbPolyline
 90
4
 70
129
 10
30.0000000000000497
 20
71.0000000000001137
 10
245.0
 20
71.0000000000000568
 10
245.0
 20
29.9999999999999289
 10
29.9999999999999929
 20
30.0
  0
LWPOLYLINE
  5
107
100
AcDbEntity
  8
0
 62
256
370
-1
 48
1.0
  6
BYLAYER
100
AcDbPolyline
 90
2
 70
0
 10
494.5207010126689511
 20
323.8025589913303861
 10
494.2032005126690137
 20
323.6120589913304002
  0
LWPOLYLINE
  5
108
100
AcDbEntity
  8
0
 62
256
370
-1
 48
1.0
  6
BYLAYER
100
AcDbPolyline
 90
9
 70
128
 10
43.1000000000000156
 20
63.300000000000118
 10
66.9000000000000909
 20
63.3000000000001108
 42
-0.414213562373095
 10
68.3999999999999773
 20
61.7999999999999332
 10
68.3999999999999773
 20
44.1999999999996547
 42
-0.4142135623730979
 10
66.8999999999999773
 20
42.6999999999999034
 10
43.1000000000000156
 20
42.7000000000000739
 42
-0.414213562373095
 10
41.6000000000000156
 20
44.2000000000000242
 10
41.6000000000000156
 20
61.7999999999999545
 42
-0.414213562373095
 10
43.1000000000000156
 20
63.300000000000118
  0
LWPOLYLINE
  5
109
100
AcDbEntity
  8
0
 62
256
370
-1
 48
1.0
  6
BYLAYER
100
AcDbPolyline
 90
5
 70
0
 10
442.7681675126689242
 20
353.3300784913304255
 10
442.7681675126689242
 20
353.4570789913304338
 10
442.7681675126689242
 20
353.5523289913303984
 10
442.799918012668968
 20
353.6793279913304104
 10
442.8634190126689987
 20
353.774577991330375
  0
LWPOLYLINE
  5
10A
100
AcDbEntity
  8
private_parts
 62
256
370
-1
 48
1.0
  6
BYLAYER
100
AcDbPolyline
 90
4
 70
129
 10
39.4999999999999929
 20
65.0000000000001137
 10
70.5
 20
64.9999999999999574
 10
70.5
 20
40.9999999999996163
 10
39.4999999999999929
 20
40.9999999999998579
  0
LWPOLYLINE
  5
10B
100
AcDbEntity
  8
0
 62
256
370
-1
 48
1.0
  6
BYLAYER
100
AcDbPolyline
 90
5
 70
0
 10
494.3937005126689996
 20
324.0248094913304158
 10
494.3302010126689083
 20
323.9295594913303944
 10
494.2984505126689783
 20
323.8025589913303861
 10
494.2349510126689438
 20
323.7390594913304653
 10
494.2032005126690137
 20
323.6120589913304002
  0
LWPOLYLINE
  5
10C
100
AcDbEntity
  8
private_parts
 62
256
370
-1
 48
1.0
  6
BYLAYER
100
AcDbPolyline
 90
4
 70
129
 10
71.9049999999999727
 20
54.4999999999998082
 10
98.0949999999999704
 20
54.4999999999999645
 10
98.0949999999999704
 20
38.0000000000001563
 10
71.9049999999999727
 20
37.9999999999999716
  0
LWPOLYLINE
  5
10D
100
AcDbEntity
  8
0
 62
256
370
-1
 48
1.0
  6
BYLAYER
100
AcDbPolyline
 90
3
 70
0
 10
494.5207010126689511
 20
323.8025589913303861
 10
494.5524515126689948
 20
323.8343094913304299
 10
494.6159510126690293
 20
323.8660599913303599
  0
LWPOLYLINE
  5
10E
100
AcDbEntity
  8
private_parts
 62
256
370
-1
 48
1.0
  6
BYLAYER
100
AcDbPolyline
 90
4
 70
129
 10
175.25
 20
43.6000000000000369
 10
184.75
 20
43.5999999999998735
 10
184.7499999999999432
 20
37.9999999999998863
 10
175.2500000000000568
 20
38.0000000000000497
  0
LWPOLYLINE
  5
10F
100
AcDbEntity
  8
0
 62
256
370
-1
 48
1.0
  6
BYLAYER
100
AcDbPolyline
 90
5
 70
0
 10
442.7681675126689242
 20
324.1200594913303803
 10
442.7046680126690035
 20
324.183560491330411
 10
442.6094180126690389
 20
324.2153094913304017
 10
442.5776675126689952
 20
324.3105594913303662
 10
442.5776675126689952
 20
324.37406049133034
  0
LWPOLYLINE
  5
110
100
AcDbEntity
  8
private_parts
 62
256
370
-1
 48
1.0
  6
BYLAYER
100
AcDbPolyline
 90
4
 70
129
 10
185.9999999999999432
 20
50.9999999999999361
 10
202.0
 20
50.9999999999999005
 10
202.0
 20
37.9999999999999218
 10
186.0
 20
37.9999999999998721
  0
LWPOLYLINE
  5
111
100
AcDbEntity
  8
0
 62
256
370
-1
 48
1.0
  6
BYLAYER
100
AcDbPolyline
 90
5
 70
0
 10
442.7046680126690035
 20
353.9015784913304401
 10
442.5776675126689952
 20
353.7428289913303843
 10
442.5776675126689952
 20
353.5840779913304459
 10
442.6729175126689597
 20
353.4570789913304338
 10
442.7681675126689242
 20
353.3300784913304255
  0
LWPOLYLINE
  5
112
100
AcDbEntity
  8
private_parts
 62
256
370
-1
 48
1.0
  6
BYLAYER
100
AcDbPolyline
 90
4
 70
129
 10
206.2500000000000568
 20
43.5999999999999801
 10
215.75
 20
43.5999999999998664
 10
215.7499999999999432
 20
37.9999999999996589
 10
206.2500000000000568
 20
38.0000000000000497
  0
LWPOLYLINE
  5
113
100
AcDbEntity
  8
0
 62
256
370
-1
 48
1.0
  6
BYLAYER
100
AcDbPolyline
 90
4
 70
0
 10
494.2031795126689531
 20
294.4021329913304612
 10
494.2031795126689531
 20
323.6121279913303965
 10
442.7681795126690076
 20
353.3301249913304218
 10
442.7681795126690076
 20
324.1201329913304221
  0
LWPOLYLINE
  5
114
100
AcDbEntity
  8
private_parts
 62
256
370
-1
 48
1.0
  6
BYLAYER
100
AcDbPolyline
 90
4
 70
129
 10
216.9999999999999432
 20
50.9999999999999574
 10
232.9999999999999432
 20
51.0000000000000568
 10
232.9999999999999432
 20
37.9999999999998934
 10
217.0
 20
37.999999999999801
  0
LWPOLYLINE
  5
115
100
AcDbEntity
  8
0
 62
256
370
-1
 48
1.0
  6
BYLAYER
100
AcDbPolyline
 90
2
 70
0
 10
442.5776795126689649
 20
353.6476299913303478
 10
442.5776795126689649
 20
324.3741279913303401
  0
LWPOLYLINE
  5
116
100
AcDbEntity
  8
0
 62
256
370
-1
 48
1.0
  6
BYLAYER
100
AcDbPolyline
 90
6
 70
0
 10
494.6793680126689878
 20
294.1481289913303385
 10
494.5206185126689888
 20
294.0846294913304177
 10
494.3936180126689806
 20
294.0846294913304177
 10
494.298368012669016
 20
294.1481289913303385
 10
494.2348670126690422
 20
294.2751294913304037
 10
494.2031180126690515
 20
294.4021284913304157
  0
LWPOLYLINE
  5
117
100
AcDbEntity
  8
0
 62
256
370
-1
 48
1.0
  6
BYLAYER
100
AcDbPolyline
 90
4
 70
0
 10
442.768085012668962
 20
324.1201479913303842
 10
442.768085012668962
 20
323.9931474913303759
 10
442.7998355126690058
 20
323.8661469913304245
 10
442.8950855126689703
 20
323.8026474913304469
  0
CIRCLE
  5
118
100
AcDbEntity
  8
0
 62
256
370
-1
 48
1.0
  6
BYLAYER
100
AcDbCircle
 10
91.0
 20
374.0
 30
0.0
 40
1.6000000000000001
  0
LWPOLYLINE
  5
119
100
AcDbEntity
  8
0
 62
256
370
-1
 48
1.0
  6
BYLAYER
100
AcDbPolyline
 90
4
 70
129
 10
80.0
 20
50.2499999999999218
 10
90.0
 20
50.25
 10
90.0
 20
42.2499999999999432
 10
80.0
 20
42.2499999999999432
  0
LWPOLYLINE
  5
11A
100
AcDbEntity
  8
0
 62
256
370
-1
 48
1.0
  6
BYLAYER
100
AcDbPolyline
 90
2
 70
0
 10
442.7681795126690076
 20
324.1201329913304221
 10
494.2031795126689531
 20
294.4021329913304612
  0
LWPOLYLINE
  5
11B
100
AcDbEntity
  8
private_pcb
 62
256
370
-1
 48
1.0
  6
BYLAYER
100
AcDbPolyline
 90
4
 70
129
 10
43.0
 20
348.0
 10
95.0
 20
348.0
 10
95.0
 20
346.3999999999999773
 10
43.0
 20
346.3999999999999773
  0
CIRCLE
  5
11C
100
AcDbEntity
  8
0
 62
256
370
-1
 48
1.0
  6
BYLAYER
100
AcDbCircle
 10
169.0
 20
374.0
 30
0.0
 40
1.6000000000000001
  0
LWPOLYLINE
  5
11D
100
AcDbEntity
  8
private_pcb
 62
256
370
-1
 48
1.0
  6
BYLAYER
100
AcDbPolyline
 90
4
 70
129
 10
121.0
 20
348.0
 10
173.0
 20
348.0
 10
173.0
 20
346.3999999999999773
 10
121.0
 20
346.3999999999999773
  0
LWPOLYLINE
  5
11E
100
AcDbEntity
  8
0
 62
256
370
-1
 48
1.0
  6
BYLAYER
100
AcDbPolyline
 90
4
 70
129
 10
177.0000000000000568
 20
42.5000000000001137
 10
183.0
 20
42.4999999999998721
 10
183.0
 20
39.5000000000000568
 10
177.0
 20
39.5
  0
LWPOLYLINE
  5
11F
100
AcDbEntity
  8
0
 62
256
370
-1
 48
1.0
  6
BYLAYER
100
AcDbPolyline
 90
2
 70
0
 10
494.3301695126690447
 20
294.1163829913303402
 10
442.8951695126689856
 20
323.8026279913304393
  0
CIRCLE
  5
120
100
AcDbEntity
  8
0
 62
256
370
-1
 48
1.0
  6
BYLAYER
100
AcDbCircle
 10
91.0
 20
346.0
 30
0.0
 40
1.6000000000000001
  0
LWPOLYLINE
  5
121
100
AcDbEntity
  8
0
 62
256
370
-1
 48
1.0
  6
BYLAYER
100
AcDbPolyline
 90
4
 70
129
 10
208.0
 20
42.4999999999999147
 10
214.0
 20
42.4999999999998863
 10
213.9999999999999432
 20
39.4999999999997584
 10
208.0
 20
39.4999999999999574
  0
LWPOLYLINE
  5
122
100
AcDbEntity
  8
0
 62
256
370
-1
 48
1.0
  6
BYLAYER
100
AcDbPolyline
 90
8
 70
0
 10
496.5209195126689679
 20
308.9118729913304264
 10
496.5209195126689679
 20
308.880072991330394
 10
496.6479695126689649
 20
308.9119329913304455
 10
496.6797695126689973
 20
308.9119329913304455
 10
496.7750195126689619
 20
308.9119329913304455
 10
496.8068195126689943
 20
308.880132991330413
 10
496.8386195126689699
 20
308.8166829913304241
 10
496.8386195126689699
 20
308.7214329913304596
  0
CIRCLE
  5
123
100
AcDbEntity
  8
0
 62
256
370
-1
 48
1.0
  6
BYLAYER
100
AcDbCircle
 10
114.0
 20
360.0
 30
0.0
 40
1.6000000000000001
  0
LINE
  5
124
100
AcDbEntity
  8
auxiliary
 62
256
370
-1
 48
1.0
  6
BYLAYER
100
AcDbLine
 10
36.9999999999999929
 20
53.0000000000000142
 30
0.0
 11
73.0
 21
53.0000000000000213
 31
0.0
  0
LWPOLYLINE
  5
125
100
AcDbEntity
  8
0
 62
256
370
-1
 48
1.0
  6
BYLAYER
100
AcDbPolyline
 90
2
 70
0
 10
496.8384680126689545
 20
308.6895789913304498
 10
496.8384680126689545
 20
308.7213294913304367
  0
CIRCLE
  5
126
100
AcDbEntity
  8
0
 62
256
370
-1
 48
1.0
  6
BYLAYER
100
AcDbCircle
 10
169.0
 20
346.0
 30
0.0
 40
1.6000000000000001
  0
DIMENSION
  5
127
100
AcDbEntity
  8
dimensions
 62
256
370
-1
 48
1.0
  6
BYLAYER
100
AcDbDimension
 10
58.9375000000002771
 20
53.0000000000012221
 30
0.0
 11
57.0625000000001634
 21
41.5000000000026077
 31
0.0
 70
129
 71
8
 72
2
 74
0
 75
0
 41
1.0
 42
0.0
  1

  3
Standard
100
AcDbAlignedDimension
 13
54.9999999999999361
 23
52.9999999999990123
 33
0.0
 14
54.9999999999999929
 24
30.0000000000004619
 34
0.0
1001
ACAD
1000
DSTYLE
1002
{
1070
279
1070
2
1070
144
1040
1.0
1070
40
1040
1.0
1002
}
  0
LWPOLYLINE
  5
128
100
AcDbEntity
  8
0
 62
256
370
-1
 48
1.0
  6
BYLAYER
100
AcDbPolyline
 90
18
 70
0
 10
496.4574680126689827
 20
308.2450779913304473
 10
496.2352175126689531
 20
308.1815784913304128
 10
496.0129670126689234
 20
308.2133289913303429
 10
495.8542175126690381
 20
308.3085789913304211
 10
495.6954680126689823
 20
308.4990789913304639
 10
495.6637175126689954
 20
308.7213294913304367
 10
495.6637175126689954
 20
308.9753289913304002
 10
495.6954680126689823
 20
309.2928294913303944
 10
495.8224670126689944
 20
309.5785794913303448
 10
496.0129670126689234
 20
309.8960799913303958
 10
496.2034670126689662
 20
310.1500794913304162
 10
496.4574680126689827
 20
310.3405794913304021
 10
496.6797185126689556
 20
310.4993304913303405
 10
496.901967512668989
 20
310.5310794913304449
 10
497.0924675126689749
 20
310.5310794913304449
 10
497.2829690126690139
 20
310.4358294913303666
 10
497.4099680126689691
 20
310.2453294913303807
 10
497.4417185126690129
 20
310.0230804913304041
  0
CIRCLE
  5
129
100
AcDbEntity
  8
0
 62
256
370
-1
 48
1.0
  6
BYLAYER
100
AcDbCircle
 10
192.0
 20
360.0
 30
0.0
 40
1.6000000000000001
  0
DIMENSION
  5
12A
100
AcDbEntity
  8
dimensions
 62
256
370
-1
 48
1.0
  6
BYLAYER
100
AcDbDimension
 10
38.0000000000000142
 20
63.3000000000000682
 30
0.0
 11
36.1250000000000497
 21
53.0000000000006111
 31
0.0
 70
129
 71
8
 72
2
 74
0
 75
0
 41
1.0
 42
0.0
  1

  3
Standard
100
AcDbAlignedDimension
 13
54.9999999999999361
 23
63.3000000000002458
 33
0.0
 14
55.0000000000000497
 24
42.6999999999996405
 34
0.0
1001
ACAD
1000
DSTYLE
1002
{
1070
279
1070
2
1070
144
1040
1.0
1070
40
1040
1.0
1002
}
  0
LWPOLYLINE
  5
12B
100
AcDbEntity
  8
0
 62
256
370
-1
 48
1.0
  6
BYLAYER
100
AcDbPolyline
 90
4
 70
0
 10
496.5209675126689035
 20
308.8800789913303788
 10
496.5209675126689035
 20
308.8800789913303788
 10
496.5209675126689035
 20
309.0070794913304439
 10
496.5209675126689035
 20
309.0070794913304439
  0
CIRCLE
  5
12C
100
AcDbEntity
  8
0
 62
256
370
-1
 48
1.0
  6
BYLAYER
100
AcDbCircle
 10
169.0
 20
360.0
 30
0.0
 40
1.6000000000000001
  0
DIMENSION
  5
12D
100
AcDbEntity
  8
dimensions
 62
256
370
-1
 48
1.0
  6
BYLAYER
100
AcDbDimension
 10
41.6000000000001364
 20
66.0000000000003268
 30
0.0
 11
55.0000000000001705
 21
67.8749999999999432
 31
0.0
 70
129
 71
8
 72
2
 74
0
 75
0
 41
1.0
 42
0.0
  1

  3
Standard
100
AcDbAlignedDimension
 13
41.6000000000000725
 23
51.9999999999989768
 33
0.0
 14
68.4000000000001478
 24
52.0000000000000142
 34
0.0
1001
ACAD
1000
DSTYLE
1002
{
1070
279
1070
2
1070
144
1040
1.0
1070
40
1040
1.0
1002
}
  0
LWPOLYLINE
  5
12E
100
AcDbEntity
  8
0
 62
256
370
-1
 48
1.0
  6
BYLAYER
100
AcDbPolyline
 90
7
 70
0
 10
496.8384680126689545
 20
309.5468289913304147
 10
496.8384680126689545
 20
309.4515789913304502
 10
496.8384680126689545
 20
309.356328991330372
 10
496.8384680126689545
 20
309.2928294913303944
 10
496.7749685126690338
 20
309.1975794913304298
 10
496.6797185126689556
 20
309.1340799913303385
 10
496.5209675126689035
 20
309.0070794913304439
  0
CIRCLE
  5
12F
100
AcDbEntity
  8
0
 62
256
370
-1
 48
1.0
  6
BYLAYER
100
AcDbCircle
 10
91.0
 20
360.0
 30
0.0
 40
1.6000000000000001
  0
LWPOLYLINE
  5
130
100
AcDbEntity
  8
0
 62
256
370
-1
 48
1.0
  6
BYLAYER
100
AcDbPolyline
 90
4
 70
0
 10
496.8384680126689545
 20
309.5468289913304147
 10
496.8384680126689545
 20
309.5785794913303448
 10
496.9654685126689628
 20
309.673829491330423
 10
496.9972175126690104
 20
309.6420789913304361
  0
LINE
  5
131
100
AcDbEntity
  8
auxiliary
 62
256
370
-1
 48
1.0
  6
BYLAYER
100
AcDbLine
 10
45.0
 20
354.5
 30
0.0
 11
61.0
 21
354.5
 31
0.0
  0
LWPOLYLINE
  5
132
100
AcDbEntity
  8
0
 62
256
370
-1
 48
1.0
  6
BYLAYER
100
AcDbPolyline
 90
7
 70
0
 10
497.2829690126690139
 20
309.4833294913303803
 10
497.21946801266904
 20
309.3880794913304157
 10
497.1877175126689963
 20
309.3880794913304157
 10
497.1559685126689487
 20
309.3880794913304157
 10
497.0607185126689842
 20
309.4515789913304502
 10
497.0289680126689973
 20
309.4833294913303803
 10
496.9972175126690104
 20
309.6420789913304361
  0
LINE
  5
133
100
AcDbEntity
  8
auxiliary
 62
256
370
-1
 48
1.0
  6
BYLAYER
100
AcDbLine
 10
69.0
 20
357.5299999999999727
 30
0.0
 11
85.0
 21
357.5299999999999727
 31
0.0
  0
LWPOLYLINE
  5
134
100
AcDbEntity
  8
0
 62
256
370
-1
 48
1.0
  6
BYLAYER
100
AcDbPolyline
 90
4
 70
0
 10
497.2829690126690139
 20
309.4833294913303803
 10
497.2829690126690139
 20
309.4833294913303803
 10
497.2829690126690139
 20
309.3245799913303813
 10
497.2829690126690139
 20
309.2928294913303944
  0
LINE
  5
135
100
AcDbEntity
  8
auxiliary
 62
256
370
-1
 48
1.0
  6
BYLAYER
100
AcDbLine
 10
123.0
 20
354.5
 30
0.0
 11
139.0
 21
354.5
 31
0.0
  0
MTEXT
  5
136
100
AcDbEntity
  8
requests
 62
256
370
-1
 48
1.0
  6
BYLAYER
100
AcDbMText
 10
270.0000000000000568
 20
69.9999999999999005
 30
0.0
 40
4.0
 41
0.0
 71
1
 72
1
  1
R\U+306e\U+4ed8\U+3044\U+3066\U+3044\U+306a\U+3044\U+89d2\U+7a74\U+306e\U+89d2\U+306f\U+6700\U+5927R1.0\U+7a0b\U+5ea6\U+306b\U+4e38\U+307e\U+3063\U+3066\U+3082\U+826f\U+3044
  7
textstyle18
 50
0.0
 73
2
 44
1.0
  0
LWPOLYLINE
  5
137
100
AcDbEntity
  8
0
 62
256
370
-1
 48
1.0
  6
BYLAYER
100
AcDbPolyline
 90
7
 70
0
 10
496.9972175126690104
 20
308.7848289913304143
 10
497.0289680126689973
 20
308.9435784913304701
 10
497.0607185126689842
 20
309.0070794913304439
 10
497.1559685126689487
 20
309.1340799913303385
 10
497.1877175126689963
 20
309.1658289913304429
 10
497.21946801266904
 20
309.2610789913304075
 10
497.2829690126690139
 20
309.2928294913303944
  0
LINE
  5
138
100
AcDbEntity
  8
auxiliary
 62
256
370
-1
 48
1.0
  6
BYLAYER
100
AcDbLine
 10
147.0
 20
357.5299999999999727
 30
0.0
 11
163.0
 21
357.5299999999999727
 31
0.0
  0
LWPOLYLINE
  5
139
100
AcDbEntity
  8
0
 62
256
370
-1
 48
1.0
  6
BYLAYER
100
AcDbPolyline
 90
3
 70
0
 10
496.9972175126690104
 20
308.7848289913304143
 10
496.9654685126689628
 20
308.7530784913304274
 10
496.8384680126689545
 20
308.6895789913304498
  0
DIMENSION
  5
13A
100
AcDbEntity
  8
dimensions
 62
256
370
-1
 48
1.0
  6
BYLAYER
100
AcDbDimension
 10
26.0625000000000213
 20
340.0000000000004547
 30
0.0
 11
24.1875000000000284
 21
360.5000000000002274
 31
0.0
 70
129
 71
8
 72
2
 74
0
 75
0
 41
1.0
 42
0.0
  1

  3
Standard
100
AcDbAlignedDimension
 13
30.0000000000000284
 23
340.0000000000003979
 33
0.0
 14
30.0
 24
381.0000000000001137
 34
0.0
1001
ACAD
1000
DSTYLE
1002
{
1070
279
1070
2
1070
144
1040
1.0
1070
40
1040
1.0
1002
}
  0
LWPOLYLINE
  5
13B
100
AcDbEntity
  8
0
 62
256
370
-1
 48
1.0
  6
BYLAYER
100
AcDbPolyline
 90
3
 70
0
 10
496.7114195126689538
 20
309.1658829913304203
 10
496.8384695126690076
 20
308.943627991330402
 10
496.9972145126689611
 20
308.7848829913304485
  0
DIMENSION
  5
13C
100
AcDbEntity
  8
dimensions
 62
256
370
-1
 48
1.0
  6
BYLAYER
100
AcDbDimension
 10
244.9999999999998295
 20
333.7499999999974989
 30
0.0
 11
137.4999999999998579
 21
335.6249999999987494
 31
0.0
 70
1
 71
8
 72
2
 74
0
 75
0
 41
1.0
 42
0.0
  1

  3
Standard
100
AcDbAlignedDimension
 13
29.9999999999998792
 23
339.9999999999998295
 33
0.0
 14
244.9999999999998295
 24
339.9999999999973284
 34
0.0
1001
ACAD
1000
DSTYLE
1002
{
1070
144
1040
1.0
1070
40
1040
1.0
1002
}
  0
LWPOLYLINE
  5
13D
100
AcDbEntity
  8
0
 62
256
370
-1
 48
1.0
  6
BYLAYER
100
AcDbPolyline
 90
4
 70
0
 10
497.2829180126689153
 20
309.2928789913304399
 10
497.0606675126689424
 20
309.3246294913304268
 10
496.8384170126689696
 20
309.3246294913304268
 10
497.2829195126689683
 20
309.3246279913304306
  0
LINE
  5
13E
100
AcDbEntity
  8
auxiliary
 62
256
370
-1
 48
1.0
  6
BYLAYER
100
AcDbLine
 10
37.9999999999999929
 20
339.9999999999999432
 30
0.0
 11
38.0
 21
381.0
 31
0.0
  0
LWPOLYLINE
  5
13F
100
AcDbEntity
  8
0
 62
256
370
-1
 48
1.0
  6
BYLAYER
100
AcDbPolyline
 90
2
 70
0
 10
496.997169512668961
 20
309.6421329913303566
 10
496.9653695126689854
 20
309.6421329913303566
  0
LINE
  5
140
100
AcDbEntity
  8
auxiliary
 62
256
370
-1
 48
1.0
  6
BYLAYER
100
AcDbLine
 10
237.0
 20
339.9999999999999432
 30
0.0
 11
237.0
 21
380.9999999999999432
 31
0.0
  0
LWPOLYLINE
  5
141
100
AcDbEntity
  8
0
 62
256
370
-1
 48
1.0
  6
BYLAYER
100
AcDbPolyline
 90
2
 70
0
 10
496.9654295126689476
 20
308.7531279913303592
 10
496.7114345126689159
 20
309.1341279913304447
  0
LINE
  5
142
100
AcDbEntity
  8
auxiliary
 62
256
370
-1
 48
1.0
  6
BYLAYER
100
AcDbLine
 10
29.9999999999999432
 20
373.0
 30
0.0
 11
244.9999999999999432
 21
373.0
 31
0.0
  0
LWPOLYLINE
  5
143
100
AcDbEntity
  8
0
 62
256
370
-1
 48
1.0
  6
BYLAYER
100
AcDbPolyline
 90
13
 70
0
 10
495.8223680126689032
 20
308.3085789913304211
 10
495.6636185126690179
 20
308.4355794913303725
 10
495.5683685126690534
 20
308.6260794913303585
 10
495.5366180126689528
 20
308.9118294913304794
 10
495.5683685126690534
 20
309.1658289913304429
 10
495.6636185126690179
 20
309.4833294913303803
 10
495.8223680126689032
 20
309.7690794913303876
 10
496.012868012668946
 20
310.0865799913304386
 10
496.2351185126689188
 20
310.3088304913304114
 10
496.4573690126689485
 20
310.4675799913304104
 10
496.6796180126689251
 20
310.5945804913304187
 10
496.9018685126689547
 20
310.6263309913304056
 10
497.0923685126689406
 20
310.5310809913304411
  0
LINE
  5
144
100
AcDbEntity
  8
auxiliary
 62
256
370
-1
 48
1.0
  6
BYLAYER
100
AcDbLine
 10
29.9999999999999432
 20
347.0
 30
0.0
 11
244.9999999999999432
 21
347.0
 31
0.0
  0
LWPOLYLINE
  5
145
100
AcDbEntity
  8
0
 62
256
370
-1
 48
1.0
  6
BYLAYER
100
AcDbPolyline
 90
3
 70
0
 10
496.6478690126689344
 20
309.1023294913304085
 10
496.7113685126689688
 20
308.9435799913304095
 10
496.8066185126689902
 20
308.8800789913303788
  0
LWPOLYLINE
  5
146
100
AcDbEntity
  8
0
 62
256
370
-1
 48
1.0
  6
BYLAYER
100
AcDbPolyline
 90
7
 70
0
 10
497.4416195126690354
 20
310.0230804913304041
 10
497.4416195126690354
 20
309.673829491330423
 10
497.3781185126689479
 20
309.2928294913303944
 10
497.2511195126689927
 20
308.9753289913304002
 10
497.0288690126690199
 20
308.6895789913304498
 10
496.7748680126690033
 20
308.4355794913303725
 10
496.4573690126689485
 20
308.2450794913304435
  0
LWPOLYLINE
  5
147
100
AcDbEntity
  8
0
 62
256
370
-1
 48
1.0
  6
BYLAYER
100
AcDbPolyline
 90
3
 70
0
 10
497.1558695126689145
 20
309.3880794913304157
 10
496.9971185126689761
 20
309.4515789913304502
 10
496.8383690126689771
 20
309.4515789913304502
  0
LWPOLYLINE
  5
148
100
AcDbEntity
  8
0
 62
256
370
-1
 48
1.0
  6
BYLAYER
100
AcDbPolyline
 90
2
 70
0
 10
495.9176180126689815
 20
308.2450794913304435
 10
495.8223680126689032
 20
308.3085789913304211
  0
LWPOLYLINE
  5
149
100
AcDbEntity
  8
0
 62
256
370
-1
 48
1.0
  6
BYLAYER
100
AcDbPolyline
 90
2
 70
0
 10
497.1876185126689052
 20
310.4993304913303405
 10
497.0923685126689406
 20
310.5310809913304411
  0
LWPOLYLINE
  5
14A
100
AcDbEntity
  8
0
 62
256
370
-1
 48
1.0
  6
BYLAYER
100
AcDbPolyline
 90
9
 70
0
 10
546.9081695126690192
 20
338.0266299913303669
 10
546.9081695126690192
 20
337.963179991330378
 10
547.0352195126689594
 20
337.9631199913304158
 10
547.0670195126690487
 20
337.9631199913304158
 10
547.1304695126690376
 20
337.9631199913304158
 10
547.2257195126690021
 20
337.9313199913304402
 10
547.2257195126690021
 20
337.8995199913303509
 10
547.2257195126690021
 20
337.7724699913304107
 10
547.2257195126690021
 20
337.7724699913304107
  0
LWPOLYLINE
  5
14B
100
AcDbEntity
  8
0
 62
256
370
-1
 48
1.0
  6
BYLAYER
100
AcDbPolyline
 90
18
 70
0
 10
546.8447180126689773
 20
337.3598289913304029
 10
546.5907185126689001
 20
337.2963294913304821
 10
546.3684680126689273
 20
337.2963294913304821
 10
546.2097170126689889
 20
337.3915794913304467
 10
546.1144670126689107
 20
337.5503289913304457
 10
546.0192170126690598
 20
337.7725794913304185
 10
546.0192170126690598
 20
338.0583294913304258
 10
546.1144670126689107
 20
338.344079491330433
 10
546.2097170126689889
 20
338.6933304913304141
 10
546.3684680126689273
 20
338.9790804913304214
 10
546.5907185126689001
 20
339.2330799913303849
 10
546.8447180126689773
 20
339.4235799913304277
 10
547.0669685126689501
 20
339.5823309913304797
 10
547.2892190126689229
 20
339.6458304913304005
 10
547.5114680126689564
 20
339.6140799913304704
 10
547.6702190126690084
 20
339.4870809913304015
 10
547.7972180126689636
 20
339.3600804913303932
 10
547.8607190126690512
 20
339.1060794913303766
  0
LWPOLYLINE
  5
14C
100
AcDbEntity
  8
0
 62
256
370
-1
 48
1.0
  6
BYLAYER
100
AcDbPolyline
 90
4
 70
0
 10
546.9082175126688981
 20
337.9630794913303475
 10
546.9082175126688981
 20
337.9630794913303475
 10
546.9082175126688981
 20
338.1218289913304034
 10
546.9082175126688981
 20
338.1218289913304034
  0
LWPOLYLINE
  5
14D
100
AcDbEntity
  8
0
 62
256
370
-1
 48
1.0
  6
BYLAYER
100
AcDbPolyline
 90
7
 70
0
 10
547.2257180126689491
 20
338.6615799913304841
 10
547.2574685126689928
 20
338.502828991330432
 10
547.2257180126689491
 20
338.4710799913304413
 10
547.2257180126689491
 20
338.4075789913303538
 10
547.1304680126689846
 20
338.2805799913303986
 10
547.0987175126690545
 20
338.2170789913304247
 10
546.9082175126688981
 20
338.1218289913304034
  0
LWPOLYLINE
  5
14E
100
AcDbEntity
  8
0
 62
256
370
-1
 48
1.0
  6
BYLAYER
100
AcDbPolyline
 90
4
 70
0
 10
547.2257180126689491
 20
338.6615799913304841
 10
547.2257180126689491
 20
338.6615799913304841
 10
547.3527185126689574
 20
338.7250794913304048
 10
547.3527185126689574
 20
338.7250794913304048
  0
LWPOLYLINE
  5
14F
100
AcDbEntity
  8
0
 62
256
370
-1
 48
1.0
  6
BYLAYER
100
AcDbPolyline
 90
7
 70
0
 10
547.6702190126690084
 20
338.5345794913304189
 10
547.6067180126690346
 20
338.502828991330432
 10
547.5432185126690001
 20
338.4710799913304413
 10
547.5114680126689564
 20
338.4710799913304413
 10
547.4797190126689657
 20
338.502828991330432
 10
547.4162180126689918
 20
338.5980804913303928
 10
547.3527185126689574
 20
338.7250794913304048
  0
LWPOLYLINE
  5
150
100
AcDbEntity
  8
0
 62
256
370
-1
 48
1.0
  6
BYLAYER
100
AcDbPolyline
 90
4
 70
0
 10
547.6702190126690084
 20
338.5345794913304189
 10
547.6702190126690084
 20
338.5345794913304189
 10
547.6702190126690084
 20
338.4075789913303538
 10
547.6702190126690084
 20
338.4075789913303538
  0
LWPOLYLINE
  5
151
100
AcDbEntity
  8
0
 62
256
370
-1
 48
1.0
  6
BYLAYER
100
AcDbPolyline
 90
7
 70
0
 10
547.3527185126689574
 20
337.867829491330383
 10
547.4162180126689918
 20
338.0265789913304388
 10
547.4797190126689657
 20
338.1218289913304034
 10
547.5114680126689564
 20
338.2170789913304247
 10
547.5432185126690001
 20
338.2805799913303986
 10
547.6067180126690346
 20
338.3123289913303893
 10
547.6702190126690084
 20
338.4075789913303538
  0
LWPOLYLINE
  5
152
100
AcDbEntity
  8
0
 62
256
370
-1
 48
1.0
  6
BYLAYER
100
AcDbPolyline
 90
3
 70
0
 10
547.3527185126689574
 20
337.867829491330383
 10
547.3527185126689574
 20
337.867829491330383
 10
547.2257180126689491
 20
337.7725794913304185
  0
LWPOLYLINE
  5
153
100
AcDbEntity
  8
0
 62
256
370
-1
 48
1.0
  6
BYLAYER
100
AcDbPolyline
 90
3
 70
0
 10
547.1304245126689239
 20
338.2488699913304231
 10
547.2574745126689777
 20
338.0583699913303803
 10
547.3527245126690559
 20
337.8678699913303944
  0
LWPOLYLINE
  5
154
100
AcDbEntity
  8
0
 62
256
370
-1
 48
1.0
  6
BYLAYER
100
AcDbPolyline
 90
3
 70
0
 10
547.6701680126689098
 20
338.4075789913303538
 10
547.4479175126690507
 20
338.4075789913303538
 10
547.2256670126689642
 20
338.4075789913303538
  0
LWPOLYLINE
  5
155
100
AcDbEntity
  8
0
 62
256
370
-1
 48
1.0
  6
BYLAYER
100
AcDbPolyline
 90
2
 70
0
 10
547.2256745126690021
 20
338.4393699913304658
 10
547.6701695126689629
 20
338.4075699913303765
  0
LWPOLYLINE
  5
156
100
AcDbEntity
  8
0
 62
256
370
-1
 48
1.0
  6
BYLAYER
100
AcDbPolyline
 90
2
 70
0
 10
547.3526795126690558
 20
338.7251199913304163
 10
547.3208795126689665
 20
338.6933199913303838
  0
LWPOLYLINE
  5
157
100
AcDbEntity
  8
0
 62
256
370
-1
 48
1.0
  6
BYLAYER
100
AcDbPolyline
 90
2
 70
0
 10
547.3526795126690558
 20
337.8678699913303944
 10
547.0986845126689104
 20
338.2488699913304231
  0
SPLINE
  5
158
100
AcDbEntity
  8
0
 62
256
370
-1
 48
1.0
  6
BYLAYER
100
AcDbSpline
 70
8
 71
3
 72
8
 73
4
 74
0
 40
0.0
 40
0.0
 40
0.0
 40
0.0
 40
1.0
 40
1.0
 40
1.0
 40
1.0
 10
453.6792440126690167
 20
310.2258174913304742
 30
0.0
 10
454.019264012668998
 20
310.7114184913304484
 30
0.0
 10
454.293252512669028
 20
311.0581734913303649
 30
0.0
 10
454.5012125126689853
 20
311.2660839913304471
 30
0.0
  0
SPLINE
  5
159
100
AcDbEntity
  8
0
 62
256
370
-1
 48
1.0
  6
BYLAYER
100
AcDbSpline
 70
8
 71
3
 72
8
 73
4
 74
0
 40
0.0
 40
0.0
 40
0.0
 40
0.0
 40
1.0
 40
1.0
 40
1.0
 40
1.0
 10
454.5012125126689853
 20
311.2660839913304471
 30
0.0
 10
454.7083415126689943
 20
311.4787329913303893
 30
0.0
 10
454.941557012668909
 20
311.6336064913303971
 30
0.0
 10
455.2008590126690137
 20
311.7307029913303609
 30
0.0
  0
MTEXT
  5
15A
100
AcDbEntity
  8
requests
 62
256
370
-1
 48
1.0
  6
BYLAYER
100
AcDbMText
 10
270.0000000000000568
 20
380.0
 30
0.0
 40
4.0
 41
0.0
 71
1
 72
1
  3
\U+5f84\U+6307\U+5b9a\U+306e\U+306a\U+3044\U+4e38\U+7a74\U+306f\U+03c63.2\P\P\U+56db\U+9685\U+306eM3\U+30cd\U+30b8\U+7a74\U+306f\U+30d0\U+30fc\U+30ea\U+30f3\U+30b0\U+3068\U+30bf\U+30c3\U+30d7\U+306e\U+52a0\U+5de5\U+3092\U+5e0c\U+671b\P\U+203b\U+56f3\
  3
U+4e2d\U+306b\U+306fM3\U+30bf\U+30c3\U+30d7\U+306e\U+4e0b\U+7a74\U+3068\U+3057\U+3066\U+03c62.5\U+3067\U+63cf\U+3044\U+3066\U+3042\U+308b\P\PR\U+306e\U+4ed8\U+3044\U+3066\U+3044\U+306a\U+3044\U+89d2\U+7a74\U+306e\U+89d2\U+306f\U+6700\U+5927R1.0\U+7a0
  1
b\U+5ea6\U+306b\U+4e38\U+307e\U+3063\U+3066\U+3082\U+826f\U+3044\P\U+5c11\U+3005\U+306e\U+52a0\U+5de5\U+8de1\U+304c\U+6b8b\U+3063\U+3066\U+3082\U+826f\U+3044
  7
textstyle19
 50
0.0
 73
2
 44
1.0
  0
SPLINE
  5
15B
100
AcDbEntity
  8
0
 62
256
370
-1
 48
1.0
  6
BYLAYER
100
AcDbSpline
 70
8
 71
3
 72
8
 73
4
 74
0
 40
0.0
 40
0.0
 40
0.0
 40
0.0
 40
1.0
 40
1.0
 40
1.0
 40
1.0
 10
455.2008590126690137
 20
311.7307029913303609
 30
0.0
 10
455.4621170126690117
 20
311.8305879913304466
 30
0.0
 10
455.744160512668941
 20
311.8680894913304087
 30
0.0
 10
456.0469895126689721
 20
311.8432089913304139
 30
0.0
  0
SPLINE
  5
15C
100
AcDbEntity
  8
0
 62
256
370
-1
 48
1.0
  6
BYLAYER
100
AcDbSpline
 70
8
 71
3
 72
8
 73
4
 74
0
 40
0.0
 40
0.0
 40
0.0
 40
0.0
 40
1.0
 40
1.0
 40
1.0
 40
1.0
 10
456.0469895126689721
 20
311.8432089913304139
 30
0.0
 10
456.3470270126689456
 20
311.8202799913304375
 30
0.0
 10
456.6296090126689933
 20
311.7159954913304318
 30
0.0
 10
456.8947370126689407
 20
311.5303524913304614
 30
0.0
  0
SPLINE
  5
15D
100
AcDbEntity
  8
0
 62
256
370
-1
 48
1.0
  6
BYLAYER
100
AcDbSpline
 70
8
 71
3
 72
8
 73
4
 74
0
 40
0.0
 40
0.0
 40
0.0
 40
0.0
 40
1.0
 40
1.0
 40
1.0
 40
1.0
 10
456.8947370126689407
 20
311.5303524913304614
 30
0.0
 10
457.1821895126689697
 20
311.3290764913304542
 30
0.0
 10
457.3912055126689893
 20
311.0662674913303931
 30
0.0
 10
457.5217835126690034
 20
310.7419269913304447
 30
0.0
  0
LINE
  5
15E
100
AcDbEntity
  8
private_parts
 62
256
370
-1
 48
1.0
  6
BYLAYER
100
AcDbLine
 10
139.0
 20
361.0
 30
0.0
 11
139.0
 21
348.0
 31
0.0
  0
SPLINE
  5
15F
100
AcDbEntity
  8
0
 62
256
370
-1
 48
1.0
  6
BYLAYER
100
AcDbSpline
 70
8
 71
3
 72
8
 73
4
 74
0
 40
0.0
 40
0.0
 40
0.0
 40
0.0
 40
1.0
 40
1.0
 40
1.0
 40
1.0
 10
457.5217835126690034
 20
310.7419269913304447
 30
0.0
 10
457.6543160126689713
 20
310.4203779913304402
 30
0.0
 10
457.6877645126689913
 20
310.0850259913304399
 30
0.0
 10
457.622126012669014
 20
309.7358709913303869
 30
0.0
  0
CIRCLE
  5
160
100
AcDbEntity
  8
private_parts
 62
256
370
-1
 48
1.0
  6
BYLAYER
100
AcDbCircle
 10
77.0
 20
357.5299999999999727
 30
0.0
 40
7.75
  0
SPLINE
  5
161
100
AcDbEntity
  8
0
 62
256
370
-1
 48
1.0
  6
BYLAYER
100
AcDbSpline
 70
8
 71
3
 72
8
 73
4
 74
0
 40
0.0
 40
0.0
 40
0.0
 40
0.0
 40
1.0
 40
1.0
 40
1.0
 40
1.0
 10
457.622126012669014
 20
309.7358709913303869
 30
0.0
 10
457.9928210126689692
 20
310.0336284913304326
 30
0.0
 10
458.3796860126690262
 20
310.1911314913303954
 30
0.0
 10
458.7827195126690185
 20
310.2083814913303854
 30
0.0
  0
CIRCLE
  5
162
100
AcDbEntity
  8
private_parts
 62
256
370
-1
 48
1.0
  6
BYLAYER
100
AcDbCircle
 10
155.0
 20
357.5299999999999727
 30
0.0
 40
7.75
  0
SPLINE
  5
163
100
AcDbEntity
  8
0
 62
256
370
-1
 48
1.0
  6
BYLAYER
100
AcDbSpline
 70
8
 71
3
 72
8
 73
4
 74
0
 40
0.0
 40
0.0
 40
0.0
 40
0.0
 40
1.0
 40
1.0
 40
1.0
 40
1.0
 10
458.7827195126690185
 20
310.2083814913303854
 30
0.0
 10
459.1857545126689502
 20
310.2256314913303754
 30
0.0
 10
459.5644880126690168
 20
310.1101689913303971
 30
0.0
 10
459.9189200126689911
 20
309.8619939913303938
 30
0.0
  0
LWPOLYLINE
  5
164
100
AcDbEntity
  8
private_parts
 62
256
370
-1
 48
1.0
  6
BYLAYER
100
AcDbPolyline
 90
6
 70
129
 10
45.4944465005348633
 20
354.5
 10
49.2472232502674387
 20
348.0
 10
56.7527767497325755
 20
348.0
 10
60.5055534994651367
 20
354.5
 10
56.7527767497325755
 20
361.0
 10
49.2472232502674245
 20
361.0
  0
SPLINE
  5
165
100
AcDbEntity
  8
0
 62
256
370
-1
 48
1.0
  6
BYLAYER
100
AcDbSpline
 70
8
 71
3
 72
8
 73
4
 74
0
 40
0.0
 40
0.0
 40
0.0
 40
0.0
 40
1.0
 40
1.0
 40
1.0
 40
1.0
 10
459.9189200126689911
 20
309.8619939913303938
 30
0.0
 10
460.1980010126689535
 20
309.6665814913304189
 30
0.0
 10
460.4241830126690047
 20
309.4104684913304482
 30
0.0
 10
460.5974675126690272
 20
309.0936579913304172
 30
0.0
  0
LWPOLYLINE
  5
166
100
AcDbEntity
  8
private_parts
 62
256
370
-1
 48
1.0
  6
BYLAYER
100
AcDbPolyline
 90
6
 70
129
 10
69.4944465005348633
 20
357.5299999999999727
 10
73.2472232502674387
 20
351.0299999999999727
 10
80.7527767497325755
 20
351.0299999999999727
 10
84.5055534994651367
 20
357.5299999999999727
 10
80.7527767497325755
 20
364.0299999999999727
 10
73.2472232502674245
 20
364.0299999999999727
  0
SPLINE
  5
167
100
AcDbEntity
  8
0
 62
256
370
-1
 48
1.0
  6
BYLAYER
100
AcDbSpline
 70
8
 71
3
 72
8
 73
4
 74
0
 40
0.0
 40
0.0
 40
0.0
 40
0.0
 40
1.0
 40
1.0
 40
1.0
 40
1.0
 10
460.5974675126690272
 20
309.0936579913304172
 30
0.0
 10
460.7699120126690104
 20
308.7815919913304015
 30
0.0
 10
460.8565310126689951
 20
308.4568389913304145
 30
0.0
 10
460.857323012668985
 20
308.1193974913304032
 30
0.0
  0
LWPOLYLINE
  5
168
100
AcDbEntity
  8
private_parts
 62
256
370
-1
 48
1.0
  6
BYLAYER
100
AcDbPolyline
 90
6
 70
129
 10
123.4944465005348775
 20
354.5
 10
127.2472232502674387
 20
348.0
 10
134.7527767497325613
 20
348.0
 10
138.5055534994651225
 20
354.5
 10
134.7527767497325613
 20
361.0
 10
127.2472232502674387
 20
361.0
  0
SPLINE
  5
169
100
AcDbEntity
  8
0
 62
256
370
-1
 48
1.0
  6
BYLAYER
100
AcDbSpline
 70
8
 71
3
 72
8
 73
4
 74
0
 40
0.0
 40
0.0
 40
0.0
 40
0.0
 40
1.0
 40
1.0
 40
1.0
 40
1.0
 10
460.857323012668985
 20
308.1193974913304032
 30
0.0
 10
460.857278012668985
 20
307.7867019913304034
 30
0.0
 10
460.7601020126689946
 20
307.4429934913303555
 30
0.0
 10
460.5657935126689608
 20
307.0882734913304262
 30
0.0
  0
LWPOLYLINE
  5
16A
100
AcDbEntity
  8
private_parts
 62
256
370
-1
 48
1.0
  6
BYLAYER
100
AcDbPolyline
 90
6
 70
129
 10
147.4944465005348775
 20
357.5299999999999727
 10
151.2472232502674387
 20
351.0299999999999727
 10
158.7527767497325613
 20
351.0299999999999727
 10
162.5055534994651225
 20
357.5299999999999727
 10
158.7527767497325613
 20
364.0299999999999727
 10
151.2472232502674387
 20
364.0299999999999727
  0
SPLINE
  5
16B
100
AcDbEntity
  8
0
 62
256
370
-1
 48
1.0
  6
BYLAYER
100
AcDbSpline
 70
8
 71
3
 72
8
 73
4
 74
0
 40
0.0
 40
0.0
 40
0.0
 40
0.0
 40
1.0
 40
1.0
 40
1.0
 40
1.0
 10
460.5657935126689608
 20
307.0882734913304262
 30
0.0
 10
460.4435180126689602
 20
306.8661174913304421
 30
0.0
 10
460.1086595126689645
 20
306.3581874913303977
 30
0.0
 10
459.5612195126690267
 20
305.5644834913303498
 30
0.0
  0
LWPOLYLINE
  5
16C
100
AcDbEntity
  8
private_parts
 62
256
370
-1
 48
1.0
  6
BYLAYER
100
AcDbPolyline
 90
6
 70
129
 10
123.4944465005348775
 20
354.5
 10
127.2472232502674387
 20
348.0
 10
134.7527767497325613
 20
348.0
 10
138.5055534994651225
 20
354.5
 10
134.7527767497325613
 20
361.0
 10
127.2472232502674387
 20
361.0
  0
LWPOLYLINE
  5
16D
100
AcDbEntity
  8
0
 62
256
370
-1
 48
1.0
  6
BYLAYER
100
AcDbPolyline
 90
2
 70
0
 10
451.9615610126689944
 20
307.7726949913304111
 10
453.6792440126690167
 20
310.2258174913304742
  0
LWPOLYLINE
  5
16E
100
AcDbEntity
  8
0
 62
256
370
-1
 48
1.0
  6
BYLAYER
100
AcDbPolyline
 90
4
 70
129
 10
30.0
 20
381.0
 10
245.0
 20
381.0
 10
245.0
 20
340.0
 10
30.0
 20
340.0
  0
LWPOLYLINE
  5
16F
100
AcDbEntity
  8
0
 62
256
370
-1
 48
1.0
  6
BYLAYER
100
AcDbPolyline
 90
3
 70
0
 10
459.5612195126690267
 20
305.5644834913303498
 10
458.098551512668962
 20
303.4755594913304435
 10
451.9615610126689944
 20
307.7726949913304111
  0
SPLINE
  5
170
100
AcDbEntity
  8
0
 62
256
370
-1
 48
1.0
  6
BYLAYER
100
AcDbSpline
 70
8
 71
3
 72
8
 73
4
 74
0
 40
0.0
 40
0.0
 40
0.0
 40
0.0
 40
1.0
 40
1.0
 40
1.0
 40
1.0
 10
455.8384130126689797
 20
308.1150519913304038
 30
0.0
 10
456.1764785126689503
 20
308.5978614913304341
 30
0.0
 10
456.3795725126689717
 20
308.9027574913304193
 30
0.0
 10
456.4476965126689265
 20
309.0297399913304162
 30
0.0
  0
SPLINE
  5
171
100
AcDbEntity
  8
0
 62
256
370
-1
 48
1.0
  6
BYLAYER
100
AcDbSpline
 70
8
 71
3
 72
8
 73
4
 74
0
 40
0.0
 40
0.0
 40
0.0
 40
0.0
 40
1.0
 40
1.0
 40
1.0
 40
1.0
 10
456.4476965126689265
 20
309.0297399913304162
 30
0.0
 10
456.5710955126689896
 20
309.2594274913304275
 30
0.0
 10
456.6148055126689087
 20
309.4762884913304219
 30
0.0
 10
456.5788250126689718
 20
309.6803214913304032
 30
0.0
  0
SPLINE
  5
172
100
AcDbEntity
  8
0
 62
256
370
-1
 48
1.0
  6
BYLAYER
100
AcDbSpline
 70
8
 71
3
 72
8
 73
4
 74
0
 40
0.0
 40
0.0
 40
0.0
 40
0.0
 40
1.0
 40
1.0
 40
1.0
 40
1.0
 10
456.5788250126689718
 20
309.6803214913304032
 30
0.0
 10
456.5420120126689767
 20
309.8891004913303959
 30
0.0
 10
456.42453051266898
 20
310.0628604913303548
 30
0.0
 10
456.2263835126689742
 20
310.2016044913304427
 30
0.0
  0
SPLINE
  5
173
100
AcDbEntity
  8
0
 62
256
370
-1
 48
1.0
  6
BYLAYER
100
AcDbSpline
 70
8
 71
3
 72
8
 73
4
 74
0
 40
0.0
 40
0.0
 40
0.0
 40
0.0
 40
1.0
 40
1.0
 40
1.0
 40
1.0
 10
456.2263835126689742
 20
310.2016044913304427
 30
0.0
 10
456.0366080126690349
 20
310.3344849913303847
 30
0.0
 10
455.8459850126689616
 20
310.3889364913304121
 30
0.0
 10
455.6545145126690386
 20
310.3649589913304112
 30
0.0
  0
SPLINE
  5
174
100
AcDbEntity
  8
0
 62
256
370
-1
 48
1.0
  6
BYLAYER
100
AcDbSpline
 70
8
 71
3
 72
8
 73
4
 74
0
 40
0.0
 40
0.0
 40
0.0
 40
0.0
 40
1.0
 40
1.0
 40
1.0
 40
1.0
 10
455.6545145126690386
 20
310.3649589913304112
 30
0.0
 10
455.4622055126689588
 20
310.345727491330365
 30
0.0
 10
455.2811900126689579
 20
310.2416439913303634
 30
0.0
 10
455.1114680126689791
 20
310.052711491330399
 30
0.0
  0
SPLINE
  5
175
100
AcDbEntity
  8
0
 62
256
370
-1
 48
1.0
  6
BYLAYER
100
AcDbSpline
 70
8
 71
3
 72
8
 73
4
 74
0
 40
0.0
 40
0.0
 40
0.0
 40
0.0
 40
1.0
 40
1.0
 40
1.0
 40
1.0
 10
455.1114680126689791
 20
310.052711491330399
 30
0.0
 10
455.0115365126690108
 20
309.9396834913304133
 30
0.0
 10
454.757363012668975
 20
309.5915304913303885
 30
0.0
 10
454.3489490126689816
 20
309.0082494913304458
 30
0.0
  0
LWPOLYLINE
  5
176
100
AcDbEntity
  8
private_parts
 62
256
370
-1
 48
1.0
  6
BYLAYER
100
AcDbPolyline
 90
4
 70
129
 10
218.4499999999999886
 20
370.5500000000000114
 10
233.5499999999999829
 20
370.5500000000000114
 10
233.5499999999999829
 20
349.4499999999999886
 10
218.4499999999999886
 20
349.4499999999999886
  0
LWPOLYLINE
  5
177
100
AcDbEntity
  8
0
 62
256
370
-1
 48
1.0
  6
BYLAYER
100
AcDbPolyline
 90
3
 70
0
 10
453.8506325126689944
 20
308.2966014913303638
 10
455.2697615126689925
 20
307.3029249913304284
 10
455.8384130126689797
 20
308.1150519913304038
  0
LWPOLYLINE
  5
178
100
AcDbEntity
  8
private_parts
 62
256
370
-1
 48
1.0
  6
BYLAYER
100
AcDbPolyline
 90
4
 70
129
 10
45.0
 20
361.0
 10
61.0
 20
361.0
 10
61.0
 20
348.0
 10
45.0
 20
348.0
  0
LWPOLYLINE
  5
179
100
AcDbEntity
  8
0
 62
256
370
-1
 48
1.0
  6
BYLAYER
100
AcDbPolyline
 90
2
 70
0
 10
454.3489490126689816
 20
309.0082494913304458
 10
453.8506325126689944
 20
308.2966014913303638
  0
LWPOLYLINE
  5
17A
100
AcDbEntity
  8
private_parts
 62
256
370
-1
 48
1.0
  6
BYLAYER
100
AcDbPolyline
 90
4
 70
129
 10
69.0
 20
365.4499999999999886
 10
84.9999999999999858
 20
365.4499999999999886
 10
84.9999999999999858
 20
348.0
 10
69.0
 20
348.0
  0
SPLINE
  5
17B
100
AcDbEntity
  8
0
 62
256
370
-1
 48
1.0
  6
BYLAYER
100
AcDbSpline
 70
8
 71
3
 72
8
 73
4
 74
0
 40
0.0
 40
0.0
 40
0.0
 40
0.0
 40
1.0
 40
1.0
 40
1.0
 40
1.0
 10
458.735343512668976
 20
306.5857074913304245
 30
0.0
 10
459.04800351266897
 20
307.0322364913304796
 30
0.0
 10
459.2337905126689748
 20
307.3242969913304137
 30
0.0
 10
459.2927030126689942
 20
307.4618874913304012
 30
0.0
  0
LWPOLYLINE
  5
17C
100
AcDbEntity
  8
private_parts
 62
256
370
-1
 48
1.0
  6
BYLAYER
100
AcDbPolyline
 90
4
 70
129
 10
123.0
 20
361.0
 10
139.0
 20
361.0
 10
139.0
 20
348.0
 10
123.0
 20
348.0
  0
SPLINE
  5
17D
100
AcDbEntity
  8
0
 62
256
370
-1
 48
1.0
  6
BYLAYER
100
AcDbSpline
 70
8
 71
3
 72
8
 73
4
 74
0
 40
0.0
 40
0.0
 40
0.0
 40
0.0
 40
1.0
 40
1.0
 40
1.0
 40
1.0
 10
459.2927030126689942
 20
307.4618874913304012
 30
0.0
 10
459.3881885126689895
 20
307.6695294913303655
 30
0.0
 10
459.4118015126689443
 20
307.8755079913303803
 30
0.0
 10
459.3635405126689193
 20
308.0798229913303885
 30
0.0
  0
LWPOLYLINE
  5
17E
100
AcDbEntity
  8
private_parts
 62
256
370
-1
 48
1.0
  6
BYLAYER
100
AcDbPolyline
 90
4
 70
129
 10
147.0
 20
365.4499999999999886
 10
163.0
 20
365.4499999999999886
 10
163.0
 20
348.0
 10
147.0
 20
348.0
  0
SPLINE
  5
17F
100
AcDbEntity
  8
0
 62
256
370
-1
 48
1.0
  6
BYLAYER
100
AcDbSpline
 70
8
 71
3
 72
8
 73
4
 74
0
 40
0.0
 40
0.0
 40
0.0
 40
0.0
 40
1.0
 40
1.0
 40
1.0
 40
1.0
 10
459.3635405126689193
 20
308.0798229913303885
 30
0.0
 10
459.3144455126690104
 20
308.2888809913304726
 30
0.0
 10
459.1810580126689842
 20
308.4696219913303707
 30
0.0
 10
458.9633735126689658
 20
308.6220444913304277
 30
0.0
  0
LWPOLYLINE
  5
180
100
AcDbEntity
  8
private_parts
 62
256
370
-1
 48
1.0
  6
BYLAYER
100
AcDbPolyline
 90
4
 70
129
 10
111.0799999999999841
 20
355.9000000000000341
 10
116.9200000000000159
 20
355.9000000000000341
 10
116.9200000000000159
 20
346.0999999999999659
 10
111.0799999999999841
 20
346.0999999999999659
  0
SPLINE
  5
181
100
AcDbEntity
  8
0
 62
256
370
-1
 48
1.0
  6
BYLAYER
100
AcDbSpline
 70
8
 71
3
 72
8
 73
4
 74
0
 40
0.0
 40
0.0
 40
0.0
 40
0.0
 40
1.0
 40
1.0
 40
1.0
 40
1.0
 10
458.9633735126689658
 20
308.6220444913304277
 30
0.0
 10
458.7791810126689711
 20
308.7510174913304013
 30
0.0
 10
458.59162851266899
 20
308.8157949913303923
 30
0.0
 10
458.4007190126690148
 20
308.8163784913303971
 30
0.0
  0
LWPOLYLINE
  5
182
100
AcDbEntity
  8
private_parts
 62
256
370
-1
 48
1.0
  6
BYLAYER
100
AcDbPolyline
 90
4
 70
129
 10
111.5
 20
354.0
 10
116.5
 20
354.0
 10
116.5
 20
348.0
 10
111.5
 20
348.0
  0
SPLINE
  5
183
100
AcDbEntity
  8
0
 62
256
370
-1
 48
1.0
  6
BYLAYER
100
AcDbSpline
 70
8
 71
3
 72
8
 73
4
 74
0
 40
0.0
 40
0.0
 40
0.0
 40
0.0
 40
1.0
 40
1.0
 40
1.0
 40
1.0
 10
458.4007190126690148
 20
308.8163784913303971
 30
0.0
 10
458.2098095126690396
 20
308.8169634913303412
 30
0.0
 10
458.0254505126690105
 20
308.7526539913304191
 30
0.0
 10
457.8476420126689845
 20
308.6234514913303997
 30
0.0
  0
LWPOLYLINE
  5
184
100
AcDbEntity
  8
private_parts
 62
256
370
-1
 48
1.0
  6
BYLAYER
100
AcDbPolyline
 90
4
 70
129
 10
189.0800000000000125
 20
355.8999999999999773
 10
194.9199999999999875
 20
355.8999999999999773
 10
194.9199999999999875
 20
346.0999999999999659
 10
189.0800000000000125
 20
346.0999999999999659
  0
SPLINE
  5
185
100
AcDbEntity
  8
0
 62
256
370
-1
 48
1.0
  6
BYLAYER
100
AcDbSpline
 70
8
 71
3
 72
8
 73
4
 74
0
 40
0.0
 40
0.0
 40
0.0
 40
0.0
 40
1.0
 40
1.0
 40
1.0
 40
1.0
 10
457.8476420126689845
 20
308.6234514913303997
 30
0.0
 10
457.6717835126689806
 20
308.4970419913303772
 30
0.0
 10
457.3864865126689665
 20
308.1519639913303763
 30
0.0
 10
456.9917525126689952
 20
307.5882219913304425
 30
0.0
  0
LWPOLYLINE
  5
186
100
AcDbEntity
  8
private_parts
 62
256
370
-1
 48
1.0
  6
BYLAYER
100
AcDbPolyline
 90
4
 70
129
 10
189.5
 20
354.0
 10
194.5
 20
354.0
 10
194.5
 20
348.0
 10
189.5
 20
348.0
  0
LWPOLYLINE
  5
187
100
AcDbEntity
  8
0
 62
256
370
-1
 48
1.0
  6
BYLAYER
100
AcDbPolyline
 90
3
 70
0
 10
456.2911970126689312
 20
306.5877129913304202
 10
457.9321940126689583
 20
305.4386829913303814
 10
458.735343512668976
 20
306.5857074913304245
  0
LWPOLYLINE
  5
188
100
AcDbEntity
  8
0
 62
256
370
-1
 48
1.0
  6
BYLAYER
100
AcDbPolyline
 90
2
 70
0
 10
456.9917525126689952
 20
307.5882219913304425
 10
456.2911970126689312
 20
306.5877129913304202
  0
LWPOLYLINE
  5
189
100
AcDbEntity
  8
0
 62
256
370
-1
 48
1.0
  6
BYLAYER
100
AcDbPolyline
 90
10
 70
1
 10
463.7283035126689583
 20
319.8777744913303991
 10
463.6857740126690146
 20
320.1189609913304253
 10
466.5268520126689964
 20
320.9307759913303357
 10
466.5977870126689595
 20
320.8811064913303994
 10
466.8066350126689485
 20
317.9337099913303746
 10
466.5654500126689754
 20
317.8911819913303702
 10
466.0974995126689464
 20
319.4872944913303741
 10
461.3793530126689575
 20
312.7490844913303931
 10
460.670067512668993
 20
313.2457329913303852
 10
465.3882125126689857
 20
319.9839414913304267
  0
LWPOLYLINE
  5
18A
100
AcDbEntity
  8
0
 62
256
370
-1
 48
1.0
  6
BYLAYER
100
AcDbPolyline
 90
10
 70
1
 10
499.7439395126689874
 20
356.502695491330428
 10
499.9171685126689226
 20
356.3294664913303791
 10
498.0549695126689471
 20
354.034199491330412
 10
497.9683595126689966
 20
354.034199491330412
 10
496.106160512669021
 20
356.3294664913303791
 10
496.2793880126689601
 20
356.502695491330428
 10
497.5785965126690371
 20
355.4633289913303429
 10
497.5785965126690371
 20
363.6916449913304064
 10
498.4447355126690127
 20
363.6916449913304064
 10
498.4447355126690127
 20
355.4633289913303429
  0
CIRCLE
  5
18B
100
AcDbEntity
  8
private_parts
 62
256
370
-1
 48
1.0
  6
BYLAYER
100
AcDbCircle
 10
38.0
 20
373.0
 30
0.0
 40
2.5
  0
LWPOLYLINE
  5
18C
100
AcDbEntity
  8
0
 62
256
370
-1
 48
1.0
  6
BYLAYER
100
AcDbPolyline
 90
8
 70
1
 10
501.6275015126689141
 20
367.8081189913304456
 10
499.9814495126689735
 20
367.8081189913304456
 10
499.3271195126690145
 20
369.5104029913304089
 10
496.331510012669014
 20
369.5104029913304089
 10
495.7129640126689765
 20
367.8081189913304456
 10
494.1078080126689542
 20
367.8081189913304456
 10
497.0267375126690013
 20
375.3022539913303603
 10
498.6267800126689735
 20
375.3022539913303603
  0
CIRCLE
  5
18D
100
AcDbEntity
  8
private_parts
 62
256
370
-1
 48
1.0
  6
BYLAYER
100
AcDbCircle
 10
38.0
 20
347.0
 30
0.0
 40
2.5
  0
LWPOLYLINE
  5
18E
100
AcDbEntity
  8
0
 62
256
370
-1
 48
1.0
  6
BYLAYER
100
AcDbPolyline
 90
3
 70
1
 10
498.8414825126689038
 20
370.7730564913304647
 10
497.8088675126689395
 20
373.5539634913304212
 10
496.7966990126689666
 20
370.7730564913304647
  0
CIRCLE
  5
18F
100
AcDbEntity
  8
private_parts
 62
256
370
-1
 48
1.0
  6
BYLAYER
100
AcDbCircle
 10
237.0
 20
373.0
 30
0.0
 40
2.5
  0
LWPOLYLINE
  5
190
100
AcDbEntity
  8
0
 62
256
370
-1
 48
1.0
  6
BYLAYER
100
AcDbPolyline
 90
10
 70
1
 10
466.2458390126689665
 20
376.9693734913304297
 10
466.4908205126689609
 20
376.9693734913304297
 10
466.7970470126689406
 20
374.0296014913304248
 10
466.7358020126689553
 20
373.9683564913304394
 10
463.7960300126689503
 20
374.2745829913304192
 10
463.7960300126689503
 20
374.5195629913303605
 10
465.4496510126689373
 20
374.7032994913304265
 10
459.6313520126689127
 20
380.521598491330451
 10
460.2438050126689859
 20
381.1340514913304673
 10
466.0621040126689536
 20
375.3157524913304428
  0
CIRCLE
  5
191
100
AcDbEntity
  8
private_parts
 62
256
370
-1
 48
1.0
  6
BYLAYER
100
AcDbCircle
 10
237.0
 20
347.0
 30
0.0
 40
2.5
  0
SPLINE
  5
192
100
AcDbEntity
  8
0
 62
256
370
-1
 48
1.0
  6
BYLAYER
100
AcDbSpline
 70
8
 71
3
 72
8
 73
4
 74
0
 40
0.0
 40
0.0
 40
0.0
 40
0.0
 40
1.0
 40
1.0
 40
1.0
 40
1.0
 10
457.7562275126689997
 20
387.3256434913304247
 30
0.0
 10
458.1570185126689694
 20
386.8479939913303838
 30
0.0
 10
458.4259985126689685
 20
386.4532224913304503
 30
0.0
 10
458.5631660126690008
 20
386.1413304913304501
 30
0.0
  0
LWPOLYLINE
  5
193
100
AcDbEntity
  8
0
 62
256
370
-1
 48
1.0
  6
BYLAYER
100
AcDbPolyline
 90
4
 70
129
 10
218.9999999999999432
 20
371.0
 10
232.9999999999999432
 20
371.0
 10
232.9999999999999432
 20
349.0
 10
218.9999999999999432
 20
349.0
  0
SPLINE
  5
194
100
AcDbEntity
  8
0
 62
256
370
-1
 48
1.0
  6
BYLAYER
100
AcDbSpline
 70
8
 71
3
 72
8
 73
4
 74
0
 40
0.0
 40
0.0
 40
0.0
 40
0.0
 40
1.0
 40
1.0
 40
1.0
 40
1.0
 10
458.5631660126690008
 20
386.1413304913304501
 30
0.0
 10
458.7465065126690433
 20
385.721402491330366
 30
0.0
 10
458.8123310126690058
 20
385.2851529913304489
 30
0.0
 10
458.760641012668998
 20
384.8325834913304675
 30
0.0
  0
LWPOLYLINE
  5
195
100
AcDbEntity
  8
0
 62
256
370
-1
 48
1.0
  6
BYLAYER
100
AcDbPolyline
 90
4
 70
129
 10
185.0
 20
355.0
 10
195.0
 20
355.0
 10
195.0
 20
347.0
 10
185.0
 20
347.0
  0
SPLINE
  5
196
100
AcDbEntity
  8
0
 62
256
370
-1
 48
1.0
  6
BYLAYER
100
AcDbSpline
 70
8
 71
3
 72
8
 73
4
 74
0
 40
0.0
 40
0.0
 40
0.0
 40
0.0
 40
1.0
 40
1.0
 40
1.0
 40
1.0
 10
458.760641012668998
 20
384.8325834913304675
 30
0.0
 10
458.7089525126690432
 20
384.3800139913304292
 30
0.0
 10
458.5516580126690087
 20
383.9366829913303718
 30
0.0
 10
458.2887590126689474
 20
383.502591991330462
 30
0.0
  0
LWPOLYLINE
  5
197
100
AcDbEntity
  8
0
 62
256
370
-1
 48
1.0
  6
BYLAYER
100
AcDbPolyline
 90
4
 70
129
 10
107.0
 20
355.0
 10
117.0
 20
355.0
 10
117.0
 20
347.0
 10
107.0
 20
347.0
  0
SPLINE
  5
198
100
AcDbEntity
  8
0
 62
256
370
-1
 48
1.0
  6
BYLAYER
100
AcDbSpline
 70
8
 71
3
 72
8
 73
4
 74
0
 40
0.0
 40
0.0
 40
0.0
 40
0.0
 40
1.0
 40
1.0
 40
1.0
 40
1.0
 10
458.2887590126689474
 20
383.502591991330462
 30
0.0
 10
458.0284700126690041
 20
383.070690991330423
 30
0.0
 10
457.6294850126689653
 20
382.6291584913304291
 30
0.0
 10
457.0918040126690016
 20
382.1779959913304197
 30
0.0
  0
LWPOLYLINE
  5
199
100
AcDbEntity
  8
0
 62
256
370
-1
 48
1.0
  6
BYLAYER
100
AcDbPolyline
 90
4
 70
129
 10
156.0
 20
373.0
 10
164.0
 20
373.0
 10
164.0
 20
369.0
 10
156.0
 20
369.0
  0
SPLINE
  5
19A
100
AcDbEntity
  8
0
 62
256
370
-1
 48
1.0
  6
BYLAYER
100
AcDbSpline
 70
8
 71
3
 72
8
 73
4
 74
0
 40
0.0
 40
0.0
 40
0.0
 40
0.0
 40
1.0
 40
1.0
 40
1.0
 40
1.0
 10
457.0918040126690016
 20
382.1779959913304197
 30
0.0
 10
456.6193760126690222
 20
381.781584991330476
 30
0.0
 10
456.1629215126689587
 20
381.4986549913303975
 30
0.0
 10
455.7224435126689741
 20
381.3292059913304115
 30
0.0
  0
LWPOLYLINE
  5
19B
100
AcDbEntity
  8
0
 62
256
370
-1
 48
1.0
  6
BYLAYER
100
AcDbPolyline
 90
4
 70
129
 10
78.0
 20
373.0
 10
86.0
 20
373.0
 10
86.0
 20
369.0
 10
78.0
 20
369.0
  0
SPLINE
  5
19C
100
AcDbEntity
  8
0
 62
256
370
-1
 48
1.0
  6
BYLAYER
100
AcDbSpline
 70
8
 71
3
 72
8
 73
4
 74
0
 40
0.0
 40
0.0
 40
0.0
 40
0.0
 40
1.0
 40
1.0
 40
1.0
 40
1.0
 10
455.7224435126689741
 20
381.3292059913304115
 30
0.0
 10
455.1843710126689757
 20
381.1223424913304143
 30
0.0
 10
454.6744385126689849
 20
381.0436164913303969
 30
0.0
 10
454.1926475126689979
 20
381.0930249913304237
 30
0.0
  0
LWPOLYLINE
  5
19D
100
AcDbEntity
  8
0
 62
256
370
-1
 48
1.0
  6
BYLAYER
100
AcDbPolyline
 90
10
 70
1
 10
89.0
 20
371.0
 10
93.5
 20
371.0
 10
93.4999999999999858
 20
372.9999999999999432
 10
104.4999999999999858
 20
372.9999999999999432
 10
104.4999999999999858
 20
365.0
 10
93.4999999999999858
 20
365.0
 10
93.5
 20
367.0
 10
89.0
 20
367.0
 10
89.0
 20
371.0
 10
89.0
 20
371.0
  0
SPLINE
  5
19E
100
AcDbEntity
  8
0
 62
256
370
-1
 48
1.0
  6
BYLAYER
100
AcDbSpline
 70
8
 71
3
 72
8
 73
4
 74
0
 40
0.0
 40
0.0
 40
0.0
 40
0.0
 40
1.0
 40
1.0
 40
1.0
 40
1.0
 10
454.1926475126689979
 20
381.0930249913304237
 30
0.0
 10
453.8282510126689999
 20
381.1297449913303694
 30
0.0
 10
453.4477880126689797
 20
381.2730744913304193
 30
0.0
 10
453.0512600126689904
 20
381.5230119913304065
 30
0.0
  0
LWPOLYLINE
  5
19F
100
AcDbEntity
  8
0
 62
256
370
-1
 48
1.0
  6
BYLAYER
100
AcDbPolyline
 90
10
 70
1
 10
89.0
 20
353.0
 10
93.5
 20
353.0
 10
93.4999999999999858
 20
354.9999999999999432
 10
104.4999999999999858
 20
354.9999999999999432
 10
104.4999999999999858
 20
347.0
 10
93.4999999999999858
 20
347.0
 10
93.5
 20
349.0
 10
89.0
 20
349.0
 10
89.0
 20
353.0
 10
89.0
 20
353.0
  0
SPLINE
  5
1A0
100
AcDbEntity
  8
0
 62
256
370
-1
 48
1.0
  6
BYLAYER
100
AcDbSpline
 70
8
 71
3
 72
8
 73
4
 74
0
 40
0.0
 40
0.0
 40
0.0
 40
0.0
 40
1.0
 40
1.0
 40
1.0
 40
1.0
 10
453.0512600126689904
 20
381.5230119913304065
 30
0.0
 10
452.7557150126689294
 20
381.7109094913304261
 30
0.0
 10
452.4283535126689912
 20
382.0188864913304201
 30
0.0
 10
452.0691755126689486
 20
382.4469429913303884
 30
0.0
  0
LWPOLYLINE
  5
1A1
100
AcDbEntity
  8
0
 62
256
370
-1
 48
1.0
  6
BYLAYER
100
AcDbPolyline
 90
10
 70
1
 10
167.0
 20
371.0
 10
171.5
 20
371.0
 10
171.5
 20
372.9999999999999432
 10
182.5
 20
372.9999999999999432
 10
182.5
 20
365.0
 10
171.5
 20
365.0
 10
171.5
 20
367.0
 10
167.0
 20
367.0
 10
167.0
 20
371.0
 10
167.0
 20
371.0
  0
LWPOLYLINE
  5
1A2
100
AcDbEntity
  8
0
 62
256
370
-1
 48
1.0
  6
BYLAYER
100
AcDbPolyline
 90
2
 70
0
 10
455.978951012668972
 20
389.4437409913304009
 10
457.7562275126689997
 20
387.3256434913304247
  0
LWPOLYLINE
  5
1A3
100
AcDbEntity
  8
0
 62
256
370
-1
 48
1.0
  6
BYLAYER
100
AcDbPolyline
 90
10
 70
1
 10
167.0
 20
353.0
 10
171.5
 20
353.0
 10
171.5
 20
354.9999999999999432
 10
182.5
 20
354.9999999999999432
 10
182.5
 20
347.0
 10
171.5
 20
347.0
 10
171.5
 20
349.0
 10
167.0
 20
349.0
 10
167.0
 20
353.0
 10
167.0
 20
353.0
  0
LWPOLYLINE
  5
1A4
100
AcDbEntity
  8
0
 62
256
370
-1
 48
1.0
  6
BYLAYER
100
AcDbPolyline
 90
3
 70
0
 10
452.0691755126689486
 20
382.4469429913303884
 10
450.2393360126690141
 20
384.6276834913304015
 10
455.978951012668972
 20
389.4437409913304009
  0
SPLINE
  5
1A5
100
AcDbEntity
  8
0
 62
256
370
-1
 48
1.0
  6
BYLAYER
100
AcDbSpline
 70
8
 71
3
 72
8
 73
4
 74
0
 40
0.0
 40
0.0
 40
0.0
 40
0.0
 40
1.0
 40
1.0
 40
1.0
 40
1.0
 10
452.9048120126689696
 20
383.4149859913304113
 30
0.0
 10
453.1763855126690146
 20
383.091333991330373
 30
0.0
 10
453.3906710126690314
 20
382.8730599913304218
 30
0.0
 10
453.5476685126689063
 20
382.7601654913303832
 30
0.0
  0
SPLINE
  5
1A6
100
AcDbEntity
  8
0
 62
256
370
-1
 48
1.0
  6
BYLAYER
100
AcDbSpline
 70
8
 71
3
 72
8
 73
4
 74
0
 40
0.0
 40
0.0
 40
0.0
 40
0.0
 40
1.0
 40
1.0
 40
1.0
 40
1.0
 10
453.5476685126689063
 20
382.7601654913303832
 30
0.0
 10
453.7523390126689833
 20
382.6116594913304425
 30
0.0
 10
453.962259512668993
 20
382.523157991330379
 30
0.0
 10
454.1774285126689392
 20
382.4946579913303708
 30
0.0
  0
SPLINE
  5
1A7
100
AcDbEntity
  8
0
 62
256
370
-1
 48
1.0
  6
BYLAYER
100
AcDbSpline
 70
8
 71
3
 72
8
 73
4
 74
0
 40
0.0
 40
0.0
 40
0.0
 40
0.0
 40
1.0
 40
1.0
 40
1.0
 40
1.0
 10
454.1774285126689392
 20
382.4946579913303708
 30
0.0
 10
454.3947890126689799
 20
382.4635479913304152
 30
0.0
 10
454.6642145126689911
 20
382.5161559913304359
 30
0.0
 10
454.9857080126689652
 20
382.6524849913303683
 30
0.0
  0
SPLINE
  5
1A8
100
AcDbEntity
  8
0
 62
256
370
-1
 48
1.0
  6
BYLAYER
100
AcDbSpline
 70
8
 71
3
 72
8
 73
4
 74
0
 40
0.0
 40
0.0
 40
0.0
 40
0.0
 40
1.0
 40
1.0
 40
1.0
 40
1.0
 10
454.9857080126689652
 20
382.6524849913303683
 30
0.0
 10
455.3098115126690004
 20
382.7910024913304028
 30
0.0
 10
455.693723012669011
 20
383.0464209913304217
 30
0.0
 10
456.1374395126689478
 20
383.4187404913304249
 30
0.0
  0
SPLINE
  5
1A9
100
AcDbEntity
  8
0
 62
256
370
-1
 48
1.0
  6
BYLAYER
100
AcDbSpline
 70
8
 71
3
 72
8
 73
4
 74
0
 40
0.0
 40
0.0
 40
0.0
 40
0.0
 40
1.0
 40
1.0
 40
1.0
 40
1.0
 10
456.1374395126689478
 20
383.4187404913304249
 30
0.0
 10
456.5811575126689377
 20
383.7910584913303751
 30
0.0
 10
456.8889245126689502
 20
384.1160199913304609
 30
0.0
 10
457.0607405126689855
 20
384.393623491330402
 30
0.0
  0
SPLINE
  5
1AA
100
AcDbEntity
  8
0
 62
256
370
-1
 48
1.0
  6
BYLAYER
100
AcDbSpline
 70
8
 71
3
 72
8
 73
4
 74
0
 40
0.0
 40
0.0
 40
0.0
 40
0.0
 40
1.0
 40
1.0
 40
1.0
 40
1.0
 10
457.0607405126689855
 20
384.393623491330402
 30
0.0
 10
457.2325550126689677
 20
384.6712269913304567
 30
0.0
 10
457.3258880126689974
 20
384.9363489913303624
 30
0.0
 10
457.3407365126689683
 20
385.1889909913303995
 30
0.0
  0
SPLINE
  5
1AB
100
AcDbEntity
  8
0
 62
256
370
-1
 48
1.0
  6
BYLAYER
100
AcDbSpline
 70
8
 71
3
 72
8
 73
4
 74
0
 40
0.0
 40
0.0
 40
0.0
 40
0.0
 40
1.0
 40
1.0
 40
1.0
 40
1.0
 10
457.3407365126689683
 20
385.1889909913303995
 30
0.0
 10
457.3555865126689923
 20
385.4416314913303836
 30
0.0
 10
457.2956120126690394
 20
385.6959819913303704
 30
0.0
 10
457.1608145126689351
 20
385.9520424913304737
 30
0.0
  0
SPLINE
  5
1AC
100
AcDbEntity
  8
0
 62
256
370
-1
 48
1.0
  6
BYLAYER
100
AcDbSpline
 70
8
 71
3
 72
8
 73
4
 74
0
 40
0.0
 40
0.0
 40
0.0
 40
0.0
 40
1.0
 40
1.0
 40
1.0
 40
1.0
 10
457.1608145126689351
 20
385.9520424913304737
 30
0.0
 10
457.0615685126689414
 20
386.1445314913303832
 30
0.0
 10
456.8137400126689727
 20
386.476989991330413
 30
0.0
 10
456.4173305126689684
 20
386.9494179913304492
 30
0.0
  0
LWPOLYLINE
  5
1AD
100
AcDbEntity
  8
0
 62
256
370
-1
 48
1.0
  6
BYLAYER
100
AcDbPolyline
 90
3
 70
0
 10
455.9804045126689402
 20
387.4701324913303893
 10
452.1787895126689705
 20
384.2802339913303626
 10
452.9048120126689696
 20
383.4149859913304113
  0
LWPOLYLINE
  5
1AE
100
AcDbEntity
  8
0
 62
256
370
-1
 48
1.0
  6
BYLAYER
100
AcDbPolyline
 90
2
 70
0
 10
456.4173305126689684
 20
386.9494179913304492
 10
455.9804045126689402
 20
387.4701324913303893
  0
LWPOLYLINE
  5
1AF
100
AcDbEntity
  8
0
 62
256
370
-1
 48
1.0
  6
BYLAYER
100
AcDbPolyline
 90
10
 70
1
 10
528.3969020126689884
 20
374.7737829913303926
 10
528.3755525126689463
 20
374.5297869913304112
 10
525.420914012668959
 20
374.4809649913303815
 10
525.3652520126689751
 20
374.5473009913304736
 10
525.9264200126690412
 20
377.4485694913303746
 10
526.1704175126689051
 20
377.4272229913304386
 10
526.2093170126689756
 20
375.7642374913304479
 10
532.5112370126689711
 20
381.0521379913304258
 10
533.0678570126689237
 20
380.3887779913304144
 10
526.7659385126689813
 20
375.1008774913303796
  0
SPLINE
  5
1B0
100
AcDbEntity
  8
0
 62
256
370
-1
 48
1.0
  6
BYLAYER
100
AcDbSpline
 70
8
 71
3
 72
8
 73
4
 74
0
 40
0.0
 40
0.0
 40
0.0
 40
0.0
 40
1.0
 40
1.0
 40
1.0
 40
1.0
 10
540.3016775126689026
 20
387.0099999913304032
 30
0.0
 10
540.7835555126689542
 20
386.3121054913303851
 30
0.0
 10
541.0085465126689996
 20
385.6340589913303916
 30
0.0
 10
540.976650512669039
 20
384.9758604913303657
 30
0.0
  0
SPLINE
  5
1B1
100
AcDbEntity
  8
0
 62
256
370
-1
 48
1.0
  6
BYLAYER
100
AcDbSpline
 70
8
 71
3
 72
8
 73
4
 74
0
 40
0.0
 40
0.0
 40
0.0
 40
0.0
 40
1.0
 40
1.0
 40
1.0
 40
1.0
 10
540.976650512669039
 20
384.9758604913303657
 30
0.0
 10
540.9443360126689413
 20
384.3224619913304423
 30
0.0
 10
540.6697445126690127
 20
383.6877699913304127
 30
0.0
 10
540.1528790126689046
 20
383.0717859913303869
 30
0.0
  0
SPLINE
  5
1B2
100
AcDbEntity
  8
0
 62
256
370
-1
 48
1.0
  6
BYLAYER
100
AcDbSpline
 70
8
 71
3
 72
8
 73
4
 74
0
 40
0.0
 40
0.0
 40
0.0
 40
0.0
 40
1.0
 40
1.0
 40
1.0
 40
1.0
 10
540.1528790126689046
 20
383.0717859913303869
 30
0.0
 10
539.5133645126689999
 20
382.3096359913304809
 30
0.0
 10
538.7280320126690185
 20
381.9011274913303851
 30
0.0
 10
537.7968815126689606
 20
381.8462619913304366
 30
0.0
  0
SPLINE
  5
1B3
100
AcDbEntity
  8
0
 62
256
370
-1
 48
1.0
  6
BYLAYER
100
AcDbSpline
 70
8
 71
3
 72
8
 73
4
 74
0
 40
0.0
 40
0.0
 40
0.0
 40
0.0
 40
1.0
 40
1.0
 40
1.0
 40
1.0
 10
537.7968815126689606
 20
381.8462619913304366
 30
0.0
 10
536.863119512668959
 20
381.7935849913304196
 30
0.0
 10
535.9446905126690126
 20
382.1461359913303681
 30
0.0
 10
535.041596012668947
 20
382.9039134913303428
 30
0.0
  0
SPLINE
  5
1B4
100
AcDbEntity
  8
0
 62
256
370
-1
 48
1.0
  6
BYLAYER
100
AcDbSpline
 70
8
 71
3
 72
8
 73
4
 74
0
 40
0.0
 40
0.0
 40
0.0
 40
0.0
 40
1.0
 40
1.0
 40
1.0
 40
1.0
 10
535.041596012668947
 20
382.9039134913303428
 30
0.0
 10
534.0862985126689182
 20
383.7054954913303959
 30
0.0
 10
533.5519940126689562
 20
384.5741424913304058
 30
0.0
 10
533.4386855126690534
 20
385.5098544913303726
 30
0.0
  0
SPLINE
  5
1B5
100
AcDbEntity
  8
0
 62
256
370
-1
 48
1.0
  6
BYLAYER
100
AcDbSpline
 70
8
 71
3
 72
8
 73
4
 74
0
 40
0.0
 40
0.0
 40
0.0
 40
0.0
 40
1.0
 40
1.0
 40
1.0
 40
1.0
 10
533.4386855126690534
 20
385.5098544913303726
 30
0.0
 10
533.3227670126689191
 20
386.4477564913303809
 30
0.0
 10
533.602083512668969
 20
387.3186624913303717
 30
0.0
 10
534.2766380126689683
 20
388.1225739913303983
 30
0.0
  0
SPLINE
  5
1B6
100
AcDbEntity
  8
0
 62
256
370
-1
 48
1.0
  6
BYLAYER
100
AcDbSpline
 70
8
 71
3
 72
8
 73
4
 74
0
 40
0.0
 40
0.0
 40
0.0
 40
0.0
 40
1.0
 40
1.0
 40
1.0
 40
1.0
 10
534.2766380126689683
 20
388.1225739913303983
 30
0.0
 10
534.8657795126689507
 20
388.8246909913304421
 30
0.0
 10
535.5518210126689382
 20
389.2208844913304233
 30
0.0
 10
536.334765512669037
 20
389.3111544913303987
 30
0.0
  0
SPLINE
  5
1B7
100
AcDbEntity
  8
0
 62
256
370
-1
 48
1.0
  6
BYLAYER
100
AcDbSpline
 70
8
 71
3
 72
8
 73
4
 74
0
 40
0.0
 40
0.0
 40
0.0
 40
0.0
 40
1.0
 40
1.0
 40
1.0
 40
1.0
 10
536.334765512669037
 20
389.3111544913303987
 30
0.0
 10
536.7991265126689768
 20
389.3662944913303932
 30
0.0
 10
537.3157490126689027
 20
389.2663869913304211
 30
0.0
 10
537.8846330126689281
 20
389.0114319913304257
 30
0.0
  0
LWPOLYLINE
  5
1B8
100
AcDbEntity
  8
0
 62
256
370
-1
 48
1.0
  6
BYLAYER
100
AcDbPolyline
 90
2
 70
0
 10
539.002556012668947
 20
386.1853014913304492
 10
540.3016775126689026
 20
387.0099999913304032
  0
SPLINE
  5
1B9
100
AcDbEntity
  8
0
 62
256
370
-1
 48
1.0
  6
BYLAYER
100
AcDbSpline
 70
8
 71
3
 72
8
 73
4
 74
0
 40
0.0
 40
0.0
 40
0.0
 40
0.0
 40
1.0
 40
1.0
 40
1.0
 40
1.0
 10
537.1961390126690503
 20
387.6343299913303895
 30
0.0
 10
536.8416440126690077
 20
387.8161389913304333
 30
0.0
 10
536.4873725126689123
 20
387.870998491330397
 30
0.0
 10
536.1333275126689841
 20
387.7989099913304472
 30
0.0
  0
SPLINE
  5
1BA
100
AcDbEntity
  8
0
 62
256
370
-1
 48
1.0
  6
BYLAYER
100
AcDbSpline
 70
8
 71
3
 72
8
 73
4
 74
0
 40
0.0
 40
0.0
 40
0.0
 40
0.0
 40
1.0
 40
1.0
 40
1.0
 40
1.0
 10
536.1333275126689841
 20
387.7989099913304472
 30
0.0
 10
535.7814725126689837
 20
387.7294284913303954
 30
0.0
 10
535.4763275126690587
 20
387.5406924913304465
 30
0.0
 10
535.2178955126689743
 20
387.2327004913304336
 30
0.0
  0
SPLINE
  5
1BB
100
AcDbEntity
  8
0
 62
256
370
-1
 48
1.0
  6
BYLAYER
100
AcDbSpline
 70
8
 71
3
 72
8
 73
4
 74
0
 40
0.0
 40
0.0
 40
0.0
 40
0.0
 40
1.0
 40
1.0
 40
1.0
 40
1.0
 10
535.2178955126689743
 20
387.2327004913304336
 30
0.0
 10
534.8609060126690338
 20
386.8072539913304126
 30
0.0
 10
534.7234070126689858
 20
386.3332929913304383
 30
0.0
 10
534.8053970126690047
 20
385.81081899133045
 30
0.0
  0
SPLINE
  5
1BC
100
AcDbEntity
  8
0
 62
256
370
-1
 48
1.0
  6
BYLAYER
100
AcDbSpline
 70
8
 71
3
 72
8
 73
4
 74
0
 40
0.0
 40
0.0
 40
0.0
 40
0.0
 40
1.0
 40
1.0
 40
1.0
 40
1.0
 10
534.8053970126690047
 20
385.81081899133045
 30
0.0
 10
534.8895785126690043
 20
385.2909564913304052
 30
0.0
 10
535.2735920126690417
 20
384.744119491330423
 30
0.0
 10
535.957439012669056
 20
384.1703094913303858
 30
0.0
  0
SPLINE
  5
1BD
100
AcDbEntity
  8
0
 62
256
370
-1
 48
1.0
  6
BYLAYER
100
AcDbSpline
 70
8
 71
3
 72
8
 73
4
 74
0
 40
0.0
 40
0.0
 40
0.0
 40
0.0
 40
1.0
 40
1.0
 40
1.0
 40
1.0
 10
535.957439012669056
 20
384.1703094913303858
 30
0.0
 10
536.6830475126689635
 20
383.5614594913304245
 30
0.0
 10
537.3093530126690212
 20
383.2583214913304346
 30
0.0
 10
537.836357012668941
 20
383.2608984913304084
 30
0.0
  0
SPLINE
  5
1BE
100
AcDbEntity
  8
0
 62
256
370
-1
 48
1.0
  6
BYLAYER
100
AcDbSpline
 70
8
 71
3
 72
8
 73
4
 74
0
 40
0.0
 40
0.0
 40
0.0
 40
0.0
 40
1.0
 40
1.0
 40
1.0
 40
1.0
 10
537.836357012668941
 20
383.2608984913304084
 30
0.0
 10
538.3633595126690352
 20
383.2634754913303823
 30
0.0
 10
538.8020705126689336
 20
383.4735714913303468
 30
0.0
 10
539.1524885126689242
 20
383.8911879913303551
 30
0.0
  0
SPLINE
  5
1BF
100
AcDbEntity
  8
0
 62
256
370
-1
 48
1.0
  6
BYLAYER
100
AcDbSpline
 70
8
 71
3
 72
8
 73
4
 74
0
 40
0.0
 40
0.0
 40
0.0
 40
0.0
 40
1.0
 40
1.0
 40
1.0
 40
1.0
 10
539.1524885126689242
 20
383.8911879913303551
 30
0.0
 10
539.4109220126690616
 20
384.199179991330368
 30
0.0
 10
539.5353395126689975
 20
384.5462349913304365
 30
0.0
 10
539.5257410126689592
 20
384.9323514913303939
 30
0.0
  0
SPLINE
  5
1C0
100
AcDbEntity
  8
0
 62
256
370
-1
 48
1.0
  6
BYLAYER
100
AcDbSpline
 70
8
 71
3
 72
8
 73
4
 74
0
 40
0.0
 40
0.0
 40
0.0
 40
0.0
 40
1.0
 40
1.0
 40
1.0
 40
1.0
 10
539.5257410126689592
 20
384.9323514913303939
 30
0.0
 10
539.516142512668921
 20
385.3184694913304043
 30
0.0
 10
539.3417480126689725
 20
385.7361189913304429
 30
0.0
 10
539.002556012668947
 20
386.1853014913304492
 30
0.0
  0
LWPOLYLINE
  5
1C1
100
AcDbEntity
  8
0
 62
256
370
-1
 48
1.0
  6
BYLAYER
100
AcDbPolyline
 90
2
 70
0
 10
537.8846330126689281
 20
389.0114319913304257
 10
537.1961390126690503
 20
387.6343299913303895
  0
LWPOLYLINE
  5
1C2
100
AcDbEntity
  8
0
 62
256
370
-1
 48
1.0
  6
BYLAYER
100
AcDbPolyline
 90
12
 70
1
 10
529.9862735126689586
 20
306.7926309913304408
 10
536.4681785126689419
 20
310.5501054913303847
 10
539.2542455126690584
 20
305.743944991330352
 10
538.157717012668968
 20
305.1083019913304497
 10
536.1303200126690172
 20
308.605700491330424
 10
534.6933365126690205
 20
307.7726994913303997
 10
536.5797635126689329
 20
304.5184824913304169
 10
535.4876540126689406
 20
303.8854014913304695
 10
533.6012285126689676
 20
307.1396184913303955
 10
531.8370530126690028
 20
306.1169499913303866
 10
533.9362145126690393
 20
302.4957489913304016
 10
532.8441065126689864
 20
301.8626694913303936
  0
LWPOLYLINE
  5
1C3
100
AcDbEntity
  8
0
 62
256
370
-1
 48
1.0
  6
BYLAYER
100
AcDbPolyline
 90
10
 70
1
 10
525.615989012669047
 20
317.1149514913303733
 10
525.3794195126689601
 20
317.1783399913303469
 10
525.8443700126689464
 20
320.0964039913304191
 10
525.919364012669007
 20
320.1397014913304133
 10
528.6789560126690048
 20
319.08332799133035
 10
528.6155690126689706
 20
318.8467599913303729
 10
526.9711850126690251
 20
319.0972059913303838
 10
531.0842255126690361
 20
311.9732124913304006
 10
530.3343305126689984
 20
311.5402599913304016
 10
526.2212915126690405
 20
318.6642534913303848
  0
LWPOLYLINE
  5
1C4
100
AcDbEntity
  8
0
 62
256
370
-1
 48
1.0
  6
BYLAYER
100
AcDbPolyline
 90
10
 70
1
 10
502.6267235126689457
 20
275.9236269913304227
 10
502.6267235126689457
 20
283.4177604913303981
 10
507.7642430126688851
 20
283.4177604913303981
 10
507.7642430126688851
 20
282.1499949913304022
 10
504.1398635126689669
 20
282.1499949913304022
 10
504.1398635126689669
 20
280.3761444913304217
 10
507.268383512669061
 20
280.3761444913304217
 10
507.268383512669061
 20
279.1083774913304865
 10
504.1398635126689669
 20
279.1083774913304865
 10
504.1398635126689669
 20
275.9236269913304227
  0
LWPOLYLINE
  5
1C5
100
AcDbEntity
  8
0
 62
256
370
-1
 48
1.0
  6
BYLAYER
100
AcDbPolyline
 90
10
 70
1
 10
503.8704335126690239
 20
294.7220589913304138
 10
503.6972060126689712
 20
294.8952864913304097
 10
505.5594035126689505
 20
297.1905534913304336
 10
505.6460135126690147
 20
297.1905534913304336
 10
507.508211012668994
 20
294.8952864913304097
 10
507.3349835126689413
 20
294.7220589913304138
 10
506.035775012668978
 20
295.7614254913303853
 10
506.035775012668978
 20
287.5331079913303824
 10
505.1696375126689418
 20
287.5331079913303824
 10
505.1696375126689418
 20
295.7614254913303853
  0
MTEXT
  5
1C6
100
AcDbEntity
  8
requests
 62
256
370
-1
 48
1.0
  6
BYLAYER
100
AcDbMText
 10
52.0000000000000142
 20
325.0000000000000568
 30
0.0
 40
4.0
 41
0.0
 71
7
 72
1
  1
M3\U+30d0\U+30fc\U+30ea\U+30f3\U+30b0\U+3068\U+30bf\U+30c3\U+30d7
  7
textstyle9
 50
0.0
 73
2
 44
1.0
  0
MTEXT
  5
1C7
100
AcDbEntity
  8
requests
 62
256
370
-1
 48
1.0
  6
BYLAYER
100
AcDbMText
 10
251.0
 20
325.0000000000000568
 30
0.0
 40
4.0
 41
0.0
 71
7
 72
1
  1
M3\U+30d0\U+30fc\U+30ea\U+30f3\U+30b0\U+3068\U+30bf\U+30c3\U+30d7
  7
textstyle10
 50
0.0
 73
2
 44
1.0
  0
MTEXT
  5
1C8
100
AcDbEntity
  8
0
 62
256
370
-1
 48
1.0
  6
BYLAYER
100
AcDbMText
 10
440.0
 20
270.0000000000001137
 30
0.0
 40
5.0
 41
0.0
 71
1
 72
1
  3
\U+52a0\U+5de5\U+88fd\U+54c1\U+578b\U+756a: MBF215-41-200B12\P\PW\U+00d7H\U+00d7D: 215\U+00d741\U+00d7200\P\P\U+9762\U+3068\U+5411\U+304d\U+306e\U+5bfe\U+5fdc\U+4ed8\U+3051\PA: \U+4e0a\U+3001\U+5929\U+677f\PB: \U+524d\PF: \U+4e0b\U+3001\U+5e95\U+677f
  1
\PC: \U+5f8c
  7
textstyle11
 50
0.0
 73
2
 44
1.0
  0
MTEXT
  5
1C9
100
AcDbEntity
  8
0
 62
256
370
-1
 48
1.0
  6
BYLAYER
100
AcDbMText
 10
30.0000000000000213
 20
395.0
 30
0.0
 40
5.0
 41
0.0
 71
7
 72
1
  1
B: \U+524d\U+9762\U+3092\U+7b50\U+4f53\U+5916\U+5074\U+306e\U+524d\U+65b9\U+304b\U+3089
  7
textstyle12
 50
0.0
 73
2
 44
1.0
  0
MTEXT
  5
1CA
100
AcDbEntity
  8
0
 62
256
370
-1
 48
1.0
  6
BYLAYER
100
AcDbMText
 10
29.9999999999999858
 20
80.0
 30
0.0
 40
5.0
 41
0.0
 71
7
 72
1
  1
C: \U+5f8c\U+9762\U+3092\U+7b50\U+4f53\U+5916\U+5074\U+306e\U+5f8c\U+65b9\U+304b\U+3089
  7
textstyle13
 50
0.0
 73
2
 44
1.0
  0
MTEXT
  5
1CB
100
AcDbEntity
  8
0
 62
256
370
-1
 48
1.0
  6
BYLAYER
100
AcDbMText
 10
30.0000000000000639
 20
304.9999999999999432
 30
0.0
 40
5.0
 41
0.0
 71
7
 72
1
  1
F: \U+5e95\U+9762\U+3092\U+7b50\U+4f53\U+5916\U+5074\U+306e\U+4e0b\U+65b9\U+304b\U+3089
  7
textstyle14
 50
0.0
 73
2
 44
1.0
  0
DIMENSION
  5
1CC
100
AcDbEntity
  8
dimensions
 62
256
370
-1
 48
1.0
  6
BYLAYER
100
AcDbDimension
 10
248.9999999999999432
 20
340.0000000000000568
 30
0.0
 11
247.1249999999998863
 21
343.4999999999999432
 31
0.0
 70
129
 71
8
 72
2
 74
0
 75
0
 41
1.0
 42
0.0
  1

  3
Standard
100
AcDbAlignedDimension
 13
245.0000000000000284
 23
340.0000000000000568
 33
0.0
 14
244.9999999999999716
 24
346.9999999999998863
 34
0.0
1001
ACAD
1000
DSTYLE
1002
{
1070
279
1070
2
1070
144
1040
1.0
1070
40
1040
1.0
1002
}
  0
DIMENSION
  5
1CD
100
AcDbEntity
  8
dimensions
 62
256
370
-1
 48
1.0
  6
BYLAYER
100
AcDbDimension
 10
249.0
 20
351.0
 30
0.0
 11
247.1249999999999432
 21
355.5000000000001137
 31
0.0
 70
129
 71
8
 72
2
 74
0
 75
0
 41
1.0
 42
0.0
  1

  3
Standard
100
AcDbAlignedDimension
 13
244.9999999999998579
 23
351.0000000000000568
 33
0.0
 14
244.999999999999801
 24
360.0000000000001137
 34
0.0
1001
ACAD
1000
DSTYLE
1002
{
1070
279
1070
2
1070
144
1040
1.0
1070
40
1040
1.0
1002
}
  0
DIMENSION
  5
1CE
100
AcDbEntity
  8
dimensions
 62
256
370
-1
 48
1.0
  6
BYLAYER
100
AcDbDimension
 10
249.0
 20
360.0000000000001137
 30
0.0
 11
247.1250000000000568
 21
364.5
 31
0.0
 70
129
 71
8
 72
2
 74
0
 75
0
 41
1.0
 42
0.0
  1

  3
Standard
100
AcDbAlignedDimension
 13
244.999999999999801
 23
360.0000000000001137
 33
0.0
 14
244.9999999999999147
 24
369.0
 34
0.0
1001
ACAD
1000
DSTYLE
1002
{
1070
279
1070
2
1070
144
1040
1.0
1070
40
1040
1.0
1002
}
  0
DIMENSION
  5
1CF
100
AcDbEntity
  8
dimensions
 62
256
370
-1
 48
1.0
  6
BYLAYER
100
AcDbDimension
 10
38.0
 20
388.0
 30
0.0
 11
34.0000000000000426
 21
389.8750000000001137
 31
0.0
 70
1
 71
8
 72
2
 74
0
 75
0
 41
1.0
 42
0.0
  1

  3
Standard
100
AcDbAlignedDimension
 13
30.0000000000000711
 23
381.0
 33
0.0
 14
38.0000000000000071
 24
380.9999999999998295
 34
0.0
1001
ACAD
1000
DSTYLE
1002
{
1070
144
1040
1.0
1070
40
1040
1.0
1002
}
  0
DIMENSION
  5
1D0
100
AcDbEntity
  8
dimensions
 62
256
370
-1
 48
1.0
  6
BYLAYER
100
AcDbDimension
 10
41.9999999999999361
 20
392.0
 30
0.0
 11
35.9999999999999574
 21
393.8749999999999432
 31
0.0
 70
1
 71
8
 72
2
 74
0
 75
0
 41
1.0
 42
0.0
  1

  3
Standard
100
AcDbAlignedDimension
 13
29.9999999999999858
 23
381.0
 33
0.0
 14
41.9999999999999361
 24
381.0000000000001137
 34
0.0
1001
ACAD
1000
DSTYLE
1002
{
1070
144
1040
1.0
1070
40
1040
1.0
1002
}
  0
DIMENSION
  5
1D1
100
AcDbEntity
  8
dimensions
 62
256
370
-1
 48
1.0
  6
BYLAYER
100
AcDbDimension
 10
53.0
 20
388.0
 30
0.0
 11
47.4999999999999858
 21
389.8750000000001137
 31
0.0
 70
1
 71
8
 72
2
 74
0
 75
0
 41
1.0
 42
0.0
  1

  3
Standard
100
AcDbAlignedDimension
 13
41.9999999999999361
 23
381.0000000000001137
 33
0.0
 14
53.0000000000000355
 24
380.9999999999999432
 34
0.0
1001
ACAD
1000
DSTYLE
1002
{
1070
144
1040
1.0
1070
40
1040
1.0
1002
}
  0
DIMENSION
  5
1D2
100
AcDbEntity
  8
dimensions
 62
256
370
-1
 48
1.0
  6
BYLAYER
100
AcDbDimension
 10
77.0
 20
388.0
 30
0.0
 11
65.0000000000000568
 21
389.8749999999998863
 31
0.0
 70
1
 71
8
 72
2
 74
0
 75
0
 41
1.0
 42
0.0
  1

  3
Standard
100
AcDbAlignedDimension
 13
53.0000000000000355
 23
380.9999999999999432
 33
0.0
 14
77.0000000000000711
 24
381.0000000000001137
 34
0.0
1001
ACAD
1000
DSTYLE
1002
{
1070
144
1040
1.0
1070
40
1040
1.0
1002
}
  0
DIMENSION
  5
1D3
100
AcDbEntity
  8
dimensions
 62
256
370
-1
 48
1.0
  6
BYLAYER
100
AcDbDimension
 10
91.0
 20
388.0
 30
0.0
 11
84.0000000000000995
 21
389.8750000000001137
 31
0.0
 70
1
 71
8
 72
2
 74
0
 75
0
 41
1.0
 42
0.0
  1

  3
Standard
100
AcDbAlignedDimension
 13
77.0000000000000711
 23
381.0000000000001137
 33
0.0
 14
91.0000000000001279
 24
380.9999999999999432
 34
0.0
1001
ACAD
1000
DSTYLE
1002
{
1070
144
1040
1.0
1070
40
1040
1.0
1002
}
  0
DIMENSION
  5
1D4
100
AcDbEntity
  8
dimensions
 62
256
370
-1
 48
1.0
  6
BYLAYER
100
AcDbDimension
 10
99.0
 20
388.0
 30
0.0
 11
95.0000000000000284
 21
389.875
 31
0.0
 70
1
 71
8
 72
2
 74
0
 75
0
 41
1.0
 42
0.0
  1

  3
Standard
100
AcDbAlignedDimension
 13
91.0000000000001279
 23
380.9999999999999432
 33
0.0
 14
98.9999999999999289
 24
381.0
 34
0.0
1001
ACAD
1000
DSTYLE
1002
{
1070
144
1040
1.0
1070
40
1040
1.0
1002
}
  0
DIMENSION
  5
1D5
100
AcDbEntity
  8
dimensions
 62
256
370
-1
 48
1.0
  6
BYLAYER
100
AcDbDimension
 10
114.0
 20
388.0
 30
0.0
 11
106.5000000000000284
 21
389.875
 31
0.0
 70
1
 71
8
 72
2
 74
0
 75
0
 41
1.0
 42
0.0
  1

  3
Standard
100
AcDbAlignedDimension
 13
98.9999999999999289
 23
381.0
 33
0.0
 14
114.0000000000001137
 24
381.0
 34
0.0
1001
ACAD
1000
DSTYLE
1002
{
1070
144
1040
1.0
1070
40
1040
1.0
1002
}
  0
DIMENSION
  5
1D6
100
AcDbEntity
  8
dimensions
 62
256
370
-1
 48
1.0
  6
BYLAYER
100
AcDbDimension
 10
42.0
 20
392.0
 30
0.0
 11
81.0
 21
393.8749999999999432
 31
0.0
 70
1
 71
8
 72
2
 74
0
 75
0
 41
1.0
 42
0.0
  1

  3
Standard
100
AcDbAlignedDimension
 13
41.9999999999999361
 23
381.0000000000001137
 33
0.0
 14
120.0000000000000568
 24
381.0
 34
0.0
1001
ACAD
1000
DSTYLE
1002
{
1070
144
1040
1.0
1070
40
1040
1.0
1002
}
  0
DIMENSION
  5
1D7
100
AcDbEntity
  8
dimensions
 62
256
370
-1
 48
1.0
  6
BYLAYER
100
AcDbDimension
 10
120.0000000000000568
 20
391.9999999999998863
 30
0.0
 11
159.0
 21
393.8749999999998863
 31
0.0
 70
1
 71
8
 72
2
 74
0
 75
0
 41
1.0
 42
0.0
  1

  3
Standard
100
AcDbAlignedDimension
 13
120.0000000000000568
 23
381.0
 33
0.0
 14
197.9999999999999432
 24
381.0
 34
0.0
1001
ACAD
1000
DSTYLE
1002
{
1070
144
1040
1.0
1070
40
1040
1.0
1002
}
  0
DIMENSION
  5
1D8
100
AcDbEntity
  8
dimensions
 62
256
370
-1
 48
1.0
  6
BYLAYER
100
AcDbDimension
 10
244.9999999999999716
 20
385.0000000000001137
 30
0.0
 11
241.0000000000000284
 21
386.8750000000000568
 31
0.0
 70
129
 71
8
 72
2
 74
0
 75
0
 41
1.0
 42
0.0
  1

  3
Standard
100
AcDbAlignedDimension
 13
244.9999999999999432
 23
381.0
 33
0.0
 14
237.000000000000199
 24
380.9999999999998863
 34
0.0
1001
ACAD
1000
DSTYLE
1002
{
1070
279
1070
2
1070
144
1040
1.0
1070
40
1040
1.0
1002
}
  0
DIMENSION
  5
1D9
100
AcDbEntity
  8
dimensions
 62
256
370
-1
 48
1.0
  6
BYLAYER
100
AcDbDimension
 10
245.0000000000000284
 20
389.0000000000000568
 30
0.0
 11
235.5000000000000284
 21
390.8749999999999432
 31
0.0
 70
129
 71
8
 72
2
 74
0
 75
0
 41
1.0
 42
0.0
  1

  3
Standard
100
AcDbAlignedDimension
 13
244.9999999999999432
 23
381.0
 33
0.0
 14
225.9999999999999432
 24
380.9999999999999432
 34
0.0
1001
ACAD
1000
DSTYLE
1002
{
1070
279
1070
2
1070
144
1040
1.0
1070
40
1040
1.0
1002
}
  0
LINE
  5
1DA
100
AcDbEntity
  8
hidden
 62
256
370
-1
 48
1.0
  6
BYLAYER
100
AcDbLine
 10
31.1999999999999815
 20
31.1999999999989797
 30
0.0
 11
243.8000000000000114
 21
31.1999999999998678
 31
0.0
  0
LINE
  5
1DB
100
AcDbEntity
  8
hidden
 62
256
370
-1
 48
1.0
  6
BYLAYER
100
AcDbLine
 10
31.2000000000000384
 20
68.6000000000001648
 30
0.0
 11
243.8000000000000114
 21
68.6000000000006196
 31
0.0
  0
LINE
  5
1DC
100
AcDbEntity
  8
hidden
 62
256
370
-1
 48
1.0
  6
BYLAYER
100
AcDbLine
 10
31.1999999999999957
 20
341.2000000000000455
 30
0.0
 11
243.7999999999999829
 21
341.1999999999999318
 31
0.0
  0
LINE
  5
1DD
100
AcDbEntity
  8
hidden
 62
256
370
-1
 48
1.0
  6
BYLAYER
100
AcDbLine
 10
31.1999999999999957
 20
378.6000000000000227
 30
0.0
 11
243.7999999999999829
 21
378.5999999999999659
 31
0.0
  0
LINE
  5
1DE
100
AcDbEntity
  8
hidden
 62
256
370
-1
 48
1.0
  6
BYLAYER
100
AcDbLine
 10
32.3999999999999915
 20
379.8000000000000114
 30
0.0
 11
32.3999999999999986
 21
340.0
 31
0.0
  0
LINE
  5
1DF
100
AcDbEntity
  8
hidden
 62
256
370
-1
 48
1.0
  6
BYLAYER
100
AcDbLine
 10
242.6000000000000227
 20
379.8000000000000114
 30
0.0
 11
242.5999999999999943
 21
340.0
 31
0.0
  0
LINE
  5
1E0
100
AcDbEntity
  8
hidden
 62
256
370
-1
 48
1.0
  6
BYLAYER
100
AcDbLine
 10
32.3999999999999702
 20
69.8000000000001251
 30
0.0
 11
32.3999999999999702
 21
30.0
 31
0.0
  0
LINE
  5
1E1
100
AcDbEntity
  8
hidden
 62
256
370
-1
 48
1.0
  6
BYLAYER
100
AcDbLine
 10
242.6000000000000227
 20
69.7999999999976382
 30
0.0
 11
242.6000000000000227
 21
29.9999999999998792
 31
0.0
  0
MTEXT
  5
1E2
100
AcDbEntity
  8
0
 62
256
370
-1
 48
1.0
  6
BYLAYER
100
AcDbMText
 10
20.000000000000032
 20
300.0
 30
0.0
 40
5.0
 41
0.0
 71
6
 72
1
  1
\U+2191\U+524d
  7
textstyle4
 50
0.0
 73
2
 44
1.0
  0
MTEXT
  5
1E3
100
AcDbEntity
  8
0
 62
256
370
-1
 48
1.0
  6
BYLAYER
100
AcDbMText
 10
19.9999999999999325
 20
381.0
 30
0.0
 40
5.0
 41
0.0
 71
6
 72
1
  1
\U+2191\U+4e0a
  7
textstyle5
 50
0.0
 73
2
 44
1.0
  0
MTEXT
  5
1E4
100
AcDbEntity
  8
0
 62
256
370
-1
 48
1.0
  6
BYLAYER
100
AcDbMText
 10
20.0000000000000036
 20
70.0
 30
0.0
 40
5.0
 41
0.0
 71
6
 72
1
  1
\U+2191\U+4e0a
  7
textstyle0
 50
0.0
 73
2
 44
1.0
  0
MTEXT
  5
1E5
100
AcDbEntity
  8
0
 62
256
370
-1
 48
1.0
  6
BYLAYER
100
AcDbMText
 10
20.0000000000000178
 20
99.9999999999999858
 30
0.0
 40
5.0
 41
0.0
 71
6
 72
1
  1
\U+2193\U+5f8c
  7
textstyle1
 50
0.0
 73
2
 44
1.0
  0
DIMENSION
  5
1E6
100
AcDbEntity
  8
dimensions
 62
256
370
-1
 48
1.0
  6
BYLAYER
100
AcDbDimension
 10
48.3303780530414855
 20
351.2312646371290157
 30
0.0
 11
51.9247581043187623
 21
356.0360598509731744
 31
0.0
 70
131
 71
8
 72
2
 74
0
 75
0
 41
1.0
 42
0.0
  1

  3
Standard
100
AcDbDiametricDimension
 15
57.6696219469585003
 25
357.7687353628710412
 35
0.0
 40
0.0
1001
ACAD
1000
DSTYLE
1002
{
1070
279
1070
2
1070
144
1040
1.0
1070
40
1040
1.0
1002
}
  0
DIMENSION
  5
1E7
100
AcDbEntity
  8
dimensions
 62
256
370
-1
 48
1.0
  6
BYLAYER
100
AcDbDimension
 10
80.9925611330297386
 20
360.4645324327768776
 30
0.0
 11
75.8895563448118935
 21
359.0408076941333206
 31
0.0
 70
131
 71
8
 72
2
 74
0
 75
0
 41
1.0
 42
0.0
  1

  3
Standard
100
AcDbDiametricDimension
 15
73.0074388669702188
 25
354.595467567223011
 35
0.0
 40
0.0
1001
ACAD
1000
DSTYLE
1002
{
1070
279
1070
2
1070
144
1040
1.0
1070
40
1040
1.0
1002
}
  0
MTEXT
  5
1E8
100
AcDbEntity
  8
0
 62
256
370
-1
 48
1.0
  6
BYLAYER
100
AcDbMText
 10
19.9999999999999929
 20
340.0
 30
0.0
 40
5.0
 41
0.0
 71
6
 72
1
  1
\U+2193\U+4e0b
  7
textstyle2
 50
0.0
 73
2
 44
1.0
  0
MTEXT
  5
1E9
100
AcDbEntity
  8
0
 62
256
370
-1
 48
1.0
  6
BYLAYER
100
AcDbMText
 10
19.9999999999999893
 20
28.9999999999999858
 30
0.0
 40
5.0
 41
0.0
 71
6
 72
1
  1
\U+2193\U+4e0b
  7
textstyle3
 50
0.0
 73
2
 44
1.0
  0
DIMENSION
  5
1EA
100
AcDbEntity
  8
private_dimensions
 62
256
370
-1
 48
1.0
  6
BYLAYER
100
AcDbDimension
 10
39.9999999999999858
 20
105.0000000000000284
 30
0.0
 11
70.9999999999999716
 21
106.8750000000000142
 31
0.0
 70
129
 71
8
 72
2
 74
0
 75
0
 41
1.0
 42
0.0
  1

  3
Standard
100
AcDbAlignedDimension
 13
39.9999999999999929
 23
102.4999999999999574
 33
0.0
 14
101.9999999999999432
 24
102.4999999999999574
 34
0.0
1001
ACAD
1000
DSTYLE
1002
{
1070
279
1070
2
1070
144
1040
1.0
1070
40
1040
1.0
1002
}
  0
DIMENSION
  5
1EB
100
AcDbEntity
  8
private_dimensions
 62
256
370
-1
 48
1.0
  6
BYLAYER
100
AcDbDimension
 10
100.0000000000000142
 20
102.4999999999999574
 30
0.0
 11
98.1250000000000142
 21
117.5
 31
0.0
 70
1
 71
8
 72
2
 74
0
 75
0
 41
1.0
 42
0.0
  1

  3
Standard
100
AcDbAlignedDimension
 13
101.9999999999999432
 23
102.4999999999999574
 33
0.0
 14
101.9999999999999432
 24
132.5000000000000284
 34
0.0
1001
ACAD
1000
DSTYLE
1002
{
1070
144
1040
1.0
1070
40
1040
1.0
1002
}
  0
LINE
  5
1EC
100
AcDbEntity
  8
0
 62
256
370
-1
 48
1.0
  6
BYLAYER
100
AcDbLine
 10
31.2000000000000028
 20
99.9999999999999858
 30
0.0
 11
31.2000000000000028
 21
300.0
 31
0.0
  0
LINE
  5
1ED
100
AcDbEntity
  8
0
 62
256
370
-1
 48
1.0
  6
BYLAYER
100
AcDbLine
 10
243.8000000000000114
 20
99.9999999999999858
 30
0.0
 11
243.8000000000000114
 21
300.0
 31
0.0
  0
LINE
  5
1EE
100
AcDbEntity
  8
0
 62
256
370
-1
 48
1.0
  6
BYLAYER
100
AcDbLine
 10
31.2000000000000028
 20
379.8000000000000114
 30
0.0
 11
243.8000000000000398
 21
379.8000000000000114
 31
0.0
  0
LINE
  5
1EF
100
AcDbEntity
  8
0
 62
256
370
-1
 48
1.0
  6
BYLAYER
100
AcDbLine
 10
31.2000000000000384
 20
69.8000000000000114
 30
0.0
 11
243.8000000000000114
 21
69.8000000000010772
 31
0.0
  0
LINE
  5
1F0
100
AcDbEntity
  8
0
 62
256
370
-1
 48
1.0
  6
BYLAYER
100
AcDbLine
 10
31.2000000000000028
 20
340.0
 30
0.0
 11
31.2000000000000028
 21
379.8000000000000114
 31
0.0
  0
LINE
  5
1F1
100
AcDbEntity
  8
0
 62
256
370
-1
 48
1.0
  6
BYLAYER
100
AcDbLine
 10
243.8000000000000114
 20
340.0
 30
0.0
 11
243.8000000000000114
 21
379.8000000000000114
 31
0.0
  0
LINE
  5
1F2
100
AcDbEntity
  8
0
 62
256
370
-1
 48
1.0
  6
BYLAYER
100
AcDbLine
 10
31.1999999999999815
 20
30.0000000000000071
 30
0.0
 11
31.2000000000000384
 21
69.8000000000000114
 31
0.0
  0
LINE
  5
1F3
100
AcDbEntity
  8
0
 62
256
370
-1
 48
1.0
  6
BYLAYER
100
AcDbLine
 10
243.8000000000000114
 20
30.0
 30
0.0
 11
243.8000000000000114
 21
69.8000000000010772
 31
0.0
  0
LINE
  5
1F4
100
AcDbEntity
  8
0
 62
256
370
-1
 48
1.0
  6
BYLAYER
100
AcDbLine
 10
430.0000000000000568
 20
289.9999999999999432
 30
0.0
 11
440.0000000000000568
 21
284.9999999999999432
 31
0.0
  0
LINE
  5
1F5
100
AcDbEntity
  8
0
 62
256
370
-1
 48
1.0
  6
BYLAYER
100
AcDbLine
 10
430.0000000000000568
 20
289.9999999999999432
 30
0.0
 11
430.0000000000000568
 21
299.9999999999999432
 31
0.0
  0
LINE
  5
1F6
100
AcDbEntity
  8
0
 62
256
370
-1
 48
1.0
  6
BYLAYER
100
AcDbLine
 10
430.0000000000000568
 20
289.9999999999999432
 30
0.0
 11
440.0
 21
297.0
 31
0.0
  0
MTEXT
  5
1F7
100
AcDbEntity
  8
0
 62
256
370
-1
 48
1.0
  6
BYLAYER
100
AcDbMText
 10
441.0000000000000568
 20
284.0000000000001705
 30
0.0
 40
5.0
 41
0.0
 71
4
 72
1
  1
W
  7
textstyle6
 50
0.0
 73
2
 44
1.0
  0
MTEXT
  5
1F8
100
AcDbEntity
  8
0
 62
256
370
-1
 48
1.0
  6
BYLAYER
100
AcDbMText
 10
430.0
 20
300.9999999999998295
 30
0.0
 40
5.0
 41
0.0
 71
8
 72
1
  1
H
  7
textstyle7
 50
0.0
 73
2
 44
1.0
  0
MTEXT
  5
1F9
100
AcDbEntity
  8
0
 62
256
370
-1
 48
1.0
  6
BYLAYER
100
AcDbMText
 10
441.0
 20
299.0000000000001137
 30
0.0
 40
5.0
 41
0.0
 71
4
 72
1
  1
D
  7
textstyle8
 50
0.0
 73
2
 44
1.0
  0
LEADER
  5
1FA
100
AcDbEntity
  8
requests
 62
256
370
-1
 48
1.0
  6
BYLAYER
100
AcDbLeader
  3
Standard
 71
1
 72
0
 73
3
 74
0
 75
0
 40
1.0
 41
10.0
 76
3
 10
38.3235238063781267
 20
345.792592717138632
 10
44.0
 20
324.0
 10
101.0
 20
324.0
1001
ACAD
1000
DSTYLE
1002
{
1070
40
1040
1.0
1002
}
  0
LEADER
  5
1FB
100
AcDbEntity
  8
requests
 62
256
370
-1
 48
1.0
  6
BYLAYER
100
AcDbLeader
  3
Standard
 71
1
 72
0
 73
3
 74
0
 75
0
 40
1.0
 41
10.0
 76
2
 10
38.3235238063781409
 20
371.7925927171386888
 10
51.0
 20
324.0
1001
ACAD
1000
DSTYLE
1002
{
1070
40
1040
1.0
1002
}
  0
LEADER
  5
1FC
100
AcDbEntity
  8
requests
 62
256
370
-1
 48
1.0
  6
BYLAYER
100
AcDbLeader
  3
Standard
 71
1
 72
0
 73
3
 74
0
 75
0
 40
1.0
 41
10.0
 76
3
 10
237.323523806378148
 20
345.7925927171386888
 10
243.0
 20
324.0
 10
300.0
 20
324.0
1001
ACAD
1000
DSTYLE
1002
{
1070
40
1040
1.0
1002
}
  0
LEADER
  5
1FD
100
AcDbEntity
  8
requests
 62
256
370
-1
 48
1.0
  6
BYLAYER
100
AcDbLeader
  3
Standard
 71
1
 72
0
 73
3
 74
0
 75
0
 40
1.0
 41
10.0
 76
2
 10
237.323523806378148
 20
371.7925927171386888
 10
250.0
 20
324.0
1001
ACAD
1000
DSTYLE
1002
{
1070
40
1040
1.0
1002
}
  0
DIMENSION
  5
1FE
100
AcDbEntity
  8
dimensions
 62
256
370
-1
 48
1.0
  6
BYLAYER
100
AcDbDimension
 10
249.0000000000002274
 20
381.0000000000001137
 30
0.0
 11
247.1250000000002274
 21
376.9999999999998863
 31
0.0
 70
129
 71
8
 72
2
 74
0
 75
0
 41
1.0
 42
0.0
  1

  3
Standard
100
AcDbAlignedDimension
 13
245.0000000000000284
 23
380.9999999999999432
 33
0.0
 14
244.9999999999999432
 24
373.0
 34
0.0
1001
ACAD
1000
DSTYLE
1002
{
1070
279
1070
2
1070
144
1040
1.0
1070
40
1040
1.0
1002
}
  0
DIMENSION
  5
1FF
100
AcDbEntity
  8
dimensions
 62
256
370
-1
 48
1.0
  6
BYLAYER
100
AcDbDimension
 10
253.0
 20
360.0
 30
0.0
 11
251.125
 21
350.0000000000000568
 31
0.0
 70
129
 71
8
 72
2
 74
0
 75
0
 41
1.0
 42
0.0
  1

  3
Standard
100
AcDbAlignedDimension
 13
245.0
 23
359.9999999999999432
 33
0.0
 14
245.0
 24
340.0
 34
0.0
1001
ACAD
1000
DSTYLE
1002
{
1070
279
1070
2
1070
144
1040
1.0
1070
40
1040
1.0
1002
}
  0
DIMENSION
  5
200
100
AcDbEntity
  8
dimensions
 62
256
370
-1
 48
1.0
  6
BYLAYER
100
AcDbDimension
 10
25.9999999999998508
 20
30.0000000000000036
 30
0.0
 11
24.1249999999998472
 21
50.5
 31
0.0
 70
129
 71
8
 72
2
 74
0
 75
0
 41
1.0
 42
0.0
  1

  3
Standard
100
AcDbAlignedDimension
 13
30.0000000000000036
 23
30.0000000000000036
 33
0.0
 14
30.0
 24
71.0000000000000142
 34
0.0
1001
ACAD
1000
DSTYLE
1002
{
1070
279
1070
2
1070
144
1040
1.0
1070
40
1040
1.0
1002
}
  0
DIMENSION
  5
201
100
AcDbEntity
  8
dimensions
 62
256
370
-1
 48
1.0
  6
BYLAYER
100
AcDbDimension
 10
30.0
 20
25.9999999999997655
 30
0.0
 11
137.4999999999999432
 21
27.8749999999996412
 31
0.0
 70
129
 71
8
 72
2
 74
0
 75
0
 41
1.0
 42
0.0
  1

  3
Standard
100
AcDbAlignedDimension
 13
30.0000000000000036
 23
30.0000000000000036
 33
0.0
 14
244.9999999999998863
 24
29.9999999999994671
 34
0.0
1001
ACAD
1000
DSTYLE
1002
{
1070
279
1070
2
1070
144
1040
1.0
1070
40
1040
1.0
1002
}
  0
MTEXT
  5
202
100
AcDbEntity
  8
requests
 62
256
370
-1
 48
1.0
  6
BYLAYER
100
AcDbMText
 10
440.0
 20
210.0
 30
0.0
 40
5.0
 41
0.0
 71
1
 72
1
  1
\U+30b7\U+30e3\U+30fc\U+30b7\U+306eB\U+3001F\U+3001C\U+9762\U+306b\U+7a74\U+52a0\U+5de5\U+306e\U+8ffd\U+52a0\U+3092\U+5e0c\U+671b
  7
textstyle15
 50
0.0
 73
2
 44
1.0
  0
DIMENSION
  5
203
100
AcDbEntity
  8
dimensions
 62
256
370
-1
 48
1.0
  6
BYLAYER
100
AcDbDimension
 10
30.0000000000000497
 20
75.0000000000000142
 30
0.0
 11
42.5000000000000213
 21
76.875
 31
0.0
 70
1
 71
8
 72
2
 74
0
 75
0
 41
1.0
 42
0.0
  1

  3
Standard
100
AcDbAlignedDimension
 13
30.0000000000000497
 23
71.0000000000001137
 33
0.0
 14
54.9999999999999929
 24
71.0000000000000995
 34
0.0
1001
ACAD
1000
DSTYLE
1002
{
1070
144
1040
1.0
1070
40
1040
1.0
1002
}
  0
DIMENSION
  5
204
100
AcDbEntity
  8
dimensions
 62
256
370
-1
 48
1.0
  6
BYLAYER
100
AcDbDimension
 10
54.9999999999999929
 20
75.0
 30
0.0
 11
70.0
 21
76.875
 31
0.0
 70
1
 71
8
 72
2
 74
0
 75
0
 41
1.0
 42
0.0
  1

  3
Standard
100
AcDbAlignedDimension
 13
54.9999999999999929
 23
71.0000000000000995
 33
0.0
 14
85.0000000000000142
 24
71.0000000000000995
 34
0.0
1001
ACAD
1000
DSTYLE
1002
{
1070
144
1040
1.0
1070
40
1040
1.0
1002
}
  0
DIMENSION
  5
205
100
AcDbEntity
  8
dimensions
 62
256
370
-1
 48
1.0
  6
BYLAYER
100
AcDbDimension
 10
245.0
 20
77.0
 30
0.0
 11
240.0
 21
78.8750000000000142
 31
0.0
 70
1
 71
8
 72
2
 74
0
 75
0
 41
1.0
 42
0.0
  1

  3
Standard
100
AcDbAlignedDimension
 13
235.0000000000000284
 23
71.0000000000000711
 33
0.0
 14
244.9999999999999716
 24
71.0000000000000426
 34
0.0
1001
ACAD
1000
DSTYLE
1002
{
1070
144
1040
1.0
1070
40
1040
1.0
1002
}
  0
DIMENSION
  5
206
100
AcDbEntity
  8
dimensions
 62
256
370
-1
 48
1.0
  6
BYLAYER
100
AcDbDimension
 10
225.0
 20
73.0000000000000142
 30
0.0
 11
230.0
 21
74.8750000000000284
 31
0.0
 70
1
 71
8
 72
2
 74
0
 75
0
 41
1.0
 42
0.0
  1

  3
Standard
100
AcDbAlignedDimension
 13
225.0
 23
71.0000000000000568
 33
0.0
 14
235.0000000000000284
 24
71.0000000000000711
 34
0.0
1001
ACAD
1000
DSTYLE
1002
{
1070
144
1040
1.0
1070
40
1040
1.0
1002
}
  0
DIMENSION
  5
207
100
AcDbEntity
  8
dimensions
 62
256
370
-1
 48
1.0
  6
BYLAYER
100
AcDbDimension
 10
211.0000000000000284
 20
73.0000000000000284
 30
0.0
 11
218.0
 21
74.8750000000000284
 31
0.0
 70
1
 71
8
 72
2
 74
0
 75
0
 41
1.0
 42
0.0
  1

  3
Standard
100
AcDbAlignedDimension
 13
211.0000000000000284
 23
71.0000000000000711
 33
0.0
 14
225.0
 24
71.0000000000000568
 34
0.0
1001
ACAD
1000
DSTYLE
1002
{
1070
144
1040
1.0
1070
40
1040
1.0
1002
}
  0
DIMENSION
  5
208
100
AcDbEntity
  8
dimensions
 62
256
370
-1
 48
1.0
  6
BYLAYER
100
AcDbDimension
 10
203.9999999999999147
 20
77.0
 30
0.0
 11
219.4999999999999716
 21
78.875
 31
0.0
 70
1
 71
8
 72
2
 74
0
 75
0
 41
1.0
 42
0.0
  1

  3
Standard
100
AcDbAlignedDimension
 13
203.9999999999999147
 23
71.0000000000000711
 33
0.0
 14
235.0000000000000284
 24
71.0000000000000711
 34
0.0
1001
ACAD
1000
DSTYLE
1002
{
1070
144
1040
1.0
1070
40
1040
1.0
1002
}
  0
DIMENSION
  5
209
100
AcDbEntity
  8
dimensions
 62
256
370
-1
 48
1.0
  6
BYLAYER
100
AcDbDimension
 10
173.0
 20
77.0
 30
0.0
 11
188.4999999999999432
 21
78.875
 31
0.0
 70
1
 71
8
 72
2
 74
0
 75
0
 41
1.0
 42
0.0
  1

  3
Standard
100
AcDbAlignedDimension
 13
173.0
 23
71.0000000000000711
 33
0.0
 14
203.9999999999999147
 24
71.0000000000000711
 34
0.0
1001
ACAD
1000
DSTYLE
1002
{
1070
144
1040
1.0
1070
40
1040
1.0
1002
}
  0
DIMENSION
  5
20A
100
AcDbEntity
  8
dimensions
 62
256
370
-1
 48
1.0
  6
BYLAYER
100
AcDbDimension
 10
232.9999999999999147
 20
373.0
 30
0.0
 11
225.9999999999999432
 21
374.875
 31
0.0
 70
1
 71
8
 72
2
 74
0
 75
0
 41
1.0
 42
0.0
  1

  3
Standard
100
AcDbAlignedDimension
 13
218.9999999999999432
 23
371.0
 33
0.0
 14
232.9999999999999432
 24
371.0
 34
0.0
1001
ACAD
1000
DSTYLE
1002
{
1070
144
1040
1.0
1070
40
1040
1.0
1002
}
  0
DIMENSION
  5
20B
100
AcDbEntity
  8
dimensions
 62
256
370
-1
 48
1.0
  6
BYLAYER
100
AcDbDimension
 10
217.0
 20
349.0
 30
0.0
 11
215.125
 21
360.0
 31
0.0
 70
1
 71
8
 72
2
 74
0
 75
0
 41
1.0
 42
0.0
  1

  3
Standard
100
AcDbAlignedDimension
 13
218.9999999999999432
 23
349.0
 33
0.0
 14
218.9999999999999432
 24
371.0
 34
0.0
1001
ACAD
1000
DSTYLE
1002
{
1070
144
1040
1.0
1070
40
1040
1.0
1002
}
  0
LINE
  5
20C
100
AcDbEntity
  8
auxiliary
 62
256
370
-1
 48
1.0
  6
BYLAYER
100
AcDbLine
 10
87.0
 20
374.0
 30
0.0
 11
95.0
 21
374.0
 31
0.0
  0
LINE
  5
20D
100
AcDbEntity
  8
auxiliary
 62
256
370
-1
 48
1.0
  6
BYLAYER
100
AcDbLine
 10
86.75
 20
346.0
 30
0.0
 11
95.0
 21
346.0
 31
0.0
  0
LINE
  5
20E
100
AcDbEntity
  8
auxiliary
 62
256
370
-1
 48
1.0
  6
BYLAYER
100
AcDbLine
 10
165.0
 20
374.0
 30
0.0
 11
173.0
 21
374.0
 31
0.0
  0
LINE
  5
20F
100
AcDbEntity
  8
auxiliary
 62
256
370
-1
 48
1.0
  6
BYLAYER
100
AcDbLine
 10
165.0
 20
346.0
 30
0.0
 11
173.0
 21
346.0
 31
0.0
  0
LINE
  5
210
100
AcDbEntity
  8
auxiliary
 62
256
370
-1
 48
1.0
  6
BYLAYER
100
AcDbLine
 10
30.0
 20
209.5
 30
0.0
 11
244.9999999999999432
 21
209.5
 31
0.0
  0
LINE
  5
211
100
AcDbEntity
  8
auxiliary
 62
256
370
-1
 48
1.0
  6
BYLAYER
100
AcDbLine
 10
30.0
 20
197.0
 30
0.0
 11
244.9999999999999432
 21
197.0
 31
0.0
  0
LINE
  5
212
100
AcDbEntity
  8
auxiliary
 62
256
370
-1
 48
1.0
  6
BYLAYER
100
AcDbLine
 10
30.0
 20
166.0
 30
0.0
 11
244.9999999999999432
 21
166.0
 31
0.0
  0
LINE
  5
213
100
AcDbEntity
  8
auxiliary
 62
256
370
-1
 48
1.0
  6
BYLAYER
100
AcDbLine
 10
30.0
 20
108.0
 30
0.0
 11
244.9999999999999432
 21
108.0
 31
0.0
  0
LINE
  5
214
100
AcDbEntity
  8
auxiliary
 62
256
370
-1
 48
1.0
  6
BYLAYER
100
AcDbLine
 10
108.0
 20
201.0
 30
0.0
 11
108.0000000000000142
 21
100.0
 31
0.0
  0
LINE
  5
215
100
AcDbEntity
  8
auxiliary
 62
256
370
-1
 48
1.0
  6
BYLAYER
100
AcDbLine
 10
150.0
 20
201.0
 30
0.0
 11
150.0
 21
100.0
 31
0.0
  0
LINE
  5
216
100
AcDbEntity
  8
auxiliary
 62
256
370
-1
 48
1.0
  6
BYLAYER
100
AcDbLine
 10
159.0
 20
201.0
 30
0.0
 11
159.0
 21
100.0
 31
0.0
  0
LINE
  5
217
100
AcDbEntity
  8
auxiliary
 62
256
370
-1
 48
1.0
  6
BYLAYER
100
AcDbLine
 10
236.0
 20
201.0
 30
0.0
 11
235.9999999999999716
 21
100.0000000000000142
 31
0.0
  0
LINE
  5
218
100
AcDbEntity
  8
auxiliary
 62
256
370
-1
 48
1.0
  6
BYLAYER
100
AcDbLine
 10
47.0
 20
300.0
 30
0.0
 11
47.0000000000000995
 21
205.5
 31
0.0
  0
LINE
  5
219
100
AcDbEntity
  8
auxiliary
 62
256
370
-1
 48
1.0
  6
BYLAYER
100
AcDbLine
 10
91.0
 20
300.0
 30
0.0
 11
91.0
 21
205.4999999999995168
 31
0.0
  0
LINE
  5
21A
100
AcDbEntity
  8
auxiliary
 62
256
370
-1
 48
1.0
  6
BYLAYER
100
AcDbLine
 10
125.0
 20
300.0
 30
0.0
 11
125.0000000000003126
 21
205.4999999999998863
 31
0.0
  0
LINE
  5
21B
100
AcDbEntity
  8
auxiliary
 62
256
370
-1
 48
1.0
  6
BYLAYER
100
AcDbLine
 10
169.0
 20
300.0
 30
0.0
 11
169.0000000000003126
 21
205.5000000000000568
 31
0.0
  0
DIMENSION
  5
21C
100
AcDbEntity
  8
dimensions
 62
256
370
-1
 48
1.0
  6
BYLAYER
100
AcDbDimension
 10
30.0000000000000036
 20
302.0
 30
0.0
 11
38.5
 21
303.875
 31
0.0
 70
1
 71
8
 72
2
 74
0
 75
0
 41
1.0
 42
0.0
  1

  3
Standard
100
AcDbAlignedDimension
 13
30.0000000000000036
 23
300.0
 33
0.0
 14
47.0
 24
300.0
 34
0.0
1001
ACAD
1000
DSTYLE
1002
{
1070
144
1040
1.0
1070
40
1040
1.0
1002
}
  0
DIMENSION
  5
21D
100
AcDbEntity
  8
dimensions
 62
256
370
-1
 48
1.0
  6
BYLAYER
100
AcDbDimension
 10
47.0
 20
302.0
 30
0.0
 11
69.0
 21
303.875
 31
0.0
 70
1
 71
8
 72
2
 74
0
 75
0
 41
1.0
 42
0.0
  1

  3
Standard
100
AcDbAlignedDimension
 13
47.0
 23
300.0
 33
0.0
 14
91.0
 24
300.0
 34
0.0
1001
ACAD
1000
DSTYLE
1002
{
1070
144
1040
1.0
1070
40
1040
1.0
1002
}
  0
DIMENSION
  5
21E
100
AcDbEntity
  8
dimensions
 62
256
370
-1
 48
1.0
  6
BYLAYER
100
AcDbDimension
 10
91.0
 20
301.9999999999999432
 30
0.0
 11
108.0000000000000142
 21
303.875
 31
0.0
 70
1
 71
8
 72
2
 74
0
 75
0
 41
1.0
 42
0.0
  1

  3
Standard
100
AcDbAlignedDimension
 13
91.0
 23
300.0
 33
0.0
 14
125.0000000000000284
 24
300.0000000000000568
 34
0.0
1001
ACAD
1000
DSTYLE
1002
{
1070
144
1040
1.0
1070
40
1040
1.0
1002
}
  0
DIMENSION
  5
21F
100
AcDbEntity
  8
dimensions
 62
256
370
-1
 48
1.0
  6
BYLAYER
100
AcDbDimension
 10
125.0000000000000284
 20
302.0
 30
0.0
 11
147.0000000000000284
 21
303.875
 31
0.0
 70
1
 71
8
 72
2
 74
0
 75
0
 41
1.0
 42
0.0
  1

  3
Standard
100
AcDbAlignedDimension
 13
125.0000000000000284
 23
300.0000000000000568
 33
0.0
 14
169.0000000000000284
 24
300.0000000000000568
 34
0.0
1001
ACAD
1000
DSTYLE
1002
{
1070
144
1040
1.0
1070
40
1040
1.0
1002
}
  0
DIMENSION
  5
220
100
AcDbEntity
  8
dimensions
 62
256
370
-1
 48
1.0
  6
BYLAYER
100
AcDbDimension
 10
253.0
 20
209.0
 30
0.0
 11
251.125
 21
254.7500000000000568
 31
0.0
 70
1
 71
8
 72
2
 74
0
 75
0
 41
1.0
 42
0.0
  1

  3
Standard
100
AcDbAlignedDimension
 13
244.9999999999999147
 23
300.0000000000001137
 33
0.0
 14
244.9999999999999147
 24
209.4999999999999716
 34
0.0
1001
ACAD
1000
DSTYLE
1002
{
1070
144
1040
1.0
1070
40
1040
1.0
1002
}
  0
DIMENSION
  5
221
100
AcDbEntity
  8
dimensions
 62
256
370
-1
 48
1.0
  6
BYLAYER
100
AcDbDimension
 10
253.0
 20
100.0
 30
0.0
 11
251.125
 21
104.0
 31
0.0
 70
1
 71
8
 72
2
 74
0
 75
0
 41
1.0
 42
0.0
  1

  3
Standard
100
AcDbAlignedDimension
 13
244.9999999999999147
 23
100.0000000000000142
 33
0.0
 14
244.9999999999999147
 24
107.9999999999999858
 34
0.0
1001
ACAD
1000
DSTYLE
1002
{
1070
144
1040
1.0
1070
40
1040
1.0
1002
}
  0
DIMENSION
  5
222
100
AcDbEntity
  8
dimensions
 62
256
370
-1
 48
1.0
  6
BYLAYER
100
AcDbDimension
 10
235.9999999999999432
 20
96.0
 30
0.0
 11
240.4999999999999432
 21
97.875
 31
0.0
 70
1
 71
8
 72
2
 74
0
 75
0
 41
1.0
 42
0.0
  1

  3
Standard
100
AcDbAlignedDimension
 13
235.9999999999999432
 23
100.0000000000000142
 33
0.0
 14
244.9999999999999147
 24
100.0000000000000142
 34
0.0
1001
ACAD
1000
DSTYLE
1002
{
1070
144
1040
1.0
1070
40
1040
1.0
1002
}
  0
DIMENSION
  5
223
100
AcDbEntity
  8
dimensions
 62
256
370
-1
 48
1.0
  6
BYLAYER
100
AcDbDimension
 10
159.0
 20
96.0
 30
0.0
 11
197.4999999999999716
 21
97.875
 31
0.0
 70
1
 71
8
 72
2
 74
0
 75
0
 41
1.0
 42
0.0
  1

  3
Standard
100
AcDbAlignedDimension
 13
159.0
 23
100.0000000000000142
 33
0.0
 14
235.9999999999999432
 24
100.0000000000000142
 34
0.0
1001
ACAD
1000
DSTYLE
1002
{
1070
144
1040
1.0
1070
40
1040
1.0
1002
}
  0
DIMENSION
  5
224
100
AcDbEntity
  8
dimensions
 62
256
370
-1
 48
1.0
  6
BYLAYER
100
AcDbDimension
 10
150.0
 20
96.0
 30
0.0
 11
154.5
 21
97.875
 31
0.0
 70
1
 71
8
 72
2
 74
0
 75
0
 41
1.0
 42
0.0
  1

  3
Standard
100
AcDbAlignedDimension
 13
150.0
 23
100.0000000000000142
 33
0.0
 14
159.0
 24
100.0000000000000142
 34
0.0
1001
ACAD
1000
DSTYLE
1002
{
1070
144
1040
1.0
1070
40
1040
1.0
1002
}
  0
DIMENSION
  5
225
100
AcDbEntity
  8
dimensions
 62
256
370
-1
 48
1.0
  6
BYLAYER
100
AcDbDimension
 10
108.0000000000000142
 20
96.0
 30
0.0
 11
129.0
 21
97.875
 31
0.0
 70
1
 71
8
 72
2
 74
0
 75
0
 41
1.0
 42
0.0
  1

  3
Standard
100
AcDbAlignedDimension
 13
108.0000000000000142
 23
100.0000000000000142
 33
0.0
 14
150.0
 24
100.0000000000000142
 34
0.0
1001
ACAD
1000
DSTYLE
1002
{
1070
144
1040
1.0
1070
40
1040
1.0
1002
}
  0
DIMENSION
  5
226
100
AcDbEntity
  8
dimensions
 62
256
370
-1
 48
1.0
  6
BYLAYER
100
AcDbDimension
 10
146.0
 20
170.0
 30
0.0
 11
195.4999999999999432
 21
171.8749999999998863
 31
0.0
 70
1
 71
8
 72
2
 74
0
 75
0
 41
1.0
 42
0.0
  1

  3
Standard
100
AcDbAlignedDimension
 13
145.9999999999999432
 23
166.0000000000002274
 33
0.0
 14
244.9999999999999147
 24
166.0
 34
0.0
1001
ACAD
1000
DSTYLE
1002
{
1070
144
1040
1.0
1070
40
1040
1.0
1002
}
  0
DIMENSION
  5
227
100
AcDbEntity
  8
dimensions
 62
256
370
-1
 48
1.0
  6
BYLAYER
100
AcDbDimension
 10
193.9999999999999147
 20
72.9999999999999858
 30
0.0
 11
198.9999999999999147
 21
74.875
 31
0.0
 70
1
 71
8
 72
2
 74
0
 75
0
 41
1.0
 42
0.0
  1

  3
Standard
100
AcDbAlignedDimension
 13
193.9999999999999147
 23
71.0000000000000568
 33
0.0
 14
203.9999999999999147
 24
71.0000000000000711
 34
0.0
1001
ACAD
1000
DSTYLE
1002
{
1070
144
1040
1.0
1070
40
1040
1.0
1002
}
  0
DIMENSION
  5
228
100
AcDbEntity
  8
dimensions
 62
256
370
-1
 48
1.0
  6
BYLAYER
100
AcDbDimension
 10
179.9999999999999147
 20
73.0
 30
0.0
 11
186.9999999999999147
 21
74.875
 31
0.0
 70
1
 71
8
 72
2
 74
0
 75
0
 41
1.0
 42
0.0
  1

  3
Standard
100
AcDbAlignedDimension
 13
179.9999999999999147
 23
71.0000000000000711
 33
0.0
 14
193.9999999999999147
 24
71.0000000000000568
 34
0.0
1001
ACAD
1000
DSTYLE
1002
{
1070
144
1040
1.0
1070
40
1040
1.0
1002
}
  0
LINE
  5
229
100
AcDbEntity
  8
auxiliary
 62
256
370
-1
 48
1.0
  6
BYLAYER
100
AcDbLine
 10
89.0
 20
381.0
 30
0.0
 11
89.0
 21
340.0
 31
0.0
  0
LINE
  5
22A
100
AcDbEntity
  8
auxiliary
 62
256
370
-1
 48
1.0
  6
BYLAYER
100
AcDbLine
 10
93.4999999999999858
 20
381.0
 30
0.0
 11
93.5
 21
340.0
 31
0.0
  0
LINE
  5
22B
100
AcDbEntity
  8
auxiliary
 62
256
370
-1
 48
1.0
  6
BYLAYER
100
AcDbLine
 10
104.5
 20
381.0
 30
0.0
 11
104.5
 21
340.0
 31
0.0
  0
LINE
  5
22C
100
AcDbEntity
  8
auxiliary
 62
256
370
-1
 48
1.0
  6
BYLAYER
100
AcDbLine
 10
107.0
 20
381.0
 30
0.0
 11
107.0
 21
340.0
 31
0.0
  0
LINE
  5
22D
100
AcDbEntity
  8
auxiliary
 62
256
370
-1
 48
1.0
  6
BYLAYER
100
AcDbLine
 10
117.0
 20
381.0
 30
0.0
 11
117.0
 21
340.0
 31
0.0
  0
DIMENSION
  5
22E
100
AcDbEntity
  8
dimensions
 62
256
370
-1
 48
1.0
  6
BYLAYER
100
AcDbDimension
 10
71.0
 20
340.0
 30
0.0
 11
69.125
 21
348.7649999999999864
 31
0.0
 70
1
 71
8
 72
2
 74
0
 75
0
 41
1.0
 42
0.0
  1

  3
Standard
100
AcDbAlignedDimension
 13
77.0
 23
357.5299999999999159
 33
0.0
 14
77.0
 24
340.0
 34
0.0
1001
ACAD
1000
DSTYLE
1002
{
1070
144
1040
1.0
1070
40
1040
1.0
1002
}
  0
DIMENSION
  5
22F
100
AcDbEntity
  8
dimensions
 62
256
370
-1
 48
1.0
  6
BYLAYER
100
AcDbDimension
 10
45.9999999999999574
 20
354.5
 30
0.0
 11
44.1249999999999787
 21
347.25
 31
0.0
 70
1
 71
8
 72
2
 74
0
 75
0
 41
1.0
 42
0.0
  1

  3
Standard
100
AcDbAlignedDimension
 13
52.9999999999999574
 23
354.5
 33
0.0
 14
53.0
 24
340.0
 34
0.0
1001
ACAD
1000
DSTYLE
1002
{
1070
144
1040
1.0
1070
40
1040
1.0
1002
}
  0
LINE
  5
230
100
AcDbEntity
  8
auxiliary
 62
256
370
-1
 48
1.0
  6
BYLAYER
100
AcDbLine
 10
78.0
 20
381.0
 30
0.0
 11
78.0
 21
367.0
 31
0.0
  0
LINE
  5
231
100
AcDbEntity
  8
auxiliary
 62
256
370
-1
 48
1.0
  6
BYLAYER
100
AcDbLine
 10
86.0
 20
381.0
 30
0.0
 11
86.0
 21
367.0
 31
0.0
  0
DIMENSION
  5
232
100
AcDbEntity
  8
dimensions
 62
256
370
-1
 48
1.0
  6
BYLAYER
100
AcDbDimension
 10
88.0
 20
371.0
 30
0.0
 11
86.125
 21
369.0
 31
0.0
 70
1
 71
8
 72
2
 74
0
 75
0
 41
1.0
 42
0.0
  1

  3
Standard
100
AcDbAlignedDimension
 13
89.0
 23
371.0
 33
0.0
 14
89.0
 24
367.0
 34
0.0
1001
ACAD
1000
DSTYLE
1002
{
1070
144
1040
1.0
1070
40
1040
1.0
1002
}
  0
DIMENSION
  5
233
100
AcDbEntity
  8
dimensions
 62
256
370
-1
 48
1.0
  6
BYLAYER
100
AcDbDimension
 10
103.0
 20
365.0
 30
0.0
 11
101.125
 21
369.0
 31
0.0
 70
1
 71
8
 72
2
 74
0
 75
0
 41
1.0
 42
0.0
  1

  3
Standard
100
AcDbAlignedDimension
 13
104.5
 23
372.9999999999999432
 33
0.0
 14
104.5
 24
365.0
 34
0.0
1001
ACAD
1000
DSTYLE
1002
{
1070
144
1040
1.0
1070
40
1040
1.0
1002
}
  0
DIMENSION
  5
234
100
AcDbEntity
  8
dimensions
 62
256
370
-1
 48
1.0
  6
BYLAYER
100
AcDbDimension
 10
78.0
 20
375.0
 30
0.0
 11
82.0
 21
376.875
 31
0.0
 70
1
 71
8
 72
2
 74
0
 75
0
 41
1.0
 42
0.0
  1

  3
Standard
100
AcDbAlignedDimension
 13
78.0
 23
373.0
 33
0.0
 14
86.0
 24
373.0
 34
0.0
1001
ACAD
1000
DSTYLE
1002
{
1070
144
1040
1.0
1070
40
1040
1.0
1002
}
  0
DIMENSION
  5
235
100
AcDbEntity
  8
dimensions
 62
256
370
-1
 48
1.0
  6
BYLAYER
100
AcDbDimension
 10
89.0
 20
383.0
 30
0.0
 11
89.9864903497785775
 21
384.7352776952162685
 31
0.0
 70
129
 71
8
 72
2
 74
0
 75
0
 41
1.0
 42
0.0
  1

  3
Standard
100
AcDbAlignedDimension
 13
89.0
 23
381.0
 33
0.0
 14
91.0
 24
381.0
 34
0.0
1001
ACAD
1000
DSTYLE
1002
{
1070
279
1070
2
1070
144
1040
1.0
1070
40
1040
1.0
1002
}
  0
DIMENSION
  5
236
100
AcDbEntity
  8
dimensions
 62
256
370
-1
 48
1.0
  6
BYLAYER
100
AcDbDimension
 10
77.0
 20
383.0
 30
0.0
 11
78.9027777777777715
 21
384.875
 31
0.0
 70
1
 71
8
 72
2
 74
0
 75
0
 41
1.0
 42
0.0
  1

  3
Standard
100
AcDbAlignedDimension
 13
77.0
 23
381.0
 33
0.0
 14
78.0
 24
381.0
 34
0.0
1001
ACAD
1000
DSTYLE
1002
{
1070
144
1040
1.0
1070
40
1040
1.0
1002
}
  0
DIMENSION
  5
237
100
AcDbEntity
  8
dimensions
 62
256
370
-1
 48
1.0
  6
BYLAYER
100
AcDbDimension
 10
114.0
 20
383.0
 30
0.0
 11
110.5
 21
384.875
 31
0.0
 70
1
 71
8
 72
2
 74
0
 75
0
 41
1.0
 42
0.0
  1

  3
Standard
100
AcDbAlignedDimension
 13
114.0
 23
381.0
 33
0.0
 14
107.0
 24
381.0
 34
0.0
1001
ACAD
1000
DSTYLE
1002
{
1070
144
1040
1.0
1070
40
1040
1.0
1002
}
  0
DIMENSION
  5
238
100
AcDbEntity
  8
dimensions
 62
256
370
-1
 48
1.0
  6
BYLAYER
100
AcDbDimension
 10
76.0
 20
373.0
 30
0.0
 11
74.125
 21
371.0
 31
0.0
 70
1
 71
8
 72
2
 74
0
 75
0
 41
1.0
 42
0.0
  1

  3
Standard
100
AcDbAlignedDimension
 13
78.0
 23
373.0
 33
0.0
 14
78.0
 24
369.0
 34
0.0
1001
ACAD
1000
DSTYLE
1002
{
1070
144
1040
1.0
1070
40
1040
1.0
1002
}
  0
LINE
  5
239
100
AcDbEntity
  8
auxiliary
 62
256
370
-1
 48
1.0
  6
BYLAYER
100
AcDbLine
 10
156.0
 20
381.0
 30
0.0
 11
156.0
 21
367.0
 31
0.0
  0
LINE
  5
23A
100
AcDbEntity
  8
auxiliary
 62
256
370
-1
 48
1.0
  6
BYLAYER
100
AcDbLine
 10
167.0
 20
381.0
 30
0.0
 11
167.0
 21
340.0
 31
0.0
  0
LINE
  5
23B
100
AcDbEntity
  8
auxiliary
 62
256
370
-1
 48
1.0
  6
BYLAYER
100
AcDbLine
 10
171.5
 20
381.0
 30
0.0
 11
171.4999999999999716
 21
340.0
 31
0.0
  0
LINE
  5
23C
100
AcDbEntity
  8
auxiliary
 62
256
370
-1
 48
1.0
  6
BYLAYER
100
AcDbLine
 10
182.4999999999999716
 20
381.0
 30
0.0
 11
182.4999999999999716
 21
340.0
 31
0.0
  0
LINE
  5
23D
100
AcDbEntity
  8
auxiliary
 62
256
370
-1
 48
1.0
  6
BYLAYER
100
AcDbLine
 10
185.0
 20
381.0
 30
0.0
 11
185.0
 21
340.0
 31
0.0
  0
LINE
  5
23E
100
AcDbEntity
  8
auxiliary
 62
256
370
-1
 48
1.0
  6
BYLAYER
100
AcDbLine
 10
195.0
 20
381.0
 30
0.0
 11
195.0
 21
340.0
 31
0.0
  0
DIMENSION
  5
23F
100
AcDbEntity
  8
dimensions
 62
256
370
-1
 48
1.0
  6
BYLAYER
100
AcDbDimension
 10
95.0
 20
346.0
 30
0.0
 11
93.125
 21
345.0972222222222285
 31
0.0
 70
1
 71
8
 72
2
 74
0
 75
0
 41
1.0
 42
0.0
  1

  3
Standard
100
AcDbAlignedDimension
 13
91.0
 23
347.0
 33
0.0
 14
91.0
 24
346.0
 34
0.0
1001
ACAD
1000
DSTYLE
1002
{
1070
144
1040
1.0
1070
40
1040
1.0
1002
}
  0
DIMENSION
  5
240
100
AcDbEntity
  8
dimensions
 62
256
370
-1
 48
1.0
  6
BYLAYER
100
AcDbDimension
 10
95.0
 20
373.0
 30
0.0
 11
93.125
 21
372.0972222222222285
 31
0.0
 70
1
 71
8
 72
2
 74
0
 75
0
 41
1.0
 42
0.0
  1

  3
Standard
100
AcDbAlignedDimension
 13
91.0
 23
374.0
 33
0.0
 14
91.0
 24
373.0
 34
0.0
1001
ACAD
1000
DSTYLE
1002
{
1070
144
1040
1.0
1070
40
1040
1.0
1002
}
  0
DIMENSION
  5
241
100
AcDbEntity
  8
dimensions
 62
256
370
-1
 48
1.0
  6
BYLAYER
100
AcDbDimension
 10
116.0
 20
355.0
 30
0.0
 11
114.125
 21
351.0
 31
0.0
 70
1
 71
8
 72
2
 74
0
 75
0
 41
1.0
 42
0.0
  1

  3
Standard
100
AcDbAlignedDimension
 13
117.0
 23
347.0
 33
0.0
 14
117.0
 24
355.0
 34
0.0
1001
ACAD
1000
DSTYLE
1002
{
1070
144
1040
1.0
1070
40
1040
1.0
1002
}
  0
DIMENSION
  5
242
100
AcDbEntity
  8
dimensions
 62
256
370
-1
 48
1.0
  6
BYLAYER
100
AcDbDimension
 10
120.0
 20
388.0
 30
0.0
 11
125.5
 21
389.875
 31
0.0
 70
1
 71
8
 72
2
 74
0
 75
0
 41
1.0
 42
0.0
  1

  3
Standard
100
AcDbAlignedDimension
 13
120.0
 23
381.0
 33
0.0
 14
131.0
 24
381.0
 34
0.0
1001
ACAD
1000
DSTYLE
1002
{
1070
144
1040
1.0
1070
40
1040
1.0
1002
}
  0
DIMENSION
  5
243
100
AcDbEntity
  8
dimensions
 62
256
370
-1
 48
1.0
  6
BYLAYER
100
AcDbDimension
 10
131.0
 20
388.0
 30
0.0
 11
143.0
 21
389.875
 31
0.0
 70
1
 71
8
 72
2
 74
0
 75
0
 41
1.0
 42
0.0
  1

  3
Standard
100
AcDbAlignedDimension
 13
131.0
 23
381.0
 33
0.0
 14
155.0
 24
381.0
 34
0.0
1001
ACAD
1000
DSTYLE
1002
{
1070
144
1040
1.0
1070
40
1040
1.0
1002
}
  0
DIMENSION
  5
244
100
AcDbEntity
  8
dimensions
 62
256
370
-1
 48
1.0
  6
BYLAYER
100
AcDbDimension
 10
155.0
 20
388.0
 30
0.0
 11
162.0
 21
389.875
 31
0.0
 70
1
 71
8
 72
2
 74
0
 75
0
 41
1.0
 42
0.0
  1

  3
Standard
100
AcDbAlignedDimension
 13
155.0
 23
381.0
 33
0.0
 14
169.0
 24
381.0
 34
0.0
1001
ACAD
1000
DSTYLE
1002
{
1070
144
1040
1.0
1070
40
1040
1.0
1002
}
  0
DIMENSION
  5
245
100
AcDbEntity
  8
dimensions
 62
256
370
-1
 48
1.0
  6
BYLAYER
100
AcDbDimension
 10
169.0
 20
388.0
 30
0.0
 11
173.0
 21
389.875
 31
0.0
 70
1
 71
8
 72
2
 74
0
 75
0
 41
1.0
 42
0.0
  1

  3
Standard
100
AcDbAlignedDimension
 13
169.0
 23
381.0
 33
0.0
 14
177.0
 24
381.0
 34
0.0
1001
ACAD
1000
DSTYLE
1002
{
1070
144
1040
1.0
1070
40
1040
1.0
1002
}
  0
DIMENSION
  5
246
100
AcDbEntity
  8
dimensions
 62
256
370
-1
 48
1.0
  6
BYLAYER
100
AcDbDimension
 10
177.0
 20
388.0
 30
0.0
 11
184.5
 21
389.875
 31
0.0
 70
1
 71
8
 72
2
 74
0
 75
0
 41
1.0
 42
0.0
  1

  3
Standard
100
AcDbAlignedDimension
 13
177.0
 23
381.0
 33
0.0
 14
192.0
 24
381.0
 34
0.0
1001
ACAD
1000
DSTYLE
1002
{
1070
144
1040
1.0
1070
40
1040
1.0
1002
}
  0
DIMENSION
  5
247
100
AcDbEntity
  8
dimensions
 62
256
370
-1
 48
1.0
  6
BYLAYER
100
AcDbDimension
 10
185.0
 20
383.0
 30
0.0
 11
188.5
 21
384.875
 31
0.0
 70
1
 71
8
 72
2
 74
0
 75
0
 41
1.0
 42
0.0
  1

  3
Standard
100
AcDbAlignedDimension
 13
185.0
 23
381.0
 33
0.0
 14
192.0
 24
381.0
 34
0.0
1001
ACAD
1000
DSTYLE
1002
{
1070
144
1040
1.0
1070
40
1040
1.0
1002
}
  0
DIMENSION
  5
248
100
AcDbEntity
  8
dimensions
 62
256
370
-1
 48
1.0
  6
BYLAYER
100
AcDbDimension
 10
153.7883523248747508
 20
369.0
 30
0.0
 11
151.9133523248747508
 21
371.0
 31
0.0
 70
1
 71
8
 72
2
 74
0
 75
0
 41
1.0
 42
0.0
  1

  3
Standard
100
AcDbAlignedDimension
 13
156.0
 23
369.0
 33
0.0
 14
156.0
 24
373.0
 34
0.0
1001
ACAD
1000
DSTYLE
1002
{
1070
144
1040
1.0
1070
40
1040
1.0
1002
}
  0
DIMENSION
  5
249
100
AcDbEntity
  8
dimensions
 62
256
370
-1
 48
1.0
  6
BYLAYER
100
AcDbDimension
 10
156.0
 20
375.0
 30
0.0
 11
160.0
 21
376.875
 31
0.0
 70
1
 71
8
 72
2
 74
0
 75
0
 41
1.0
 42
0.0
  1

  3
Standard
100
AcDbAlignedDimension
 13
156.0
 23
373.0
 33
0.0
 14
164.0
 24
373.0
 34
0.0
1001
ACAD
1000
DSTYLE
1002
{
1070
144
1040
1.0
1070
40
1040
1.0
1002
}
  0
DIMENSION
  5
24A
100
AcDbEntity
  8
dimensions
 62
256
370
-1
 48
1.0
  6
BYLAYER
100
AcDbDimension
 10
166.0
 20
367.0
 30
0.0
 11
164.125
 21
369.0
 31
0.0
 70
1
 71
8
 72
2
 74
0
 75
0
 41
1.0
 42
0.0
  1

  3
Standard
100
AcDbAlignedDimension
 13
167.0
 23
367.0
 33
0.0
 14
167.0
 24
371.0
 34
0.0
1001
ACAD
1000
DSTYLE
1002
{
1070
144
1040
1.0
1070
40
1040
1.0
1002
}
  0
DIMENSION
  5
24B
100
AcDbEntity
  8
dimensions
 62
256
370
-1
 48
1.0
  6
BYLAYER
100
AcDbDimension
 10
173.0
 20
346.0
 30
0.0
 11
171.125
 21
345.0972222222221717
 31
0.0
 70
1
 71
8
 72
2
 74
0
 75
0
 41
1.0
 42
0.0
  1

  3
Standard
100
AcDbAlignedDimension
 13
169.0
 23
347.0
 33
0.0
 14
169.0
 24
345.9999999999999432
 34
0.0
1001
ACAD
1000
DSTYLE
1002
{
1070
144
1040
1.0
1070
40
1040
1.0
1002
}
  0
DIMENSION
  5
24C
100
AcDbEntity
  8
dimensions
 62
256
370
-1
 48
1.0
  6
BYLAYER
100
AcDbDimension
 10
172.9999999999999432
 20
374.0000000000002274
 30
0.0
 11
171.1250000000000568
 21
372.0972222222223422
 31
0.0
 70
1
 71
8
 72
2
 74
0
 75
0
 41
1.0
 42
0.0
  1

  3
Standard
100
AcDbAlignedDimension
 13
168.9999999999999432
 23
374.0
 33
0.0
 14
169.0
 24
373.0
 34
0.0
1001
ACAD
1000
DSTYLE
1002
{
1070
144
1040
1.0
1070
40
1040
1.0
1002
}
  0
DIMENSION
  5
24D
100
AcDbEntity
  8
dimensions
 62
256
370
-1
 48
1.0
  6
BYLAYER
100
AcDbDimension
 10
135.0419803049426548
 20
358.5190042565859017
 30
0.0
 11
129.6779591261230564
 21
355.8295987845206128
 31
0.0
 70
3
 71
8
 72
2
 74
0
 75
0
 41
1.0
 42
0.0
  1

  3
Standard
100
AcDbDiametricDimension
 15
126.9580196950573594
 25
350.4809957434140983
 35
0.0
 40
0.0
1001
ACAD
1000
DSTYLE
1002
{
1070
144
1040
1.0
1070
40
1040
1.0
1002
}
  0
DIMENSION
  5
24E
100
AcDbEntity
  8
dimensions
 62
256
370
-1
 48
1.0
  6
BYLAYER
100
AcDbDimension
 10
158.4956277038444625
 20
361.0417818776391528
 30
0.0
 11
153.6711218929216045
 21
358.8527652764295226
 31
0.0
 70
3
 71
8
 72
2
 74
0
 75
0
 41
1.0
 42
0.0
  1

  3
Standard
100
AcDbDiametricDimension
 15
151.5043722961555375
 25
354.0182181223607927
 35
0.0
 40
0.0
1001
ACAD
1000
DSTYLE
1002
{
1070
144
1040
1.0
1070
40
1040
1.0
1002
}
  0
DIMENSION
  5
24F
100
AcDbEntity
  8
dimensions
 62
256
370
-1
 48
1.0
  6
BYLAYER
100
AcDbDimension
 10
124.0
 20
354.5
 30
0.0
 11
122.125
 21
347.25
 31
0.0
 70
1
 71
8
 72
2
 74
0
 75
0
 41
1.0
 42
0.0
  1

  3
Standard
100
AcDbAlignedDimension
 13
131.0
 23
354.5
 33
0.0
 14
131.0
 24
340.0
 34
0.0
1001
ACAD
1000
DSTYLE
1002
{
1070
144
1040
1.0
1070
40
1040
1.0
1002
}
  0
DIMENSION
  5
250
100
AcDbEntity
  8
dimensions
 62
256
370
-1
 48
1.0
  6
BYLAYER
100
AcDbDimension
 10
148.9999999999999716
 20
357.5299999999999727
 30
0.0
 11
147.125
 21
348.7649999999999864
 31
0.0
 70
1
 71
8
 72
2
 74
0
 75
0
 41
1.0
 42
0.0
  1

  3
Standard
100
AcDbAlignedDimension
 13
154.9999999999999716
 23
357.5299999999999727
 33
0.0
 14
155.0
 24
340.0
 34
0.0
1001
ACAD
1000
DSTYLE
1002
{
1070
144
1040
1.0
1070
40
1040
1.0
1002
}
  0
DIMENSION
  5
251
100
AcDbEntity
  8
dimensions
 62
256
370
-1
 48
1.0
  6
BYLAYER
100
AcDbDimension
 10
155.0
 20
383.0
 30
0.0
 11
156.9027777777777715
 21
384.875
 31
0.0
 70
1
 71
8
 72
2
 74
0
 75
0
 41
1.0
 42
0.0
  1

  3
Standard
100
AcDbAlignedDimension
 13
155.0
 23
381.0
 33
0.0
 14
156.0
 24
381.0
 34
0.0
1001
ACAD
1000
DSTYLE
1002
{
1070
144
1040
1.0
1070
40
1040
1.0
1002
}
  0
DIMENSION
  5
252
100
AcDbEntity
  8
dimensions
 62
256
370
-1
 48
1.0
  6
BYLAYER
100
AcDbDimension
 10
167.0
 20
383.0
 30
0.0
 11
170.1805555555555429
 21
384.875
 31
0.0
 70
1
 71
8
 72
2
 74
0
 75
0
 41
1.0
 42
0.0
  1

  3
Standard
100
AcDbAlignedDimension
 13
167.0
 23
381.0
 33
0.0
 14
169.0
 24
381.0
 34
0.0
1001
ACAD
1000
DSTYLE
1002
{
1070
144
1040
1.0
1070
40
1040
1.0
1002
}
  0
DIMENSION
  5
253
100
AcDbEntity
  8
dimensions
 62
256
370
-1
 48
1.0
  6
BYLAYER
100
AcDbDimension
 10
174.0000000000000568
 20
42.5000000000001776
 30
0.0
 11
172.1250000000000284
 21
41.0000000000001492
 31
0.0
 70
1
 71
8
 72
2
 74
0
 75
0
 41
1.0
 42
0.0
  1

  3
Standard
100
AcDbAlignedDimension
 13
177.0000000000000568
 23
42.5000000000001208
 33
0.0
 14
177.0
 24
39.5
 34
0.0
1001
ACAD
1000
DSTYLE
1002
{
1070
144
1040
1.0
1070
40
1040
1.0
1002
}
  0
DIMENSION
  5
254
100
AcDbEntity
  8
dimensions
 62
256
370
-1
 48
1.0
  6
BYLAYER
100
AcDbDimension
 10
177.0000000000000568
 20
45.0000000000002487
 30
0.0
 11
180.0000000000000568
 21
46.8750000000001279
 31
0.0
 70
1
 71
8
 72
2
 74
0
 75
0
 41
1.0
 42
0.0
  1

  3
Standard
100
AcDbAlignedDimension
 13
177.0000000000000568
 23
42.5000000000001208
 33
0.0
 14
183.0000000000000284
 24
42.4999999999998721
 34
0.0
1001
ACAD
1000
DSTYLE
1002
{
1070
144
1040
1.0
1070
40
1040
1.0
1002
}
  0
DIMENSION
  5
255
100
AcDbEntity
  8
dimensions
 62
256
370
-1
 48
1.0
  6
BYLAYER
100
AcDbDimension
 10
200.9999999999999716
 20
44.5000000000000071
 30
0.0
 11
199.125
 21
37.2499999999999787
 31
0.0
 70
1
 71
8
 72
2
 74
0
 75
0
 41
1.0
 42
0.0
  1

  3
Standard
100
AcDbAlignedDimension
 13
193.9999999999999432
 23
44.4999999999999929
 33
0.0
 14
193.9999999999999716
 24
29.9999999999999396
 34
0.0
1001
ACAD
1000
DSTYLE
1002
{
1070
144
1040
1.0
1070
40
1040
1.0
1002
}
  0
DIMENSION
  5
256
100
AcDbEntity
  8
dimensions
 62
256
370
-1
 48
1.0
  6
BYLAYER
100
AcDbDimension
 10
184.0
 20
41.0000000000000142
 30
0.0
 11
182.125
 21
35.4999999999999787
 31
0.0
 70
1
 71
8
 72
2
 74
0
 75
0
 41
1.0
 42
0.0
  1

  3
Standard
100
AcDbAlignedDimension
 13
179.9999999999999147
 23
41.0000000000000142
 33
0.0
 14
179.9999999999999147
 24
29.9999999999999467
 34
0.0
1001
ACAD
1000
DSTYLE
1002
{
1070
144
1040
1.0
1070
40
1040
1.0
1002
}
  0
DIMENSION
  5
257
100
AcDbEntity
  8
dimensions
 62
256
370
-1
 48
1.0
  6
BYLAYER
100
AcDbDimension
 10
198.9235397351210679
 20
47.3720648454872943
 30
0.0
 11
193.0552418271423392
 21
46.1195854391845756
 31
0.0
 70
3
 71
8
 72
2
 74
0
 75
0
 41
1.0
 42
0.0
  1

  3
Standard
100
AcDbDiametricDimension
 15
189.0764602648789321
 25
41.6279351545127341
 35
0.0
 40
0.0
1001
ACAD
1000
DSTYLE
1002
{
1070
144
1040
1.0
1070
40
1040
1.0
1002
}
  0
DIMENSION
  5
258
100
AcDbEntity
  8
dimensions
 62
256
370
-1
 48
1.0
  6
BYLAYER
100
AcDbDimension
 10
249.0
 20
107.9999999999999858
 30
0.0
 11
247.125
 21
137.0
 31
0.0
 70
1
 71
8
 72
2
 74
0
 75
0
 41
1.0
 42
0.0
  1

  3
Standard
100
AcDbAlignedDimension
 13
244.9999999999999147
 23
107.9999999999999858
 33
0.0
 14
244.9999999999999147
 24
166.0
 34
0.0
1001
ACAD
1000
DSTYLE
1002
{
1070
144
1040
1.0
1070
40
1040
1.0
1002
}
  0
DIMENSION
  5
259
100
AcDbEntity
  8
dimensions
 62
256
370
-1
 48
1.0
  6
BYLAYER
100
AcDbDimension
 10
88.0
 20
353.0
 30
0.0
 11
86.125
 21
351.0
 31
0.0
 70
1
 71
8
 72
2
 74
0
 75
0
 41
1.0
 42
0.0
  1

  3
Standard
100
AcDbAlignedDimension
 13
89.0
 23
353.0
 33
0.0
 14
89.0
 24
349.0
 34
0.0
1001
ACAD
1000
DSTYLE
1002
{
1070
144
1040
1.0
1070
40
1040
1.0
1002
}
  0
DIMENSION
  5
25A
100
AcDbEntity
  8
dimensions
 62
256
370
-1
 48
1.0
  6
BYLAYER
100
AcDbDimension
 10
166.0
 20
353.0
 30
0.0
 11
164.125
 21
351.0
 31
0.0
 70
1
 71
8
 72
2
 74
0
 75
0
 41
1.0
 42
0.0
  1

  3
Standard
100
AcDbAlignedDimension
 13
167.0
 23
353.0
 33
0.0
 14
167.0
 24
349.0
 34
0.0
1001
ACAD
1000
DSTYLE
1002
{
1070
144
1040
1.0
1070
40
1040
1.0
1002
}
  0
DIMENSION
  5
25B
100
AcDbEntity
  8
dimensions
 62
256
370
-1
 48
1.0
  6
BYLAYER
100
AcDbDimension
 10
194.0
 20
347.0
 30
0.0
 11
192.125
 21
351.0
 31
0.0
 70
1
 71
8
 72
2
 74
0
 75
0
 41
1.0
 42
0.0
  1

  3
Standard
100
AcDbAlignedDimension
 13
195.0
 23
355.0
 33
0.0
 14
195.0
 24
347.0
 34
0.0
1001
ACAD
1000
DSTYLE
1002
{
1070
144
1040
1.0
1070
40
1040
1.0
1002
}
  0
DIMENSION
  5
25C
100
AcDbEntity
  8
dimensions
 62
256
370
-1
 48
1.0
  6
BYLAYER
100
AcDbDimension
 10
89.0
 20
336.0
 30
0.0
 11
91.1999999999999886
 21
337.8999999999999773
 31
0.0
 70
129
 71
8
 72
2
 74
0
 75
0
 41
1.0
 42
0.0
  1

  3
Standard
100
AcDbAlignedDimension
 13
89.0
 23
340.0
 33
0.0
 14
93.5
 24
340.0
 34
0.0
1001
ACAD
1000
DSTYLE
1002
{
1070
279
1070
2
1070
144
1040
1.0
1070
40
1040
1.0
1002
}
  0
DIMENSION
  5
25D
100
AcDbEntity
  8
dimensions
 62
256
370
-1
 48
1.0
  6
BYLAYER
100
AcDbDimension
 10
104.0
 20
336.0
 30
0.0
 11
99.0
 21
337.875
 31
0.0
 70
1
 71
8
 72
2
 74
0
 75
0
 41
1.0
 42
0.0
  1

  3
Standard
100
AcDbAlignedDimension
 13
93.5
 23
340.0
 33
0.0
 14
104.5
 24
340.0
 34
0.0
1001
ACAD
1000
DSTYLE
1002
{
1070
144
1040
1.0
1070
40
1040
1.0
1002
}
  0
DIMENSION
  5
25E
100
AcDbEntity
  8
dimensions
 62
256
370
-1
 48
1.0
  6
BYLAYER
100
AcDbDimension
 10
107.0
 20
336.0
 30
0.0
 11
112.0
 21
337.875
 31
0.0
 70
1
 71
8
 72
2
 74
0
 75
0
 41
1.0
 42
0.0
  1

  3
Standard
100
AcDbAlignedDimension
 13
107.0
 23
340.0
 33
0.0
 14
117.0
 24
340.0
 34
0.0
1001
ACAD
1000
DSTYLE
1002
{
1070
144
1040
1.0
1070
40
1040
1.0
1002
}
  0
DIMENSION
  5
25F
100
AcDbEntity
  8
dimensions
 62
256
370
-1
 48
1.0
  6
BYLAYER
100
AcDbDimension
 10
166.0
 20
336.0
 30
0.0
 11
169.1999999999999886
 21
337.8999999999999773
 31
0.0
 70
129
 71
8
 72
2
 74
0
 75
0
 41
1.0
 42
0.0
  1

  3
Standard
100
AcDbAlignedDimension
 13
167.0
 23
340.0
 33
0.0
 14
171.4999999999999716
 24
340.0
 34
0.0
1001
ACAD
1000
DSTYLE
1002
{
1070
279
1070
2
1070
144
1040
1.0
1070
40
1040
1.0
1002
}
  0
DIMENSION
  5
260
100
AcDbEntity
  8
dimensions
 62
256
370
-1
 48
1.0
  6
BYLAYER
100
AcDbDimension
 10
183.0
 20
336.0
 30
0.0
 11
176.9999999999999716
 21
337.875
 31
0.0
 70
1
 71
8
 72
2
 74
0
 75
0
 41
1.0
 42
0.0
  1

  3
Standard
100
AcDbAlignedDimension
 13
171.4999999999999716
 23
340.0
 33
0.0
 14
182.4999999999999716
 24
340.0
 34
0.0
1001
ACAD
1000
DSTYLE
1002
{
1070
144
1040
1.0
1070
40
1040
1.0
1002
}
  0
DIMENSION
  5
261
100
AcDbEntity
  8
dimensions
 62
256
370
-1
 48
1.0
  6
BYLAYER
100
AcDbDimension
 10
196.0
 20
336.0
 30
0.0
 11
190.0
 21
337.875
 31
0.0
 70
1
 71
8
 72
2
 74
0
 75
0
 41
1.0
 42
0.0
  1

  3
Standard
100
AcDbAlignedDimension
 13
185.0
 23
340.0
 33
0.0
 14
195.0
 24
340.0
 34
0.0
1001
ACAD
1000
DSTYLE
1002
{
1070
144
1040
1.0
1070
40
1040
1.0
1002
}
  0
DIMENSION
  5
262
100
AcDbEntity
  8
dimensions
 62
256
370
-1
 48
1.0
  6
BYLAYER
100
AcDbDimension
 10
102.9999999999999858
 20
347.0000000000000568
 30
0.0
 11
101.125
 21
351.0
 31
0.0
 70
1
 71
8
 72
2
 74
0
 75
0
 41
1.0
 42
0.0
  1

  3
Standard
100
AcDbAlignedDimension
 13
104.4999999999999858
 23
347.0000000000000568
 33
0.0
 14
104.5
 24
354.9999999999999432
 34
0.0
1001
ACAD
1000
DSTYLE
1002
{
1070
144
1040
1.0
1070
40
1040
1.0
1002
}
  0
DIMENSION
  5
263
100
AcDbEntity
  8
dimensions
 62
256
370
-1
 48
1.0
  6
BYLAYER
100
AcDbDimension
 10
180.9999999999999716
 20
347.0000000000000568
 30
0.0
 11
179.125
 21
351.0
 31
0.0
 70
1
 71
8
 72
2
 74
0
 75
0
 41
1.0
 42
0.0
  1

  3
Standard
100
AcDbAlignedDimension
 13
182.4999999999999716
 23
347.0000000000000568
 33
0.0
 14
182.5
 24
354.9999999999999432
 34
0.0
1001
ACAD
1000
DSTYLE
1002
{
1070
144
1040
1.0
1070
40
1040
1.0
1002
}
  0
DIMENSION
  5
264
100
AcDbEntity
  8
dimensions
 62
256
370
-1
 48
1.0
  6
BYLAYER
100
AcDbDimension
 10
180.9999999999999716
 20
365.0
 30
0.0
 11
179.125
 21
369.0
 31
0.0
 70
1
 71
8
 72
2
 74
0
 75
0
 41
1.0
 42
0.0
  1

  3
Standard
100
AcDbAlignedDimension
 13
182.4999999999999716
 23
365.0
 33
0.0
 14
182.5
 24
372.9999999999999432
 34
0.0
1001
ACAD
1000
DSTYLE
1002
{
1070
144
1040
1.0
1070
40
1040
1.0
1002
}
  0
DIMENSION
  5
265
100
AcDbEntity
  8
dimensions
 62
256
370
-1
 48
1.0
  6
BYLAYER
100
AcDbDimension
 10
253.0
 20
107.9999999999999858
 30
0.0
 11
251.125
 21
152.4999999999999716
 31
0.0
 70
1
 71
8
 72
2
 74
0
 75
0
 41
1.0
 42
0.0
  1

  3
Standard
100
AcDbAlignedDimension
 13
244.9999999999999147
 23
107.9999999999999858
 33
0.0
 14
244.9999999999999147
 24
196.9999999999999716
 34
0.0
1001
ACAD
1000
DSTYLE
1002
{
1070
144
1040
1.0
1070
40
1040
1.0
1002
}
  0
CIRCLE
  5
266
100
AcDbEntity
  8
private_parts
 62
256
370
-1
 48
1.0
  6
BYLAYER
100
AcDbCircle
 10
150.0
 20
196.9999999999999716
 30
0.0
 40
3.0
  0
ENDSEC
  0
SECTION
  2
OBJECTS
  0
DICTIONARY
  5
C
100
AcDbDictionary
280
0
281
1
  3
ACAD_GROUP
350
D
  3
ACAD_LAYOUT
350
1A
  3
ACAD_MLINESTYLE
350
17
  3
ACAD_PLOTSETTINGS
350
19
  3
ACAD_PLOTSTYLENAME
350
E
  3
AcDbVariableDictionary
350
267
  3
QCAD_OBJECTS
350
268
  0
DICTIONARY
  5
D
100
AcDbDictionary
280
0
281
1
  0
ACDBDICTIONARYWDFLT
  5
E
100
AcDbDictionary
281
1
  3
Normal
350
F
100
AcDbDictionaryWithDefault
340
F
  0
ACDBPLACEHOLDER
  5
F
  0
DICTIONARY
  5
17
100
AcDbDictionary
280
0
281
1
  3
Standard
350
18
  0
MLINESTYLE
  5
18
100
AcDbMlineStyle
  2
STANDARD
 70
0
  3

 62
256
 51
90.0
 52
90.0
 71
2
 49
0.5
 62
256
  6
BYLAYER
 49
-0.5
 62
256
  6
BYLAYER
  0
DICTIONARY
  5
19
100
AcDbDictionary
280
0
281
1
  0
DICTIONARY
  5
1A
100
AcDbDictionary
281
1
  3
Layout1
350
1E
  3
Layout2
350
26
  3
Model
350
22
  0
LAYOUT
  5
1E
100
AcDbPlotSettings
  1

  2
none_device
  4

  6

 40
0.0
 41
0.0
 42
0.0
 43
0.0
 44
0.0
 45
0.0
 46
0.0
 47
0.0
 48
0.0
 49
0.0
140
0.0
141
0.0
142
1.0
143
1.0
 70
688
 72
0
 73
0
 74
5
  7

 75
16
147
1.0
148
0.0
149
0.0
100
AcDbLayout
  1
Layout1
 70
1
 71
1
 10
0.0
 20
0.0
 11
420.0
 21
297.0
 12
0.0
 22
0.0
 32
0.0
 14
100000000000000000000.0
 24
100000000000000000000.0
 34
100000000000000000000.0
 15
-100000000000000000000.0
 25
-100000000000000000000.0
 35
-100000000000000000000.0
146
0.0
 13
0.0
 23
0.0
 33
0.0
 16
1.0
 26
0.0
 36
0.0
 17
0.0
 27
1.0
 37
0.0
 76
0
330
1B
  0
LAYOUT
  5
22
100
AcDbPlotSettings
  1

  2
none_device
  4

  6

 40
0.0
 41
0.0
 42
0.0
 43
0.0
 44
0.0
 45
0.0
 46
0.0
 47
0.0
 48
0.0
 49
0.0
140
0.0
141
0.0
142
1.0
143
1.0
 70
1712
 72
0
 73
0
 74
0
  7

 75
0
147
1.0
148
0.0
149
0.0
100
AcDbLayout
  1
Model
 70
1
 71
0
 10
0.0
 20
0.0
 11
12.0
 21
9.0
 12
0.0
 22
0.0
 32
0.0
 14
0.0
 24
0.0
 34
0.0
 15
0.0
 25
0.0
 35
0.0
146
0.0
 13
0.0
 23
0.0
 33
0.0
 16
1.0
 26
0.0
 36
0.0
 17
0.0
 27
1.0
 37
0.0
 76
0
330
1F
  0
LAYOUT
  5
26
100
AcDbPlotSettings
  1

  2
none_device
  4

  6

 40
0.0
 41
0.0
 42
0.0
 43
0.0
 44
0.0
 45
0.0
 46
0.0
 47
0.0
 48
0.0
 49
0.0
140
0.0
141
0.0
142
1.0
143
1.0
 70
688
 72
0
 73
0
 74
5
  7

 75
16
147
1.0
148
0.0
149
0.0
100
AcDbLayout
  1
Layout2
 70
1
 71
2
 10
0.0
 20
0.0
 11
12.0
 21
9.0
 12
0.0
 22
0.0
 32
0.0
 14
0.0
 24
0.0
 34
0.0
 15
0.0
 25
0.0
 35
0.0
146
0.0
 13
0.0
 23
0.0
 33
0.0
 16
1.0
 26
0.0
 36
0.0
 17
0.0
 27
1.0
 37
0.0
 76
0
330
23
  0
DICTIONARY
  5
267
100
AcDbDictionary
281
1
  3
DIMASSOC
350
26A
  3
HIDETEXT
350
269
  0
DICTIONARYVAR
  5
269
100
DictionaryVariables
280
0
  1
2
  0
DICTIONARYVAR
  5
26A
100
DictionaryVariables
280
0
  1
1
  0
DICTIONARY
  5
268
100
AcDbDictionary
281
1
  3
ColorSettings/BackgroundColor
350
26B
  3
ColorSettings/ColorMode
350
26C
  3
Grid/DisplayGrid00
350
26D
  3
Grid/DisplayGrid01
350
26E
  3
Grid/DisplayGrid02
350
26F
  3
Grid/DisplayGrid03
350
270
  3
Grid/GridSpacingX00
350
271
  3
Grid/GridSpacingX01
350
272
  3
Grid/GridSpacingX02
350
273
  3
Grid/GridSpacingX03
350
274
  3
Grid/GridSpacingY00
350
275
  3
Grid/GridSpacingY01
350
276
  3
Grid/GridSpacingY02
350
277
  3
Grid/GridSpacingY03
350
278
  3
Grid/IsometricGrid00
350
279
  3
Grid/IsometricGrid01
350
27A
  3
Grid/IsometricGrid02
350
27B
  3
Grid/IsometricGrid03
350
27C
  3
Grid/IsometricProjection00
350
27D
  3
Grid/IsometricProjection01
350
27E
  3
Grid/IsometricProjection02
350
27F
  3
Grid/IsometricProjection03
350
280
  3
Grid/MetaGridSpacingX00
350
281
  3
Grid/MetaGridSpacingX01
350
282
  3
Grid/MetaGridSpacingX02
350
283
  3
Grid/MetaGridSpacingX03
350
284
  3
Grid/MetaGridSpacingY00
350
285
  3
Grid/MetaGridSpacingY01
350
286
  3
Grid/MetaGridSpacingY02
350
287
  3
Grid/MetaGridSpacingY03
350
288
  3
MultiPageSettings/Columns
350
289
  3
MultiPageSettings/GlueMarginsBottom
350
28A
  3
MultiPageSettings/GlueMarginsLeft
350
28B
  3
MultiPageSettings/GlueMarginsRight
350
28C
  3
MultiPageSettings/GlueMarginsTop
350
28D
  3
MultiPageSettings/PrintCropMarks
350
28E
  3
MultiPageSettings/Rows
350
28F
  3
PageSettings/OffsetX
350
290
  3
PageSettings/OffsetY
350
291
  3
PageSettings/PageOrientation
350
292
  3
PageSettings/PaperHeight
350
293
  3
PageSettings/PaperSizeName
350
294
  3
PageSettings/PaperWidth
350
295
  3
PageSettings/PointSize
350
296
  3
PageSettings/Scale
350
297
  3
PageSettings/ShowPaperBorders
350
298
  3
PageTagSettings/EnablePageTags
350
299
  3
PageTagSettings/TagAlignment
350
29A
  3
PageTagSettings/TagFont
350
29B
  3
PageTagSettings/TagPosition
350
29C
  3
QCADVersion
350
29D
  3
UnitSettings/PaperUnit
350
29E
  3
ViewportCenter
350
29F
  3
ViewportHeight
350
2A0
  3
ViewportWidth
350
2A1
  0
XRECORD
  5
26B
330
268
100
AcDbXrecord
280
1
1000
\U+767d
  0
XRECORD
  5
26C
330
268
100
AcDbXrecord
280
1
1000
FullColor
  0
XRECORD
  5
26D
330
268
100
AcDbXrecord
280
1
290
1
  0
XRECORD
  5
26E
330
268
100
AcDbXrecord
280
1
290
1
  0
XRECORD
  5
26F
330
268
100
AcDbXrecord
280
1
290
1
  0
XRECORD
  5
270
330
268
100
AcDbXrecord
280
1
290
1
  0
XRECORD
  5
271
330
268
100
AcDbXrecord
280
1
1000
\U+81ea\U+52d5
  0
XRECORD
  5
272
330
268
100
AcDbXrecord
280
1
1000
\U+81ea\U+52d5
  0
XRECORD
  5
273
330
268
100
AcDbXrecord
280
1
1000
\U+81ea\U+52d5
  0
XRECORD
  5
274
330
268
100
AcDbXrecord
280
1
1000
\U+81ea\U+52d5
  0
XRECORD
  5
275
330
268
100
AcDbXrecord
280
1
1000
\U+81ea\U+52d5
  0
XRECORD
  5
276
330
268
100
AcDbXrecord
280
1
1000
\U+81ea\U+52d5
  0
XRECORD
  5
277
330
268
100
AcDbXrecord
280
1
1000
\U+81ea\U+52d5
  0
XRECORD
  5
278
330
268
100
AcDbXrecord
280
1
1000
\U+81ea\U+52d5
  0
XRECORD
  5
279
330
268
100
AcDbXrecord
280
1
290
0
  0
XRECORD
  5
27A
330
268
100
AcDbXrecord
280
1
290
0
  0
XRECORD
  5
27B
330
268
100
AcDbXrecord
280
1
290
0
  0
XRECORD
  5
27C
330
268
100
AcDbXrecord
280
1
290
0
  0
XRECORD
  5
27D
330
268
100
AcDbXrecord
280
1
 90
65537
  0
XRECORD
  5
27E
330
268
100
AcDbXrecord
280
1
 90
65537
  0
XRECORD
  5
27F
330
268
100
AcDbXrecord
280
1
 90
65537
  0
XRECORD
  5
280
330
268
100
AcDbXrecord
280
1
 90
65537
  0
XRECORD
  5
281
330
268
100
AcDbXrecord
280
1
1000
\U+81ea\U+52d5
  0
XRECORD
  5
282
330
268
100
AcDbXrecord
280
1
1000
\U+81ea\U+52d5
  0
XRECORD
  5
283
330
268
100
AcDbXrecord
280
1
1000
\U+81ea\U+52d5
  0
XRECORD
  5
284
330
268
100
AcDbXrecord
280
1
1000
\U+81ea\U+52d5
  0
XRECORD
  5
285
330
268
100
AcDbXrecord
280
1
1000
\U+81ea\U+52d5
  0
XRECORD
  5
286
330
268
100
AcDbXrecord
280
1
1000
\U+81ea\U+52d5
  0
XRECORD
  5
287
330
268
100
AcDbXrecord
280
1
1000
\U+81ea\U+52d5
  0
XRECORD
  5
288
330
268
100
AcDbXrecord
280
1
1000
\U+81ea\U+52d5
  0
XRECORD
  5
289
330
268
100
AcDbXrecord
280
1
 90
1
  0
XRECORD
  5
28A
330
268
100
AcDbXrecord
280
1
 40
10.0
  0
XRECORD
  5
28B
330
268
100
AcDbXrecord
280
1
 40
10.0
  0
XRECORD
  5
28C
330
268
100
AcDbXrecord
280
1
 40
10.0
  0
XRECORD
  5
28D
330
268
100
AcDbXrecord
280
1
 40
10.0
  0
XRECORD
  5
28E
330
268
100
AcDbXrecord
280
1
290
0
  0
XRECORD
  5
28F
330
268
100
AcDbXrecord
280
1
 90
1
  0
XRECORD
  5
290
330
268
100
AcDbXrecord
280
1
 40
0.0
  0
XRECORD
  5
291
330
268
100
AcDbXrecord
280
1
 40
0.0
  0
XRECORD
  5
292
330
268
100
AcDbXrecord
280
1
1000
Landscape
  0
XRECORD
  5
293
330
268
100
AcDbXrecord
280
1
1000
594
  0
XRECORD
  5
294
330
268
100
AcDbXrecord
280
1
1000
ISO A2
  0
XRECORD
  5
295
330
268
100
AcDbXrecord
280
1
1000
420
  0
XRECORD
  5
296
330
268
100
AcDbXrecord
280
1
1000
0.5
  0
XRECORD
  5
297
330
268
100
AcDbXrecord
280
1
1000
1:1
  0
XRECORD
  5
298
330
268
100
AcDbXrecord
280
1
290
1
  0
XRECORD
  5
299
330
268
100
AcDbXrecord
280
1
290
0
  0
XRECORD
  5
29A
330
268
100
AcDbXrecord
280
1
1000
Inside
  0
XRECORD
  5
29B
330
268
100
AcDbXrecord
280
1
1000
Arial,10,-1,5,50,0,0,0,0,0
  0
XRECORD
  5
29C
330
268
100
AcDbXrecord
280
1
1000
TopLeft
  0
XRECORD
  5
29D
330
268
100
AcDbXrecord
280
1
1000
3.27.1
  0
XRECORD
  5
29E
330
268
100
AcDbXrecord
280
1
 90
4
  0
XRECORD
  5
2A0
330
268
100
AcDbXrecord
280
1
 40
161.1572071844511242
  0
XRECORD
  5
2A1
330
268
100
AcDbXrecord
280
1
 40
331.6081428813798766
  0
ENDSEC
  0
EOF
