999
dxflib 3.26.4.0
  0
SECTION
  2
HEADER
  9
$ACADVER
  1
AC1015
  9
$HANDSEED
  5
FFFF
  9
$DIMADEC
 70
0
  9
$DIMASZ
 40
2.5
  9
$DIMATFIT
 70
0
  9
$DIMAUNIT
 70
0
  9
$DIMAZIN
 70
2
  9
$DIMBLK
  1
0
  9
$DIMBLK1
  1
0
  9
$DIMBLK2
  1
0
  9
$DIMDEC
 70
4
  9
$DIMDLI
 40
5.0
  9
$DIMDSEP
 70
46
  9
$DIMEXE
 40
1.25
  9
$DIMEXO
 40
0.625
  9
$DIMGAP
 40
0.625
  9
$DIMLFAC
 40
0.0
  9
$DIMLUNIT
 70
2
  9
$DIMSCALE
 40
1.0
  9
$DIMTAD
 70
1
  9
$DIMTIH
 70
0
  9
$DIMTSZ
 40
0.0
  9
$DIMTXT
 40
2.5
  9
$DIMZIN
 70
8
  9
$DWGCODEPAGE
  3
ANSI_1252
  9
$INSUNITS
 70
4
  9
$LTSCALE
 40
1.0
  9
$MAXACTVP
 70
64
  9
$MEASUREMENT
 70
1
  9
$MIRRTEXT
 70
0
  9
$PDMODE
 70
0
  9
$PDSIZE
 40
0.0
  0
ENDSEC
  0
SECTION
  2
TABLES
  0
TABLE
  2
VPORT
  5
8
100
AcDbSymbolTable
 70
1
  0
VPORT
  5
30
100
AcDbSymbolTableRecord
100
AcDbViewportTableRecord
  2
*Active
 70
0
 10
0.0
 20
0.0
 11
1.0
 21
1.0
 12
286.3055555555554861
 22
148.5
 13
0.0
 23
0.0
 14
10.0
 24
10.0
 15
10.0
 25
10.0
 16
0.0
 26
0.0
 36
1.0
 17
0.0
 27
0.0
 37
0.0
 40
297.0
 41
1.92798353909465
 42
50.0
 43
0.0
 44
0.0
 50
0.0
 51
0.0
 71
0
 72
100
 73
1
 74
3
 75
1
 76
1
 77
0
 78
0
281
0
 65
1
110
0.0
120
0.0
130
0.0
111
1.0
121
0.0
131
0.0
112
0.0
122
1.0
132
0.0
 79
0
146
0.0
  0
ENDTAB
  0
TABLE
  2
LTYPE
  5
5
100
AcDbSymbolTable
 70
41
  0
LTYPE
  5
16
100
AcDbSymbolTableRecord
100
AcDbLinetypeTableRecord
  2
Continuous
 70
0
  3
Solid line
 72
65
 73
0
 40
0.0
  0
LTYPE
  5
31
100
AcDbSymbolTableRecord
100
AcDbLinetypeTableRecord
  2
ACAD_ISO12W100
 70
0
  3
ISO dash double-dot __ . . __ . . __ . . __ . . 
 72
65
 73
6
 40
21.0
 49
12.0
 74
0
 49
-2.9500000000000002
 74
0
 49
0.1
 74
0
 49
-2.9000000000000004
 74
0
 49
0.1
 74
0
 49
-2.9500000000000002
 74
0
  0
LTYPE
  5
32
100
AcDbSymbolTableRecord
100
AcDbLinetypeTableRecord
  2
HIDDEN2
 70
0
  3
Hidden (.5x) _ _ _ _ _ _ _ _ _ _ _ _ _ _ _ _ _ 
 72
65
 73
2
 40
4.7624999999999993
 49
3.1749999999999998
 74
0
 49
-1.5874999999999999
 74
0
  0
LTYPE
  5
33
100
AcDbSymbolTableRecord
100
AcDbLinetypeTableRecord
  2
ACAD_ISO05W100
 70
0
  3
ISO long-dash double-dot ____ .. ____ .. ____ . 
 72
65
 73
6
 40
33.0000000000000071
 49
24.0
 74
0
 49
-2.9500000000000002
 74
0
 49
0.1
 74
0
 49
-2.9000000000000004
 74
0
 49
0.1
 74
0
 49
-2.9500000000000002
 74
0
  0
LTYPE
  5
34
100
AcDbSymbolTableRecord
100
AcDbLinetypeTableRecord
  2
ACAD_ISO07W100
 70
0
  3
ISO dot . . . . . . . . . . . . . . . . . . . . 
 72
65
 73
2
 40
3.0
 49
0.1
 74
0
 49
-2.8999999999999999
 74
0
  0
LTYPE
  5
35
100
AcDbSymbolTableRecord
100
AcDbLinetypeTableRecord
  2
DIVIDE
 70
0
  3
Divide ____ . . ____ . . ____ . . ____ . . ____
 72
65
 73
6
 40
31.7500000000000036
 49
12.6999999999999993
 74
0
 49
-6.2999999999999998
 74
0
 49
0.1
 74
0
 49
-6.25
 74
0
 49
0.1
 74
0
 49
-6.2999999999999998
 74
0
  0
LTYPE
  5
36
100
AcDbSymbolTableRecord
100
AcDbLinetypeTableRecord
  2
DOT
 70
0
  3
Dot . . . . . . . . . . . . . . . . . . . . . . . .
 72
65
 73
2
 40
6.3499999999999996
 49
0.1
 74
0
 49
-6.25
 74
0
  0
LTYPE
  5
37
100
AcDbSymbolTableRecord
100
AcDbLinetypeTableRecord
  2
CENTERX2
 70
0
  3
Center (2x) ________  __  ________  __  _____
 72
65
 73
4
 40
101.6000000000000085
 49
63.5
 74
0
 49
-12.6999999999999993
 74
0
 49
12.6999999999999993
 74
0
 49
-12.6999999999999993
 74
0
  0
LTYPE
  5
38
100
AcDbSymbolTableRecord
100
AcDbLinetypeTableRecord
  2
DASHDOTX2
 70
0
  3
Dash dot (2x) ____  .  ____  .  ____  .  ___
 72
65
 73
4
 40
50.7999999999999972
 49
25.3999999999999986
 74
0
 49
-12.6499999999999986
 74
0
 49
0.1
 74
0
 49
-12.6499999999999986
 74
0
  0
LTYPE
  5
39
100
AcDbSymbolTableRecord
100
AcDbLinetypeTableRecord
  2
DOTX2
 70
0
  3
Dot (2x) .  .  .  .  .  .  .  .  .  .  .  .  .  .
 72
65
 73
2
 40
12.6999999999999993
 49
0.1
 74
0
 49
-12.5999999999999996
 74
0
  0
LTYPE
  5
3A
100
AcDbSymbolTableRecord
100
AcDbLinetypeTableRecord
  2
ACAD_ISO10W100
 70
0
  3
ISO dash dot __ . __ . __ . __ . __ . __ . __ . 
 72
65
 73
4
 40
18.0
 49
12.0
 74
0
 49
-2.9500000000000002
 74
0
 49
0.1
 74
0
 49
-2.9500000000000002
 74
0
  0
LTYPE
  5
3B
100
AcDbSymbolTableRecord
100
AcDbLinetypeTableRecord
  2
ACAD_ISO13W100
 70
0
  3
ISO double-dash double-dot __ __ . . __ __ . . _
 72
65
 73
8
 40
36.0000000000000071
 49
12.0
 74
0
 49
-3.0
 74
0
 49
12.0
 74
0
 49
-2.9500000000000002
 74
0
 49
0.1
 74
0
 49
-2.9000000000000004
 74
0
 49
0.1
 74
0
 49
-2.9500000000000002
 74
0
  0
LTYPE
  5
3C
100
AcDbSymbolTableRecord
100
AcDbLinetypeTableRecord
  2
ACAD_ISO08W100
 70
0
  3
ISO long-dash short-dash ____ __ ____ __ ____ _
 72
65
 73
4
 40
36.0
 49
24.0
 74
0
 49
-3.0
 74
0
 49
6.0
 74
0
 49
-3.0
 74
0
  0
LTYPE
  5
3D
100
AcDbSymbolTableRecord
100
AcDbLinetypeTableRecord
  2
CENTER
 70
0
  3
Center ____ _ ____ _ ____ _ ____ _ ____ _ ____
 72
65
 73
4
 40
50.8000000000000043
 49
31.75
 74
0
 49
-6.3499999999999996
 74
0
 49
6.3499999999999996
 74
0
 49
-6.3499999999999996
 74
0
  0
LTYPE
  5
3E
100
AcDbSymbolTableRecord
100
AcDbLinetypeTableRecord
  2
DASHED2
 70
0
  3
Dashed (.5x) _ _ _ _ _ _ _ _ _ _ _ _ _ _ _ _ _ 
 72
65
 73
2
 40
9.5249999999999986
 49
6.3499999999999996
 74
0
 49
-3.1749999999999998
 74
0
  0
LTYPE
  5
3F
100
AcDbSymbolTableRecord
100
AcDbLinetypeTableRecord
  2
ACAD_ISO04W100
 70
0
  3
ISO long-dash dot ____ . ____ . ____ . ____ . _
 72
65
 73
4
 40
30.0
 49
24.0
 74
0
 49
-2.9500000000000002
 74
0
 49
0.1
 74
0
 49
-2.9500000000000002
 74
0
  0
LTYPE
  5
40
100
AcDbSymbolTableRecord
100
AcDbLinetypeTableRecord
  2
BORDER
 70
0
  3
Border __ __ . __ __ . __ __ . __ __ . __ __ .
 72
65
 73
6
 40
44.4499999999999957
 49
12.6999999999999993
 74
0
 49
-6.3499999999999996
 74
0
 49
12.6999999999999993
 74
0
 49
-6.2999999999999998
 74
0
 49
0.1
 74
0
 49
-6.2999999999999998
 74
0
  0
LTYPE
  5
41
100
AcDbSymbolTableRecord
100
AcDbLinetypeTableRecord
  2
HIDDEN
 70
0
  3
Hidden __ __ __ __ __ __ __ __ __ __ __ __ __ __
 72
65
 73
2
 40
9.5249999999999986
 49
6.3499999999999996
 74
0
 49
-3.1749999999999998
 74
0
  0
LTYPE
  5
15
100
AcDbSymbolTableRecord
100
AcDbLinetypeTableRecord
  2
BYLAYER
 70
0
  3

 72
65
 73
0
 40
0.0
  0
LTYPE
  5
42
100
AcDbSymbolTableRecord
100
AcDbLinetypeTableRecord
  2
PHANTOM
 70
0
  3
Phantom ______  __  __  ______  __  __  ______ 
 72
65
 73
6
 40
63.5000000000000071
 49
31.75
 74
0
 49
-6.3499999999999996
 74
0
 49
6.3499999999999996
 74
0
 49
-6.3499999999999996
 74
0
 49
6.3499999999999996
 74
0
 49
-6.3499999999999996
 74
0
  0
LTYPE
  5
43
100
AcDbSymbolTableRecord
100
AcDbLinetypeTableRecord
  2
DASHDOT2
 70
0
  3
Dash dot (.5x) _._._._._._._._._._._._._._._.
 72
65
 73
4
 40
12.6999999999999993
 49
6.3499999999999996
 74
0
 49
-3.125
 74
0
 49
0.1
 74
0
 49
-3.125
 74
0
  0
LTYPE
  5
44
100
AcDbSymbolTableRecord
100
AcDbLinetypeTableRecord
  2
ACAD_ISO14W100
 70
0
  3
ISO dash triple-dot __ . . . __ . . . __ . . . _
 72
65
 73
8
 40
24.0000000000000036
 49
12.0
 74
0
 49
-2.9500000000000002
 74
0
 49
0.1
 74
0
 49
-2.9000000000000004
 74
0
 49
0.1
 74
0
 49
-2.9000000000000004
 74
0
 49
0.1
 74
0
 49
-2.9500000000000002
 74
0
  0
LTYPE
  5
45
100
AcDbSymbolTableRecord
100
AcDbLinetypeTableRecord
  2
DIVIDEX2
 70
0
  3
Divide (2x) ________  .  .  ________  .  .  _
 72
65
 73
6
 40
63.5
 49
25.3999999999999986
 74
0
 49
-12.6499999999999986
 74
0
 49
0.1
 74
0
 49
-12.5999999999999979
 74
0
 49
0.1
 74
0
 49
-12.6499999999999986
 74
0
  0
LTYPE
  5
46
100
AcDbSymbolTableRecord
100
AcDbLinetypeTableRecord
  2
DOT2
 70
0
  3
Dot (.5x) ........................................
 72
65
 73
2
 40
3.1749999999999998
 49
0.1
 74
0
 49
-3.0749999999999997
 74
0
  0
LTYPE
  5
47
100
AcDbSymbolTableRecord
100
AcDbLinetypeTableRecord
  2
DASHED
 70
0
  3
Dashed __ __ __ __ __ __ __ __ __ __ __ __ __ _
 72
65
 73
2
 40
19.0499999999999972
 49
12.6999999999999993
 74
0
 49
-6.3499999999999996
 74
0
  0
LTYPE
  5
48
100
AcDbSymbolTableRecord
100
AcDbLinetypeTableRecord
  2
PHANTOM2
 70
0
  3
Phantom (.5x) ___ _ _ ___ _ _ ___ _ _ ___ _ _
 72
65
 73
6
 40
31.7500000000000036
 49
15.875
 74
0
 49
-3.1749999999999998
 74
0
 49
3.1749999999999998
 74
0
 49
-3.1749999999999998
 74
0
 49
3.1749999999999998
 74
0
 49
-3.1749999999999998
 74
0
  0
LTYPE
  5
49
100
AcDbSymbolTableRecord
100
AcDbLinetypeTableRecord
  2
ACAD_ISO06W100
 70
0
  3
ISO long-dash triple-dot ____ ... ____ ... ____
 72
65
 73
8
 40
36.0000000000000071
 49
24.0
 74
0
 49
-2.9500000000000002
 74
0
 49
0.1
 74
0
 49
-2.9000000000000004
 74
0
 49
0.1
 74
0
 49
-2.9000000000000004
 74
0
 49
0.1
 74
0
 49
-2.9500000000000002
 74
0
  0
LTYPE
  5
4A
100
AcDbSymbolTableRecord
100
AcDbLinetypeTableRecord
  2
PHANTOMX2
 70
0
  3
Phantom (2x) ____________    ____    ____   _
 72
65
 73
6
 40
127.0000000000000142
 49
63.5
 74
0
 49
-12.6999999999999993
 74
0
 49
12.6999999999999993
 74
0
 49
-12.6999999999999993
 74
0
 49
12.6999999999999993
 74
0
 49
-12.6999999999999993
 74
0
  0
LTYPE
  5
4B
100
AcDbSymbolTableRecord
100
AcDbLinetypeTableRecord
  2
HIDDENX2
 70
0
  3
Hidden (2x) ____ ____ ____ ____ ____ ____ ____ 
 72
65
 73
2
 40
19.0499999999999972
 49
12.6999999999999993
 74
0
 49
-6.3499999999999996
 74
0
  0
LTYPE
  5
4C
100
AcDbSymbolTableRecord
100
AcDbLinetypeTableRecord
  2
BORDERX2
 70
0
  3
Border (2x) ____  ____  .  ____  ____  .  ___
 72
65
 73
6
 40
88.8999999999999773
 49
25.3999999999999986
 74
0
 49
-12.6999999999999993
 74
0
 49
25.3999999999999986
 74
0
 49
-12.6499999999999986
 74
0
 49
0.1
 74
0
 49
-12.6499999999999986
 74
0
  0
LTYPE
  5
4D
100
AcDbSymbolTableRecord
100
AcDbLinetypeTableRecord
  2
ACAD_ISO02W100
 70
0
  3
ISO dash __ __ __ __ __ __ __ __ __ __ __ __ __
 72
65
 73
2
 40
15.0
 49
12.0
 74
0
 49
-3.0
 74
0
  0
LTYPE
  5
4E
100
AcDbSymbolTableRecord
100
AcDbLinetypeTableRecord
  2
ACAD_ISO03W100
 70
0
  3
ISO dash space __    __    __    __    __    __
 72
65
 73
2
 40
30.0
 49
12.0
 74
0
 49
-18.0
 74
0
  0
LTYPE
  5
4F
100
AcDbSymbolTableRecord
100
AcDbLinetypeTableRecord
  2
DASHDOT
 70
0
  3
Dash dot __ . __ . __ . __ . __ . __ . __ . __
 72
65
 73
4
 40
25.4000000000000021
 49
12.6999999999999993
 74
0
 49
-6.2999999999999998
 74
0
 49
0.1
 74
0
 49
-6.2999999999999998
 74
0
  0
LTYPE
  5
50
100
AcDbSymbolTableRecord
100
AcDbLinetypeTableRecord
  2
ACAD_ISO09W100
 70
0
  3
ISO long-dash double-short-dash ____ __ __ ____
 72
65
 73
6
 40
45.0
 49
24.0
 74
0
 49
-3.0
 74
0
 49
6.0
 74
0
 49
-3.0
 74
0
 49
6.0
 74
0
 49
-3.0
 74
0
  0
LTYPE
  5
14
100
AcDbSymbolTableRecord
100
AcDbLinetypeTableRecord
  2
BYBLOCK
 70
0
  3

 72
65
 73
0
 40
0.0
  0
LTYPE
  5
51
100
AcDbSymbolTableRecord
100
AcDbLinetypeTableRecord
  2
CENTER2
 70
0
  3
Center (.5x) ___ _ ___ _ ___ _ ___ _ ___ _ ___
 72
65
 73
4
 40
28.5750000000000028
 49
19.0500000000000007
 74
0
 49
-3.1749999999999998
 74
0
 49
3.1749999999999998
 74
0
 49
-3.1749999999999998
 74
0
  0
LTYPE
  5
52
100
AcDbSymbolTableRecord
100
AcDbLinetypeTableRecord
  2
ACAD_ISO11W100
 70
0
  3
ISO double-dash dot __ __ . __ __ . __ __ . __ _
 72
65
 73
6
 40
33.0
 49
12.0
 74
0
 49
-3.0
 74
0
 49
12.0
 74
0
 49
-2.9500000000000002
 74
0
 49
0.1
 74
0
 49
-2.9500000000000002
 74
0
  0
LTYPE
  5
53
100
AcDbSymbolTableRecord
100
AcDbLinetypeTableRecord
  2
DIVIDE2
 70
0
  3
Divide (.5x) __..__..__..__..__..__..__..__.._
 72
65
 73
6
 40
15.8749999999999982
 49
6.3499999999999996
 74
0
 49
-3.125
 74
0
 49
0.1
 74
0
 49
-3.0750000000000002
 74
0
 49
0.1
 74
0
 49
-3.125
 74
0
  0
LTYPE
  5
54
100
AcDbSymbolTableRecord
100
AcDbLinetypeTableRecord
  2
BORDER2
 70
0
  3
Border (.5x) __.__.__.__.__.__.__.__.__.__.__.
 72
65
 73
6
 40
22.2250000000000014
 49
6.3499999999999996
 74
0
 49
-3.1749999999999998
 74
0
 49
6.3499999999999996
 74
0
 49
-3.125
 74
0
 49
0.1
 74
0
 49
-3.125
 74
0
  0
LTYPE
  5
55
100
AcDbSymbolTableRecord
100
AcDbLinetypeTableRecord
  2
ACAD_ISO15W100
 70
0
  3
ISO double-dash triple-dot __ __ . . . __ __ . .
 72
65
 73
10
 40
39.0000000000000071
 49
12.0
 74
0
 49
-3.0
 74
0
 49
12.0
 74
0
 49
-2.9500000000000002
 74
0
 49
0.1
 74
0
 49
-2.9000000000000004
 74
0
 49
0.1
 74
0
 49
-2.9000000000000004
 74
0
 49
0.1
 74
0
 49
-2.9500000000000002
 74
0
  0
LTYPE
  5
56
100
AcDbSymbolTableRecord
100
AcDbLinetypeTableRecord
  2
DASHEDX2
 70
0
  3
Dashed (2x) ____  ____  ____  ____  ____  ___
 72
65
 73
2
 40
38.0999999999999943
 49
25.3999999999999986
 74
0
 49
-12.6999999999999993
 74
0
  0
ENDTAB
  0
TABLE
  2
LAYER
  5
2
100
AcDbSymbolTable
 70
6
  0
LAYER
  5
57
100
AcDbSymbolTableRecord
100
AcDbLayerTableRecord
  2
dimensions
 70
0
 62
161
420
5614335
  6
Continuous
370
13
390
F
  0
LAYER
  5
58
100
AcDbSymbolTableRecord
100
AcDbLayerTableRecord
  2
requests
 70
0
 62
7
420
0
  6
Continuous
370
13
390
F
  0
LAYER
  5
59
100
AcDbSymbolTableRecord
100
AcDbLayerTableRecord
  2
private_parts
 70
1
 62
54
420
8421376
  6
Continuous
370
25
390
F
  0
LAYER
  5
10
100
AcDbSymbolTableRecord
100
AcDbLayerTableRecord
  2
0
 70
0
 62
7
420
0
  6
Continuous
370
25
390
F
  0
LAYER
  5
5A
100
AcDbSymbolTableRecord
100
AcDbLayerTableRecord
  2
auxiliary
 70
0
 62
7
420
0
  6
DASHDOT2
370
13
390
F
  0
LAYER
  5
5B
100
AcDbSymbolTableRecord
100
AcDbLayerTableRecord
  2
private_pcb
 70
1
 62
134
420
32896
  6
Continuous
370
25
390
F
  0
ENDTAB
  0
TABLE
  2
STYLE
  5
3
100
AcDbSymbolTable
 70
10
  0
STYLE
  5
5C
100
AcDbSymbolTableRecord
100
AcDbTextStyleTableRecord
  2
Standard
 70
0
 40
0.0
 41
1.0
 50
0.0
 71
0
 42
2.5
  3

  4

1001
ACAD
1000
txt
1071
0
  0
STYLE
  5
5D
100
AcDbSymbolTableRecord
100
AcDbTextStyleTableRecord
  2
textstyle0
 70
0
 40
0.0
 41
1.0
 50
0.0
 71
0
 42
4.0
  3

  4

1001
ACAD
1000
BIZ UDP\U+30b4\U+30b7\U+30c3\U+30af
1071
0
  0
STYLE
  5
5E
100
AcDbSymbolTableRecord
100
AcDbTextStyleTableRecord
  2
textstyle1
 70
0
 40
0.0
 41
1.0
 50
0.0
 71
0
 42
5.0
  3

  4

1001
ACAD
1000
BIZ UDP\U+30b4\U+30b7\U+30c3\U+30af
1071
0
  0
STYLE
  5
5F
100
AcDbSymbolTableRecord
100
AcDbTextStyleTableRecord
  2
textstyle2
 70
0
 40
0.0
 41
1.0
 50
0.0
 71
0
 42
4.0
  3

  4

1001
ACAD
1000
BIZ UDP\U+30b4\U+30b7\U+30c3\U+30af
1071
0
  0
STYLE
  5
60
100
AcDbSymbolTableRecord
100
AcDbTextStyleTableRecord
  2
textstyle3
 70
0
 40
0.0
 41
1.0
 50
0.0
 71
0
 42
3.0
  3

  4

1001
ACAD
1000
BIZ UDP\U+30b4\U+30b7\U+30c3\U+30af
1071
0
  0
STYLE
  5
61
100
AcDbSymbolTableRecord
100
AcDbTextStyleTableRecord
  2
textstyle4
 70
0
 40
0.0
 41
1.0
 50
0.0
 71
0
 42
3.0
  3

  4

1001
ACAD
1000
BIZ UDP\U+30b4\U+30b7\U+30c3\U+30af
1071
0
  0
STYLE
  5
62
100
AcDbSymbolTableRecord
100
AcDbTextStyleTableRecord
  2
textstyle5
 70
0
 40
0.0
 41
1.0
 50
0.0
 71
0
 42
4.0
  3

  4

1001
ACAD
1000
BIZ UDP\U+30b4\U+30b7\U+30c3\U+30af
1071
0
  0
STYLE
  5
63
100
AcDbSymbolTableRecord
100
AcDbTextStyleTableRecord
  2
textstyle6
 70
0
 40
0.0
 41
1.0
 50
0.0
 71
0
 42
3.0
  3

  4

1001
ACAD
1000
BIZ UDP\U+30b4\U+30b7\U+30c3\U+30af
1071
0
  0
STYLE
  5
64
100
AcDbSymbolTableRecord
100
AcDbTextStyleTableRecord
  2
textstyle7
 70
0
 40
0.0
 41
1.0
 50
0.0
 71
0
 42
3.0
  3

  4

1001
ACAD
1000
BIZ UDP\U+30b4\U+30b7\U+30c3\U+30af
1071
0
  0
STYLE
  5
65
100
AcDbSymbolTableRecord
100
AcDbTextStyleTableRecord
  2
textstyle8
 70
0
 40
0.0
 41
1.0
 50
0.0
 71
0
 42
3.0
  3

  4

1001
ACAD
1000
BIZ UDP\U+30b4\U+30b7\U+30c3\U+30af
1071
0
  0
ENDTAB
  0
TABLE
  2
VIEW
  5
6
100
AcDbSymbolTable
 70
0
  0
ENDTAB
  0
TABLE
  2
UCS
  5
7
100
AcDbSymbolTable
 70
0
  0
ENDTAB
  0
TABLE
  2
APPID
  5
9
100
AcDbSymbolTable
 70
1
  0
APPID
  5
12
100
AcDbSymbolTableRecord
100
AcDbRegAppTableRecord
  2
ACAD
 70
0
  0
APPID
  5
66
100
AcDbSymbolTableRecord
100
AcDbRegAppTableRecord
  2
QCAD
 70
0
  0
ENDTAB
  0
TABLE
  2
DIMSTYLE
  5
A
100
AcDbSymbolTable
 70
1
100
AcDbDimStyleTable
 71
0
  0
DIMSTYLE
105
27
100
AcDbSymbolTableRecord
100
AcDbDimStyleTableRecord
  2
Standard
 41
2.5
 42
0.625
 43
3.75
 44
1.25
 70
0
 73
0
 74
0
 77
1
 78
8
140
2.5
141
2.5
143
0.03937007874016
147
0.625
171
3
172
1
271
2
272
2
274
3
278
44
283
0
284
8
340
5C
  0
ENDTAB
  0
TABLE
  2
BLOCK_RECORD
  5
1
100
AcDbSymbolTable
 70
1
  0
BLOCK_RECORD
  5
1F
100
AcDbSymbolTableRecord
100
AcDbBlockTableRecord
  2
*Model_Space
340
22
  0
BLOCK_RECORD
  5
1B
100
AcDbSymbolTableRecord
100
AcDbBlockTableRecord
  2
*Paper_Space
340
1E
  0
BLOCK_RECORD
  5
23
100
AcDbSymbolTableRecord
100
AcDbBlockTableRecord
  2
*Paper_Space0
340
26
  0
ENDTAB
  0
ENDSEC
  0
SECTION
  2
BLOCKS
  0
BLOCK
  5
20
100
AcDbEntity
  8
0
100
AcDbBlockBegin
  2
*Model_Space
 70
0
 10
0.0
 20
0.0
 30
0.0
  3
*Model_Space
  1

  0
ENDBLK
  5
21
100
AcDbEntity
  8
0
100
AcDbBlockEnd
  0
BLOCK
  5
1C
100
AcDbEntity
 67
1
  8
0
100
AcDbBlockBegin
  2
*Paper_Space
 70
0
 10
0.0
 20
0.0
 30
0.0
  3
*Paper_Space
  1

  0
ENDBLK
  5
1D
100
AcDbEntity
 67
1
  8
0
100
AcDbBlockEnd
  0
BLOCK
  5
24
100
AcDbEntity
  8
0
100
AcDbBlockBegin
  2
*Paper_Space0
 70
0
 10
0.0
 20
0.0
 30
0.0
  3
*Paper_Space0
  1

  0
ENDBLK
  5
25
100
AcDbEntity
  8
0
100
AcDbBlockEnd
  0
ENDSEC
  0
SECTION
  2
ENTITIES
  0
LINE
  5
67
100
AcDbEntity
  8
auxiliary
 62
256
370
-1
 48
1.0
  6
BYLAYER
100
AcDbLine
 10
32.0000000000000142
 20
78.0000000000000142
 30
0.0
 11
32.0000000000000142
 21
122.0000000000000142
 31
0.0
  0
LINE
  5
68
100
AcDbEntity
  8
auxiliary
 62
256
370
-1
 48
1.0
  6
BYLAYER
100
AcDbLine
 10
43.0000000000000142
 20
122.0000000000000142
 30
0.0
 11
43.0000000000000142
 21
78.0000000000000142
 31
0.0
  0
LINE
  5
69
100
AcDbEntity
  8
auxiliary
 62
256
370
-1
 48
1.0
  6
BYLAYER
100
AcDbLine
 10
67.0000000000000142
 20
122.0000000000000142
 30
0.0
 11
67.0000000000000142
 21
78.0000000000000142
 31
0.0
  0
LINE
  5
6A
100
AcDbEntity
  8
auxiliary
 62
256
370
-1
 48
1.0
  6
BYLAYER
100
AcDbLine
 10
81.0000000000000142
 20
78.0000000000000142
 30
0.0
 11
81.0000000000000142
 21
122.0000000000000142
 31
0.0
  0
LINE
  5
6B
100
AcDbEntity
  8
auxiliary
 62
256
370
-1
 48
1.0
  6
BYLAYER
100
AcDbLine
 10
89.0000000000000142
 20
122.0000000000000142
 30
0.0
 11
89.0000000000000142
 21
78.0000000000000142
 31
0.0
  0
LINE
  5
6C
100
AcDbEntity
  8
auxiliary
 62
256
370
-1
 48
1.0
  6
BYLAYER
100
AcDbLine
 10
99.0000000000000142
 20
122.0000000000000142
 30
0.0
 11
99.0000000000000142
 21
78.0000000000000142
 31
0.0
  0
LINE
  5
6D
100
AcDbEntity
  8
auxiliary
 62
256
370
-1
 48
1.0
  6
BYLAYER
100
AcDbLine
 10
104.0000000000000142
 20
122.0000000000000142
 30
0.0
 11
104.0000000000000142
 21
78.0000000000000142
 31
0.0
  0
LINE
  5
6E
100
AcDbEntity
  8
auxiliary
 62
256
370
-1
 48
1.0
  6
BYLAYER
100
AcDbLine
 10
110.0000000000000142
 20
122.0000000000000284
 30
0.0
 11
110.0000000000000142
 21
78.0000000000000142
 31
0.0
  0
LINE
  5
6F
100
AcDbEntity
  8
auxiliary
 62
256
370
-1
 48
1.0
  6
BYLAYER
100
AcDbLine
 10
121.0000000000000142
 20
122.0000000000000142
 30
0.0
 11
121.0000000000000142
 21
78.0000000000000142
 31
0.0
  0
LINE
  5
70
100
AcDbEntity
  8
auxiliary
 62
256
370
-1
 48
1.0
  6
BYLAYER
100
AcDbLine
 10
145.0
 20
122.0000000000000142
 30
0.0
 11
145.0
 21
78.0000000000000142
 31
0.0
  0
LINE
  5
71
100
AcDbEntity
  8
auxiliary
 62
256
370
-1
 48
1.0
  6
BYLAYER
100
AcDbLine
 10
159.0
 20
122.0000000000000142
 30
0.0
 11
159.0
 21
78.0000000000000142
 31
0.0
  0
LINE
  5
72
100
AcDbEntity
  8
auxiliary
 62
256
370
-1
 48
1.0
  6
BYLAYER
100
AcDbLine
 10
167.0
 20
122.0000000000000142
 30
0.0
 11
167.0
 21
78.0000000000000142
 31
0.0
  0
LINE
  5
73
100
AcDbEntity
  8
auxiliary
 62
256
370
-1
 48
1.0
  6
BYLAYER
100
AcDbLine
 10
177.0
 20
122.0000000000000142
 30
0.0
 11
177.0
 21
78.0000000000000142
 31
0.0
  0
LINE
  5
74
100
AcDbEntity
  8
auxiliary
 62
256
370
-1
 48
1.0
  6
BYLAYER
100
AcDbLine
 10
182.0
 20
122.0000000000000142
 30
0.0
 11
182.0
 21
78.0000000000000142
 31
0.0
  0
LINE
  5
75
100
AcDbEntity
  8
auxiliary
 62
256
370
-1
 48
1.0
  6
BYLAYER
100
AcDbLine
 10
188.0
 20
78.0000000000000142
 30
0.0
 11
188.0
 21
122.0000000000000142
 31
0.0
  0
LINE
  5
76
100
AcDbEntity
  8
auxiliary
 62
256
370
-1
 48
1.0
  6
BYLAYER
100
AcDbLine
 10
216.0
 20
122.0000000000000142
 30
0.0
 11
216.0
 21
78.0000000000000142
 31
0.0
  0
LINE
  5
77
100
AcDbEntity
  8
auxiliary
 62
256
370
-1
 48
1.0
  6
BYLAYER
100
AcDbLine
 10
20.0000000000000142
 20
91.0000000000000142
 30
0.0
 11
235.0
 21
91.0000000000000142
 31
0.0
  0
LINE
  5
78
100
AcDbEntity
  8
auxiliary
 62
256
370
-1
 48
1.0
  6
BYLAYER
100
AcDbLine
 10
20.0000000000000142
 20
100.0000000000000142
 30
0.0
 11
235.0
 21
100.0000000000000142
 31
0.0
  0
LINE
  5
79
100
AcDbEntity
  8
auxiliary
 62
256
370
-1
 48
1.0
  6
BYLAYER
100
AcDbLine
 10
20.0000000000000142
 20
109.0000000000000142
 30
0.0
 11
235.0
 21
109.0000000000000142
 31
0.0
  0
CIRCLE
  5
7A
100
AcDbEntity
  8
0
 62
256
370
-1
 48
1.0
  6
BYLAYER
100
AcDbCircle
 10
43.0000000000000142
 20
94.5000000000000142
 30
0.0
 40
8.0
  0
CIRCLE
  5
7B
100
AcDbEntity
  8
0
 62
256
370
-1
 48
1.0
  6
BYLAYER
100
AcDbCircle
 10
121.0000000000000142
 20
94.5000000000000142
 30
0.0
 40
8.0
  0
CIRCLE
  5
7C
100
AcDbEntity
  8
0
 62
256
370
-1
 48
1.0
  6
BYLAYER
100
AcDbCircle
 10
74.0000000000000142
 20
111.0000000000000142
 30
0.0
 40
1.6000000000000001
  0
CIRCLE
  5
7D
100
AcDbEntity
  8
0
 62
256
370
-1
 48
1.0
  6
BYLAYER
100
AcDbCircle
 10
152.0
 20
111.0000000000000142
 30
0.0
 40
1.6000000000000001
  0
CIRCLE
  5
7E
100
AcDbEntity
  8
0
 62
256
370
-1
 48
1.0
  6
BYLAYER
100
AcDbCircle
 10
70.0000000000000142
 20
111.0000000000000142
 30
0.0
 40
1.6000000000000001
  0
CIRCLE
  5
7F
100
AcDbEntity
  8
0
 62
256
370
-1
 48
1.0
  6
BYLAYER
100
AcDbCircle
 10
148.0
 20
111.0000000000000142
 30
0.0
 40
1.6000000000000001
  0
CIRCLE
  5
80
100
AcDbEntity
  8
0
 62
256
370
-1
 48
1.0
  6
BYLAYER
100
AcDbCircle
 10
81.0000000000000142
 20
109.0000000000000142
 30
0.0
 40
1.6000000000000001
  0
CIRCLE
  5
81
100
AcDbEntity
  8
0
 62
256
370
-1
 48
1.0
  6
BYLAYER
100
AcDbCircle
 10
99.0000000000000142
 20
93.0000000000000142
 30
0.0
 40
1.6000000000000001
  0
CIRCLE
  5
82
100
AcDbEntity
  8
0
 62
256
370
-1
 48
1.0
  6
BYLAYER
100
AcDbCircle
 10
99.0000000000000142
 20
89.0000000000000142
 30
0.0
 40
1.6000000000000001
  0
CIRCLE
  5
83
100
AcDbEntity
  8
0
 62
256
370
-1
 48
1.0
  6
BYLAYER
100
AcDbCircle
 10
159.0
 20
109.0000000000000142
 30
0.0
 40
1.6000000000000001
  0
CIRCLE
  5
84
100
AcDbEntity
  8
0
 62
256
370
-1
 48
1.0
  6
BYLAYER
100
AcDbCircle
 10
177.0
 20
93.0000000000000142
 30
0.0
 40
1.6000000000000001
  0
CIRCLE
  5
85
100
AcDbEntity
  8
0
 62
256
370
-1
 48
1.0
  6
BYLAYER
100
AcDbCircle
 10
177.0
 20
89.0000000000000142
 30
0.0
 40
1.6000000000000001
  0
CIRCLE
  5
86
100
AcDbEntity
  8
0
 62
256
370
-1
 48
1.0
  6
BYLAYER
100
AcDbCircle
 10
81.0000000000000142
 20
91.0000000000000142
 30
0.0
 40
1.6000000000000001
  0
CIRCLE
  5
87
100
AcDbEntity
  8
0
 62
256
370
-1
 48
1.0
  6
BYLAYER
100
AcDbCircle
 10
159.0
 20
91.0000000000000142
 30
0.0
 40
1.6000000000000001
  0
LINE
  5
88
100
AcDbEntity
  8
auxiliary
 62
256
370
-1
 48
1.0
  6
BYLAYER
100
AcDbLine
 10
35.0000000000000142
 20
94.5000000000000142
 30
0.0
 11
51.0000000000000142
 21
94.5000000000000142
 31
0.0
  0
LINE
  5
89
100
AcDbEntity
  8
auxiliary
 62
256
370
-1
 48
1.0
  6
BYLAYER
100
AcDbLine
 10
59.0000000000000142
 20
97.5300000000000153
 30
0.0
 11
75.0000000000000142
 21
97.5300000000000153
 31
0.0
  0
LINE
  5
8A
100
AcDbEntity
  8
auxiliary
 62
256
370
-1
 48
1.0
  6
BYLAYER
100
AcDbLine
 10
113.0000000000000142
 20
94.5000000000000142
 30
0.0
 11
129.0
 21
94.5000000000000142
 31
0.0
  0
LINE
  5
8B
100
AcDbEntity
  8
auxiliary
 62
256
370
-1
 48
1.0
  6
BYLAYER
100
AcDbLine
 10
137.0
 20
97.5300000000000153
 30
0.0
 11
153.0
 21
97.5300000000000153
 31
0.0
  0
DIMENSION
  5
8C
100
AcDbEntity
  8
dimensions
 62
256
370
-1
 48
1.0
  6
BYLAYER
100
AcDbDimension
 10
16.0
 20
78.0
 30
0.0
 11
14.1250000000000853
 21
99.9999999999997442
 31
0.0
 70
1
 71
8
 72
2
 74
0
 75
0
 41
1.0
 42
0.0
  1

  3
Standard
100
AcDbAlignedDimension
 13
19.9999999999998437
 23
77.9999999999995168
 33
0.0
 14
20.0000000000000142
 24
121.9999999999999574
 34
0.0
1001
ACAD
1000
DSTYLE
1002
{
1070
144
1040
1.0
1070
40
1040
1.0
1002
}
  0
LINE
  5
8D
100
AcDbEntity
  8
auxiliary
 62
256
370
-1
 48
1.0
  6
BYLAYER
100
AcDbLine
 10
28.0000000000000142
 20
77.9999999999999858
 30
0.0
 11
28.0000000000000142
 21
121.9999999999999858
 31
0.0
  0
LINE
  5
8E
100
AcDbEntity
  8
auxiliary
 62
256
370
-1
 48
1.0
  6
BYLAYER
100
AcDbLine
 10
227.0
 20
77.9999999999999858
 30
0.0
 11
227.0
 21
121.9999999999999858
 31
0.0
  0
LINE
  5
8F
100
AcDbEntity
  8
auxiliary
 62
256
370
-1
 48
1.0
  6
BYLAYER
100
AcDbLine
 10
19.9999999999999574
 20
113.0000000000000142
 30
0.0
 11
234.9999999999999432
 21
113.0000000000000142
 31
0.0
  0
LINE
  5
90
100
AcDbEntity
  8
auxiliary
 62
256
370
-1
 48
1.0
  6
BYLAYER
100
AcDbLine
 10
19.9999999999999574
 20
87.0000000000000142
 30
0.0
 11
234.9999999999999432
 21
87.0000000000000142
 31
0.0
  0
LINE
  5
91
100
AcDbEntity
  8
auxiliary
 62
256
370
-1
 48
1.0
  6
BYLAYER
100
AcDbLine
 10
77.0000000000000142
 20
107.0000000000000142
 30
0.0
 11
77.0000000000000142
 21
107.0000000000000142
 31
0.0
  0
DIMENSION
  5
92
100
AcDbEntity
  8
dimensions
 62
256
370
-1
 48
1.0
  6
BYLAYER
100
AcDbDimension
 10
32.0235796583534267
 20
127.9424400000000759
 30
0.0
 11
26.0235796583534693
 21
129.8174400000001754
 31
0.0
 70
129
 71
8
 72
2
 74
0
 75
0
 41
1.0
 42
0.0
  1

  3
Standard
100
AcDbAlignedDimension
 13
20.0235796583534409
 23
122.0166259261275599
 33
0.0
 14
32.0235796583534835
 24
122.0166259261276593
 34
0.0
1001
ACAD
1000
DSTYLE
1002
{
1070
279
1070
2
1070
144
1040
1.0
1070
40
1040
1.0
1002
}
  0
DIMENSION
  5
93
100
AcDbEntity
  8
dimensions
 62
256
370
-1
 48
1.0
  6
BYLAYER
100
AcDbDimension
 10
32.0000000000000142
 20
124.0000000000000853
 30
0.0
 11
37.4999999999999858
 21
125.8749999999999289
 31
0.0
 70
129
 71
8
 72
2
 74
0
 75
0
 41
1.0
 42
0.0
  1

  3
Standard
100
AcDbAlignedDimension
 13
32.0000000000000142
 23
121.9999999999999858
 33
0.0
 14
43.0000000000000711
 24
122.0000000000000426
 34
0.0
1001
ACAD
1000
DSTYLE
1002
{
1070
279
1070
2
1070
144
1040
1.0
1070
40
1040
1.0
1002
}
  0
DIMENSION
  5
94
100
AcDbEntity
  8
dimensions
 62
256
370
-1
 48
1.0
  6
BYLAYER
100
AcDbDimension
 10
43.0000000000000711
 20
123.9999999999996874
 30
0.0
 11
55.0000000000000142
 21
125.8749999999997584
 31
0.0
 70
129
 71
8
 72
2
 74
0
 75
0
 41
1.0
 42
0.0
  1

  3
Standard
100
AcDbAlignedDimension
 13
43.0000000000000711
 23
122.0000000000000426
 33
0.0
 14
67.0000000000000142
 24
122.0000000000000568
 34
0.0
1001
ACAD
1000
DSTYLE
1002
{
1070
279
1070
2
1070
144
1040
1.0
1070
40
1040
1.0
1002
}
  0
DIMENSION
  5
95
100
AcDbEntity
  8
dimensions
 62
256
370
-1
 48
1.0
  6
BYLAYER
100
AcDbDimension
 10
81.0000000000000142
 20
124.0000000000000568
 30
0.0
 11
85.0000000000000142
 21
125.8750000000002274
 31
0.0
 70
129
 71
8
 72
2
 74
0
 75
0
 41
1.0
 42
0.0
  1

  3
Standard
100
AcDbAlignedDimension
 13
81.0000000000000142
 23
122.0000000000002274
 33
0.0
 14
89.0000000000000142
 24
122.0000000000000284
 34
0.0
1001
ACAD
1000
DSTYLE
1002
{
1070
279
1070
2
1070
144
1040
1.0
1070
40
1040
1.0
1002
}
  0
DIMENSION
  5
96
100
AcDbEntity
  8
dimensions
 62
256
370
-1
 48
1.0
  6
BYLAYER
100
AcDbDimension
 10
89.0000000000000142
 20
124.0000000000001421
 30
0.0
 11
94.0000000000000142
 21
125.8750000000001563
 31
0.0
 70
129
 71
8
 72
2
 74
0
 75
0
 41
1.0
 42
0.0
  1

  3
Standard
100
AcDbAlignedDimension
 13
89.0000000000000142
 23
122.0000000000000284
 33
0.0
 14
99.0000000000000142
 24
122.0000000000000853
 34
0.0
1001
ACAD
1000
DSTYLE
1002
{
1070
279
1070
2
1070
144
1040
1.0
1070
40
1040
1.0
1002
}
  0
DIMENSION
  5
97
100
AcDbEntity
  8
dimensions
 62
256
370
-1
 48
1.0
  6
BYLAYER
100
AcDbDimension
 10
99.0000000000000142
 20
123.9999999999998721
 30
0.0
 11
101.5000000000000142
 21
125.8750000000003126
 31
0.0
 70
129
 71
8
 72
2
 74
0
 75
0
 41
1.0
 42
0.0
  1

  3
Standard
100
AcDbAlignedDimension
 13
99.0000000000000142
 23
122.0000000000000853
 33
0.0
 14
104.0000000000000142
 24
122.0000000000000711
 34
0.0
1001
ACAD
1000
DSTYLE
1002
{
1070
279
1070
2
1070
144
1040
1.0
1070
40
1040
1.0
1002
}
  0
DIMENSION
  5
98
100
AcDbEntity
  8
dimensions
 62
256
370
-1
 48
1.0
  6
BYLAYER
100
AcDbDimension
 10
32.0120687397752732
 20
127.9424400000001896
 30
0.0
 11
71.0120687397752874
 21
129.8174400000000333
 31
0.0
 70
1
 71
8
 72
2
 74
0
 75
0
 41
1.0
 42
0.0
  1

  3
Standard
100
AcDbAlignedDimension
 13
32.0120687397753017
 23
121.966296694639027
 33
0.0
 14
110.0120687397752732
 24
121.9662966946387144
 34
0.0
1001
ACAD
1000
DSTYLE
1002
{
1070
144
1040
1.0
1070
40
1040
1.0
1002
}
  0
DIMENSION
  5
99
100
AcDbEntity
  8
dimensions
 62
256
370
-1
 48
1.0
  6
BYLAYER
100
AcDbDimension
 10
109.9765310452463183
 20
127.9424399999998343
 30
0.0
 11
148.9765310452463041
 21
129.8174400000000333
 31
0.0
 70
1
 71
8
 72
2
 74
0
 75
0
 41
1.0
 42
0.0
  1

  3
Standard
100
AcDbAlignedDimension
 13
109.9765310452463183
 23
121.9949798456472649
 33
0.0
 14
187.9765310452463041
 24
121.9949798456476628
 34
0.0
1001
ACAD
1000
DSTYLE
1002
{
1070
144
1040
1.0
1070
40
1040
1.0
1002
}
  0
DIMENSION
  5
9A
100
AcDbEntity
  8
dimensions
 62
256
370
-1
 48
1.0
  6
BYLAYER
100
AcDbDimension
 10
235.0237094424786619
 20
128.0245384511189854
 30
0.0
 11
225.5237094424786619
 21
129.8995384511190991
 31
0.0
 70
129
 71
8
 72
2
 74
0
 75
0
 41
1.0
 42
0.0
  1

  3
Standard
100
AcDbAlignedDimension
 13
235.0237094424786619
 23
122.0245384511193123
 33
0.0
 14
216.0237094424786619
 24
122.0245384511187865
 34
0.0
1001
ACAD
1000
DSTYLE
1002
{
1070
279
1070
2
1070
144
1040
1.0
1070
40
1040
1.0
1002
}
  0
DIMENSION
  5
9B
100
AcDbEntity
  8
dimensions
 62
256
370
-1
 48
1.0
  6
BYLAYER
100
AcDbDimension
 10
67.0000000000000142
 20
124.000000000000199
 30
0.0
 11
74.0000000000000142
 21
125.8750000000000995
 31
0.0
 70
129
 71
8
 72
2
 74
0
 75
0
 41
1.0
 42
0.0
  1

  3
Standard
100
AcDbAlignedDimension
 13
67.0000000000000142
 23
122.0000000000000568
 33
0.0
 14
81.0000000000000142
 24
121.9999999999997016
 34
0.0
1001
ACAD
1000
DSTYLE
1002
{
1070
279
1070
2
1070
144
1040
1.0
1070
40
1040
1.0
1002
}
  0
DIMENSION
  5
9C
100
AcDbEntity
  8
dimensions
 62
256
370
-1
 48
1.0
  6
BYLAYER
100
AcDbDimension
 10
227.0
 20
123.9999999999997442
 30
0.0
 11
231.0
 21
125.875000000000199
 31
0.0
 70
129
 71
8
 72
2
 74
0
 75
0
 41
1.0
 42
0.0
  1

  3
Standard
100
AcDbAlignedDimension
 13
227.0
 23
121.9999999999998437
 33
0.0
 14
235.0
 24
121.9999999999999147
 34
0.0
1001
ACAD
1000
DSTYLE
1002
{
1070
279
1070
2
1070
144
1040
1.0
1070
40
1040
1.0
1002
}
  0
DIMENSION
  5
9D
100
AcDbEntity
  8
dimensions
 62
256
370
-1
 48
1.0
  6
BYLAYER
100
AcDbDimension
 10
19.9999999999999716
 20
124.0000000000001137
 30
0.0
 11
24.0000000000000142
 21
125.8749999999999005
 31
0.0
 70
129
 71
8
 72
2
 74
0
 75
0
 41
1.0
 42
0.0
  1

  3
Standard
100
AcDbAlignedDimension
 13
19.9999999999999574
 23
122.00000000000027
 33
0.0
 14
28.0000000000000142
 24
121.9999999999998721
 34
0.0
1001
ACAD
1000
DSTYLE
1002
{
1070
279
1070
2
1070
144
1040
1.0
1070
40
1040
1.0
1002
}
  0
CIRCLE
  5
9E
100
AcDbEntity
  8
0
 62
256
370
-1
 48
1.0
  6
BYLAYER
100
AcDbCircle
 10
67.0000000000000142
 20
97.5300000000000153
 30
0.0
 40
3.5
  0
CIRCLE
  5
9F
100
AcDbEntity
  8
0
 62
256
370
-1
 48
1.0
  6
BYLAYER
100
AcDbCircle
 10
145.0
 20
97.5300000000000153
 30
0.0
 40
3.5
  0
CIRCLE
  5
A0
100
AcDbEntity
  8
0
 62
256
370
-1
 48
1.0
  6
BYLAYER
100
AcDbCircle
 10
43.0000000000000142
 20
94.5000000000000142
 30
0.0
 40
5.0999999999999996
  0
CIRCLE
  5
A1
100
AcDbEntity
  8
0
 62
256
370
-1
 48
1.0
  6
BYLAYER
100
AcDbCircle
 10
121.0000000000000142
 20
94.5000000000000142
 30
0.0
 40
5.0999999999999996
  0
LINE
  5
A2
100
AcDbEntity
  8
private_parts
 62
256
370
-1
 48
1.0
  6
BYLAYER
100
AcDbLine
 10
129.0
 20
101.0000000000000142
 30
0.0
 11
129.0
 21
88.0000000000000142
 31
0.0
  0
CIRCLE
  5
A3
100
AcDbEntity
  8
private_parts
 62
256
370
-1
 48
1.0
  6
BYLAYER
100
AcDbCircle
 10
67.0000000000000142
 20
97.5300000000000153
 30
0.0
 40
7.75
  0
CIRCLE
  5
A4
100
AcDbEntity
  8
private_parts
 62
256
370
-1
 48
1.0
  6
BYLAYER
100
AcDbCircle
 10
145.0
 20
97.5300000000000153
 30
0.0
 40
7.75
  0
LWPOLYLINE
  5
A5
100
AcDbEntity
  8
private_parts
 62
256
370
-1
 48
1.0
  6
BYLAYER
100
AcDbPolyline
 90
6
 70
129
 10
35.4944465005348917
 20
94.5000000000000142
 10
39.247223250267453
 20
88.0000000000000142
 10
46.7527767497325755
 20
88.0000000000000142
 10
50.5055534994651367
 20
94.5000000000000142
 10
46.7527767497325755
 20
101.0000000000000142
 10
39.247223250267453
 20
101.0000000000000142
  0
LWPOLYLINE
  5
A6
100
AcDbEntity
  8
private_parts
 62
256
370
-1
 48
1.0
  6
BYLAYER
100
AcDbPolyline
 90
6
 70
129
 10
59.4944465005348917
 20
97.5300000000000153
 10
63.247223250267453
 20
91.0300000000000153
 10
70.7527767497325755
 20
91.0300000000000153
 10
74.5055534994651367
 20
97.5300000000000153
 10
70.7527767497325755
 20
104.0300000000000153
 10
63.247223250267453
 20
104.0300000000000153
  0
LWPOLYLINE
  5
A7
100
AcDbEntity
  8
private_parts
 62
256
370
-1
 48
1.0
  6
BYLAYER
100
AcDbPolyline
 90
6
 70
129
 10
113.4944465005348917
 20
94.5000000000000142
 10
117.247223250267453
 20
88.0000000000000142
 10
124.7527767497325755
 20
88.0000000000000142
 10
128.5055534994651225
 20
94.5000000000000142
 10
124.7527767497325755
 20
101.0000000000000142
 10
117.247223250267453
 20
101.0000000000000142
  0
LWPOLYLINE
  5
A8
100
AcDbEntity
  8
private_parts
 62
256
370
-1
 48
1.0
  6
BYLAYER
100
AcDbPolyline
 90
6
 70
129
 10
137.4944465005348775
 20
97.5300000000000153
 10
141.2472232502674387
 20
91.0300000000000153
 10
148.7527767497325613
 20
91.0300000000000153
 10
152.5055534994651225
 20
97.5300000000000153
 10
148.7527767497325613
 20
104.0300000000000153
 10
141.2472232502674387
 20
104.0300000000000153
  0
LWPOLYLINE
  5
A9
100
AcDbEntity
  8
private_parts
 62
256
370
-1
 48
1.0
  6
BYLAYER
100
AcDbPolyline
 90
6
 70
129
 10
113.4944465005348917
 20
94.5000000000000142
 10
117.247223250267453
 20
88.0000000000000142
 10
124.7527767497325755
 20
88.0000000000000142
 10
128.5055534994651225
 20
94.5000000000000142
 10
124.7527767497325755
 20
101.0000000000000142
 10
117.247223250267453
 20
101.0000000000000142
  0
LWPOLYLINE
  5
AA
100
AcDbEntity
  8
private_parts
 62
256
370
-1
 48
1.0
  6
BYLAYER
100
AcDbPolyline
 90
4
 70
129
 10
208.4499999999999886
 20
110.5500000000000256
 10
223.5499999999999545
 20
110.5500000000000256
 10
223.5499999999999545
 20
89.4500000000000028
 10
208.4499999999999886
 20
89.4500000000000028
  0
LWPOLYLINE
  5
AB
100
AcDbEntity
  8
private_parts
 62
256
370
-1
 48
1.0
  6
BYLAYER
100
AcDbPolyline
 90
4
 70
129
 10
35.0000000000000142
 20
101.0000000000000142
 10
51.0000000000000142
 20
101.0000000000000142
 10
51.0000000000000142
 20
88.0000000000000142
 10
35.0000000000000142
 20
88.0000000000000142
  0
LWPOLYLINE
  5
AC
100
AcDbEntity
  8
private_parts
 62
256
370
-1
 48
1.0
  6
BYLAYER
100
AcDbPolyline
 90
4
 70
129
 10
59.0000000000000142
 20
105.4500000000000028
 10
75.0000000000000142
 20
105.4500000000000028
 10
75.0000000000000142
 20
88.0000000000000142
 10
59.0000000000000142
 20
88.0000000000000142
  0
MTEXT
  5
AD
100
AcDbEntity
  8
requests
 62
256
370
-1
 48
1.0
  6
BYLAYER
100
AcDbMText
 10
20.0
 20
150.0
 30
0.0
 40
5.0
 41
0.0
 71
7
 72
1
  1
\U+52a0\U+5de5\U+88fd\U+54c1\U+578b\U+756a: NP\U+30a2\U+30eb\U+30df3-215-44
  7
textstyle1
 50
0.0
 73
2
 44
1.0
  0
LWPOLYLINE
  5
AE
100
AcDbEntity
  8
private_parts
 62
256
370
-1
 48
1.0
  6
BYLAYER
100
AcDbPolyline
 90
4
 70
129
 10
113.0000000000000142
 20
101.0000000000000142
 10
129.0
 20
101.0000000000000142
 10
129.0
 20
88.0000000000000142
 10
113.0000000000000142
 20
88.0000000000000142
  0
LWPOLYLINE
  5
AF
100
AcDbEntity
  8
private_parts
 62
256
370
-1
 48
1.0
  6
BYLAYER
100
AcDbPolyline
 90
4
 70
129
 10
137.0
 20
105.4500000000000028
 10
153.0
 20
105.4500000000000028
 10
153.0
 20
88.0000000000000142
 10
137.0
 20
88.0000000000000142
  0
LWPOLYLINE
  5
B0
100
AcDbEntity
  8
private_parts
 62
256
370
-1
 48
1.0
  6
BYLAYER
100
AcDbPolyline
 90
4
 70
129
 10
101.0799999999999983
 20
95.9000000000000483
 10
106.9200000000000301
 20
95.9000000000000483
 10
106.9200000000000301
 20
86.1000000000000085
 10
101.0799999999999983
 20
86.1000000000000085
  0
LWPOLYLINE
  5
B1
100
AcDbEntity
  8
private_parts
 62
256
370
-1
 48
1.0
  6
BYLAYER
100
AcDbPolyline
 90
4
 70
129
 10
101.5000000000000142
 20
94.0000000000000142
 10
106.5000000000000142
 20
94.0000000000000142
 10
106.5000000000000142
 20
88.0000000000000142
 10
101.5000000000000142
 20
88.0000000000000142
  0
LWPOLYLINE
  5
B2
100
AcDbEntity
  8
private_parts
 62
256
370
-1
 48
1.0
  6
BYLAYER
100
AcDbPolyline
 90
4
 70
129
 10
179.0800000000000409
 20
95.9000000000000199
 10
184.9199999999999591
 20
95.9000000000000199
 10
184.9199999999999591
 20
86.1000000000000085
 10
179.0800000000000409
 20
86.1000000000000085
  0
LWPOLYLINE
  5
B3
100
AcDbEntity
  8
private_parts
 62
256
370
-1
 48
1.0
  6
BYLAYER
100
AcDbPolyline
 90
4
 70
129
 10
179.5
 20
94.0000000000000142
 10
184.5
 20
94.0000000000000142
 10
184.5
 20
88.0000000000000142
 10
179.5
 20
88.0000000000000142
  0
LWPOLYLINE
  5
B4
100
AcDbEntity
  8
private_pcb
 62
256
370
-1
 48
1.0
  6
BYLAYER
100
AcDbPolyline
 90
7
 70
1
 10
67.0000000000000142
 20
117.0000000000000142
 10
109.0000000000000142
 20
117.0000000000000142
 10
109.0000000000000142
 20
83.0000000000000142
 10
76.0000000000000142
 20
83.0000000000000142
 10
76.0000000000000142
 20
106.0000000000000142
 10
67.0000000000000142
 20
106.0000000000000142
 10
67.0000000000000142
 20
117.0000000000000142
  0
LWPOLYLINE
  5
B5
100
AcDbEntity
  8
private_pcb
 62
256
370
-1
 48
1.0
  6
BYLAYER
100
AcDbPolyline
 90
7
 70
1
 10
145.0
 20
117.0000000000000142
 10
187.0
 20
117.0000000000000142
 10
187.0
 20
83.0000000000000142
 10
154.0
 20
83.0000000000000142
 10
154.0
 20
106.0000000000000142
 10
145.0
 20
106.0000000000000142
 10
145.0
 20
117.0000000000000142
  0
CIRCLE
  5
B6
100
AcDbEntity
  8
private_parts
 62
256
370
-1
 48
1.0
  6
BYLAYER
100
AcDbCircle
 10
28.0000000000000142
 20
113.0000000000000142
 30
0.0
 40
2.5
  0
CIRCLE
  5
B7
100
AcDbEntity
  8
private_parts
 62
256
370
-1
 48
1.0
  6
BYLAYER
100
AcDbCircle
 10
28.0000000000000142
 20
87.0000000000000142
 30
0.0
 40
2.5
  0
CIRCLE
  5
B8
100
AcDbEntity
  8
private_parts
 62
256
370
-1
 48
1.0
  6
BYLAYER
100
AcDbCircle
 10
227.0
 20
113.0000000000000142
 30
0.0
 40
2.5
  0
CIRCLE
  5
B9
100
AcDbEntity
  8
private_parts
 62
256
370
-1
 48
1.0
  6
BYLAYER
100
AcDbCircle
 10
227.0
 20
87.0000000000000142
 30
0.0
 40
2.5
  0
CIRCLE
  5
BA
100
AcDbEntity
  8
0
 62
256
370
-1
 48
1.0
  6
BYLAYER
100
AcDbCircle
 10
67.0000000000000142
 20
97.5300000000000153
 30
0.0
 40
7.5
  0
CIRCLE
  5
BB
100
AcDbEntity
  8
0
 62
256
370
-1
 48
1.0
  6
BYLAYER
100
AcDbCircle
 10
145.0
 20
97.5300000000000153
 30
0.0
 40
7.5
  0
LWPOLYLINE
  5
BC
100
AcDbEntity
  8
0
 62
256
370
-1
 48
1.0
  6
BYLAYER
100
AcDbPolyline
 90
9
 70
128
 10
102.5000000000000142
 20
94.6000000000000085
 10
105.5000000000000142
 20
94.6000000000000085
 42
-0.414213562373095
 10
107.0000000000000142
 20
93.1000000000000085
 10
107.0000000000000142
 20
88.9000000000000199
 42
-0.414213562373095
 10
105.5000000000000142
 20
87.4000000000000199
 10
102.5000000000000142
 20
87.4000000000000199
 42
-0.414213562373095
 10
101.0000000000000142
 20
88.9000000000000199
 10
101.0000000000000142
 20
93.1000000000000085
 42
-0.414213562373095
 10
102.5000000000000142
 20
94.6000000000000085
  0
LWPOLYLINE
  5
BD
100
AcDbEntity
  8
0
 62
256
370
-1
 48
1.0
  6
BYLAYER
100
AcDbPolyline
 90
9
 70
128
 10
180.5
 20
94.6000000000000085
 10
183.5
 20
94.6000000000000085
 42
-0.414213562373095
 10
185.0
 20
93.1000000000000085
 10
185.0
 20
88.9000000000000199
 42
-0.414213562373095
 10
183.5
 20
87.4000000000000199
 10
180.5
 20
87.4000000000000199
 42
-0.414213562373095
 10
179.0
 20
88.9000000000000199
 10
179.0
 20
93.1000000000000085
 42
-0.414213562373095
 10
180.5
 20
94.6000000000000085
  0
LWPOLYLINE
  5
BE
100
AcDbEntity
  8
private_pcb
 62
256
370
-1
 48
1.0
  6
BYLAYER
100
AcDbPolyline
 90
4
 70
129
 10
33.0000000000000142
 20
88.0000000000000142
 10
85.0000000000000142
 20
88.0000000000000142
 10
85.0000000000000142
 20
86.4000000000000199
 10
33.0000000000000142
 20
86.4000000000000199
  0
LWPOLYLINE
  5
BF
100
AcDbEntity
  8
private_pcb
 62
256
370
-1
 48
1.0
  6
BYLAYER
100
AcDbPolyline
 90
4
 70
129
 10
111.0000000000000142
 20
88.0000000000000142
 10
163.0
 20
88.0000000000000142
 10
163.0
 20
86.4000000000000199
 10
111.0000000000000142
 20
86.4000000000000199
  0
MTEXT
  5
C0
100
AcDbEntity
  8
requests
 62
256
370
-1
 48
1.0
  6
BYLAYER
100
AcDbMText
 10
60.0
 20
40.0000000000000142
 30
0.0
 40
4.0
 41
0.0
 71
7
 72
1
  1
\U+30b6\U+30b0\U+30ea\U+90e8\U+5206\U+306f\U+8cab\U+901a\U+7a74\U+306e\U+5468\U+308a\U+306b\U+88cf\U+5074\U+304b\U+3089\U+30b6\U+30b0\U+30ea\U+52a0\U+5de5
  7
textstyle5
 50
0.0
 73
2
 44
1.0
  0
LWPOLYLINE
  5
C1
100
AcDbEntity
  8
requests
 62
256
370
-1
 48
1.0
  6
BYLAYER
100
AcDbPolyline
 90
7
 70
0
 10
61.0
 20
37.9999999999996234
 10
67.0
 20
37.9999999999996234
 10
67.0
 20
33.9999999999996234
 10
73.0
 20
33.9999999999996234
 10
73.0
 20
31.9999999999996234
 10
61.0
 20
31.9999999999996234
 10
61.0
 20
37.9999999999996234
  0
LWPOLYLINE
  5
C2
100
AcDbEntity
  8
requests
 62
256
370
-1
 48
1.0
  6
BYLAYER
100
AcDbPolyline
 90
7
 70
0
 10
93.0
 20
37.9999999999996234
 10
87.0
 20
37.9999999999996234
 10
87.0
 20
33.9999999999996234
 10
81.0
 20
33.9999999999996234
 10
81.0
 20
31.9999999999996234
 10
93.0
 20
31.9999999999996234
 10
93.0
 20
37.9999999999996234
  0
HATCH
  5
C3
100
AcDbEntity
  8
requests
 62
256
370
-1
 48
1.0
  6
BYLAYER
100
AcDbHatch
 10
0.0
 20
0.0
 30
0.0
210
0.0
220
0.0
230
1.0
  2
ANSI31
 70
0
 71
0
 91
2
 92
1
 93
6
 72
1
 10
93.0
 20
37.9999999999996234
 11
87.0
 21
37.9999999999996234
 72
1
 10
87.0
 20
37.9999999999996234
 11
87.0
 21
33.9999999999996234
 72
1
 10
87.0
 20
33.9999999999996234
 11
81.0
 21
33.9999999999996234
 72
1
 10
81.0
 20
33.9999999999996234
 11
81.0
 21
31.9999999999996234
 72
1
 10
81.0
 20
31.9999999999996234
 11
93.0
 21
31.9999999999996234
 72
1
 10
93.0
 20
31.9999999999996234
 11
93.0
 21
37.9999999999996234
 97
0
 92
1
 93
6
 72
1
 10
61.0
 20
37.9999999999996234
 11
67.0
 21
37.9999999999996234
 72
1
 10
67.0
 20
37.9999999999996234
 11
67.0
 21
33.9999999999996234
 72
1
 10
67.0
 20
33.9999999999996234
 11
73.0
 21
33.9999999999996234
 72
1
 10
73.0
 20
33.9999999999996234
 11
73.0
 21
31.9999999999996234
 72
1
 10
73.0
 20
31.9999999999996234
 11
61.0
 21
31.9999999999996234
 72
1
 10
61.0
 20
31.9999999999996234
 11
61.0
 21
37.9999999999996234
 97
0
 75
0
 76
1
 52
0.0
 41
0.5
 77
0
 78
1
 53
45.0
 43
0.0
 44
0.0
 45
-0.0883883476483184
 46
0.0883883476483185
 79
0
 98
0
1001
ACAD
1010
0.0
1020
0.0
1030
0
  0
MTEXT
  5
C4
100
AcDbEntity
  8
requests
 62
256
370
-1
 48
1.0
  6
BYLAYER
100
AcDbMText
 10
96.0
 20
35.0000000000003624
 30
0.0
 40
4.0
 41
0.0
 71
4
 72
1
  1
\U+2193\U+8868\U+5074
  7
textstyle2
 50
0.0
 73
2
 44
1.0
  0
DIMENSION
  5
C5
100
AcDbEntity
  8
dimensions
 62
256
370
-1
 48
1.0
  6
BYLAYER
100
AcDbDimension
 10
110.0000000000000142
 20
124.0000000000000568
 30
0.0
 11
115.5000000000000142
 21
125.87500000000027
 31
0.0
 70
129
 71
8
 72
2
 74
0
 75
0
 41
1.0
 42
0.0
  1

  3
Standard
100
AcDbAlignedDimension
 13
110.0000000000000142
 23
121.9999999999999858
 33
0.0
 14
121.0000000000000142
 24
122.0000000000005116
 34
0.0
1001
ACAD
1000
DSTYLE
1002
{
1070
279
1070
2
1070
144
1040
1.0
1070
40
1040
1.0
1002
}
  0
DIMENSION
  5
C6
100
AcDbEntity
  8
dimensions
 62
256
370
-1
 48
1.0
  6
BYLAYER
100
AcDbDimension
 10
121.0000000000000142
 20
124.00000000000054
 30
0.0
 11
133.0
 21
125.8750000000005116
 31
0.0
 70
129
 71
8
 72
2
 74
0
 75
0
 41
1.0
 42
0.0
  1

  3
Standard
100
AcDbAlignedDimension
 13
121.0000000000000142
 23
122.0000000000005116
 33
0.0
 14
145.0
 24
122.0000000000001279
 34
0.0
1001
ACAD
1000
DSTYLE
1002
{
1070
279
1070
2
1070
144
1040
1.0
1070
40
1040
1.0
1002
}
  0
DIMENSION
  5
C7
100
AcDbEntity
  8
dimensions
 62
256
370
-1
 48
1.0
  6
BYLAYER
100
AcDbDimension
 10
145.0
 20
124.0000000000002132
 30
0.0
 11
152.0
 21
125.8750000000003979
 31
0.0
 70
129
 71
8
 72
2
 74
0
 75
0
 41
1.0
 42
0.0
  1

  3
Standard
100
AcDbAlignedDimension
 13
145.0
 23
122.0000000000001279
 33
0.0
 14
159.0
 24
121.9999999999999005
 34
0.0
1001
ACAD
1000
DSTYLE
1002
{
1070
279
1070
2
1070
144
1040
1.0
1070
40
1040
1.0
1002
}
  0
DIMENSION
  5
C8
100
AcDbEntity
  8
dimensions
 62
256
370
-1
 48
1.0
  6
BYLAYER
100
AcDbDimension
 10
159.0
 20
123.9999999999997726
 30
0.0
 11
163.0
 21
125.8749999999997158
 31
0.0
 70
129
 71
8
 72
2
 74
0
 75
0
 41
1.0
 42
0.0
  1

  3
Standard
100
AcDbAlignedDimension
 13
159.0
 23
121.9999999999999005
 33
0.0
 14
167.0
 24
121.9999999999999289
 34
0.0
1001
ACAD
1000
DSTYLE
1002
{
1070
279
1070
2
1070
144
1040
1.0
1070
40
1040
1.0
1002
}
  0
DIMENSION
  5
C9
100
AcDbEntity
  8
dimensions
 62
256
370
-1
 48
1.0
  6
BYLAYER
100
AcDbDimension
 10
167.0
 20
123.9999999999999289
 30
0.0
 11
172.0
 21
125.8750000000000284
 31
0.0
 70
129
 71
8
 72
2
 74
0
 75
0
 41
1.0
 42
0.0
  1

  3
Standard
100
AcDbAlignedDimension
 13
167.0
 23
121.9999999999999289
 33
0.0
 14
177.0
 24
121.9999999999997584
 34
0.0
1001
ACAD
1000
DSTYLE
1002
{
1070
279
1070
2
1070
144
1040
1.0
1070
40
1040
1.0
1002
}
  0
DIMENSION
  5
CA
100
AcDbEntity
  8
dimensions
 62
256
370
-1
 48
1.0
  6
BYLAYER
100
AcDbDimension
 10
177.0
 20
124.0000000000006111
 30
0.0
 11
179.5
 21
125.87500000000081
 31
0.0
 70
129
 71
8
 72
2
 74
0
 75
0
 41
1.0
 42
0.0
  1

  3
Standard
100
AcDbAlignedDimension
 13
177.0
 23
121.9999999999997584
 33
0.0
 14
182.0
 24
121.9999999999999716
 34
0.0
1001
ACAD
1000
DSTYLE
1002
{
1070
279
1070
2
1070
144
1040
1.0
1070
40
1040
1.0
1002
}
  0
MTEXT
  5
CB
100
AcDbEntity
  8
requests
 62
256
370
-1
 48
1.0
  6
BYLAYER
100
AcDbMText
 10
88.0000000000000142
 20
64.0000000000006395
 30
0.0
 40
3.0
 41
0.0
 71
7
 72
1
  1
2mm\U+30b6\U+30b0\U+30ea
  7
textstyle4
 50
0.0
 73
2
 44
1.0
  0
MTEXT
  5
CC
100
AcDbEntity
  8
requests
 62
256
370
-1
 48
1.0
  6
BYLAYER
100
AcDbMText
 10
165.9999999999997726
 20
63.9999999999994174
 30
0.0
 40
3.0
 41
0.0
 71
7
 72
1
  1
2mm\U+30b6\U+30b0\U+30ea
  7
textstyle3
 50
0.0
 73
2
 44
1.0
  0
CIRCLE
  5
CD
100
AcDbEntity
  8
0
 62
256
370
-1
 48
1.0
  6
BYLAYER
100
AcDbCircle
 10
28.0000000000000142
 20
113.0000000000000142
 30
0.0
 40
1.5999999999999996
  0
CIRCLE
  5
CE
100
AcDbEntity
  8
0
 62
256
370
-1
 48
1.0
  6
BYLAYER
100
AcDbCircle
 10
28.0000000000000142
 20
87.0000000000000142
 30
0.0
 40
1.5999999999999996
  0
CIRCLE
  5
CF
100
AcDbEntity
  8
0
 62
256
370
-1
 48
1.0
  6
BYLAYER
100
AcDbCircle
 10
227.0
 20
113.0000000000000142
 30
0.0
 40
1.5999999999999943
  0
CIRCLE
  5
D0
100
AcDbEntity
  8
0
 62
256
370
-1
 48
1.0
  6
BYLAYER
100
AcDbCircle
 10
227.0
 20
87.0000000000000142
 30
0.0
 40
1.5999999999999943
  0
LEADER
  5
D1
100
AcDbEntity
  8
requests
 62
256
370
-1
 48
1.0
  6
BYLAYER
100
AcDbLeader
  3
Standard
 71
1
 72
0
 73
3
 74
0
 75
0
 40
1.0
 41
10.0
 76
4
 10
47.0000000000000142
 20
87.5717967697245143
 10
61.0000000000000142
 20
63.0000000000000142
 10
108.0000000000000142
 20
63.0000000000000142
 10
108.0000000000000142
 20
63.0000000000000142
1001
ACAD
1000
DSTYLE
1002
{
1070
40
1040
1.0
1002
}
  0
LEADER
  5
D2
100
AcDbEntity
  8
requests
 62
256
370
-1
 48
1.0
  6
BYLAYER
100
AcDbLeader
  3
Standard
 71
1
 72
0
 73
3
 74
0
 75
0
 40
1.0
 41
10.0
 76
4
 10
125.0000000000000142
 20
87.5717967697244859
 10
139.0
 20
63.0000000000000142
 10
186.0
 20
63.0000000000000142
 10
186.0
 20
63.0000000000000142
1001
ACAD
1000
DSTYLE
1002
{
1070
40
1040
1.0
1002
}
  0
LEADER
  5
D3
100
AcDbEntity
  8
requests
 62
256
370
-1
 48
1.0
  6
BYLAYER
100
AcDbLeader
  3
Standard
 71
1
 72
0
 73
3
 74
0
 75
0
 40
1.0
 41
10.0
 76
4
 10
70.6890513685769548
 20
91.0000000000000142
 10
87.0000000000000142
 20
63.0000000000000142
 10
108.0000000000000142
 20
63.0000000000000142
 10
108.0000000000000142
 20
63.0000000000000142
1001
ACAD
1000
DSTYLE
1002
{
1070
40
1040
1.0
1002
}
  0
LEADER
  5
D4
100
AcDbEntity
  8
requests
 62
256
370
-1
 48
1.0
  6
BYLAYER
100
AcDbLeader
  3
Standard
 71
1
 72
0
 73
3
 74
0
 75
0
 40
1.0
 41
10.0
 76
4
 10
148.6890513685767701
 20
91.0000000000000142
 10
164.9999999999998295
 20
63.0000000000000142
 10
186.0
 20
63.0000000000000142
 10
186.0
 20
63.0000000000000142
1001
ACAD
1000
DSTYLE
1002
{
1070
40
1040
1.0
1002
}
  0
DIMENSION
  5
D5
100
AcDbEntity
  8
dimensions
 62
256
370
-1
 48
1.0
  6
BYLAYER
100
AcDbDimension
 10
235.0
 20
72.9425399999998092
 30
0.0
 11
127.4999999999999716
 21
74.8175399999997666
 31
0.0
 70
1
 71
8
 72
2
 74
0
 75
0
 41
1.0
 42
0.0
  1

  3
Standard
100
AcDbAlignedDimension
 13
235.0
 23
78.0000000000000853
 33
0.0
 14
19.9999999999999574
 24
78.0
 34
0.0
1001
ACAD
1000
DSTYLE
1002
{
1070
144
1040
1.0
1070
40
1040
1.0
1002
}
  0
HATCH
  5
D6
100
AcDbEntity
  8
0
 62
256
370
-1
 48
1.0
  6
BYLAYER
100
AcDbHatch
 10
0.0
 20
0.0
 30
0.0
210
0.0
220
0.0
230
1.0
  2
DOTS
 70
0
 71
0
 91
2
 92
1
 93
1
 72
2
 10
67.0000000000000142
 20
97.5300000000000153
 40
3.5
 50
0.0
 51
360.0
 73
1
 97
0
 92
1
 93
1
 72
2
 10
67.0000000000000142
 20
97.5300000000000153
 40
7.5
 50
0.0
 51
360.0
 73
1
 97
0
 75
0
 76
1
 52
0.0
 41
0.5
 77
0
 78
1
 53
45.0
 43
0.0
 44
0.0
 45
-0.0883883476483184
 46
0.0883883476483185
 79
0
 98
0
1001
ACAD
1010
0.0
1020
0.0
1030
0
  0
HATCH
  5
D7
100
AcDbEntity
  8
0
 62
256
370
-1
 48
1.0
  6
BYLAYER
100
AcDbHatch
 10
0.0
 20
0.0
 30
0.0
210
0.0
220
0.0
230
1.0
  2
DOTS
 70
0
 71
0
 91
2
 92
1
 93
1
 72
2
 10
145.0
 20
97.5300000000000153
 40
3.5
 50
0.0
 51
360.0
 73
1
 97
0
 92
1
 93
1
 72
2
 10
145.0
 20
97.5300000000000153
 40
7.5
 50
0.0
 51
360.0
 73
1
 97
0
 75
0
 76
1
 52
0.0
 41
0.5
 77
0
 78
1
 53
45.0
 43
0.0
 44
0.0
 45
-0.0883883476483184
 46
0.0883883476483185
 79
0
 98
0
1001
ACAD
1010
0.0
1020
0.0
1030
0
  0
DIMENSION
  5
D8
100
AcDbEntity
  8
dimensions
 62
256
370
-1
 48
1.0
  6
BYLAYER
100
AcDbDimension
 10
52.0
 20
94.0
 30
0.0
 11
50.125
 21
86.2500000000001705
 31
0.0
 70
1
 71
8
 72
2
 74
0
 75
0
 41
1.0
 42
0.0
  1

  3
Standard
100
AcDbAlignedDimension
 13
43.0000000000000142
 23
94.5000000000002416
 33
0.0
 14
43.0000000000000142
 24
78.0000000000001137
 34
0.0
1001
ACAD
1000
DSTYLE
1002
{
1070
144
1040
1.0
1070
40
1040
1.0
1002
}
  0
DIMENSION
  5
D9
100
AcDbEntity
  8
dimensions
 62
256
370
-1
 48
1.0
  6
BYLAYER
100
AcDbDimension
 10
76.0
 20
98.0
 30
0.0
 11
74.125
 21
87.7650000000000432
 31
0.0
 70
1
 71
8
 72
2
 74
0
 75
0
 41
1.0
 42
0.0
  1

  3
Standard
100
AcDbAlignedDimension
 13
67.0000000000000142
 23
97.5300000000000438
 33
0.0
 14
67.0000000000000142
 24
78.0000000000000426
 34
0.0
1001
ACAD
1000
DSTYLE
1002
{
1070
144
1040
1.0
1070
40
1040
1.0
1002
}
  0
LINE
  5
DA
100
AcDbEntity
  8
auxiliary
 62
256
370
-1
 48
1.0
  6
BYLAYER
100
AcDbLine
 10
67.0000000000000142
 20
111.0000000000000142
 30
0.0
 11
77.0000000000000142
 21
111.0000000000000142
 31
0.0
  0
LINE
  5
DB
100
AcDbEntity
  8
auxiliary
 62
256
370
-1
 48
1.0
  6
BYLAYER
100
AcDbLine
 10
145.0
 20
111.0000000000000142
 30
0.0
 11
155.0
 21
111.0000000000000142
 31
0.0
  0
LINE
  5
DC
100
AcDbEntity
  8
auxiliary
 62
256
370
-1
 48
1.0
  6
BYLAYER
100
AcDbLine
 10
97.0000000000000142
 20
93.0000000000000142
 30
0.0
 11
101.0000000000000142
 21
93.0000000000000142
 31
0.0
  0
LINE
  5
DD
100
AcDbEntity
  8
auxiliary
 62
256
370
-1
 48
1.0
  6
BYLAYER
100
AcDbLine
 10
97.0000000000000142
 20
89.0000000000000142
 30
0.0
 11
101.0000000000000142
 21
89.0000000000000142
 31
0.0
  0
LINE
  5
DE
100
AcDbEntity
  8
auxiliary
 62
256
370
-1
 48
1.0
  6
BYLAYER
100
AcDbLine
 10
175.0
 20
93.0000000000000142
 30
0.0
 11
179.0
 21
93.0000000000000142
 31
0.0
  0
LINE
  5
DF
100
AcDbEntity
  8
auxiliary
 62
256
370
-1
 48
1.0
  6
BYLAYER
100
AcDbLine
 10
175.0
 20
89.0000000000000142
 30
0.0
 11
179.0
 21
89.0000000000000142
 31
0.0
  0
LWPOLYLINE
  5
E0
100
AcDbEntity
  8
0
 62
256
370
-1
 48
1.0
  6
BYLAYER
100
AcDbPolyline
 90
9
 70
128
 10
211.0499999999999545
 20
111.0000000000000142
 10
220.9499999999999886
 20
111.0000000000000142
 42
-0.414213562373095
 10
222.4499999999999886
 20
109.5000000000000142
 10
222.4499999999999886
 20
90.5000000000000284
 42
-0.414213562373095
 10
220.9499999999999886
 20
89.0000000000000284
 10
211.0500000000000114
 20
89.0000000000000142
 42
-0.414213562373095
 10
209.5500000000000114
 20
90.5000000000000142
 10
209.5500000000000114
 20
109.5000000000000142
 42
-0.414213562373095
 10
211.0499999999999545
 20
111.0000000000000142
  0
LWPOLYLINE
  5
E1
100
AcDbEntity
  8
0
 62
256
370
-1
 48
1.0
  6
BYLAYER
100
AcDbPolyline
 90
9
 70
128
 10
211.0500000000000114
 20
109.7000000000000171
 10
220.9499999999999886
 20
109.7000000000000171
 42
-0.414213562373095
 10
222.4499999999999886
 20
108.2000000000000171
 10
222.4499999999999886
 20
91.8000000000000256
 42
-0.414213562373095
 10
220.9500000000000455
 20
90.3000000000000256
 10
211.0500000000000682
 20
90.3000000000000114
 42
-0.414213562373095
 10
209.5500000000000682
 20
91.8000000000000114
 10
209.5500000000000114
 20
108.2000000000000028
 42
-0.414213562373095
 10
211.0500000000000114
 20
109.7000000000000028
  0
HATCH
  5
E2
100
AcDbEntity
  8
0
 62
256
370
-1
 48
1.0
  6
BYLAYER
100
AcDbHatch
 10
0.0
 20
0.0
 30
0.0
210
0.0
220
0.0
230
1.0
  2
DOTS
 70
0
 71
0
 91
2
 92
1
 93
8
 72
1
 10
211.0500000000000114
 20
109.7000000000000171
 11
220.9499999999999886
 21
109.7000000000000171
 72
2
 10
220.9499999999999886
 20
108.2000000000000171
 40
1.4999999999999998
 50
270.0
 51
360.0
 73
0
 72
1
 10
222.4499999999999886
 20
108.2000000000000171
 11
222.4499999999999886
 21
91.8000000000000256
 72
2
 10
220.9500000000000455
 20
91.7999999999999972
 40
1.4999999999999716
 50
360.0
 51
90.0
 73
0
 72
1
 10
220.9500000000000455
 20
90.3000000000000256
 11
211.0500000000000682
 21
90.3000000000000114
 72
2
 10
211.0500000000000682
 20
91.8000000000000114
 40
1.4999999999999998
 50
90.0
 51
180.0
 73
0
 72
1
 10
209.5500000000000682
 20
91.8000000000000114
 11
209.5500000000000114
 21
108.2000000000000028
 72
2
 10
211.0500000000000114
 20
108.2000000000000028
 40
1.4999999999999998
 50
180.0
 51
270.0
 73
0
 97
0
 92
1
 93
8
 72
1
 10
211.0499999999999545
 20
111.0000000000000142
 11
220.9499999999999886
 21
111.0000000000000142
 72
2
 10
220.9499999999999886
 20
109.5000000000000142
 40
1.4999999999999998
 50
270.0
 51
360.0
 73
0
 72
1
 10
222.4499999999999886
 20
109.5000000000000142
 11
222.4499999999999886
 21
90.5000000000000284
 72
2
 10
220.9499999999999886
 20
90.5000000000000284
 40
1.4999999999999998
 50
360.0
 51
90.0
 73
0
 72
1
 10
220.9499999999999886
 20
89.0000000000000284
 11
211.0500000000000114
 21
89.0000000000000142
 72
2
 10
211.0500000000000114
 20
90.5000000000000142
 40
1.4999999999999998
 50
90.0
 51
180.0
 73
0
 72
1
 10
209.5500000000000114
 20
90.5000000000000142
 11
209.5500000000000114
 21
109.5000000000000142
 72
2
 10
211.0499999999999545
 20
109.5000000000000426
 40
1.4999999999999716
 50
180.0
 51
270.0
 73
0
 97
0
 75
0
 76
1
 52
0.0
 41
0.5
 77
0
 78
1
 53
45.0
 43
0.0
 44
0.0
 45
-0.0883883476483184
 46
0.0883883476483185
 79
0
 98
0
1001
ACAD
1010
0.0
1020
0.0
1030
0
  0
LWPOLYLINE
  5
E3
100
AcDbEntity
  8
0
 62
256
370
-1
 48
1.0
  6
BYLAYER
100
AcDbPolyline
 90
9
 70
128
 10
103.9999999999999574
 20
94.1000000000000085
 10
104.0000000000000142
 20
94.1000000000000085
 42
-0.414213562373095
 10
105.5000000000000142
 20
92.6000000000000085
 10
105.5000000000000142
 20
89.4000000000000199
 42
-0.414213562373095
 10
104.0000000000000142
 20
87.9000000000000199
 10
104.0000000000000142
 20
87.9000000000000199
 42
-0.414213562373095
 10
102.5000000000000142
 20
89.4000000000000341
 10
102.5000000000000142
 20
92.5999999999999943
 42
-0.4142135623730728
 10
103.9999999999999574
 20
94.0999999999999943
  0
LWPOLYLINE
  5
E4
100
AcDbEntity
  8
0
 62
256
370
-1
 48
1.0
  6
BYLAYER
100
AcDbPolyline
 90
9
 70
128
 10
181.9999999999999432
 20
94.1000000000000085
 10
182.0
 20
94.1000000000000085
 42
-0.414213562373095
 10
183.5
 20
92.6000000000000085
 10
183.5
 20
89.4000000000000199
 42
-0.414213562373095
 10
182.0
 20
87.9000000000000199
 10
182.0
 20
87.9000000000000199
 42
-0.414213562373095
 10
180.5
 20
89.4000000000000341
 10
180.5
 20
92.5999999999999943
 42
-0.4142135623730728
 10
181.9999999999999432
 20
94.0999999999999943
  0
HATCH
  5
E5
100
AcDbEntity
  8
0
 62
256
370
-1
 48
1.0
  6
BYLAYER
100
AcDbHatch
 10
0.0
 20
0.0
 30
0.0
210
0.0
220
0.0
230
1.0
  2
DOTS
 70
0
 71
0
 91
2
 92
1
 93
6
 72
2
 10
104.0000000000000142
 20
92.6000000000000085
 40
1.4999999999999998
 50
270.0
 51
360.0
 73
0
 72
1
 10
105.5000000000000142
 20
92.6000000000000085
 11
105.5000000000000142
 21
89.4000000000000199
 72
2
 10
104.0000000000000142
 20
89.4000000000000199
 40
1.4999999999999998
 50
360.0
 51
90.0
 73
0
 72
2
 10
104.0000000000000142
 20
89.4000000000000199
 40
1.5000000000000069
 50
90.0
 51
180.0
 73
0
 72
1
 10
102.5000000000000142
 20
89.4000000000000341
 11
102.5000000000000142
 21
92.5999999999999943
 72
2
 10
104.0000000000000711
 20
92.5999999999999659
 40
1.5000000000000286
 50
180.0
 51
269.9999999999956231
 73
0
 97
0
 92
1
 93
8
 72
1
 10
102.5000000000000142
 20
94.6000000000000085
 11
105.5000000000000142
 21
94.6000000000000085
 72
2
 10
105.5000000000000142
 20
93.1000000000000085
 40
1.5
 50
270.0
 51
360.0
 73
0
 72
1
 10
107.0000000000000142
 20
93.1000000000000085
 11
107.0000000000000142
 21
88.9000000000000199
 72
2
 10
105.5000000000000142
 20
88.9000000000000199
 40
1.5
 50
360.0
 51
90.0
 73
0
 72
1
 10
105.5000000000000142
 20
87.4000000000000199
 11
102.5000000000000142
 21
87.4000000000000199
 72
2
 10
102.5000000000000142
 20
88.9000000000000199
 40
1.5
 50
90.0
 51
180.0
 73
0
 72
1
 10
101.0000000000000142
 20
88.9000000000000199
 11
101.0000000000000142
 21
93.1000000000000085
 72
2
 10
102.5000000000000142
 20
93.1000000000000085
 40
1.5
 50
180.0
 51
270.0
 73
0
 97
0
 75
0
 76
1
 52
0.0
 41
0.5
 77
0
 78
1
 53
45.0
 43
0.0
 44
0.0
 45
-0.0883883476483184
 46
0.0883883476483185
 79
0
 98
0
1001
ACAD
1010
0.0
1020
0.0
1030
0
  0
HATCH
  5
E6
100
AcDbEntity
  8
0
 62
256
370
-1
 48
1.0
  6
BYLAYER
100
AcDbHatch
 10
0.0
 20
0.0
 30
0.0
210
0.0
220
0.0
230
1.0
  2
DOTS
 70
0
 71
0
 91
2
 92
1
 93
6
 72
2
 10
182.0
 20
92.6000000000000085
 40
1.4999999999999998
 50
270.0
 51
360.0
 73
0
 72
1
 10
183.5
 20
92.6000000000000085
 11
183.5
 21
89.4000000000000199
 72
2
 10
182.0
 20
89.4000000000000199
 40
1.4999999999999998
 50
360.0
 51
90.0
 73
0
 72
2
 10
182.0
 20
89.4000000000000199
 40
1.5000000000000069
 50
90.0
 51
180.0
 73
0
 72
1
 10
180.5
 20
89.4000000000000341
 11
180.5
 21
92.5999999999999943
 72
2
 10
182.0000000000000568
 20
92.5999999999999659
 40
1.5000000000000286
 50
180.0
 51
269.9999999999956231
 73
0
 97
0
 92
1
 93
8
 72
1
 10
180.5
 20
94.6000000000000085
 11
183.5
 21
94.6000000000000085
 72
2
 10
183.5
 20
93.1000000000000085
 40
1.5
 50
270.0
 51
360.0
 73
0
 72
1
 10
185.0
 20
93.1000000000000085
 11
185.0
 21
88.9000000000000199
 72
2
 10
183.5
 20
88.9000000000000199
 40
1.5
 50
360.0
 51
90.0
 73
0
 72
1
 10
183.5
 20
87.4000000000000199
 11
180.5
 21
87.4000000000000199
 72
2
 10
180.5
 20
88.9000000000000199
 40
1.5
 50
90.0
 51
180.0
 73
0
 72
1
 10
179.0
 20
88.9000000000000199
 11
179.0
 21
93.1000000000000085
 72
2
 10
180.5
 20
93.1000000000000085
 40
1.5
 50
180.0
 51
270.0
 73
0
 97
0
 75
0
 76
1
 52
0.0
 41
0.5
 77
0
 78
1
 53
45.0
 43
0.0
 44
0.0
 45
-0.0883883476483184
 46
0.0883883476483185
 79
0
 98
0
1001
ACAD
1010
0.0
1020
0.0
1030
0
  0
LWPOLYLINE
  5
E7
100
AcDbEntity
  8
0
 62
256
370
-1
 48
1.0
  6
BYLAYER
100
AcDbPolyline
 90
9
 70
128
 10
21.0000000000000142
 20
122.0000000000000142
 10
234.0
 20
122.0000000000000142
 42
-0.414213562373095
 10
235.0
 20
121.0000000000000142
 10
235.0
 20
79.0000000000000426
 42
-0.414213562373095
 10
234.0
 20
78.0000000000000426
 10
21.0000000000000142
 20
78.0000000000000426
 42
-0.414213562373095
 10
20.0000000000000142
 20
79.0000000000000426
 10
20.0000000000000142
 20
121.0000000000000142
 42
-0.414213562373095
 10
21.0000000000000142
 20
122.0000000000000142
  0
MTEXT
  5
E8
100
AcDbEntity
  8
requests
 62
256
370
-1
 48
1.0
  6
BYLAYER
100
AcDbMText
 10
236.0000000000000853
 20
57.0000000000000142
 30
0.0
 40
3.0
 41
0.0
 71
7
 72
1
  1
\U+5916: \U+89d2\U+7a74 W12.9\U+00d7H22.0 R1.5 1mm\U+30b6\U+30b0\U+30ea\P\U+5185: \U+89d2\U+7a74 W12.9\U+00d7H19.4 R1.5
  7
textstyle6
 50
0.0
 73
2
 44
1.0
  0
LEADER
  5
E9
100
AcDbEntity
  8
requests
 62
256
370
-1
 48
1.0
  6
BYLAYER
100
AcDbLeader
  3
Standard
 71
1
 72
0
 73
3
 74
0
 75
0
 40
1.0
 41
10.0
 76
4
 10
216.0000000000000284
 20
88.9999999999996447
 10
235.0000000000000853
 20
55.9999999999996305
 10
255.0000000000000853
 20
55.9999999999996305
 10
255.0000000000000853
 20
55.9999999999996305
1001
ACAD
1000
DSTYLE
1002
{
1070
40
1040
1.0
1002
}
  0
DIMENSION
  5
EA
100
AcDbEntity
  8
dimensions
 62
256
370
-1
 48
1.0
  6
BYLAYER
100
AcDbDimension
 10
239.0
 20
78.0
 30
0.0
 11
237.125
 21
82.5
 31
0.0
 70
1
 71
8
 72
2
 74
0
 75
0
 41
1.0
 42
0.0
  1

  3
Standard
100
AcDbAlignedDimension
 13
235.0
 23
78.0
 33
0.0
 14
235.0
 24
87.0000000000000142
 34
0.0
1001
ACAD
1000
DSTYLE
1002
{
1070
144
1040
1.0
1070
40
1040
1.0
1002
}
  0
DIMENSION
  5
EB
100
AcDbEntity
  8
dimensions
 62
256
370
-1
 48
1.0
  6
BYLAYER
100
AcDbDimension
 10
239.0
 20
100.0000000000000142
 30
0.0
 11
237.125
 21
95.5000000000000142
 31
0.0
 70
1
 71
8
 72
2
 74
0
 75
0
 41
1.0
 42
0.0
  1

  3
Standard
100
AcDbAlignedDimension
 13
235.0
 23
100.0000000000000142
 33
0.0
 14
235.0
 24
91.0000000000000142
 34
0.0
1001
ACAD
1000
DSTYLE
1002
{
1070
144
1040
1.0
1070
40
1040
1.0
1002
}
  0
DIMENSION
  5
EC
100
AcDbEntity
  8
dimensions
 62
256
370
-1
 48
1.0
  6
BYLAYER
100
AcDbDimension
 10
239.0
 20
109.0000000000000142
 30
0.0
 11
237.125
 21
104.5000000000000142
 31
0.0
 70
1
 71
8
 72
2
 74
0
 75
0
 41
1.0
 42
0.0
  1

  3
Standard
100
AcDbAlignedDimension
 13
235.0
 23
109.0000000000000142
 33
0.0
 14
235.0
 24
100.0000000000000142
 34
0.0
1001
ACAD
1000
DSTYLE
1002
{
1070
144
1040
1.0
1070
40
1040
1.0
1002
}
  0
DIMENSION
  5
ED
100
AcDbEntity
  8
dimensions
 62
256
370
-1
 48
1.0
  6
BYLAYER
100
AcDbDimension
 10
239.0
 20
122.0
 30
0.0
 11
237.125
 21
117.5
 31
0.0
 70
1
 71
8
 72
2
 74
0
 75
0
 41
1.0
 42
0.0
  1

  3
Standard
100
AcDbAlignedDimension
 13
235.0
 23
122.0
 33
0.0
 14
235.0
 24
113.0
 34
0.0
1001
ACAD
1000
DSTYLE
1002
{
1070
144
1040
1.0
1070
40
1040
1.0
1002
}
  0
DIMENSION
  5
EE
100
AcDbEntity
  8
dimensions
 62
256
370
-1
 48
1.0
  6
BYLAYER
100
AcDbDimension
 10
244.0
 20
100.0000000000000142
 30
0.0
 11
242.125
 21
89.0
 31
0.0
 70
1
 71
8
 72
2
 74
0
 75
0
 41
1.0
 42
0.0
  1

  3
Standard
100
AcDbAlignedDimension
 13
235.0
 23
100.0000000000000142
 33
0.0
 14
235.0
 24
78.0
 34
0.0
1001
ACAD
1000
DSTYLE
1002
{
1070
144
1040
1.0
1070
40
1040
1.0
1002
}
  0
DIMENSION
  5
EF
100
AcDbEntity
  8
dimensions
 62
256
370
-1
 48
1.0
  6
BYLAYER
100
AcDbDimension
 10
69.4797378893746327
 20
99.9999999999999858
 30
0.0
 11
65.6767857142857423
 21
98.8584310121649992
 31
0.0
 70
3
 71
8
 72
2
 74
0
 75
0
 41
1.0
 42
0.0
  1

  3
Standard
100
AcDbDiametricDimension
 15
64.5202621106253957
 25
95.0600000000000449
 35
0.0
 40
0.0
1001
ACAD
1000
DSTYLE
1002
{
1070
144
1040
1.0
1070
40
1040
1.0
1002
}
  0
DIMENSION
  5
F0
100
AcDbEntity
  8
dimensions
 62
256
370
-1
 48
1.0
  6
BYLAYER
100
AcDbDimension
 10
51.0
 20
104.0
 30
0.0
 11
43.0000000000000142
 21
105.875
 31
0.0
 70
1
 71
8
 72
2
 74
0
 75
0
 41
1.0
 42
0.0
  1

  3
Standard
100
AcDbAlignedDimension
 13
35.0000000000000142
 23
94.5000000000000142
 33
0.0
 14
51.0000000000000142
 24
94.5000000000000142
 34
0.0
1001
ACAD
1000
DSTYLE
1002
{
1070
144
1040
1.0
1070
40
1040
1.0
1002
}
  0
DIMENSION
  5
F1
100
AcDbEntity
  8
dimensions
 62
256
370
-1
 48
1.0
  6
BYLAYER
100
AcDbDimension
 10
59.5000000000000142
 20
106.0
 30
0.0
 11
67.0000000000000142
 21
107.875
 31
0.0
 70
1
 71
8
 72
2
 74
0
 75
0
 41
1.0
 42
0.0
  1

  3
Standard
100
AcDbAlignedDimension
 13
59.5000000000000142
 23
97.5300000000000153
 33
0.0
 14
74.5000000000000142
 24
97.5300000000000153
 34
0.0
1001
ACAD
1000
DSTYLE
1002
{
1070
144
1040
1.0
1070
40
1040
1.0
1002
}
  0
DIMENSION
  5
F2
100
AcDbEntity
  8
dimensions
 62
256
370
-1
 48
1.0
  6
BYLAYER
100
AcDbDimension
 10
113.0
 20
87.0
 30
0.0
 11
111.125
 21
91.0000000000000142
 31
0.0
 70
1
 71
8
 72
2
 74
0
 75
0
 41
1.0
 42
0.0
  1

  3
Standard
100
AcDbAlignedDimension
 13
104.0000000000000284
 23
94.6000000000000085
 33
0.0
 14
104.0000000000000284
 24
87.4000000000000199
 34
0.0
1001
ACAD
1000
DSTYLE
1002
{
1070
144
1040
1.0
1070
40
1040
1.0
1002
}
  0
DIMENSION
  5
F3
100
AcDbEntity
  8
dimensions
 62
256
370
-1
 48
1.0
  6
BYLAYER
100
AcDbDimension
 10
107.0
 20
99.0
 30
0.0
 11
104.0000000000000284
 21
100.875
 31
0.0
 70
1
 71
8
 72
2
 74
0
 75
0
 41
1.0
 42
0.0
  1

  3
Standard
100
AcDbAlignedDimension
 13
101.0000000000000284
 23
91.0000000000000284
 33
0.0
 14
107.0000000000000284
 24
91.0000000000000284
 34
0.0
1001
ACAD
1000
DSTYLE
1002
{
1070
144
1040
1.0
1070
40
1040
1.0
1002
}
  0
DIMENSION
  5
F4
100
AcDbEntity
  8
dimensions
 62
256
370
-1
 48
1.0
  6
BYLAYER
100
AcDbDimension
 10
76.9999999999999858
 20
111.0000000000000284
 30
0.0
 11
75.1250000000000142
 21
107.8194444444444571
 31
0.0
 70
1
 71
8
 72
2
 74
0
 75
0
 41
1.0
 42
0.0
  1

  3
Standard
100
AcDbAlignedDimension
 13
74.0000000000000142
 23
111.0000000000000142
 33
0.0
 14
74.0000000000000284
 24
109.0000000000000142
 34
0.0
1001
ACAD
1000
DSTYLE
1002
{
1070
144
1040
1.0
1070
40
1040
1.0
1002
}
  0
DIMENSION
  5
F5
100
AcDbEntity
  8
dimensions
 62
256
370
-1
 48
1.0
  6
BYLAYER
100
AcDbDimension
 10
74.0
 20
115.0
 30
0.0
 11
72.0
 21
116.875
 31
0.0
 70
1
 71
8
 72
2
 74
0
 75
0
 41
1.0
 42
0.0
  1

  3
Standard
100
AcDbAlignedDimension
 13
70.0
 23
111.0000000000000142
 33
0.0
 14
74.0000000000000142
 24
111.0000000000000142
 34
0.0
1001
ACAD
1000
DSTYLE
1002
{
1070
144
1040
1.0
1070
40
1040
1.0
1002
}
  0
DIMENSION
  5
F6
100
AcDbEntity
  8
dimensions
 62
256
370
-1
 48
1.0
  6
BYLAYER
100
AcDbDimension
 10
188.0
 20
87.0000000000000142
 30
0.0
 11
186.125
 21
91.0000000000000284
 31
0.0
 70
1
 71
8
 72
2
 74
0
 75
0
 41
1.0
 42
0.0
  1

  3
Standard
100
AcDbAlignedDimension
 13
182.0
 23
94.1000000000000085
 33
0.0
 14
182.0
 24
87.9000000000000625
 34
0.0
1001
ACAD
1000
DSTYLE
1002
{
1070
144
1040
1.0
1070
40
1040
1.0
1002
}
  0
DIMENSION
  5
F7
100
AcDbEntity
  8
dimensions
 62
256
370
-1
 48
1.0
  6
BYLAYER
100
AcDbDimension
 10
183.0
 20
96.0
 30
0.0
 11
182.0
 21
97.875
 31
0.0
 70
1
 71
8
 72
2
 74
0
 75
0
 41
1.0
 42
0.0
  1

  3
Standard
100
AcDbAlignedDimension
 13
180.5000000000000284
 23
91.0000000000000142
 33
0.0
 14
183.5
 24
91.0000000000000284
 34
0.0
1001
ACAD
1000
DSTYLE
1002
{
1070
144
1040
1.0
1070
40
1040
1.0
1002
}
  0
DIMENSION
  5
F8
100
AcDbEntity
  8
dimensions
 62
256
370
-1
 48
1.0
  6
BYLAYER
100
AcDbDimension
 10
97.0000000000000142
 20
89.0000000000000142
 30
0.0
 11
95.1250000000000142
 21
91.0000000000000142
 31
0.0
 70
1
 71
8
 72
2
 74
0
 75
0
 41
1.0
 42
0.0
  1

  3
Standard
100
AcDbAlignedDimension
 13
99.0000000000000142
 23
93.0000000000000142
 33
0.0
 14
99.0000000000000142
 24
89.0000000000000142
 34
0.0
1001
ACAD
1000
DSTYLE
1002
{
1070
144
1040
1.0
1070
40
1040
1.0
1002
}
  0
DIMENSION
  5
F9
100
AcDbEntity
  8
dimensions
 62
256
370
-1
 48
1.0
  6
BYLAYER
100
AcDbDimension
 10
110.0000000000000142
 20
87.9000000000000625
 30
0.0
 11
108.1250000000000142
 21
91.0000000000000284
 31
0.0
 70
1
 71
8
 72
2
 74
0
 75
0
 41
1.0
 42
0.0
  1

  3
Standard
100
AcDbAlignedDimension
 13
104.0000000000000142
 23
94.1000000000000085
 33
0.0
 14
104.0000000000000142
 24
87.9000000000000625
 34
0.0
1001
ACAD
1000
DSTYLE
1002
{
1070
144
1040
1.0
1070
40
1040
1.0
1002
}
  0
DIMENSION
  5
FA
100
AcDbEntity
  8
dimensions
 62
256
370
-1
 48
1.0
  6
BYLAYER
100
AcDbDimension
 10
105.0
 20
96.0
 30
0.0
 11
104.0000000000000142
 21
97.875
 31
0.0
 70
1
 71
8
 72
2
 74
0
 75
0
 41
1.0
 42
0.0
  1

  3
Standard
100
AcDbAlignedDimension
 13
102.5
 23
91.0000000000000142
 33
0.0
 14
105.5000000000000284
 24
91.0000000000000284
 34
0.0
1001
ACAD
1000
DSTYLE
1002
{
1070
144
1040
1.0
1070
40
1040
1.0
1002
}
  0
DIMENSION
  5
FB
100
AcDbEntity
  8
dimensions
 62
256
370
-1
 48
1.0
  6
BYLAYER
100
AcDbDimension
 10
191.0
 20
87.0
 30
0.0
 11
189.125
 21
91.0000000000000142
 31
0.0
 70
1
 71
8
 72
2
 74
0
 75
0
 41
1.0
 42
0.0
  1

  3
Standard
100
AcDbAlignedDimension
 13
182.0
 23
94.6000000000000085
 33
0.0
 14
182.0
 24
87.4000000000000199
 34
0.0
1001
ACAD
1000
DSTYLE
1002
{
1070
144
1040
1.0
1070
40
1040
1.0
1002
}
  0
DIMENSION
  5
FC
100
AcDbEntity
  8
dimensions
 62
256
370
-1
 48
1.0
  6
BYLAYER
100
AcDbDimension
 10
185.0
 20
99.0
 30
0.0
 11
182.0
 21
100.875
 31
0.0
 70
1
 71
8
 72
2
 74
0
 75
0
 41
1.0
 42
0.0
  1

  3
Standard
100
AcDbAlignedDimension
 13
179.0
 23
91.0000000000000284
 33
0.0
 14
185.0000000000000284
 24
91.0000000000000284
 34
0.0
1001
ACAD
1000
DSTYLE
1002
{
1070
144
1040
1.0
1070
40
1040
1.0
1002
}
  0
DIMENSION
  5
FD
100
AcDbEntity
  8
dimensions
 62
256
370
-1
 48
1.0
  6
BYLAYER
100
AcDbDimension
 10
175.0
 20
89.0000000000000142
 30
0.0
 11
173.125
 21
91.0
 31
0.0
 70
1
 71
8
 72
2
 74
0
 75
0
 41
1.0
 42
0.0
  1

  3
Standard
100
AcDbAlignedDimension
 13
177.0
 23
93.0
 33
0.0
 14
177.0
 24
89.0000000000000142
 34
0.0
1001
ACAD
1000
DSTYLE
1002
{
1070
144
1040
1.0
1070
40
1040
1.0
1002
}
  0
MTEXT
  5
FE
100
AcDbEntity
  8
requests
 62
256
370
-1
 48
1.0
  6
BYLAYER
100
AcDbMText
 10
60.0
 20
52.0
 30
0.0
 40
4.0
 41
0.0
 71
7
 72
1
  1
\U+5f84\U+6307\U+5b9a\U+306e\U+306a\U+3044\U+4e38\U+7a74\U+306f\U+03c63.2
  7
textstyle0
 50
0.0
 73
2
 44
1.0
  0
DIMENSION
  5
FF
100
AcDbEntity
  8
dimensions
 62
256
370
-1
 48
1.0
  6
BYLAYER
100
AcDbDimension
 10
130.0
 20
95.0
 30
0.0
 11
128.125
 21
86.2500000000000284
 31
0.0
 70
1
 71
8
 72
2
 74
0
 75
0
 41
1.0
 42
0.0
  1

  3
Standard
100
AcDbAlignedDimension
 13
121.0000000000000284
 23
94.5000000000000284
 33
0.0
 14
121.0000000000000284
 24
78.0000000000000426
 34
0.0
1001
ACAD
1000
DSTYLE
1002
{
1070
144
1040
1.0
1070
40
1040
1.0
1002
}
  0
DIMENSION
  5
100
100
AcDbEntity
  8
dimensions
 62
256
370
-1
 48
1.0
  6
BYLAYER
100
AcDbDimension
 10
154.0
 20
97.5300000000000153
 30
0.0
 11
152.125
 21
87.765000000000029
 31
0.0
 70
1
 71
8
 72
2
 74
0
 75
0
 41
1.0
 42
0.0
  1

  3
Standard
100
AcDbAlignedDimension
 13
145.0
 23
97.5300000000000153
 33
0.0
 14
145.0
 24
78.0000000000000426
 34
0.0
1001
ACAD
1000
DSTYLE
1002
{
1070
144
1040
1.0
1070
40
1040
1.0
1002
}
  0
DIMENSION
  5
101
100
AcDbEntity
  8
dimensions
 62
256
370
-1
 48
1.0
  6
BYLAYER
100
AcDbDimension
 10
147.4797378893746611
 20
99.9999999999999432
 30
0.0
 11
143.6767857142857565
 21
98.8584310121650134
 31
0.0
 70
3
 71
8
 72
2
 74
0
 75
0
 41
1.0
 42
0.0
  1

  3
Standard
100
AcDbDiametricDimension
 15
142.5202621106253389
 25
95.0600000000000875
 35
0.0
 40
0.0
1001
ACAD
1000
DSTYLE
1002
{
1070
144
1040
1.0
1070
40
1040
1.0
1002
}
  0
DIMENSION
  5
102
100
AcDbEntity
  8
dimensions
 62
256
370
-1
 48
1.0
  6
BYLAYER
100
AcDbDimension
 10
129.0
 20
104.0
 30
0.0
 11
121.0000000000000284
 21
105.875
 31
0.0
 70
1
 71
8
 72
2
 74
0
 75
0
 41
1.0
 42
0.0
  1

  3
Standard
100
AcDbAlignedDimension
 13
113.0000000000000142
 23
94.5000000000000142
 33
0.0
 14
129.0000000000000284
 24
94.5000000000000284
 34
0.0
1001
ACAD
1000
DSTYLE
1002
{
1070
144
1040
1.0
1070
40
1040
1.0
1002
}
  0
DIMENSION
  5
103
100
AcDbEntity
  8
dimensions
 62
256
370
-1
 48
1.0
  6
BYLAYER
100
AcDbDimension
 10
137.5
 20
106.0
 30
0.0
 11
145.0
 21
107.875
 31
0.0
 70
1
 71
8
 72
2
 74
0
 75
0
 41
1.0
 42
0.0
  1

  3
Standard
100
AcDbAlignedDimension
 13
137.5
 23
97.5300000000000153
 33
0.0
 14
152.5
 24
97.5300000000000153
 34
0.0
1001
ACAD
1000
DSTYLE
1002
{
1070
144
1040
1.0
1070
40
1040
1.0
1002
}
  0
DIMENSION
  5
104
100
AcDbEntity
  8
dimensions
 62
256
370
-1
 48
1.0
  6
BYLAYER
100
AcDbDimension
 10
152.0
 20
115.0
 30
0.0
 11
150.0
 21
116.875
 31
0.0
 70
1
 71
8
 72
2
 74
0
 75
0
 41
1.0
 42
0.0
  1

  3
Standard
100
AcDbAlignedDimension
 13
148.0
 23
111.0000000000000142
 33
0.0
 14
152.0
 24
111.0000000000000142
 34
0.0
1001
ACAD
1000
DSTYLE
1002
{
1070
144
1040
1.0
1070
40
1040
1.0
1002
}
  0
DIMENSION
  5
105
100
AcDbEntity
  8
dimensions
 62
256
370
-1
 48
1.0
  6
BYLAYER
100
AcDbDimension
 10
222.4500000000000171
 20
113.0000000000000142
 30
0.0
 11
216.0000000000000284
 21
114.8750000000000142
 31
0.0
 70
1
 71
8
 72
2
 74
0
 75
0
 41
1.0
 42
0.0
  1

  3
Standard
100
AcDbAlignedDimension
 13
209.5500000000000682
 23
100.0000000000000142
 33
0.0
 14
222.4499999999999886
 24
100.0000000000000142
 34
0.0
1001
ACAD
1000
DSTYLE
1002
{
1070
144
1040
1.0
1070
40
1040
1.0
1002
}
  0
DIMENSION
  5
106
100
AcDbEntity
  8
dimensions
 62
256
370
-1
 48
1.0
  6
BYLAYER
100
AcDbDimension
 10
208.0
 20
109.7000000000000171
 30
0.0
 11
206.125
 21
100.0000000000000284
 31
0.0
 70
1
 71
8
 72
2
 74
0
 75
0
 41
1.0
 42
0.0
  1

  3
Standard
100
AcDbAlignedDimension
 13
216.0
 23
109.7000000000000171
 33
0.0
 14
216.0
 24
90.3000000000000256
 34
0.0
1001
ACAD
1000
DSTYLE
1002
{
1070
144
1040
1.0
1070
40
1040
1.0
1002
}
  0
DIMENSION
  5
107
100
AcDbEntity
  8
dimensions
 62
256
370
-1
 48
1.0
  6
BYLAYER
100
AcDbDimension
 10
226.0000000000001705
 20
110.9999999999999289
 30
0.0
 11
224.1250000000000853
 21
99.9999999999999289
 31
0.0
 70
1
 71
8
 72
2
 74
0
 75
0
 41
1.0
 42
0.0
  1

  3
Standard
100
AcDbAlignedDimension
 13
216.0
 23
111.0000000000000142
 33
0.0
 14
215.9999999999998295
 24
89.0
 34
0.0
1001
ACAD
1000
DSTYLE
1002
{
1070
144
1040
1.0
1070
40
1040
1.0
1002
}
  0
DIMENSION
  5
108
100
AcDbEntity
  8
dimensions
 62
256
370
-1
 48
1.0
  6
BYLAYER
100
AcDbDimension
 10
234.0
 20
121.0000000000000142
 30
0.0
 11
236.8972222222222968
 21
125.5166666666666515
 31
0.0
 70
4
 71
8
 72
2
 74
0
 41
1.0
 42
0.0
  1

  3
Standard
100
AcDbRadialDimension
 15
234.8000000000000114
 25
121.6000000000000085
 35
0.0
 40
0.0
1001
ACAD
1000
DSTYLE
1002
{
1070
144
1040
1.0
1070
40
1040
1.0
1002
}
  0
MTEXT
  5
109
100
AcDbEntity
  8
requests
 62
256
370
-1
 48
1.0
  6
BYLAYER
100
AcDbMText
 10
192.0
 20
148.0
 30
0.0
 40
3.0
 41
0.0
 71
7
 72
1
  1
W10.4\U+00d7H7.4 \U+89d2R1.5\U+306e\U+89d2\U+7a74\P\U+00d74
  7
textstyle8
 50
0.0
 73
2
 44
1.0
  0
MTEXT
  5
10A
100
AcDbEntity
  8
requests
 62
256
370
-1
 48
1.0
  6
BYLAYER
100
AcDbMText
 10
211.0
 20
133.0
 30
0.0
 40
3.0
 41
0.0
 71
7
 72
1
  1
\U+5916: \U+89d2\U+7a74 W6\U+00d7H7.2 R1.5 1mm\U+30b6\U+30b0\U+30ea\P\U+5185: \U+9577\U+7a74 W3\U+00d7H6.2 R1.5\P\U+00d72
  7
textstyle7
 50
0.0
 73
2
 44
1.0
  0
LEADER
  5
10B
100
AcDbEntity
  8
requests
 62
256
370
-1
 48
1.0
  6
BYLAYER
100
AcDbLeader
  3
Standard
 71
1
 72
0
 73
3
 74
0
 75
0
 40
1.0
 41
10.0
 76
2
 10
171.6606601717798526
 20
94.1606601717798242
 10
201.0
 20
147.0
1001
ACAD
1000
DSTYLE
1002
{
1070
40
1040
1.0
1002
}
  0
LEADER
  5
10C
100
AcDbEntity
  8
requests
 62
256
370
-1
 48
1.0
  6
BYLAYER
100
AcDbLeader
  3
Standard
 71
1
 72
0
 73
3
 74
0
 75
0
 40
1.0
 41
10.0
 76
3
 10
93.6606601717798526
 20
112.1606601717798242
 10
114.0
 20
147.0
 10
249.0
 20
147.0
1001
ACAD
1000
DSTYLE
1002
{
1070
40
1040
1.0
1002
}
  0
LEADER
  5
10D
100
AcDbEntity
  8
requests
 62
256
370
-1
 48
1.0
  6
BYLAYER
100
AcDbLeader
  3
Standard
 71
1
 72
0
 73
3
 74
0
 75
0
 40
1.0
 41
10.0
 76
2
 10
93.6606601717798526
 20
94.1606601717798242
 10
124.0
 20
147.0
1001
ACAD
1000
DSTYLE
1002
{
1070
40
1040
1.0
1002
}
  0
LEADER
  5
10E
100
AcDbEntity
  8
requests
 62
256
370
-1
 48
1.0
  6
BYLAYER
100
AcDbLeader
  3
Standard
 71
1
 72
0
 73
3
 74
0
 75
0
 40
1.0
 41
10.0
 76
2
 10
171.6606601717798526
 20
112.1606601717798242
 10
191.0
 20
147.0
1001
ACAD
1000
DSTYLE
1002
{
1070
40
1040
1.0
1002
}
  0
LEADER
  5
10F
100
AcDbEntity
  8
requests
 62
256
370
-1
 48
1.0
  6
BYLAYER
100
AcDbLeader
  3
Standard
 71
1
 72
0
 73
3
 74
0
 75
0
 40
1.0
 41
10.0
 76
3
 10
106.5606601717798299
 20
94.1606601717798242
 10
130.0
 20
132.0
 10
276.0
 20
132.0
1001
ACAD
1000
DSTYLE
1002
{
1070
40
1040
1.0
1002
}
  0
LEADER
  5
110
100
AcDbEntity
  8
requests
 62
256
370
-1
 48
1.0
  6
BYLAYER
100
AcDbLeader
  3
Standard
 71
1
 72
0
 73
3
 74
0
 75
0
 40
1.0
 41
10.0
 76
2
 10
184.5606601717798299
 20
94.1606601717798242
 10
206.0
 20
132.0
1001
ACAD
1000
DSTYLE
1002
{
1070
40
1040
1.0
1002
}
  0
DIMENSION
  5
111
100
AcDbEntity
  8
dimensions
 62
256
370
-1
 48
1.0
  6
BYLAYER
100
AcDbDimension
 10
155.0
 20
111.0000000000000142
 30
0.0
 11
153.125
 21
107.8194444444444571
 31
0.0
 70
1
 71
8
 72
2
 74
0
 75
0
 41
1.0
 42
0.0
  1

  3
Standard
100
AcDbAlignedDimension
 13
152.0
 23
111.0000000000000142
 33
0.0
 14
152.0
 24
109.0000000000000142
 34
0.0
1001
ACAD
1000
DSTYLE
1002
{
1070
144
1040
1.0
1070
40
1040
1.0
1002
}
  0
DIMENSION
  5
112
100
AcDbEntity
  8
dimensions
 62
256
370
-1
 48
1.0
  6
BYLAYER
100
AcDbDimension
 10
100.9999999999999716
 20
89.0000000000000284
 30
0.0
 11
99.1249999999999858
 21
85.8194444444444571
 31
0.0
 70
1
 71
8
 72
2
 74
0
 75
0
 41
1.0
 42
0.0
  1

  3
Standard
100
AcDbAlignedDimension
 13
99.0000000000000142
 23
89.0000000000000142
 33
0.0
 14
99.0000000000000284
 24
87.0000000000000142
 34
0.0
1001
ACAD
1000
DSTYLE
1002
{
1070
144
1040
1.0
1070
40
1040
1.0
1002
}
  0
DIMENSION
  5
113
100
AcDbEntity
  8
dimensions
 62
256
370
-1
 48
1.0
  6
BYLAYER
100
AcDbDimension
 10
179.0
 20
89.0000000000000142
 30
0.0
 11
177.125
 21
85.8194444444444571
 31
0.0
 70
1
 71
8
 72
2
 74
0
 75
0
 41
1.0
 42
0.0
  1

  3
Standard
100
AcDbAlignedDimension
 13
177.0
 23
89.0000000000000142
 33
0.0
 14
177.0
 24
87.0000000000000142
 34
0.0
1001
ACAD
1000
DSTYLE
1002
{
1070
144
1040
1.0
1070
40
1040
1.0
1002
}
  0
DIMENSION
  5
114
100
AcDbEntity
  8
dimensions
 62
256
370
-1
 48
1.0
  6
BYLAYER
100
AcDbDimension
 10
160.0
 20
115.0
 30
0.0
 11
155.5
 21
116.875
 31
0.0
 70
1
 71
8
 72
2
 74
0
 75
0
 41
1.0
 42
0.0
  1

  3
Standard
100
AcDbAlignedDimension
 13
152.0
 23
111.0000000000000142
 33
0.0
 14
159.0
 24
111.0000000000000142
 34
0.0
1001
ACAD
1000
DSTYLE
1002
{
1070
144
1040
1.0
1070
40
1040
1.0
1002
}
  0
DIMENSION
  5
115
100
AcDbEntity
  8
dimensions
 62
256
370
-1
 48
1.0
  6
BYLAYER
100
AcDbDimension
 10
82.0
 20
115.0
 30
0.0
 11
77.5000000000000142
 21
116.875
 31
0.0
 70
1
 71
8
 72
2
 74
0
 75
0
 41
1.0
 42
0.0
  1

  3
Standard
100
AcDbAlignedDimension
 13
74.0000000000000142
 23
111.0000000000000142
 33
0.0
 14
81.0000000000000142
 24
111.0000000000000142
 34
0.0
1001
ACAD
1000
DSTYLE
1002
{
1070
144
1040
1.0
1070
40
1040
1.0
1002
}
  0
DIMENSION
  5
116
100
AcDbEntity
  8
dimensions
 62
256
370
-1
 48
1.0
  6
BYLAYER
100
AcDbDimension
 10
234.0
 20
79.0000000000000426
 30
0.0
 11
238.8810009756904833
 21
76.7706494537591055
 31
0.0
 70
4
 71
8
 72
2
 74
0
 41
1.0
 42
0.0
  1

  3
Standard
100
AcDbRadialDimension
 15
234.7071067811865532
 25
78.2928932188134894
 35
0.0
 40
0.0
1001
ACAD
1000
DSTYLE
1002
{
1070
144
1040
1.0
1070
40
1040
1.0
1002
}
  0
DIMENSION
  5
117
100
AcDbEntity
  8
dimensions
 62
256
370
-1
 48
1.0
  6
BYLAYER
100
AcDbDimension
 10
21.0000000000000142
 20
121.0000000000000142
 30
0.0
 11
18.7706494537590451
 21
125.8810009756904549
 31
0.0
 70
4
 71
8
 72
2
 74
0
 41
1.0
 42
0.0
  1

  3
Standard
100
AcDbRadialDimension
 15
20.292893218813461
 25
121.7071067811865532
 35
0.0
 40
0.0
1001
ACAD
1000
DSTYLE
1002
{
1070
144
1040
1.0
1070
40
1040
1.0
1002
}
  0
DIMENSION
  5
118
100
AcDbEntity
  8
dimensions
 62
256
370
-1
 48
1.0
  6
BYLAYER
100
AcDbDimension
 10
21.0000000000000142
 20
79.0000000000000426
 30
0.0
 11
16.1189990243095522
 21
76.7706494537590913
 31
0.0
 70
4
 71
8
 72
2
 74
0
 41
1.0
 42
0.0
  1

  3
Standard
100
AcDbRadialDimension
 15
20.2928932188134716
 25
78.2928932188134894
 35
0.0
 40
0.0
1001
ACAD
1000
DSTYLE
1002
{
1070
144
1040
1.0
1070
40
1040
1.0
1002
}
  0
HATCH
  5
119
100
AcDbEntity
  8
0
 62
256
370
-1
 48
1.0
  6
BYLAYER
100
AcDbHatch
 10
0.0
 20
0.0
 30
0.0
210
0.0
220
0.0
230
1.0
  2
DOTS
 70
0
 71
0
 91
2
 92
1
 93
1
 72
2
 10
43.0000000000000142
 20
94.5000000000000142
 40
5.0999999999999996
 50
0.0
 51
360.0
 73
1
 97
0
 92
1
 93
1
 72
2
 10
43.0000000000000142
 20
94.5000000000000142
 40
8.0
 50
0.0
 51
360.0
 73
1
 97
0
 75
0
 76
1
 52
0.0
 41
0.5
 77
0
 78
1
 53
45.0
 43
0.0
 44
0.0
 45
-0.0883883476483184
 46
0.0883883476483185
 79
0
 98
0
1001
ACAD
1010
0.0
1020
0.0
1030
0
  0
HATCH
  5
11A
100
AcDbEntity
  8
0
 62
256
370
-1
 48
1.0
  6
BYLAYER
100
AcDbHatch
 10
0.0
 20
0.0
 30
0.0
210
0.0
220
0.0
230
1.0
  2
DOTS
 70
0
 71
0
 91
2
 92
1
 93
1
 72
2
 10
121.0000000000000142
 20
94.5000000000000142
 40
5.0999999999999996
 50
0.0
 51
360.0
 73
1
 97
0
 92
1
 93
1
 72
2
 10
121.0000000000000142
 20
94.5000000000000142
 40
8.0
 50
0.0
 51
360.0
 73
1
 97
0
 75
0
 76
1
 52
0.0
 41
0.5
 77
0
 78
1
 53
45.0
 43
0.0
 44
0.0
 45
-0.0883883476483184
 46
0.0883883476483185
 79
0
 98
0
1001
ACAD
1010
0.0
1020
0.0
1030
0
  0
DIMENSION
  5
11B
100
AcDbEntity
  8
dimensions
 62
256
370
-1
 48
1.0
  6
BYLAYER
100
AcDbDimension
 10
46.9179285259466354
 20
97.7649404382888605
 30
0.0
 11
41.7996542506291178
 21
95.9404148992450985
 31
0.0
 70
3
 71
8
 72
2
 74
0
 75
0
 41
1.0
 42
0.0
  1

  3
Standard
100
AcDbDiametricDimension
 15
39.082071474053393
 25
91.2350595617111679
 35
0.0
 40
0.0
1001
ACAD
1000
DSTYLE
1002
{
1070
144
1040
1.0
1070
40
1040
1.0
1002
}
  0
DIMENSION
  5
11C
100
AcDbEntity
  8
dimensions
 62
256
370
-1
 48
1.0
  6
BYLAYER
100
AcDbDimension
 10
124.8381411430050889
 20
97.8583735001294599
 30
0.0
 11
119.7653038602465472
 21
95.9110813025754112
 31
0.0
 70
3
 71
8
 72
2
 74
0
 75
0
 41
1.0
 42
0.0
  1

  3
Standard
100
AcDbDiametricDimension
 15
117.1618588569949395
 25
91.1416264998705685
 35
0.0
 40
0.0
1001
ACAD
1000
DSTYLE
1002
{
1070
144
1040
1.0
1070
40
1040
1.0
1002
}
  0
LWPOLYLINE
  5
11D
100
AcDbEntity
  8
0
 62
256
370
-1
 48
1.0
  6
BYLAYER
100
AcDbPolyline
 90
9
 70
128
 10
85.3000000000000256
 20
94.7000000000000028
 10
92.7000000000000171
 20
94.7000000000000028
 42
-0.414213562373095
 10
94.2000000000000171
 20
93.2000000000000028
 10
94.2000000000000171
 20
88.7999999999999972
 42
-0.414213562373095
 10
92.7000000000000171
 20
87.2999999999999972
 10
85.2999999999999972
 20
87.3000000000000256
 42
-0.414213562373095
 10
83.7999999999999972
 20
88.7999999999999972
 10
83.8000000000000114
 20
93.1999999999999744
 42
-0.414213562373095
 10
85.3000000000000256
 20
94.6999999999999744
  0
LWPOLYLINE
  5
11E
100
AcDbEntity
  8
0
 62
256
370
-1
 48
1.0
  6
BYLAYER
100
AcDbPolyline
 90
9
 70
128
 10
163.3000000000000114
 20
112.7000000000000028
 10
170.6999999999999886
 20
112.7000000000000028
 42
-0.414213562373095
 10
172.1999999999999886
 20
111.2000000000000028
 10
172.1999999999999886
 20
106.7999999999999972
 42
-0.414213562373095
 10
170.6999999999999886
 20
105.2999999999999972
 10
163.2999999999999829
 20
105.3000000000000256
 42
-0.414213562373095
 10
161.7999999999999829
 20
106.7999999999999972
 10
161.8000000000000114
 20
111.1999999999999744
 42
-0.414213562373095
 10
163.3000000000000114
 20
112.6999999999999744
  0
LWPOLYLINE
  5
11F
100
AcDbEntity
  8
0
 62
256
370
-1
 48
1.0
  6
BYLAYER
100
AcDbPolyline
 90
9
 70
128
 10
85.3000000000000256
 20
112.7000000000000028
 10
92.7000000000000171
 20
112.7000000000000028
 42
-0.414213562373095
 10
94.2000000000000028
 20
111.2000000000000028
 10
94.2000000000000028
 20
106.7999999999999972
 42
-0.414213562373095
 10
92.7000000000000171
 20
105.2999999999999972
 10
85.2999999999999972
 20
105.3000000000000256
 42
-0.414213562373095
 10
83.7999999999999972
 20
106.7999999999999972
 10
83.8000000000000114
 20
111.1999999999999744
 42
-0.414213562373095
 10
85.3000000000000256
 20
112.6999999999999744
  0
LWPOLYLINE
  5
120
100
AcDbEntity
  8
0
 62
256
370
-1
 48
1.0
  6
BYLAYER
100
AcDbPolyline
 90
9
 70
128
 10
163.3000000000000114
 20
94.7000000000000028
 10
170.6999999999999886
 20
94.7000000000000028
 42
-0.414213562373095
 10
172.1999999999999886
 20
93.2000000000000028
 10
172.1999999999999886
 20
88.7999999999999972
 42
-0.414213562373095
 10
170.6999999999999886
 20
87.2999999999999972
 10
163.2999999999999829
 20
87.3000000000000256
 42
-0.414213562373095
 10
161.7999999999999829
 20
88.7999999999999972
 10
161.8000000000000114
 20
93.1999999999999744
 42
-0.414213562373095
 10
163.3000000000000114
 20
94.6999999999999744
  0
DIMENSION
  5
121
100
AcDbEntity
  8
dimensions
 62
256
370
-1
 48
1.0
  6
BYLAYER
100
AcDbDimension
 10
94.0
 20
114.0
 30
0.0
 11
89.0
 21
115.875
 31
0.0
 70
1
 71
8
 72
2
 74
0
 75
0
 41
1.0
 42
0.0
  1

  3
Standard
100
AcDbAlignedDimension
 13
83.8000000000000114
 23
109.0000000000000142
 33
0.0
 14
94.1999999999999886
 24
109.0000000000000142
 34
0.0
1001
ACAD
1000
DSTYLE
1002
{
1070
144
1040
1.0
1070
40
1040
1.0
1002
}
  0
DIMENSION
  5
122
100
AcDbEntity
  8
dimensions
 62
256
370
-1
 48
1.0
  6
BYLAYER
100
AcDbDimension
 10
87.9999999999999858
 20
112.7000000000000028
 30
0.0
 11
86.125
 21
109.0
 31
0.0
 70
1
 71
8
 72
2
 74
0
 75
0
 41
1.0
 42
0.0
  1

  3
Standard
100
AcDbAlignedDimension
 13
89.0
 23
112.7000000000000028
 33
0.0
 14
89.0000000000000142
 24
105.3000000000000114
 34
0.0
1001
ACAD
1000
DSTYLE
1002
{
1070
144
1040
1.0
1070
40
1040
1.0
1002
}
  0
DIMENSION
  5
123
100
AcDbEntity
  8
dimensions
 62
256
370
-1
 48
1.0
  6
BYLAYER
100
AcDbDimension
 10
83.8000000000000114
 20
96.0000000000000142
 30
0.0
 11
89.0000000000000142
 21
97.875
 31
0.0
 70
1
 71
8
 72
2
 74
0
 75
0
 41
1.0
 42
0.0
  1

  3
Standard
100
AcDbAlignedDimension
 13
83.8000000000000114
 23
91.0000000000000284
 33
0.0
 14
94.2000000000000171
 24
91.0000000000000142
 34
0.0
1001
ACAD
1000
DSTYLE
1002
{
1070
144
1040
1.0
1070
40
1040
1.0
1002
}
  0
DIMENSION
  5
124
100
AcDbEntity
  8
dimensions
 62
256
370
-1
 48
1.0
  6
BYLAYER
100
AcDbDimension
 10
88.0000000000000142
 20
87.2999999999999972
 30
0.0
 11
86.125
 21
91.0
 31
0.0
 70
1
 71
8
 72
2
 74
0
 75
0
 41
1.0
 42
0.0
  1

  3
Standard
100
AcDbAlignedDimension
 13
89.0000000000000142
 23
87.2999999999999972
 33
0.0
 14
89.0
 24
94.7000000000000028
 34
0.0
1001
ACAD
1000
DSTYLE
1002
{
1070
144
1040
1.0
1070
40
1040
1.0
1002
}
  0
DIMENSION
  5
125
100
AcDbEntity
  8
dimensions
 62
256
370
-1
 48
1.0
  6
BYLAYER
100
AcDbDimension
 10
161.7999999999999829
 20
114.0
 30
0.0
 11
167.0
 21
115.875
 31
0.0
 70
1
 71
8
 72
2
 74
0
 75
0
 41
1.0
 42
0.0
  1

  3
Standard
100
AcDbAlignedDimension
 13
161.7999999999999829
 23
109.0000000000000142
 33
0.0
 14
172.1999999999999886
 24
109.0000000000000142
 34
0.0
1001
ACAD
1000
DSTYLE
1002
{
1070
144
1040
1.0
1070
40
1040
1.0
1002
}
  0
DIMENSION
  5
126
100
AcDbEntity
  8
dimensions
 62
256
370
-1
 48
1.0
  6
BYLAYER
100
AcDbDimension
 10
166.0
 20
105.3000000000000114
 30
0.0
 11
164.125
 21
109.0
 31
0.0
 70
1
 71
8
 72
2
 74
0
 75
0
 41
1.0
 42
0.0
  1

  3
Standard
100
AcDbAlignedDimension
 13
167.0
 23
105.3000000000000114
 33
0.0
 14
167.0
 24
112.7000000000000028
 34
0.0
1001
ACAD
1000
DSTYLE
1002
{
1070
144
1040
1.0
1070
40
1040
1.0
1002
}
  0
DIMENSION
  5
127
100
AcDbEntity
  8
dimensions
 62
256
370
-1
 48
1.0
  6
BYLAYER
100
AcDbDimension
 10
161.7999999999999829
 20
96.0000000000000142
 30
0.0
 11
167.0
 21
97.875
 31
0.0
 70
1
 71
8
 72
2
 74
0
 75
0
 41
1.0
 42
0.0
  1

  3
Standard
100
AcDbAlignedDimension
 13
161.7999999999999829
 23
91.0000000000000284
 33
0.0
 14
172.1999999999999886
 24
91.0000000000000142
 34
0.0
1001
ACAD
1000
DSTYLE
1002
{
1070
144
1040
1.0
1070
40
1040
1.0
1002
}
  0
DIMENSION
  5
128
100
AcDbEntity
  8
dimensions
 62
256
370
-1
 48
1.0
  6
BYLAYER
100
AcDbDimension
 10
166.0
 20
94.7000000000000028
 30
0.0
 11
164.125
 21
91.0
 31
0.0
 70
1
 71
8
 72
2
 74
0
 75
0
 41
1.0
 42
0.0
  1

  3
Standard
100
AcDbAlignedDimension
 13
167.0
 23
94.7000000000000028
 33
0.0
 14
167.0
 24
87.3000000000000114
 34
0.0
1001
ACAD
1000
DSTYLE
1002
{
1070
144
1040
1.0
1070
40
1040
1.0
1002
}
  0
ENDSEC
  0
SECTION
  2
OBJECTS
  0
DICTIONARY
  5
C
100
AcDbDictionary
280
0
281
1
  3
ACAD_GROUP
350
D
  3
ACAD_LAYOUT
350
1A
  3
ACAD_MLINESTYLE
350
17
  3
ACAD_PLOTSETTINGS
350
19
  3
ACAD_PLOTSTYLENAME
350
E
  3
AcDbVariableDictionary
350
129
  3
QCAD_OBJECTS
350
12A
  0
DICTIONARY
  5
D
100
AcDbDictionary
280
0
281
1
  0
ACDBDICTIONARYWDFLT
  5
E
100
AcDbDictionary
281
1
  3
Normal
350
F
100
AcDbDictionaryWithDefault
340
F
  0
ACDBPLACEHOLDER
  5
F
  0
DICTIONARY
  5
17
100
AcDbDictionary
280
0
281
1
  3
Standard
350
18
  0
MLINESTYLE
  5
18
100
AcDbMlineStyle
  2
STANDARD
 70
0
  3

 62
256
 51
90.0
 52
90.0
 71
2
 49
0.5
 62
256
  6
BYLAYER
 49
-0.5
 62
256
  6
BYLAYER
  0
DICTIONARY
  5
19
100
AcDbDictionary
280
0
281
1
  0
DICTIONARY
  5
1A
100
AcDbDictionary
281
1
  3
Layout1
350
1E
  3
Layout2
350
26
  3
Model
350
22
  0
LAYOUT
  5
1E
100
AcDbPlotSettings
  1

  2
none_device
  4

  6

 40
0.0
 41
0.0
 42
0.0
 43
0.0
 44
0.0
 45
0.0
 46
0.0
 47
0.0
 48
0.0
 49
0.0
140
0.0
141
0.0
142
1.0
143
1.0
 70
688
 72
0
 73
0
 74
5
  7

 75
16
147
1.0
148
0.0
149
0.0
100
AcDbLayout
  1
Layout1
 70
1
 71
1
 10
0.0
 20
0.0
 11
420.0
 21
297.0
 12
0.0
 22
0.0
 32
0.0
 14
100000000000000000000.0
 24
100000000000000000000.0
 34
100000000000000000000.0
 15
-100000000000000000000.0
 25
-100000000000000000000.0
 35
-100000000000000000000.0
146
0.0
 13
0.0
 23
0.0
 33
0.0
 16
1.0
 26
0.0
 36
0.0
 17
0.0
 27
1.0
 37
0.0
 76
0
330
1B
  0
LAYOUT
  5
22
100
AcDbPlotSettings
  1

  2
none_device
  4

  6

 40
0.0
 41
0.0
 42
0.0
 43
0.0
 44
0.0
 45
0.0
 46
0.0
 47
0.0
 48
0.0
 49
0.0
140
0.0
141
0.0
142
1.0
143
1.0
 70
1712
 72
0
 73
0
 74
0
  7

 75
0
147
1.0
148
0.0
149
0.0
100
AcDbLayout
  1
Model
 70
1
 71
0
 10
0.0
 20
0.0
 11
12.0
 21
9.0
 12
0.0
 22
0.0
 32
0.0
 14
0.0
 24
0.0
 34
0.0
 15
0.0
 25
0.0
 35
0.0
146
0.0
 13
0.0
 23
0.0
 33
0.0
 16
1.0
 26
0.0
 36
0.0
 17
0.0
 27
1.0
 37
0.0
 76
0
330
1F
  0
LAYOUT
  5
26
100
AcDbPlotSettings
  1

  2
none_device
  4

  6

 40
0.0
 41
0.0
 42
0.0
 43
0.0
 44
0.0
 45
0.0
 46
0.0
 47
0.0
 48
0.0
 49
0.0
140
0.0
141
0.0
142
1.0
143
1.0
 70
688
 72
0
 73
0
 74
5
  7

 75
16
147
1.0
148
0.0
149
0.0
100
AcDbLayout
  1
Layout2
 70
1
 71
2
 10
0.0
 20
0.0
 11
12.0
 21
9.0
 12
0.0
 22
0.0
 32
0.0
 14
0.0
 24
0.0
 34
0.0
 15
0.0
 25
0.0
 35
0.0
146
0.0
 13
0.0
 23
0.0
 33
0.0
 16
1.0
 26
0.0
 36
0.0
 17
0.0
 27
1.0
 37
0.0
 76
0
330
23
  0
DICTIONARY
  5
129
100
AcDbDictionary
281
1
  3
DIMASSOC
350
12C
  3
HIDETEXT
350
12B
  0
DICTIONARYVAR
  5
12B
100
DictionaryVariables
280
0
  1
2
  0
DICTIONARYVAR
  5
12C
100
DictionaryVariables
280
0
  1
1
  0
DICTIONARY
  5
12A
100
AcDbDictionary
281
1
  3
ColorSettings/BackgroundColor
350
12D
  3
ColorSettings/ColorMode
350
12E
  3
Grid/DisplayGrid00
350
12F
  3
Grid/DisplayGrid01
350
130
  3
Grid/DisplayGrid02
350
131
  3
Grid/DisplayGrid03
350
132
  3
Grid/GridSpacingX00
350
133
  3
Grid/GridSpacingX01
350
134
  3
Grid/GridSpacingX02
350
135
  3
Grid/GridSpacingX03
350
136
  3
Grid/GridSpacingY00
350
137
  3
Grid/GridSpacingY01
350
138
  3
Grid/GridSpacingY02
350
139
  3
Grid/GridSpacingY03
350
13A
  3
Grid/IsometricGrid00
350
13B
  3
Grid/IsometricGrid01
350
13C
  3
Grid/IsometricGrid02
350
13D
  3
Grid/IsometricGrid03
350
13E
  3
Grid/IsometricProjection00
350
13F
  3
Grid/IsometricProjection01
350
140
  3
Grid/IsometricProjection02
350
141
  3
Grid/IsometricProjection03
350
142
  3
Grid/MetaGridSpacingX00
350
143
  3
Grid/MetaGridSpacingX01
350
144
  3
Grid/MetaGridSpacingX02
350
145
  3
Grid/MetaGridSpacingX03
350
146
  3
Grid/MetaGridSpacingY00
350
147
  3
Grid/MetaGridSpacingY01
350
148
  3
Grid/MetaGridSpacingY02
350
149
  3
Grid/MetaGridSpacingY03
350
14A
  3
MultiPageSettings/Columns
350
14B
  3
MultiPageSettings/GlueMarginsBottom
350
14C
  3
MultiPageSettings/GlueMarginsLeft
350
14D
  3
MultiPageSettings/GlueMarginsRight
350
14E
  3
MultiPageSettings/GlueMarginsTop
350
14F
  3
MultiPageSettings/PrintCropMarks
350
150
  3
MultiPageSettings/Rows
350
151
  3
PageSettings/OffsetX
350
152
  3
PageSettings/OffsetY
350
153
  3
PageSettings/PageOrientation
350
154
  3
PageSettings/PaperHeight
350
155
  3
PageSettings/PaperSizeName
350
156
  3
PageSettings/PaperWidth
350
157
  3
PageSettings/PointSize
350
158
  3
PageSettings/Scale
350
159
  3
PageSettings/ShowPaperBorders
350
15A
  3
PageTagSettings/EnablePageTags
350
15B
  3
PageTagSettings/TagAlignment
350
15C
  3
PageTagSettings/TagFont
350
15D
  3
PageTagSettings/TagPosition
350
15E
  3
QCADVersion
350
15F
  3
UnitSettings/PaperUnit
350
160
  3
ViewportCenter
350
161
  3
ViewportHeight
350
162
  3
ViewportWidth
350
163
  0
XRECORD
  5
12D
330
12A
100
AcDbXrecord
280
1
1000
\U+767d
  0
XRECORD
  5
12E
330
12A
100
AcDbXrecord
280
1
1000
FullColor
  0
XRECORD
  5
12F
330
12A
100
AcDbXrecord
280
1
290
1
  0
XRECORD
  5
130
330
12A
100
AcDbXrecord
280
1
290
1
  0
XRECORD
  5
131
330
12A
100
AcDbXrecord
280
1
290
1
  0
XRECORD
  5
132
330
12A
100
AcDbXrecord
280
1
290
1
  0
XRECORD
  5
133
330
12A
100
AcDbXrecord
280
1
1000
\U+81ea\U+52d5
  0
XRECORD
  5
134
330
12A
100
AcDbXrecord
280
1
1000
\U+81ea\U+52d5
  0
XRECORD
  5
135
330
12A
100
AcDbXrecord
280
1
1000
\U+81ea\U+52d5
  0
XRECORD
  5
136
330
12A
100
AcDbXrecord
280
1
1000
\U+81ea\U+52d5
  0
XRECORD
  5
137
330
12A
100
AcDbXrecord
280
1
1000
\U+81ea\U+52d5
  0
XRECORD
  5
138
330
12A
100
AcDbXrecord
280
1
1000
\U+81ea\U+52d5
  0
XRECORD
  5
139
330
12A
100
AcDbXrecord
280
1
1000
\U+81ea\U+52d5
  0
XRECORD
  5
13A
330
12A
100
AcDbXrecord
280
1
1000
\U+81ea\U+52d5
  0
XRECORD
  5
13B
330
12A
100
AcDbXrecord
280
1
290
0
  0
XRECORD
  5
13C
330
12A
100
AcDbXrecord
280
1
290
0
  0
XRECORD
  5
13D
330
12A
100
AcDbXrecord
280
1
290
0
  0
XRECORD
  5
13E
330
12A
100
AcDbXrecord
280
1
290
0
  0
XRECORD
  5
13F
330
12A
100
AcDbXrecord
280
1
 90
65537
  0
XRECORD
  5
140
330
12A
100
AcDbXrecord
280
1
 90
65537
  0
XRECORD
  5
141
330
12A
100
AcDbXrecord
280
1
 90
65537
  0
XRECORD
  5
142
330
12A
100
AcDbXrecord
280
1
 90
65537
  0
XRECORD
  5
143
330
12A
100
AcDbXrecord
280
1
1000
\U+81ea\U+52d5
  0
XRECORD
  5
144
330
12A
100
AcDbXrecord
280
1
1000
\U+81ea\U+52d5
  0
XRECORD
  5
145
330
12A
100
AcDbXrecord
280
1
1000
\U+81ea\U+52d5
  0
XRECORD
  5
146
330
12A
100
AcDbXrecord
280
1
1000
\U+81ea\U+52d5
  0
XRECORD
  5
147
330
12A
100
AcDbXrecord
280
1
1000
\U+81ea\U+52d5
  0
XRECORD
  5
148
330
12A
100
AcDbXrecord
280
1
1000
\U+81ea\U+52d5
  0
XRECORD
  5
149
330
12A
100
AcDbXrecord
280
1
1000
\U+81ea\U+52d5
  0
XRECORD
  5
14A
330
12A
100
AcDbXrecord
280
1
1000
\U+81ea\U+52d5
  0
XRECORD
  5
14B
330
12A
100
AcDbXrecord
280
1
 90
1
  0
XRECORD
  5
14C
330
12A
100
AcDbXrecord
280
1
 40
10.0
  0
XRECORD
  5
14D
330
12A
100
AcDbXrecord
280
1
 40
10.0
  0
XRECORD
  5
14E
330
12A
100
AcDbXrecord
280
1
 40
10.0
  0
XRECORD
  5
14F
330
12A
100
AcDbXrecord
280
1
 40
10.0
  0
XRECORD
  5
150
330
12A
100
AcDbXrecord
280
1
290
0
  0
XRECORD
  5
151
330
12A
100
AcDbXrecord
280
1
 90
1
  0
XRECORD
  5
152
330
12A
100
AcDbXrecord
280
1
 40
0.0
  0
XRECORD
  5
153
330
12A
100
AcDbXrecord
280
1
 40
0.0
  0
XRECORD
  5
154
330
12A
100
AcDbXrecord
280
1
1000
Landscape
  0
XRECORD
  5
155
330
12A
100
AcDbXrecord
280
1
1000
594
  0
XRECORD
  5
156
330
12A
100
AcDbXrecord
280
1
1000
ISO A2
  0
XRECORD
  5
157
330
12A
100
AcDbXrecord
280
1
1000
420
  0
XRECORD
  5
158
330
12A
100
AcDbXrecord
280
1
1000
0.5
  0
XRECORD
  5
159
330
12A
100
AcDbXrecord
280
1
1000
1:1
  0
XRECORD
  5
15A
330
12A
100
AcDbXrecord
280
1
290
1
  0
XRECORD
  5
15B
330
12A
100
AcDbXrecord
280
1
290
0
  0
XRECORD
  5
15C
330
12A
100
AcDbXrecord
280
1
1000
Inside
  0
XRECORD
  5
15D
330
12A
100
AcDbXrecord
280
1
1000
Arial,10,-1,5,50,0,0,0,0,0
  0
XRECORD
  5
15E
330
12A
100
AcDbXrecord
280
1
1000
TopLeft
  0
XRECORD
  5
15F
330
12A
100
AcDbXrecord
280
1
1000
3.27.1
  0
XRECORD
  5
160
330
12A
100
AcDbXrecord
280
1
 90
4
  0
XRECORD
  5
162
330
12A
100
AcDbXrecord
280
1
 40
148.597376544647318
  0
XRECORD
  5
163
330
12A
100
AcDbXrecord
280
1
 40
305.9465004195315032
  0
ENDSEC
  0
EOF
